<?xml version="1.0" encoding="utf-8"?>
<!-- Generator: Adobe Illustrator 22.0.1, SVG Export Plug-In . SVG Version: 6.00 Build 0)  -->
<svg version="1.1" id="logo_x5F_cqssc" xmlns="http://www.w3.org/2000/svg" xmlns:xlink="http://www.w3.org/1999/xlink" x="0px"
	 y="0px" viewBox="0 0 50 50" style="enable-background:new 0 0 50 50;" xml:space="preserve">
<style type="text/css">
	.st0{fill:#FFFFFF;}
	.st1{opacity:0.4;fill:#FFFFFF;enable-background:new    ;}
</style>
<title>logo_cqssc</title>
<g>
	<g>
		<path class="st0" d="M21.1,32.8c-0.1,0.3-1.3,2.7-1.4,2.7h-1.6c0-0.3,1.3-2.7,1.4-2.7C20.1,32.8,20.5,32.8,21.1,32.8L21.1,32.8z"
			/>
		<path class="st0" d="M15.3,30.2h2.6l-0.8,5.6c-0.1,0.3,0.2,0.5,0.4,0.5c0,0,4.7,0,7.1,0c0,0.3,0,0.9,0,1.2c0,0-6.1,0-8.3,0
			c-0.4,0-0.9-0.2-1-0.9l0.6-5.3c-0.2,0-0.6,0-0.9,0L15.3,30.2L15.3,30.2z"/>
		<path class="st0" d="M21.1,27.7l-0.3,0.8c0.2,0,0.5,0,0.8,0l0.1-0.8h1.7v0.8h2.6v1h-2.7l-0.1,1.7h2.6v1h-1.9l-0.1,2.2h1.4v1.2
			c-1.1,0-2.2,0-2.2,0c-0.9,0.1-1-0.4-0.9-1l0.1-2.3h-3.7v-1h2.8c0.1-0.5,0.1-1.1,0.2-1.5c-0.5-0.1-0.3-0.1-1-0.2l-0.3,1h-1.6l1-2.8
			H21.1L21.1,27.7z"/>
		<path class="st0" d="M16,27.7c0.5,0,1.1,0,1.6,0c0.1,0.8,0.2,1.4,0.4,2.2h-1.6C16.2,29.1,16.1,28.4,16,27.7L16,27.7z"/>
		<path class="st0" d="M7.7,27.3L6.3,37.5H4c0-0.1-0.1-0.1-0.1-0.2l1.1-7c-0.5,0.1-1,0.3-1.5,0.4v-1.8L7.7,27.3L7.7,27.3z"/>
		<path class="st0" d="M12.5,37.5H9.9l1-7.1l-1.6,0.4l0.2-1.7l4.3-1.9C13.4,30.5,12.9,34.2,12.5,37.5L12.5,37.5z"/>
		<path class="st0" d="M28.2,24.4c2.7,0,5.4,0,8.1,0c-0.1,0.9-0.1,1.7-0.2,2.6h-5.5c-0.1,0.5-0.1,1.1-0.2,1.6c8.2,1,6.5,9-0.2,9
			h-3.6v-2.2h3.7c3.9-0.5,3-4.4-1-4.5h-1.9C27.6,28.7,28,26.5,28.2,24.4L28.2,24.4z"/>
		<path class="st0" d="M9.2,21.9c0.2-0.5,1.3-1,2.3,0.1c3.1,2.6,5.3,2.3,8.4,2.2C16.7,26,7.5,25.7,9.2,21.9L9.2,21.9z"/>
		<path class="st0" d="M20.5,23.4c-6.8,1.2-15.1-9-10.2-11c1-0.3,2.4-0.3,3,1.7C14.1,19,16.4,22.5,20.5,23.4L20.5,23.4z"/>
		<path class="st0" d="M31.1,12c11.7-0.5,16.8,9.3,15.8,16.4c-1.3,9.7-13.6,18.4-24.2,9.7c12.1,5.1,18.9-4.1,18.7-11.2
			c-0.2-6.2-7.7-10.8-14.7-4.2C19.3,26.6,15.2,13.9,31.1,12L31.1,12z"/>
		<path class="st0" d="M41.5,6c2.3,2.5-0.6,5-2.6,4.7c-1.4,0.1-9.6-3.1-18.3,4.3C24.6,5.1,37.6,1.6,41.5,6L41.5,6z"/>
		<path class="st0" d="M20.9,4.4c2,0,3.4,2.5,2.4,4.1c-4,3.8-6.5,10.1-2.5,14.6C12,18.1,15.5,4.4,20.9,4.4L20.9,4.4z"/>
		<path class="st0" d="M26.6,22.5c-0.9-6.1,12.2-8.4,16-0.4c2.4,4.5-0.1,12.2-5.9,15c4-3.3,5.2-8.3,4.3-12.2
			C40,21.6,34.5,15.7,26.6,22.5L26.6,22.5z"/>
		<path class="st1" d="M17.8,5.9c1.5,0.1,3.6,0.5,5.7,1.6c0-0.2,0-0.3,0-0.5c0-0.5-0.8-2.7-2.8-2.6C19.3,4.5,18.4,5.2,17.8,5.9
			L17.8,5.9z M25.5,8.6c1,0.6,1.9,1.4,2.9,2.3c1.2-0.3,4.3-1.1,8.3-0.4c0,0,0.8,0.1,1.4,0.2c-0.5-2.5-1.6-4.7-3.1-6.5
			C29,5,25.8,8.3,25.5,8.6L25.5,8.6z M29.7,12.2c1.7,1.8,3.3,4.2,5,7.2c0.8,0.1,2.2,0.4,3.8,1.6c0.3-2.5,0.3-5.2,0.1-7.9
			C37.4,12.8,34,11.6,29.7,12.2L29.7,12.2z"/>
	</g>
	<g>
		<path class="st0" d="M3,45.9c0.4-1,0.6-1.8,0.8-2.9h1.2c-0.1,1.1-0.4,2.2-0.8,2.9H3z M3.6,40.2l-0.5-1.6h1.2l0.5,1.6H3.6z
			 M3.7,42.5l-0.5-1.7h1.2l0.5,1.7H3.7z M5,45.8v-0.4H7v-5.9H5.3V39H10v0.4H8.2v5.9h2v0.4H5z"/>
		<path class="st0" d="M10.6,38.7H18v0.4h-2v1.1h1.4c0.3,0,0.5,0.2,0.5,0.5v4.5c0,0.3-0.2,0.5-0.5,0.5h-5.9c-0.3,0-0.5-0.2-0.5-0.5
			v-4.5c0-0.3,0.2-0.5,0.5-0.5h1.4v-1.1h-2L10.6,38.7z M12,44c0.6-1.1,0.8-1.7,0.8-2.7v-0.5h-0.4c-0.2,0-0.3,0.1-0.3,0.3V44z
			 M12,44.3v0.8c0,0.1,0.1,0.3,0.3,0.3h4c0.2,0,0.3-0.1,0.3-0.3v-0.8h-1.4c-0.3,0-0.5-0.2-0.5-0.5v-3.1H14v0.5
			c0,1.1-0.3,2.4-0.9,3.1H12z M13.9,40.3h0.8v-1.1h-0.8V40.3z M15.8,40.8v2.9c0,0.1,0.1,0.3,0.3,0.3h0.4v-2.9c0-0.1-0.1-0.3-0.3-0.3
			H15.8z"/>
	</g>
</g>
</svg>
