<?xml version="1.0" encoding="utf-8"?>
<!-- Generator: Adobe Illustrator 22.0.1, SVG Export Plug-In . SVG Version: 6.00 Build 0)  -->
<svg version="1.1" id="logo_x5F_cqssc" xmlns="http://www.w3.org/2000/svg" xmlns:xlink="http://www.w3.org/1999/xlink" x="0px"
	 y="0px" viewBox="0 0 50 50" style="enable-background:new 0 0 50 50;" xml:space="preserve">
<style type="text/css">
	.st0{fill:#FFFFFF;}
	.st1{opacity:0.4;fill:#FFFFFF;enable-background:new    ;}
</style>
<title>logo_cqssc</title>
<g>
	<g>
		<path class="st0" d="M21,32.9c-0.1,0.3-1.3,2.7-1.4,2.7H18c0-0.3,1.3-2.7,1.4-2.7C20,32.9,20.5,32.9,21,32.9L21,32.9z"/>
		<path class="st0" d="M15.1,30.3h2.6L17,35.9c-0.1,0.3,0.2,0.5,0.4,0.5c0,0,4.8,0,7.2,0c0,0.3,0,0.9,0,1.2c0,0-6.2,0-8.4,0
			c-0.4,0-0.9-0.2-1-0.9l0.7-5.3c-0.2,0-0.7,0-0.9,0L15.1,30.3L15.1,30.3z"/>
		<path class="st0" d="M21,27.8l-0.3,0.8c0.2,0,0.5,0,0.8,0l0.1-0.8h1.7v0.8h2.6v1h-2.7l-0.1,1.7h2.6v1h-2l-0.1,2.2H25v1.2
			c-1.1,0-2.2,0-2.2,0c-0.9,0.1-1-0.4-0.9-1l0.1-2.3h-3.7v-1h2.8c0.1-0.5,0.1-1.1,0.2-1.5c-0.5-0.1-0.3-0.1-1-0.2l-0.3,1h-1.6l1-2.8
			H21L21,27.8z"/>
		<path class="st0" d="M15.9,27.8c0.5,0,1.1,0,1.6,0c0.1,0.8,0.2,1.4,0.4,2.2h-1.6C16.1,29.2,16,28.4,15.9,27.8L15.9,27.8z"/>
		<path class="st0" d="M7.5,27.3L6.1,37.7H3.7c0-0.1-0.1-0.1-0.1-0.2l1.1-7.1c-0.5,0.1-1,0.3-1.5,0.4V29L7.5,27.3L7.5,27.3z"/>
		<path class="st0" d="M12.3,37.7H9.7l1-7.2l-1.6,0.4l0.2-1.7l4.4-2C13.3,30.6,12.7,34.3,12.3,37.7L12.3,37.7z"/>
		<path class="st0" d="M28.2,24.4c2.7,0,5.4,0,8.2,0c-0.1,0.9-0.1,1.7-0.2,2.6h-5.5c-0.1,0.5-0.1,1.1-0.2,1.6c8.3,1,6.5,9.1-0.2,9.1
			h-3.6v-2.2h3.7c3.9-0.5,3-4.5-1-4.6h-2C27.7,28.8,28,26.5,28.2,24.4L28.2,24.4z"/>
		<path class="st0" d="M9.1,21.9c0.2-0.5,1.3-1,2.3,0.1c3.2,2.6,5.3,2.3,8.5,2.2C16.6,26,7.3,25.7,9.1,21.9L9.1,21.9z"/>
		<path class="st0" d="M20.5,23.4c-6.9,1.2-15.2-9.1-10.3-11.1c1-0.3,2.4-0.3,3,1.7C13.9,19,16.3,22.4,20.5,23.4L20.5,23.4z"/>
		<path class="st0" d="M31.1,11.9c11.9-0.5,17,9.4,16,16.5c-1.3,9.8-13.7,18.6-24.5,9.8c12.2,5.1,19.1-4.1,18.9-11.3
			c-0.2-6.3-7.8-10.9-14.9-4.2C19.3,26.6,15,13.7,31.1,11.9L31.1,11.9z"/>
		<path class="st0" d="M41.7,5.8c2.3,2.5-0.7,5-2.6,4.8c-1.4,0.1-9.7-3.2-18.5,4.4C24.6,4.9,37.8,1.3,41.7,5.8L41.7,5.8z"/>
		<path class="st0" d="M20.8,4.2c2.1,0,3.5,2.5,2.4,4.1c-4,3.8-6.5,10.2-2.5,14.8C11.9,18,15.4,4.2,20.8,4.2L20.8,4.2z"/>
		<path class="st0" d="M26.6,22.4C25.7,16.2,38.9,14,42.8,22c2.4,4.6-0.1,12.3-6,15.1c4-3.4,5.2-8.4,4.4-12.3
			C40.2,21.6,34.6,15.6,26.6,22.4L26.6,22.4z"/>
		<path class="st1" d="M17.8,5.7c1.5,0.1,3.6,0.5,5.8,1.6c0-0.2,0-0.3,0-0.5c0-0.5-0.8-2.7-2.8-2.6C19.3,4.3,18.3,5,17.8,5.7
			L17.8,5.7z M25.5,8.4c1,0.7,2,1.4,2.9,2.3c1.2-0.3,4.4-1.1,8.4-0.4c0,0,0.8,0.1,1.4,0.2C37.7,8,36.6,5.7,35,4
			C29.1,4.8,25.8,8.1,25.5,8.4L25.5,8.4z M29.7,12.1c1.7,1.8,3.4,4.2,5,7.3c0.8,0.1,2.2,0.4,3.8,1.6c0.3-2.5,0.3-5.2,0.1-7.9
			C37.6,12.7,34.1,11.5,29.7,12.1L29.7,12.1z"/>
	</g>
</g>
<g>
	<path class="st0" d="M3.1,39.8h1.2v5.4c0,0.1,0.1,0.3,0.3,0.3h1.3v-6.9h1.2v6.9h1.3c0.1,0,0.3-0.1,0.3-0.3v-5.4h1.2v5.7
		c0,0.3-0.2,0.5-0.5,0.5H3.6c-0.3,0-0.5-0.2-0.5-0.5V39.8z"/>
	<path class="st0" d="M10.6,39.6h1.5l0.3-1h1.3l-0.4,1h4.6v0.4h-4.8l-0.8,1.7c0,0.1,0,0.2,0,0.2c0,0.1,0.1,0.1,0.2,0.1h1.2v-1.4h1.2
		v1.4h2.7v0.4h-2.7v2.8c0,0.3-0.2,0.5-0.5,0.5h-1.5v-0.4h0.7c0.1,0,0.3-0.1,0.3-0.3v-2.6h-2.3c-0.1,0-0.3-0.1-0.4-0.2
		C11,42.2,11,42,11,41.9l0.9-2h-1.3L10.6,39.6z M10.7,46c0.3-0.9,0.7-1.8,0.8-2.9h1.2c-0.2,1.1-0.4,2.1-0.8,2.8L10.7,46z M16.7,45.9
		c-0.3-0.9-0.7-1.8-0.9-2.8H17c0.2,1.1,0.4,2.1,0.9,2.8H16.7z"/>
</g>
</svg>
