<?xml version="1.0" encoding="utf-8"?>
<!-- Generator: Adobe Illustrator 21.1.0, SVG Export Plug-In . SVG Version: 6.00 Build 0)  -->
<svg version="1.1" id="logo_x5F_cqssc" xmlns="http://www.w3.org/2000/svg" xmlns:xlink="http://www.w3.org/1999/xlink" x="0px"
	 y="0px" width="49.3px" height="38.9px" viewBox="0 0 49.3 38.9" style="enable-background:new 0 0 49.3 38.9;"
	 xml:space="preserve">
<style type="text/css">
	.st0{fill:#FFFFFF;}
</style>
<title>logo_cqssc</title>
<g>
	<g>
		<path class="st0" d="M33.8,23.6c-0.7-0.3-1.4-0.6-2.2-0.9c3-2.3,6-4.5,9-6.7c-0.5-1-1.2-1.5-2.4-1.5c-2.9,0.1-5.9,0-8.8,0
			c-0.7,0-1.4,0.1-2.1,0.3c-1.5,0.4-2.4,1.6-2.4,3.2c2.8,0,5.7,0,8.7,0c-1.8,1.4-3.4,2.6-5,3.9c-0.6,0.5-1,1.2-1.6,2
			c0.6,0.2,0.9,0.3,1.2,0.5c0.5,0.4,1.1,0.8,1.4,1.4c1,1.7,0.8,3.5-0.7,4.8c-1.2,1.1-2.6,2-4,2.6c-2.8,1.2-5.7,2.3-8.5,3.4
			c-0.2,0.1-0.5,0.2-0.7,0.3c0,0.1,0.1,0.2,0.1,0.3c2.3-0.3,4.6-0.6,6.9-1c3.1-0.5,6.1-1.4,9-2.7c1.6-0.7,3.1-1.6,4.1-3.1
			C37.2,28,37.2,25.1,33.8,23.6z"/>
		<path class="st0" d="M19.1,26.4c1.7,0,3.4,0,5.1,0c0.1-0.9,0.1-1.7,0.2-2.6c-0.3-0.1-0.5-0.1-0.8-0.1c0.1-1.5,0.2-3,0.3-4.4
			c0-1.5-0.8-2.3-2.3-2.3c-0.7,0-1.4,0-2.1,0c0-0.6,0-1,0-1.5c-0.9,0-1.8,0-2.7,0c-0.1,0.5-0.1,1-0.2,1.5c-0.7,0-1.4,0-2.1,0
			c-0.1,0.9-0.1,1.8-0.2,2.7c0.5,0,1-0.1,1.4,0c0.3,0.1,0.7,0.4,0.7,0.6c0,1.1-0.1,2.2-0.2,3.4c-1,0-1.8,0-2.8,0
			c-0.1,0.9-0.1,1.8-0.2,2.7c0.8,0,1.6,0,2.4,0c-0.5,1.6-1.3,2.9-2.6,3.9c-0.2,0.2-0.4,0.4-0.5,0.6c-0.1,0.9,0,1.9,0,2.8
			C15.3,33.4,17.6,30.7,19.1,26.4z M19.5,19.7c1.6-0.2,1.8,0,1.7,1.4c-0.1,0.8-0.1,1.6-0.2,2.3c0,0-0.1,0.1-0.1,0.2
			c-0.5,0-1,0-1.6,0C19.3,22.3,19.4,21,19.5,19.7z"/>
		<path class="st0" d="M9,16.6c-0.7,0-1.4,0-2.3,0c-0.3,5.5-0.7,10.9-1,16.3c1.9,0.1,2.3-0.3,2.4-2c0.3-4.4,0.6-8.9,0.9-13.3
			C9,17.3,9,17,9,16.6z"/>
		<path class="st0" d="M34,22.5c2.7-1.4,5.5-2.8,8.3-4.3c-0.3-0.4-0.6-0.8-0.9-1.2c-2.5,1.8-5,3.6-7.5,5.4C34,22.4,34,22.5,34,22.5z
			"/>
		<path class="st0" d="M35,22.9c2.8-0.9,5.7-1.9,8.6-2.8c-0.3-0.4-0.5-0.8-0.7-1.1c-2.7,1.3-5.3,2.5-8,3.8C35,22.8,35,22.9,35,22.9z
			"/>
		<path class="st0" d="M13.2,22.2l0.2-3l-0.8,0c0,0,0,0-0.1,0c0.1-1.2,0.1-2.4,0.2-3.7c-1.1,0-2,0-3.1,0C9.3,21.6,8.9,27.7,8.5,34
			c0.5,0,0.9,0,1.3,0c1.3,0,1.7-0.4,1.8-1.7c0.1-0.9,0.1-1.7,0.2-2.6c0.2-2.5,0.3-5.1,0.5-7.5L13.2,22.2z"/>
		<path class="st0" d="M18.2,31.3c0,1.6,1.3,2.9,2.9,3c1.6,0,3-1.3,3-2.9c0-1.6-1.3-3-2.9-3C19.6,28.4,18.2,29.7,18.2,31.3z
			 M19.8,32.4c-0.3,0-0.6-0.2-0.6-0.6c0-0.3,0.2-0.6,0.6-0.6c0.3,0,0.6,0.2,0.6,0.6C20.4,32.1,20.1,32.4,19.8,32.4z M22.7,31.2
			c0.3,0,0.6,0.2,0.6,0.6c0,0.3-0.2,0.6-0.6,0.6c-0.3,0-0.6-0.2-0.6-0.6C22.1,31.5,22.3,31.2,22.7,31.2z M21.5,30.1
			c0,0.4-0.3,0.7-0.7,0.7s-0.7-0.3-0.7-0.7c0-0.4,0.3-0.7,0.7-0.7S21.5,29.7,21.5,30.1z"/>
	</g>
	<g>
		<path class="st0" d="M14,12.2c0.6-1.4,0.9-2.6,1.1-4.2l1.7,0c-0.2,1.6-0.6,3.1-1.1,4.2L14,12.2z M14.9,4l-0.7-2.3l1.7,0L16.7,4
			L14.9,4z M15.1,7.2l-0.8-2.5l1.7,0l0.8,2.5L15.1,7.2z M17,12.1l0-0.6l2.8,0l-0.1-8.6l-2.5,0l0-0.6l6.8,0l0,0.6l-2.6,0l0.1,8.6
			l2.9,0l0,0.6L17,12.1z"/>
		<path class="st0" d="M25,2.7l2,0l0-1.1l1.7,0l0,1.1l3.1,0l0-1.1l1.7,0l0,1.1l2,0l0,0.6l-2,0l0,1.1l-1.7,0l0-1.1l-3.1,0l0,1.1
			l-1.7,0l0-1.1l-2,0L25,2.7z M25.2,10.5l0.5-3.2l1.7,0l-0.5,3.2L25.2,10.5z M26.3,5.8l2,0c0-0.4,0.1-0.7,0.1-1.1l1.7,0
			c0,0.4-0.1,0.7-0.1,1.1l2.4,0c0.4,0,0.7,0.3,0.7,0.7l0,4.9c0,0.4-0.3,0.7-0.7,0.7l-2.5,0l0-0.6l1.2,0c0.2,0,0.4-0.2,0.4-0.4l0-4.2
			c0-0.2-0.2-0.4-0.4-0.4l-1.1,0c-0.2,1.9-0.6,3.8-1.3,5.7l-1.9,0c0.7-1.9,1.2-3.8,1.4-5.7l-2,0L26.3,5.8z M33.9,10.4l-0.4-3.2
			l1.7,0l0.4,3.2L33.9,10.4z"/>
	</g>
</g>
</svg>
