<?xml version="1.0" encoding="utf-8"?>
<!-- Generator: Adobe Illustrator 22.0.1, SVG Export Plug-In . SVG Version: 6.00 Build 0)  -->
<svg version="1.1" id="logo_x5F_cqssc" xmlns="http://www.w3.org/2000/svg" xmlns:xlink="http://www.w3.org/1999/xlink" x="0px"
	 y="0px" viewBox="0 0 50 50" style="enable-background:new 0 0 50 50;" xml:space="preserve">
<style type="text/css">
	.st0{fill:#FFFFFF;}
</style>
<title>logo_cqssc</title>
<g id="图层_2">
	<g id="top">
		<path class="st0" d="M12.1,39.6c-0.2,0.1-0.4,0.2-0.6,0.5c-0.2,0.3-0.2,0.6-0.2,0.8s0,0.6,0.2,0.8c0.2,0.1,0.4,0.2,0.6,0.1
			c0.2-0.1,0.4-0.2,0.6-0.5c0.2-0.3,0.2-0.6,0.2-0.9s0-0.5-0.2-0.6C12.5,39.5,12.2,39.5,12.1,39.6z"/>
		<polygon class="st0" points="12.3,40.1 11.3,40.4 11.3,44.1 14,43.2 14,42.2 12.3,42.9 		"/>
		<polygon class="st0" points="18.2,30.4 18.8,29 17.8,29.3 17.3,30.7 		"/>
		<polygon class="st0" points="5.4,31 6.3,30.7 6.8,29.3 5.8,29.6 		"/>
		<path class="st0" d="M27.6,37.3c0.1,0,0.1-0.1,0.2-0.2c0-0.1,0-0.2,0-0.3c0-0.1,0-0.2-0.1-0.2c-0.1,0-0.2,0-0.4,0l-0.5,0.2v0.8
			l0.5-0.2L27.6,37.3z"/>
		<polygon class="st0" points="20.2,24.9 19.2,25.3 18.8,26.7 19.7,26.3 		"/>
		<path class="st0" d="M7.4,30.7l1.5-4.3L9.8,26l0.4-1.1L4.8,27L0.4,39.4l5.3-2.1l2.5-7L7.4,30.7z M4.8,34.7l-0.9,0.4l0.5-1.4
			l0.9-0.4L4.8,34.7z M6.3,30.7l-0.9,0.4l0.5-1.4l0.9-0.4L6.3,30.7z"/>
		<path class="st0" d="M19.2,33l2.5-7l-0.8,0.4l1.5-4.3l0.8-0.4l0.4-1.1l-5.3,2.1l-4.4,12.5L19.2,33z M19.2,25.3l0.9-0.4l-0.5,1.4
			l-0.9,0.4L19.2,25.3z M18.7,29l-0.5,1.4l-0.9,0.4l0.6-1.5L18.7,29z"/>
		<path class="st0" d="M28.7,22.9l1.4-0.6l1.1-3.2l-1.4,0.6l0.9-2.6l-2.8,1.1L27,20.9l-4.3,1.7l-1.1,3.2l4.3-1.7l-0.4,1
			c0.3,0.5,0.3,1,0.1,1.5c-0.3,0.8-0.8,1.5-1.3,2.1l-0.4,1c0,0.2-0.1,0.3-0.2,0.4c-0.3,0.2-0.6,0.3-0.8,0.4l-1.2,0.5L20.5,34
			l3.7-1.4c0.4-0.1,0.6-0.4,0.8-0.6c0.2-0.2,0.4-0.5,0.6-0.8c0.3-0.6,0.5-1.1,0.6-1.7L28.7,22.9z"/>
		<path class="st0" d="M11.7,36.2c0.2-0.2,0.4-0.5,0.6-0.8c0.3-0.6,0.5-1.1,0.6-1.7l2.3-6.6l1.4-0.6l1.1-3.2L16.4,24l0.9-2.6
			l-2.8,1.1l-0.9,2.6l-4.3,1.7L8.2,30l4.3-1.6l-0.4,1c0.3,0.5,0.3,1,0.1,1.5c-0.3,0.8-0.8,1.5-1.3,2.1L10.5,34
			c0,0.2-0.1,0.3-0.2,0.4c-0.3,0.2-0.6,0.3-0.8,0.4l-1.1,0.5l-1.1,3.1l3.7-1.4C11.2,36.7,11.4,36.5,11.7,36.2z"/>
		<path class="st0" d="M22.9,28.6c0.8-0.3,1.5-0.9,1.8-1.8c0.3-0.9,0-1.6-0.8-1.5c-0.8,0.3-1.5,0.9-1.8,1.8
			C22,28,22.2,28.7,22.9,28.6z"/>
		<path class="st0" d="M9.6,32.9c0.8-0.3,1.5-0.9,1.8-1.8c0.3-0.9,0-1.6-0.8-1.5c-0.8,0.3-1.5,0.9-1.8,1.8C8.6,32.3,8.9,33,9.6,32.9
			z"/>
		<path class="st0" d="M28.2,36.6h0.1c0.1,0,0.2,0,0.3,0c0.1,0.1,0.1,0.1,0.2,0.2l0.6,0.9l1.2-0.5l-0.5-0.9c0-0.1-0.1-0.1-0.2-0.2
			C29.8,36,29.8,36,29.8,36c-0.1,0-0.2,0-0.3,0c0.1-0.1,0.3-0.2,0.4-0.3c0.1-0.2,0.3-0.3,0.3-0.5c0.1-0.2,0.1-0.4,0.1-0.6
			c0-0.2,0-0.4-0.2-0.6C29.9,34,29.9,34,29.7,34c-0.3,0-0.5,0.1-0.8,0.2l-1.8,0.6v3.7l1-0.4L28.2,36.6z M28.2,35.1l0.5-0.2
			c0.2-0.1,0.3-0.1,0.4,0c0.1,0.1,0.1,0.2,0.1,0.2c0,0.1,0,0.2-0.1,0.3c0,0.1-0.1,0.1-0.2,0.2l-0.3,0.2l-0.5,0.2L28.2,35.1z"/>
		<polygon class="st0" points="25.1,37.7 26.8,37.1 26.8,36.3 25.1,37 25.1,36.3 26.9,35.7 26.9,34.9 24.1,35.9 24.1,39.6 27,38.6 
			27,37.7 25.1,38.5 		"/>
		<path class="st0" d="M17.5,38.8c-0.4-0.2-0.9-0.2-1.3,0c-0.6,0.2-0.9,0.5-1.3,0.9c-0.3,0.5-0.5,1-0.5,1.6c0,0.4,0.1,0.8,0.2,1
			c0.1,0.2,0.4,0.4,0.6,0.4c0.3,0,0.6,0,0.9-0.2c0.4-0.1,0.6-0.3,0.9-0.6c0.3-0.3,0.5-0.6,0.6-0.8c0.1-0.4,0.2-0.8,0.2-1.1
			C17.9,39.5,17.8,39,17.5,38.8z M16.7,41.3c-0.1,0.2-0.3,0.4-0.6,0.5c-0.2,0.1-0.4,0.1-0.5-0.1c-0.2-0.2-0.2-0.5-0.2-0.8
			c0-0.3,0.1-0.6,0.2-0.8c0.1-0.2,0.3-0.4,0.5-0.5c0.2-0.1,0.4-0.1,0.6,0c0.2,0.2,0.2,0.5,0.2,0.6C16.9,40.6,16.9,41,16.7,41.3
			L16.7,41.3z"/>
		<polygon class="st0" points="32.5,36.5 32.5,34.9 33.8,32.3 32.7,32.8 32.1,34.3 31.3,33.2 30.2,33.7 31.5,35.4 31.5,36.9 		"/>
		<polygon class="st0" points="17.9,38.2 17.9,39 19,38.7 19,41.5 20.1,41.1 20.1,38.3 20.7,38 21.1,37.9 21.8,37.6 21.8,40.4 
			22.9,40.1 22.9,37.3 23.9,36.9 23.9,35.9 20.7,37.2 		"/>
		<polygon class="st0" points="38.9,19.2 41.6,18.1 41.6,15.4 38.9,16.6 		"/>
		<polygon class="st0" points="30.1,31.2 33.4,25 31.4,31 34.4,29.8 36.4,23.9 35.9,28.9 38.7,27.8 39.2,21.8 40.5,21.2 41.1,19.5 
			37.3,21 37.6,20.1 34.5,21.3 34.3,22.2 30.5,23.7 29.9,25.5 31.1,25 27.4,32.4 		"/>
		<polygon class="st0" points="35.1,18.3 35.1,20.8 37.9,19.7 37.9,16.9 35.2,18 35.6,17.3 39,16 41.5,15 42,14.8 43.4,12.2 
			40.4,13.3 40,13.9 36.8,15.2 34.4,16.2 34,16.4 30.5,22.5 33.3,21.4 		"/>
		<path class="st0" d="M44.6,29.8L44.6,29.8c-1.5-0.6-3.6-1.3-2.1-3.5c0.2-0.3,0.4-0.6,0.6-0.8c0.6-0.8,1-1.7,1.1-2.7
			c0-0.3,0-0.6-0.1-0.8c-1-5.1,3.6-10.5,5.1-12.2l-4.2,1.7H45c-1,1.2-1.7,2.7-2.1,4.3l0,0c-0.3,1-0.4,2.1-0.5,3.1
			c-0.1,2.8,0.9,3.6-1,7.1l0,0c-0.4,0.5-0.6,1-0.9,1.5c-0.6,1.2-1.1,2.7,0,3c1.8,0.5,3.8,2,0,5.1l0,0c-3.6,3.6-6.1,0.3-10.9,9.5h4.6
			c2.1-6.5,2.8-4.9,6.8-8.4l0,0l0.6-0.5c1.1-0.9,2-1.7,2.6-2.2c1.6-1.5,1.8-2.8,1-3.6C45.2,30.1,44.9,29.9,44.6,29.8z"/>
	</g>
</g>
<g>
	<path class="st0" d="M3.1,14.7l9.4-3.2v0.6l-3.7,1.3l0.2,2.7c0,0.1,0,0.2,0,0.3l4.4-1.5v0.6L9,16.9c0.6,1.6,2.3,2.7,4.7,3.6
		l-2.2,0.8c-1.2-0.5-2.4-1.2-3.3-2.2c-0.6,1.5-1.8,3.1-2.8,4.3l-2.2,0.8c2.1-2.4,3.6-4.7,4-6.6L2.8,19v-0.6l4.4-1.5
		c0-0.1,0-0.2,0-0.3l-0.2-2.7l-3.9,1.3C3.1,15.2,3.1,14.7,3.1,14.7z"/>
	<path class="st0" d="M14.7,12.5l-0.8-1.9l1.7-0.6l0.8,2L14.7,12.5z M15.1,15.4l-0.9-2.1l1.7-0.6l0.9,2.1L15.1,15.4z M14.3,20.5
		c0.5-1.5,0.8-2.7,0.9-4.3l1.7-0.6c-0.1,1.5-0.4,3.1-0.8,4.3L14.3,20.5z M19.8,18.6l-0.1-1.3l-2.3,0.8v-0.6l2.3-0.8l-0.1-1.2
		l-2.2,0.8v-0.6l2.2-0.8l-0.1-1l-2.1,0.8v-0.6l2.2-0.8l-0.2-1.1L17,13v-0.6l2.3-0.8l-0.1-1.4L17.1,11v-0.6l2.2-0.8l-0.1-0.8l1.8-0.6
		L21,9l2.2-0.7C23.6,8.1,24,8.4,24,8.8l0.1,1.3l0.3-0.1v0.6l-0.3,0.1l0.1,0.9c0,0.4-0.3,0.8-0.8,0.9l-2.2,0.8l0.1,1l2.8-1v0.6
		l-2.8,0.9l0.1,1.2l2.9-0.9v0.6l-2.9,0.9l0.1,1.3L19.8,18.6z M22.2,9.6c0-0.2-0.3-0.3-0.5-0.3L21,9.6l0.1,1.4l1.2-0.4L22.2,9.6z
		 M22,12.4c0.3-0.1,0.5-0.3,0.5-0.6v-0.6l-1.2,0.4v1.1L22,12.4z"/>
</g>
</svg>
