<?xml version="1.0" encoding="utf-8"?>
<!-- Generator: Adobe Illustrator 22.0.1, SVG Export Plug-In . SVG Version: 6.00 Build 0)  -->
<svg version="1.1" id="圖層_1" xmlns="http://www.w3.org/2000/svg" xmlns:xlink="http://www.w3.org/1999/xlink" x="0px" y="0px"
	 viewBox="0 0 50 50" style="enable-background:new 0 0 50 50;" xml:space="preserve">
<style type="text/css">
	.st0{fill:#FFFFFF;}
</style>
<path class="st0" d="M9.6,23c9.7-1,19.4-2.7,28.8-5.3c2.1-0.6,4.1-1.2,6.1-1.8c1.4-0.4,3-0.8,4.3-1.3c-6.9-0.9-13.9-1.7-20.8-0.9
	c-4.9,0.5-9.7,1.8-14.4,2.8c-0.2,0-4.2,1.1-4.2,1.1c-0.2,1.5-2.2,5.3-2.4,5.6C7.7,23.2,9.2,23,9.6,23z"/>
<path class="st0" d="M17.9,15.1l-0.3-1.2c0,0,5.5-2.5,6-2.6c1,0.4,3.5,1.6,4.3,2C24.2,13.7,20.8,14.4,17.9,15.1z"/>
<path class="st0" d="M15,15.8c0,0,2.4-5.4,5.5-6.8c-2-0.9-2-0.9-2-0.9s-4.6,2.1-8,8.8C13,16.2,13.2,16.1,15,15.8z"/>
<path class="st0" d="M23.5,25.5"/>
<path class="st0" d="M2.7,26.5H3l0.3-1.7h4l0.1-0.5h3.2l-0.1,0.5h3.5l0-0.5h2.9l0.1,0.9h0.4l0.1-0.7h7.7l-0.1,0.8c0,0,0.1,0,0.1,0
	l0.1-0.8h5.4c0.3,0,0.5-0.1,0.7-0.1c3.7-0.8,7.3-2,10.6-3.9c0.6-0.3,1.1-0.7,1.7-1c1.1-0.7,2-1.6,3-2.4c0.9-0.7,2.3-2.3,2.3-2.3
	c-4.1,1.6-5.9,2.2-9.5,3.2c-9.3,2.7-18.9,4.4-28.6,5.4C8.4,23.5,2.7,23.9,0.5,24c0,0.1,0,0.1,0,0.2c-0.1,0.6,0.1,1.3,0.3,1.8
	c0.1,0.2,0.5,1.4,0.7,1.3c0,0,0,0,0,0c0.4,0,0.7-0.1,1.1-0.1L2.7,26.5z"/>
<g>
	<path class="st0" d="M4.5,28.2h2.2l0.4,1h2.3l0.8-1h2.2l-0.8,1h1.6l-0.2,1H9.2L9.1,31h4.2l-0.2,1H8.9l-0.2,1H6.6l0.2-1H2.5l0.2-1
		h4.2l0.1-0.7H3.2l0.2-1H5L4.5,28.2z M8,24.7h2.2l-0.1,0.5h4l-0.2,1h-4l-0.1,0.7h4.3L14,28H3.1l0.2-1h4.3l0.1-0.7h-4l0.2-1h4L8,24.7
		z"/>
	<path class="st0" d="M13.2,32.9l0.2-1H14l0.7-4.2h-0.6l0.2-1.1h2.5l-1.1,6.3H13.2z M14.8,26.4l-0.1-1.6h1.8l0.1,0.9h0.3l-0.3,0.7
		H14.8z M16.4,32.9l-0.5-1h8.2l-0.8,1H16.4z M23.5,28.8l0.5,2.4h-1.8l-0.2-0.9l-0.5,0.9h-4.8l0.2-0.9l1.7-2.2H17l0.2-1h7.7l-0.2,1
		h-3.9L19,30.3h3l-0.3-1.5H23.5z M24.6,25l-0.2,1h-6.7l0.2-1H24.6z"/>
	<path class="st0" d="M25.8,24.9h6.9l-0.2,1.2l-4.9,5.6h7l-0.8,1.1h-8.7l0.2-1.1l5-5.6h-4.7L25.8,24.9z M32.2,31.2l-1-2.8h2l0.7,2.1
		h0.5l-0.4,0.7H32.2z M35.8,25.3l-2.5,2.8h-2l2.5-2.8H35.8z"/>
	<path class="st0" d="M40.6,25.1L39.2,33h-1.8l-0.2-0.9H38l0.5-2.7h-1.2L36.6,33H35l0.2-1.2h0.2l0.4-2.4h-0.2l0.2-0.9h0.2l0.6-3.4
		h0.4l0.2-0.4h1.4l-0.2,0.4H40.6z M37.1,31.6l0.1-1.5h0.9L38,31.6H37.1z M39,25.9h-1.2l-0.5,2.6h1.2L39,25.9z M37.7,28l0.1-1.5h0.9
		L38.6,28H37.7z M45.3,33h-3.4l-0.3-0.9L41.5,33h-2l0.2-1h0.4l0.5-2.7h-0.4l0.2-1.2h0.4l0.4-2.3h-0.4l0.2-1h2L42.3,28l-0.6,0.7
		l0.3,0.8l-0.4,2.6h4.3L45.3,33z M46,30.7l-0.2,0.9h-3.7l0.2-0.9h1.1l0.3-2h-1.2l0.2-0.9h1.2l0.3-1.8h-1l0.2-0.9H47l-0.5,0.9h-0.6
		l-0.3,1.8h1.1l-0.2,0.9h-1.1l-0.3,2H46z"/>
</g>
<g>
	<path class="st0" d="M9.9,34.4l-0.5,3.1h0.7l-0.2,0.4H8.2l0.6-3.5H9.9z"/>
	<path class="st0" d="M11.7,35.5l-0.3,1.9h0.8l-0.3,0.4h-1.6l0.4-2.3H11.7z M13.5,35.5l-0.3,1.9h0.3l-0.2,0.4H12l0.4-2.3H13.5z"/>
	<path class="st0" d="M16.4,36h-1.5l-0.3,1.5h1.5L16,37.9h-2.3l0.4-2.3h2.4L16.4,36z"/>
	<path class="st0" d="M18.8,35.5h1l-1.4,1.1l0.8,0.9h0.3l-0.2,0.4h-0.8l-1-1.1l-0.2,1.1h-1.1l0.6-3.5H18l-0.4,2h0L18.8,35.5z"/>
	<path class="st0" d="M21.2,35.5l-0.1,0.4l0.4,1l0.7-1l0.1-0.4h1L23.3,36l-2.2,2.7h-1L20,38.3h0.3l0.6-0.7L20.2,36l0.1-0.5H21.2z"/>
	<path class="st0" d="M27,37.4h0.3l-0.2,0.4h-1.2l0.2-1h-0.7l-0.1,0.6h0.7l-0.3,0.4h-1.4l0.3-1.5h1.6l0.1-0.5h-1.5l0-0.4h2.7
		L27,37.4z"/>
	<path class="st0" d="M29,35.5l-0.4,2.3h-1.1l0.4-2.3H29z M29.1,35.2H28l0.1-0.7h1.1L29.1,35.2z"/>
	<path class="st0" d="M28.9,37.9l0.4-2.3h1.6l0.2,0.4h-0.8L30,37.9H28.9z"/>
	<path class="st0" d="M32.3,36.4h1.4l-0.3,1.4h-2.1l-0.2-0.5h1.5l0.1-0.5h-1.3l0.2-1.4h2.3L33.7,36h-1.4L32.3,36.4z"/>
	<path class="st0" d="M35.2,35.6H37l-0.4,2.3h-1L36,36h-0.9l-0.3,1.9h-1.1l0.6-3.5h1.1L35.2,35.6z"/>
	<path class="st0" d="M38.4,35.5L38,37.9h-1.1l0.4-2.3H38.4z M38.5,35.2h-1.1l0.1-0.7h1.1L38.5,35.2z"/>
	<path class="st0" d="M39.2,38.8h-1.1l0.6-3.3h2.9l-0.4,2.3h-1.6l-0.2-0.4L39.2,38.8z M40.3,37.4l0.3-1.5h-0.8l-0.3,1.5H40.3z"/>
</g>
</svg>
