<?xml version="1.0" encoding="utf-8"?>
<!-- Generator: Adobe Illustrator 22.0.1, SVG Export Plug-In . SVG Version: 6.00 Build 0)  -->
<svg version="1.1" id="圖層_1" xmlns="http://www.w3.org/2000/svg" xmlns:xlink="http://www.w3.org/1999/xlink" x="0px" y="0px"
	 viewBox="0 0 50 50" style="enable-background:new 0 0 50 50;" xml:space="preserve">
<style type="text/css">
	.st0{fill:#FFFFFF;}
</style>
<g>
	<path class="st0" d="M18,7.8c0.1,0.4,0.2,1.2,0.3,2.5c0,0.3,0.1,0.5,0.1,0.7l0.4-1.4c0.9,0.2,1.7,0.5,2.3,0.8L20.6,12
		c-0.8-0.3-1.6-0.6-2.2-0.8c0.1,0.9,0.1,1.7,0.2,2.1c0.3-0.2,0.6-0.5,0.9-0.8l1.4,1.3c-1.5,1.3-3,2.7-4.5,4.1l-1.4-1.3
		c1.1-1.1,2.2-2.1,3.2-3.1l-1.5,0.1c-0.1-1.1-0.1-2.1-0.2-2.8c-0.4,0.7-0.6,1.4-0.8,2.1l-1.2-0.4v0.1c-0.3,0-0.5,0-0.8,0
		c0,0.2,0,0.4,0.1,0.6c0.4,0.1,0.8,0.1,1.1,0.1l-0.2,1.8c-0.3,0-0.6,0-0.8-0.1c0.1,0.6,0.1,1.3,0.1,1.9l-1.7,0.3
		C12,16.9,12,16.3,12,15.8c-0.1,0.2-0.2,0.4-0.4,0.5l-1.2-1.1c0.5-0.7,1-1.4,1.5-1.9c0-0.1,0-0.2,0-0.2c-0.3,0.1-0.6,0.1-0.9,0.2
		l-0.2-1.7c0.4-0.1,0.6-0.2,1-0.2c0-0.2,0-0.5-0.1-0.8c-0.2,0.1-0.4,0.1-0.6,0.1L10.6,9c1.1-0.2,2.1-0.4,3.1-0.6l0.5,1.6
		c-0.3,0.1-0.5,0.2-0.8,0.2c0,0.4,0.1,0.6,0.1,0.9c0.2,0,0.5,0,0.7,0l0.1,0.6c0.2-0.5,0.4-1,0.6-1.5l1.5,0.5c0-0.2-0.1-0.4-0.1-0.6
		c-0.1-0.8-0.2-1.6-0.3-2.4L18,7.8z"/>
	<path class="st0" d="M25.8,8.2c0.6,0.1,1.2,0.1,1.8,0.1c0-0.2,0-0.4-0.1-0.6l1.8-0.2c0,0.3,0.1,0.6,0.1,0.9
		c1.1,0.1,2.1,0.2,3.1,0.2l-0.1,1.6c-1-0.1-1.9-0.2-2.9-0.2c0,0.1,0,0.3,0,0.4h0.1c0.7,0,1.2,0.1,1.5,0.1c0.5,0.1,0.9,0.4,1.1,0.6
		c0.2,0.2,0.4,0.8,0.4,1.5v0.2c0,0.5-0.2,0.8-0.5,1.2c-0.2,0.2-0.5,0.4-0.9,0.5c0.5,0.4,1,0.8,1.4,1.3l-1.1,1.1
		c-0.4-0.5-0.9-0.9-1.5-1.4l0.9-0.9c-0.3,0.1-0.6,0.1-1.1,0.1c0.1,0.6,0.1,1.4,0.1,2l-0.7,0.1l0.2,0.8c-1.1,0.3-2,0.5-3,0.5H26
		c-0.9,0-1.7-0.2-2.4-0.5c-0.7-0.4-1.1-1.1-1.1-1.9c0-1.1,0.2-2.5,0.6-3.9l1.8,0.4c-0.4,1.2-0.6,2.2-0.6,3.2c0,0.4,0.2,0.6,0.5,0.9
		c0.3,0.2,0.8,0.3,1.5,0.3c0.6,0,1.2-0.1,1.8-0.2c0-0.5-0.1-1.1-0.1-1.6c-0.4,0-0.6-0.1-0.9-0.1l0.4,0.4c-0.5,0.4-1,0.9-1.5,1.4
		L25,15.2c0.4-0.4,0.8-0.7,1.2-1c-0.6-0.3-0.9-0.7-0.9-1.3c0-0.8,0.3-1.6,0.9-2.6l1.2,0.2c0.2,0,0.4-0.1,0.5-0.1
		c0-0.2,0-0.4-0.1-0.6c-0.7-0.1-1.5-0.1-2.1-0.2L25.8,8.2z M23.2,8.7c0.7,0.1,1.4,0.4,1.8,0.6l-0.5,1.6c-0.6-0.3-1.2-0.5-1.8-0.6
		L23.2,8.7z M27.9,13.1c0-0.4-0.1-0.7-0.1-1.1c-0.4,0.1-0.7,0.1-1.1,0.2c0,0.1,0,0.2,0,0.2c0,0.2,0.2,0.4,0.5,0.5
		C27.4,13,27.6,13,27.9,13.1 M29.6,11.9c0.1,0.4,0.1,0.8,0.1,1.2c0.2,0,0.4,0,0.5,0c0.2,0,0.4-0.1,0.5-0.2c0.1-0.1,0.2-0.2,0.2-0.3
		c0-0.3-0.1-0.5-0.4-0.6C30.4,12,30.1,11.9,29.6,11.9"/>
	<path class="st0" d="M5.4,19.4l3.7,0.4c-0.4,2.8-0.6,5.8-0.9,8.7c0.5-0.1,1.1-0.3,1.5-0.5l0.7,4c-0.9,0.3-1.7,0.6-2.5,0.8
		c-0.2,2.8-0.2,5.6-0.3,8.5l-3.7-0.4c0-2.7,0.1-5.2,0.2-7.7c-1.1,0-2-0.5-2.8-1.4c-0.6-0.7-0.9-1.7-0.9-3c0-2.4,0.4-4.5,1-6.4
		l3.2,0.8c-0.6,1.9-0.9,3.7-1,5.3c0,0.2,0.1,0.4,0.2,0.5c0.1,0.1,0.3,0.2,0.5,0.2C4.6,25.8,5,22.6,5.4,19.4 M17.6,20.9
		c1.4,0,2.6,0.4,3.5,1.2c0.8,0.8,1.3,1.8,1.3,3v0.5c0,1.1-0.1,2.6-0.4,4.4c-0.2,0.8-0.3,1.6-0.5,2.3c0.6,0,1.2,0,1.8,0l0.4,3.9
		c-3.1,0-6.2,0.1-9.3,0.4c-0.3,1.5-0.5,3-0.8,4.4l-4-0.9C9.9,39,10.1,38,10.2,37c-0.5,0.1-1.1,0.1-1.7,0.2l-0.4-3.9
		C9.1,33.2,10.1,33,11,33c0.5-2.6,0.9-5.1,1.4-7.4c-0.6,0.2-1.4,0.5-2,0.8l-1.4-4c0.6-0.2,1.7-0.5,3.2-0.9c0.4-0.1,0.8-0.2,1.2-0.2
		c0.2-0.9,0.4-1.8,0.6-2.7l3.8,0.8C17.7,19.9,17.6,20.4,17.6,20.9C17.5,20.9,17.6,20.9,17.6,20.9z M16.6,24.9
		c-0.5,2.5-1.1,5.1-1.5,7.6c0.6-0.1,1.2-0.1,1.9-0.1c0.4-1.2,0.6-2.3,0.8-3.4c0.2-1.4,0.4-2.4,0.4-3.3c0-0.2-0.1-0.5-0.4-0.6
		S17.2,24.9,16.6,24.9L16.6,24.9z M20.3,34.4c0.6,2.4,1,4.4,1.2,6.1l-3.7,0.6c-0.4-2.4-0.8-4.4-1.2-6.1L20.3,34.4z"/>
	<path class="st0" d="M37.2,27.9c1.4,0.6,2.5,1.7,3.3,3c0.9,1.5,0.9,3.1-0.1,4.8c-0.8,1.4-2,2.5-3.6,3.5c-3.4,2.1-7.4,2.8-11.9,2.3
		l0.4-4.6c3.9,0.2,6.9-0.3,9-1.6c0.7-0.4,1.1-0.8,1.3-1.1c0.2-0.4,0.1-0.9-0.2-1.5C35,32.1,33.6,32,31,32.4
		c-2.3,0.4-3.8,0.8-4.5,1.2l-1.2-4.6c2.9-0.8,5.2-1.6,6.8-2.6c1.5-0.9,2-1.7,1.5-2.4c-0.3-0.5-1.2-0.6-2.8-0.1
		c-1.2,0.4-2.4,1-3.6,1.7l-1.4-4.5c2.2-1.4,4.5-2.1,6.8-2.2c2.8-0.2,4.8,0.6,6,2.6C39.9,23.7,39.5,25.8,37.2,27.9"/>
	<path class="st0" d="M45.1,15.9c-0.5-0.2-0.9-0.1-1.4,0.1c-0.4,0.2-0.8,0.5-0.9,1c-0.1,0.2-0.1,0.4-0.1,0.6c0,0.8,0.5,1.4,1.2,1.7
		c0.2,0.1,0.4,0.1,0.6,0.1c0.7,0,1.4-0.5,1.7-1.2c0.1-0.2,0.1-0.4,0.1-0.6C46.3,16.8,45.9,16.2,45.1,15.9"/>
	<path class="st0" d="M43.1,21.7c-0.5-0.2-0.9-0.1-1.4,0.1c-0.4,0.2-0.8,0.5-0.9,1c-0.1,0.2-0.1,0.4-0.1,0.6c0,0.8,0.5,1.4,1.2,1.7
		c0.2,0.1,0.4,0.1,0.6,0.1c0.7,0,1.4-0.5,1.7-1.2c0.1-0.2,0.1-0.4,0.1-0.6C44.3,22.6,43.8,21.9,43.1,21.7"/>
	<path class="st0" d="M39.4,13.8c-0.9-0.4-1.9,0.1-2.3,1.1c-0.1,0.2-0.1,0.4-0.1,0.6c0,0.8,0.5,1.4,1.2,1.7c0.2,0.1,0.4,0.1,0.6,0.1
		c0.7,0,1.4-0.5,1.7-1.2c0.1-0.2,0.1-0.4,0.1-0.6C40.5,14.7,40.1,14.1,39.4,13.8"/>
	<path class="st0" d="M48.7,14l-10.8-4c-0.5-0.2-1.1-0.2-1.7,0.1c-0.5,0.2-0.9,0.6-1.1,1.2l-2,5.5c-0.1,0.4,0.1,0.7,0.4,0.8
		c0.2,0.1,0.4,0.1,0.5,0c0.2-0.1,0.3-0.2,0.4-0.4l2-5.5c0.2-0.5,0.7-0.7,1.2-0.5l10.8,4c0.5,0.2,0.7,0.7,0.5,1.2l-4,10.8
		c-0.2,0.5-0.7,0.7-1.2,0.5l-3.8-1.5c-0.2-0.1-0.4-0.1-0.5,0c-0.2,0.1-0.3,0.2-0.4,0.4c-0.1,0.4,0.1,0.6,3.7,2.2l0.5,0.2
		c0.2,0.1,0.5,0.1,0.7,0.1c0.9,0,1.7-0.5,2-1.4l4-10.8c0.1-0.2,0.1-0.5,0.1-0.7C50.1,15.1,49.6,14.3,48.7,14"/>
</g>
</svg>
