<?xml version="1.0" encoding="utf-8"?>
<!-- Generator: Adobe Illustrator 22.0.0, SVG Export Plug-In . SVG Version: 6.00 Build 0)  -->
<svg version="1.1" id="圖層_1" xmlns="http://www.w3.org/2000/svg" xmlns:xlink="http://www.w3.org/1999/xlink" x="0px" y="0px"
	 viewBox="0 0 190 150" style="enable-background:new 0 0 190 150;" xml:space="preserve">
<style type="text/css">
	.st0{fill:#FFFFFF;}
</style>
<title>logo_hwk3</title>
<g id="圖層_2_1_">
	<g id="logo_cqssc">
		<path class="st0" d="M132,92.2c-2.8-1.3-5.8-2.3-9-3.5l36.6-27.1c-2.1-4.2-4.9-6.1-9.8-5.9c-11.9,0.4-23.9,0.1-35.8,0.2
			c-2.8,0-5.7,0.4-8.4,1.1c-5.9,1.7-9.5,6.6-9.8,13.2H131c-7.2,5.6-13.9,10.5-20.3,15.8c-2.5,2.1-4.2,5.1-6.5,8
			c2.3,1,3.8,1.3,4.9,2.2c2.1,1.7,4.5,3.3,5.7,5.5c4,7.1,3.3,14.1-2.9,19.5c-4.9,4.4-10.5,8-16.4,10.8c-11.3,5.1-23,9.2-34.5,13.7
			l-2.8,1.1l0.3,1c9.3-1.3,18.7-2.4,27.9-4c12.6-2.1,24.8-5.8,36.5-10.9c6.5-2.9,12.7-6.5,16.5-12.7
			C145.8,109.9,145.9,98.3,132,92.2z"/>
		<path class="st0" d="M72.6,103.4h20.7c0.3-3.7,0.5-7.1,0.7-10.6l-3.1-0.6c0.4-6.2,1-12.1,1.1-18c0.1-6.2-3-9.2-9.2-9.2
			c-2.8,0-5.6,0-8.5,0v-6H63.1c-0.3,2-0.5,3.9-0.8,6.1h-8.5c-0.3,3.7-0.5,7.2-0.7,11c2.2,0,4-0.3,5.5,0.1c1.1,0.3,2.7,1.7,2.7,2.6
			c0,4.5-0.4,9-0.6,13.7H49.3c-0.2,3.7-0.4,7.2-0.6,10.9h9.9c-2.2,6.5-5.3,11.7-10.4,15.6c-0.8,0.6-1.8,1.6-1.9,2.5
			c-0.2,3.8-0.1,7.7-0.1,11.5C57,131.7,66.6,120.9,72.6,103.4z M74,76.3c6.4-0.7,7.2,0.1,6.7,5.8c-0.2,3.2-0.5,6.3-0.7,9.5
			c0,0.2-0.2,0.4-0.4,0.7h-6.7L74,76.3z"/>
		<path class="st0" d="M31.3,63.7h-9.2c-1.4,22.1-2.8,44.1-4.2,66c7.6,0.2,9.4-1.4,9.8-8c1.2-18,2.3-36.1,3.5-54.1
			C31.3,66.4,31.3,65.2,31.3,63.7z"/>
		<path class="st0" d="M133.1,87.7L167,70.1l-3.7-4.8l-30.5,21.7L133.1,87.7z"/>
		<path class="st0" d="M137.2,89.3l35-11.4c-1.1-1.8-2-3.1-2.9-4.6l-32.3,15.3L137.2,89.3z"/>
		<path class="st0" d="M48.6,86.5l0.7-12.2L46,74.1L45.7,74c0.3-5,0.6-9.8,0.9-14.8H34.2c-1.6,25-3.1,49.8-4.7,75h5.4
			c5.1,0,7-1.7,7.3-6.9c0.3-3.5,0.5-7,0.7-10.6c0.7-10.3,1.4-20.7,2-30.4L48.6,86.5z"/>
		<path class="st0" d="M68.8,123.6c0,6.6,5.4,12,12,12s12-5.4,12-12c0-6.5-5.2-11.8-11.6-12C74.5,111.4,68.9,116.8,68.8,123.6
			C68.8,123.5,68.8,123.5,68.8,123.6z M75.3,127.7c-1.4,0.1-2.5-1-2.6-2.3c-0.1-1.4,1-2.5,2.3-2.6c1.4-0.1,2.5,1,2.6,2.3
			c0,0,0,0,0,0C77.7,126.5,76.6,127.7,75.3,127.7z M87,123c1.4-0.1,2.5,1,2.6,2.3c0.1,1.4-1,2.5-2.3,2.6c-1.3,0.1-2.5-1-2.6-2.3
			C84.6,124.2,85.6,123.1,87,123C87,123,87,123,87,123z M82.2,118.4c0,1.6-1.3,2.9-2.9,2.9c-1.6,0-2.9-1.3-2.9-2.9s1.3-2.9,2.9-2.9
			c0,0,0,0,0,0C80.9,115.5,82.2,116.8,82.2,118.4z"/>
		<path class="st0" d="M51.2,21.4l8.1,0l0-6.4h6.4v6.4l28-0.2v2.6l-8.2,0.1c-0.4,6.5-3,11.1-7,14.5c5,1.6,10.2,2.4,15.5,2.4v4.5
			c-8,0.1-15.4-0.9-21.3-3.4c-5.8,2.6-13.2,3.6-21.2,3.7v-4.5c5.2-0.1,10.4-1,15.3-2.6c-4.1-3.3-6.8-8-7.3-14.5L51.2,24L51.2,21.4z
			 M51.4,16.6v-6c0-1.6,1.3-3,3-3L69,7.5V2.9h6.8v4.7l14.7-0.1c1.6,0,3,1.3,3,2.9v6l-6.8,0v-4.7c0-0.9-0.8-1.7-1.7-1.7l-25.1,0.1
			c-0.9,0-1.7,0.8-1.7,1.7v4.7L51.4,16.6z M72.6,35.4c3.8-2.7,6.2-6.9,6.5-11.6l-13.2,0.1C66.3,28.5,68.8,32.7,72.6,35.4z"/>
		<path class="st0" d="M100.9,45.2l-0.1-18.3h-4.6c1.5-3.2,2.8-6.4,3.9-9.8h-4c2.2-4.7,4-9.6,5.3-14.6h6c-0.6,2.8-1.4,5.5-2.4,8.2h3
			l-0.1-6.4h4.8v7.4c0,0.3,0.2,0.6,0.5,0.6c0,0,0.1,0,0.1,0h0.6l-0.1-9.9h5.6l0.1,9.9h0.6c0.3,0,0.6-0.2,0.6-0.6c0,0,0,0,0-0.1V4.2
			h4.8v7.6c0,1.6-1.3,3-2.9,3l-11.6,0.1c-1.7,0-3-1.3-3-3v-0.8c-0.8,3.3-1.8,6.6-3,9.7h1.8l0.1,24.3L100.9,45.2z M107.8,45.2
			c0.6-3.2,0.9-6.4,1.1-9.6h3.7c-0.2,3.2-0.5,6.4-1,9.6H107.8z M112.4,42.6h0.5c0.5,0,0.8-0.4,0.8-0.9v-7.9h-5.7v-2.6h3.6l2.2-4.1
			h-3.7c-1.2,0-2.1-1-2.1-2.2c0-0.3,0.1-0.6,0.2-0.9l2.5-5.1h-2.5v-2.6l16-0.1v2.6l-7.8,0l-2.5,5.1c-0.1,0.1-0.1,0.3,0,0.4
			c0.1,0.1,0.2,0.2,0.4,0.2h0.9l1.5-2.7h6.1l-5,9.4h1.9c0.2,0,0.5-0.1,0.6-0.3c0.2-0.2,0.2-0.5,0.2-0.7v-2.4h5.2v3
			c0.1,0.7-0.1,1.5-0.5,2.1c-0.5,0.6-1.2,1-2,1h-3.8v8.3c0,1.6-1.3,3-2.9,3h-4.2L112.4,42.6z M121.7,45.1c-0.5-3.2-0.9-6.4-1.2-9.6
			h3.7c0.2,3.2,0.6,6.4,1.1,9.6L121.7,45.1z M133.4,45c-0.4-1.2-0.8-2.3-1.2-3.5c-0.4,1.2-0.8,2.3-1.2,3.5h-5.4
			c1.5-4.2,2.9-8.3,4-12.5c-1-3.8-1.8-7.8-2.4-11.8h-2.4c1.3-6.1,2.2-12.2,2.5-18.4h5.4c-0.1,2-0.2,4.1-0.4,6.1h6.6v2.5h-0.5
			c-0.5,7.3-1.7,14.5-3.4,21.6c1.2,4.2,2.6,8.4,4.2,12.5L133.4,45z M132.1,20.6c0.6-3.1,1-6.4,1.3-9.7h-1.5
			c-0.2,1.4-0.3,2.8-0.6,4.1C131.5,16.9,131.8,18.7,132.1,20.6L132.1,20.6z"/>
	</g>
</g>
</svg>
