<?xml version="1.0" encoding="utf-8"?>
<!-- Generator: Adobe Illustrator 21.1.0, SVG Export Plug-In . SVG Version: 6.00 Build 0)  -->
<svg version="1.1" id="logo_x5F_cqssc" xmlns="http://www.w3.org/2000/svg" xmlns:xlink="http://www.w3.org/1999/xlink" x="0px"
	 y="0px" viewBox="0 0 190 150" style="enable-background:new 0 0 190 150;" xml:space="preserve">
<style type="text/css">
	.st0{fill:none;}
	.st1{fill:#FFFFFF;}
</style>
<title>logo_cqssc</title>
<g id="图层_2">
	<g id="top">
		<polygon class="st0" points="1.5,109.3 5.1,107.9 6.8,102.6 3.3,104 		"/>
		<path class="st0" d="M48.8,126.4c-0.7,0.4-1.4,0.7-2.1,1.8c-0.7,1.1-0.7,2.1-0.7,3.2s0,2.1,0.7,2.8c0.7,0.4,1.4,0.7,2.1,0.4
			s1.4-0.7,2.1-1.8c0.7-1.1,0.7-2.5,0.7-3.6c0-1.1,0-1.8-0.7-2.5C50.2,126.1,49.2,126.1,48.8,126.4z"/>
		<polygon class="st1" points="49.5,128.2 45.6,129.6 45.6,143.5 55.9,139.9 55.9,136.4 49.5,138.9 		"/>
		<path class="st1" d="M25.7,26.8l21-6c2.1-0.7,3.2-1.1,3.9-2.5l6-2.1c-0.7,2.5-2.5,4.6-5.3,5.3l-7.8,2.1v3.2l13.9-4.3v2.1L43.1,29
			v2.5l10.7-3.2c1.4-0.4,2.1,0.4,2.1,1.8l-0.7,9.6c0,1.4-1.1,2.8-2.5,3.2L42,46l-0.4,2.8L54.5,45v2.1L41.7,51l-0.4,3.2l13.9-4.3v2.1
			L21.4,62v-2.1l13.9-4.3l0.4-3.2l-12.4,3.9v-2.1L36,50.3l0.4-2.8l-10.7,3.2c-1.4,0.4-2.1-0.4-2.1-1.8l0.7-9.2
			c0-1.4,1.1-2.8,2.8-3.2l10.7-3.2v-2.5L23.9,35v-2.5l13.9-4.3l0.4-3.2L25.7,29V26.8z M30.7,47.5l6.4-1.8v-3.9l-7.8,2.1v2.5
			c0,0.4,0.4,1.1,0.7,1.1C30.3,47.8,30.3,47.5,30.7,47.5L30.7,47.5z M29.6,41.8l7.8-2.1l0.4-3.9l-6.4,1.8c-0.7,0.4-1.4,1.1-1.4,1.8
			L29.6,41.8z M50.2,37.8L42.4,40L42,43.9l6.4-1.8c0.7-0.4,1.4-1.1,1.4-1.8L50.2,37.8z M43.1,33.9l-0.4,3.9l7.8-2.1v-2.5
			c0-0.4-0.4-1.1-0.7-1.1h-0.4L43.1,33.9z"/>
		<path class="st1" d="M65.9,40.7c-0.4,3.6-1.1,6.8-2.8,10l-5.7,1.8c1.8-2.8,2.8-6.4,3.2-10L62,21.1c0-1.4,1.1-2.8,2.5-3.2l11.4-3.2
			l0.4-3.9l5-1.8L80.8,13l11.7-3.6v2.1l-24.2,7.1c-0.7,0.4-1.4,1.1-1.4,1.8L65.9,40.7z M68,28.6l8.9-2.5l0.4-6.4l5.3-1.8l-0.4,6.4
			l10-2.8v2.1l-9.2,2.8c1.4,5.7,3.9,11.4,7.1,16.4l-5.7,1.8c-2.1-3.2-3.9-6.4-5.3-10.3c-1.8,4.6-3.9,9.2-6.8,13.9l-5.7,1.8
			c3.9-6.8,7.1-13.9,9.6-21.3L68,31.1V28.6z"/>
		<polygon class="st0" points="71.9,91.6 74.1,86.2 70.5,87.3 68.4,92.6 		"/>
		<polygon class="st0" points="23.2,93.7 26.8,92.6 28.5,87.3 25,88.4 		"/>
		<path class="st0" d="M107.5,117.5c0.4,0,0.4-0.4,0.7-0.7c0-0.4,0-0.7,0-1.1s0-0.7-0.4-0.7s-0.7,0-1.4,0l-1.8,0.7v2.8l1.8-0.7
			L107.5,117.5z"/>
		<polygon class="st0" points="79.4,70.6 75.8,72 74.1,77.3 77.6,75.9 		"/>
		<path class="st1" d="M31,92.6l5.7-16.4l3.2-1.4l1.4-4.3l-20.3,7.8L4.3,125.7l20.3-7.8l9.6-26.7L31,92.6z M21.1,107.9l-3.6,1.4
			l1.8-5.3l3.6-1.4L21.1,107.9z M26.8,92.6L23.2,94l1.8-5.3l3.6-1.4L26.8,92.6z"/>
		<path class="st1" d="M75.8,101.5l9.6-26.7l-3.2,1.4l5.7-16.4l3.2-1.4l1.4-4.3L72.3,62l-16.7,47.3L75.8,101.5z M75.8,72l3.6-1.4
			l-1.8,5.3l-3.6,1.4L75.8,72z M73.7,86.2l-1.8,5.3L68.4,93l2.1-5.7L73.7,86.2z"/>
		<path class="st1" d="M111.8,63.1l5.3-2.1l4.3-12.1L116,51l3.6-10l-10.7,4.3l-3.6,10L89,61.7l-4.3,12.1l16.4-6.4l-1.4,3.9
			c1.1,1.8,1.1,3.9,0.4,5.7c-1.1,2.8-2.8,5.7-5,7.8l-1.4,3.9c0,0.7-0.4,1.1-0.7,1.4c-1.1,0.7-2.1,1.1-3.2,1.4l-4.3,1.8l-4.6,11.7
			L95,99.7c1.4-0.4,2.5-1.4,3.2-2.5c0.7-0.7,1.4-1.8,2.1-2.8c1.1-2.1,1.8-4.3,2.5-6.4L111.8,63.1z"/>
		<path class="st1" d="M47.4,113.6c0.7-0.7,1.4-1.8,2.1-2.8c1.1-2.1,1.8-4.3,2.5-6.4l8.9-24.9l5.3-2.1l4.3-12.1l-5.3,2.1l3.6-10
			l-10.7,4.3l-3.6,10L38.1,78l-4.3,12.1l16.4-6L48.8,88c1.1,1.8,1.1,3.9,0.4,5.7c-1.1,2.8-2.8,5.7-5,7.8l-1.8,3.6
			c0,0.7-0.4,1.1-0.7,1.4c-1.1,0.7-2.1,1.1-3.2,1.4l-4.3,1.8L30,121.4l14.2-5.3C45.2,115.4,46.3,114.7,47.4,113.6z"/>
		<path class="st1" d="M89.7,84.8c3.2-1.1,5.7-3.6,6.8-6.8c1.1-3.6,0-6-2.8-5.7c-3.2,1.1-5.7,3.6-6.8,6.8
			C86.1,82.3,87.2,85.2,89.7,84.8z"/>
		<path class="st1" d="M39.2,101.2c3.2-1.1,5.7-3.6,6.8-6.8c1.1-3.6,0-6-2.8-5.7c-3.2,1.1-5.7,3.6-6.8,6.8
			C35.3,98.7,36.7,101.5,39.2,101.2z"/>
		<path class="st1" d="M110,115h0.4c0.4,0,0.7,0,1.1,0c0.4,0.4,0.4,0.4,0.7,0.7l2.1,3.6l4.6-1.8l-1.8-3.6c0-0.4-0.4-0.4-0.7-0.7
			c-0.4-0.4-0.4-0.4-0.7-0.4c-0.4,0-0.7,0-1.1,0c0.4-0.4,1.1-0.7,1.4-1.1c0.4-0.7,1.1-1.1,1.1-1.8c0.4-0.7,0.4-1.4,0.4-2.1
			c0-0.7,0-1.4-0.7-2.1c-0.4-0.4-0.7-0.7-1.4-0.7c-1.1,0-1.8,0.4-2.8,0.7l-6.8,2.5v14.2l3.9-1.4L110,115z M110,109.3l1.8-0.7
			c0.7-0.4,1.1-0.4,1.4,0c0.4,0.4,0.4,0.7,0.4,0.7c0,0.4,0,0.7-0.4,1.1c0,0.4-0.4,0.4-0.7,0.7l-1.1,0.7l-1.8,0.7L110,109.3z"/>
		<polygon class="st1" points="98.2,119.3 104.6,116.8 104.6,114 98.2,116.4 98.2,114 105,111.5 105,108.6 94.3,112.5 94.3,126.4 
			105.4,122.5 105.4,119.3 98.2,122.1 		"/>
		<path class="st1" d="M69.1,123.2c-1.4-0.7-3.6-0.7-5,0c-2.1,0.7-3.6,1.8-5,3.6c-1.1,1.8-1.8,3.9-1.8,6c0,1.4,0.4,2.8,0.7,3.9
			c0.4,0.7,1.4,1.4,2.1,1.4c1.1,0,2.5,0,3.6-0.7c1.4-0.4,2.5-1.1,3.6-2.1c1.1-1.1,1.8-2.1,2.1-3.2c0.4-1.4,0.7-2.8,0.7-4.3
			C70.9,126.1,70.5,124.3,69.1,123.2z M66.2,132.8c-0.4,0.7-1.1,1.4-2.1,1.8c-0.7,0.4-1.4,0.4-1.8-0.4c-0.7-0.7-0.7-1.8-0.7-2.8
			c0-1.1,0.4-2.5,0.7-3.2c0.4-0.7,1.1-1.4,1.8-1.8c0.7-0.4,1.4-0.4,2.1,0c0.7,0.7,0.7,1.8,0.7,2.5C66.9,130.3,66.9,131.7,66.2,132.8
			L66.2,132.8z"/>
		<polygon class="st1" points="126.3,114.7 126.3,108.6 131.3,98.7 127,100.4 124.6,106.1 121.7,102.2 117.4,104 122.4,110.4 
			122.4,116.1 		"/>
		<polygon class="st1" points="70.9,121.1 70.9,124.3 74.8,122.9 74.8,133.5 79,132.1 79,121.4 81.5,120.4 82.9,120 85.4,118.9 
			85.4,129.6 89.7,128.2 89.7,117.5 93.6,116.1 93.6,112.5 81.5,117.2 		"/>
		<polygon class="st1" points="150.5,48.9 160.8,45 160.8,34.6 150.5,38.9 		"/>
		<polygon class="st1" points="117.1,94.8 129.5,70.9 122.1,93.7 133.4,89.1 140.9,67 139.1,85.9 149.8,81.6 151.6,58.8 156.6,56.7 
			158.7,49.9 144.5,55.6 145.5,52.4 133.8,57.1 133.1,60.3 118.5,65.9 116.4,72.7 121,70.9 106.8,99 		"/>
		<polygon class="st1" points="135.9,45.3 135.9,54.9 146.6,50.7 146.6,40.3 136.7,44.3 138.1,41.8 150.9,36.8 160.5,32.9 
			162.3,32.2 167.6,22.2 156.2,26.5 154.8,29 142.7,33.9 133.4,37.5 132,38.2 118.5,61.7 129.2,57.4 		"/>
		<path class="st1" d="M172.2,89.1L172.2,89.1c-5.7-2.1-13.9-5-7.8-13.2c0.7-1.1,1.4-2.1,2.1-3.2c2.5-2.8,3.9-6.4,4.3-10.3
			c0-1.1,0-2.1-0.4-3.2C166.5,40,184,19.4,190,13l-16,6.4h-0.4c-3.9,4.6-6.4,10.3-7.8,16.4l0,0c-1.1,3.9-1.4,7.8-1.8,11.7
			c-0.4,10.7,3.6,13.9-3.9,27l0,0c-1.4,1.8-2.5,3.9-3.6,5.7c-2.5,4.6-4.3,10.3,0,11.4c6.8,1.8,14.6,7.5,0,19.6l0,0
			c-13.5,13.5-23.1,1.1-41.3,36.3h17.4c7.8-24.5,10.7-18.5,26-32l0,0l2.5-1.8c4.3-3.6,7.5-6.4,10-8.5c6-5.7,6.8-10.7,3.9-13.9
			C174.4,90.1,173.3,89.8,172.2,89.1z"/>
	</g>
</g>
</svg>
