<?xml version="1.0" encoding="utf-8"?>
<!-- Generator: Adobe Illustrator 22.0.1, SVG Export Plug-In . SVG Version: 6.00 Build 0)  -->
<svg version="1.1" id="logo_x5F_cqssc" xmlns="http://www.w3.org/2000/svg" xmlns:xlink="http://www.w3.org/1999/xlink" x="0px"
	 y="0px" viewBox="0 0 50 50" style="enable-background:new 0 0 50 50;" xml:space="preserve">
<style type="text/css">
	.st0{fill:#FFFFFF;}
</style>
<title>logo_cqssc</title>
<g id="图层_2">
	<g id="top">
		<path class="st0" d="M12.3,39.9c-0.2,0.1-0.4,0.2-0.6,0.5c-0.2,0.3-0.2,0.6-0.2,0.8c0,0.3,0,0.6,0.2,0.7c0.2,0.1,0.4,0.2,0.6,0.1
			c0.2-0.1,0.4-0.2,0.6-0.5c0.2-0.3,0.2-0.6,0.2-0.9s0-0.5-0.2-0.6C12.7,39.8,12.4,39.8,12.3,39.9z"/>
		<polygon class="st0" points="12.5,40.4 11.5,40.8 11.5,44.3 14.1,43.4 14.1,42.5 12.5,43.1 		"/>
		<polygon class="st0" points="18.3,31 18.8,29.6 17.9,29.9 17.3,31.2 		"/>
		<polygon class="st0" points="5.7,31.5 6.6,31.2 7.1,29.9 6.2,30.1 		"/>
		<path class="st0" d="M27.4,37.6c0.1,0,0.1-0.1,0.2-0.2c0-0.1,0-0.2,0-0.3c0-0.1,0-0.2-0.1-0.2s-0.2,0-0.4,0l-0.5,0.2v0.7l0.5-0.2
			L27.4,37.6z"/>
		<polygon class="st0" points="20.2,25.6 19.3,25.9 18.8,27.3 19.7,26.9 		"/>
		<path class="st0" d="M7.7,31.2L9.2,27l0.8-0.4l0.4-1.1l-5.2,2L0.9,39.7l5.2-2l2.5-6.9L7.7,31.2z M5.2,35.2l-0.9,0.4l0.5-1.4
			l0.9-0.4L5.2,35.2z M6.6,31.2l-0.9,0.4l0.5-1.4l0.9-0.4L6.6,31.2z"/>
		<path class="st0" d="M19.3,33.5l2.5-6.9L20.9,27l1.4-4.2l0.8-0.4l0.4-1.1l-5.2,2l-4.3,12.2L19.3,33.5z M19.3,25.9l0.9-0.4L19.7,27
			l-0.9,0.4L19.3,25.9z M18.7,29.6L18.3,31l-0.9,0.4l0.6-1.5L18.7,29.6z"/>
		<path class="st0" d="M28.5,23.6l1.4-0.6L31,20l-1.4,0.6l0.9-2.6l-2.7,1.1l-0.9,2.6l-4.2,1.7l-1.1,3.1l4.2-1.7l-0.4,1
			c0.3,0.5,0.3,1,0.1,1.5c-0.3,0.7-0.7,1.5-1.3,2l-0.4,1c0,0.2-0.1,0.3-0.2,0.4c-0.3,0.2-0.6,0.3-0.8,0.4l-1.1,0.5l-1.2,3l3.7-1.4
			c0.4-0.1,0.6-0.4,0.8-0.6c0.2-0.2,0.4-0.5,0.6-0.7c0.3-0.6,0.5-1.1,0.6-1.7L28.5,23.6z"/>
		<path class="st0" d="M12,36.6c0.2-0.2,0.4-0.5,0.6-0.7c0.3-0.6,0.5-1.1,0.6-1.7l2.3-6.4l1.4-0.6l1.1-3.1l-1.4,0.6l0.9-2.6
			l-2.7,1.1l-0.9,2.6l-4.2,1.7l-1.1,3.1l4.2-1.6l-0.4,1c0.3,0.5,0.3,1,0.1,1.5c-0.3,0.7-0.7,1.5-1.3,2l-0.5,0.9
			c0,0.2-0.1,0.3-0.2,0.4c-0.3,0.2-0.6,0.3-0.8,0.4l-1.1,0.5l-1.1,3l3.7-1.4C11.4,37.1,11.7,36.9,12,36.6z"/>
		<path class="st0" d="M22.8,29.2c0.8-0.3,1.5-0.9,1.7-1.7c0.3-0.9,0-1.6-0.7-1.5c-0.8,0.3-1.5,0.9-1.7,1.7
			C21.9,28.6,22.2,29.3,22.8,29.2z"/>
		<path class="st0" d="M9.8,33.4c0.8-0.3,1.5-0.9,1.7-1.7c0.3-0.9,0-1.6-0.7-1.5C10,30.5,9.4,31.1,9.1,32
			C8.8,32.8,9.2,33.5,9.8,33.4z"/>
		<path class="st0" d="M28,37h0.1c0.1,0,0.2,0,0.3,0c0.1,0.1,0.1,0.1,0.2,0.2l0.6,0.9l1.2-0.5l-0.5-0.9c0-0.1-0.1-0.1-0.2-0.2
			c-0.1-0.1-0.1-0.1-0.2-0.1c-0.1,0-0.2,0-0.3,0c0.1-0.1,0.3-0.2,0.4-0.3c0.1-0.2,0.3-0.3,0.3-0.5c0.1-0.2,0.1-0.4,0.1-0.6
			c0-0.2,0-0.4-0.2-0.6c-0.1-0.1-0.2-0.2-0.4-0.2c-0.3,0-0.5,0.1-0.7,0.2L27,35.2v3.7l1-0.4L28,37z M28,35.5l0.5-0.2
			c0.2-0.1,0.3-0.1,0.4,0c0.1,0.1,0.1,0.2,0.1,0.2c0,0.1,0,0.2-0.1,0.3c0,0.1-0.1,0.1-0.2,0.2l-0.3,0.2l-0.5,0.2L28,35.5z"/>
		<polygon class="st0" points="25,38.1 26.7,37.5 26.7,36.7 25,37.4 25,36.7 26.8,36.1 26.8,35.3 24,36.4 24,39.9 26.8,38.9 
			26.8,38.1 25,38.8 		"/>
		<path class="st0" d="M17.5,39.1c-0.4-0.2-0.9-0.2-1.3,0c-0.6,0.2-0.9,0.5-1.3,0.9c-0.3,0.5-0.5,1-0.5,1.6c0,0.4,0.1,0.7,0.2,1
			c0.1,0.2,0.4,0.4,0.6,0.4c0.3,0,0.6,0,0.9-0.2c0.4-0.1,0.6-0.3,0.9-0.6c0.3-0.3,0.5-0.6,0.6-0.8c0.1-0.4,0.2-0.7,0.2-1.1
			C18,39.8,17.9,39.4,17.5,39.1z M16.8,41.6c-0.1,0.2-0.3,0.4-0.6,0.5c-0.2,0.1-0.4,0.1-0.5-0.1c-0.2-0.2-0.2-0.5-0.2-0.7
			c0-0.3,0.1-0.6,0.2-0.8c0.1-0.2,0.3-0.4,0.5-0.5s0.4-0.1,0.6,0c0.2,0.2,0.2,0.5,0.2,0.6C17,40.9,17,41.3,16.8,41.6L16.8,41.6z"/>
		<polygon class="st0" points="32.3,36.9 32.3,35.3 33.5,32.8 32.4,33.2 31.8,34.7 31.1,33.7 30,34.1 31.2,35.8 31.2,37.3 		"/>
		<polygon class="st0" points="18,38.5 18,39.4 19,39 19,41.7 20.1,41.4 20.1,38.6 20.7,38.4 21.1,38.3 21.7,38 21.7,40.8 
			22.8,40.4 22.8,37.6 23.8,37.3 23.8,36.4 20.7,37.6 		"/>
		<polygon class="st0" points="38.5,20 41.1,19 41.1,16.3 38.5,17.4 		"/>
		<polygon class="st0" points="29.9,31.8 33.1,25.7 31.2,31.5 34.1,30.3 36,24.6 35.5,29.5 38.3,28.4 38.7,22.5 40,22 40.6,20.2 
			36.9,21.7 37.2,20.9 34.2,22.1 34,22.9 30.3,24.4 29.7,26.1 30.9,25.7 27.2,32.9 		"/>
		<polygon class="st0" points="34.7,19.1 34.7,21.5 37.5,20.4 37.5,17.8 34.9,18.8 35.3,18.2 38.6,16.9 41,15.9 41.5,15.7 
			42.9,13.1 39.9,14.2 39.6,14.9 36.5,16.2 34.1,17.1 33.7,17.2 30.3,23.3 33,22.2 		"/>
		<path class="st0" d="M44.1,30.3L44.1,30.3c-1.5-0.6-3.6-1.3-2-3.4c0.2-0.3,0.4-0.6,0.6-0.8c0.6-0.7,1-1.7,1.1-2.6
			c0-0.3,0-0.6-0.1-0.8c-1-4.9,3.5-10.2,5-11.9l-4.1,1.6h-0.1c-1,1.2-1.7,2.6-2,4.2l0,0c-0.3,1-0.4,2-0.5,3c-0.1,2.7,0.9,3.6-1,6.9
			l0,0c-0.4,0.5-0.6,1-0.9,1.5c-0.6,1.2-1.1,2.6,0,2.9c1.7,0.5,3.8,1.9,0,5l0,0c-3.5,3.5-5.9,0.3-10.6,9.3h4.5
			c2-6.3,2.7-4.8,6.7-8.2l0,0l0.6-0.5c1.1-0.9,1.9-1.7,2.6-2.2c1.6-1.5,1.7-2.7,1-3.6C44.6,30.6,44.3,30.5,44.1,30.3z"/>
	</g>
</g>
<g>
	<path class="st0" d="M5.8,16.6V16l1.6-0.6l-0.1-0.9L8.8,14l0.1,0.9l1.6-0.6v0.6L5.8,16.6z M7.5,23.4L7.5,23.4
		c0.3-0.1,0.4-0.3,0.4-0.5l-0.2-2.8l-1.6,0.6v-0.6l1.7-0.6l-0.2-1l-1.7,0.6v-0.6l0.6-0.2L6.1,17l1.5-0.5l0.3,1.4l0.7-0.3L8.7,16
		l1.5-0.5L10,17.1l0.6-0.2v0.6l-1.6,0.6l0.1,1l1.7-0.6v0.6l-1.7,0.6l0.2,3c0,0.4-0.3,0.7-0.6,0.9L7.5,24L7.5,23.4L7.5,23.4z
		 M6.2,24.2c0.1-1.1,0.1-2.1,0.1-3l1.1-0.5c0,1,0,2-0.1,3L6.2,24.2z M9.8,22.9C9.7,22,9.5,21,9.4,20.1l1.1-0.4
		c0.1,0.9,0.3,1.8,0.5,2.8L9.8,22.9z M13.9,21.8L13.5,16l-0.9,0.3l0.2,3.4c0.1,0.8,0.1,1.7-0.2,2.6l-1.5,0.4
		c0.3-0.9,0.2-1.7,0.1-2.6l-0.4-5.7c0-0.4,0.3-0.7,0.6-0.8l1.6-0.5c0.6-0.2,0.8-0.3,1-0.7l1.5-0.5c-0.1,0.7-0.5,1.1-1.4,1.4
		l-1.4,0.5c-0.2,0.1-0.4,0.3-0.4,0.5l0.1,1.6l3.2-1.1v0.6l-0.8,0.3l0.4,5.8L13.9,21.8z"/>
	<path class="st0" d="M18.4,11.9c0-0.1-0.1-0.2-0.3-0.2l-1.9,0.6v-0.6l3-1c0.4-0.1,0.6,0.1,0.6,0.4l0.1,1.6c0,0.4-0.3,0.7-0.6,0.8
		l-1.1,0.4c-0.2,0.1-0.4,0.3-0.4,0.5l0.1,1c0,0.2,0.2,0.3,0.4,0.3l1-0.3c0.4-0.1,0.6,0.1,0.6,0.4l0.2,3.3c0,0.4-0.3,0.7-0.6,0.8
		l-2,0.7V20l0.8-0.3c0.1-0.1,0.2-0.2,0.2-0.3l-0.2-2.9c0-0.1-0.1-0.2-0.3-0.2l-1.3,0.5c-0.4,0.1-0.6-0.1-0.6-0.4l-0.1-1.7
		c0-0.3,0.3-0.7,0.6-0.8l1.5-0.6c0.2,0,0.3-0.2,0.3-0.3L18.4,11.9z M16.6,20v-0.6l0.3-0.1l-0.1-1.1l-0.3,0.1v-0.6l0.3-0.1V17
		l1.3-0.5v0.6l0.3-0.1v0.6l-0.3,0.1l0.1,1l0.3-0.1v0.6L16.6,20z M20,10.6l6.1-2v0.5l-6.1,2V10.6z M20.3,12c0-0.4,0.3-0.7,0.6-0.8
		l4.5-1.5c0.4-0.1,0.6,0.1,0.7,0.5l0.1,1.7c0,0.4-0.3,0.7-0.6,0.8l-4.5,1.5c-0.4,0.1-0.6-0.1-0.7-0.5L20.3,12z M20.3,14.8l6.1-2v0.6
		l-6.1,2V14.8z M20.4,16.2c0-0.4,0.3-0.7,0.6-0.8l4.5-1.5c0.4-0.1,0.6,0.1,0.7,0.5l0.1,1.8c0,0.4-0.3,0.7-0.6,0.8l-4.5,1.5
		c-0.4,0.1-0.6-0.1-0.7-0.5L20.4,16.2z M20.5,19l6.1-2v0.6l-6.1,2C20.5,19.5,20.5,19,20.5,19z M21.6,12.2l0.8-0.3v-0.7l-0.5,0.2
		c-0.2,0.1-0.3,0.2-0.3,0.4V12.2z M22.5,13.1v-0.7l-0.8,0.3v0.5c0,0.2,0.2,0.3,0.3,0.2L22.5,13.1z M21.9,16.4l0.7-0.3v-0.7l-0.6,0.2
		c-0.2,0.1-0.3,0.2-0.3,0.4L21.9,16.4z M22.7,17.4v-0.7L21.9,17v0.5c0,0.2,0.2,0.3,0.3,0.2L22.7,17.4z M24.7,10.7
		c0-0.2-0.1-0.3-0.3-0.2l-0.5,0.2v0.7l0.8-0.3L24.7,10.7z M24.6,12.5c0.2-0.1,0.3-0.2,0.3-0.4v-0.5L23.9,12v0.7L24.6,12.5z M24.9,15
		c0-0.2-0.1-0.3-0.3-0.2L24.1,15v0.7l0.8-0.3L24.9,15L24.9,15z M24.8,16.7c0.2-0.1,0.3-0.2,0.3-0.4v-0.5l-0.8,0.3v0.7L24.8,16.7z"/>
</g>
</svg>
