<?xml version="1.0" encoding="utf-8"?>
<!-- Generator: Adobe Illustrator 22.0.1, SVG Export Plug-In . SVG Version: 6.00 Build 0)  -->
<svg version="1.1" id="logo_x5F_cqssc" xmlns="http://www.w3.org/2000/svg" xmlns:xlink="http://www.w3.org/1999/xlink" x="0px"
	 y="0px" viewBox="0 0 50 50" style="enable-background:new 0 0 50 50;" xml:space="preserve">
<style type="text/css">
	.st0{fill:#FFFFFF;}
</style>
<title>logo_cqssc</title>
<g>
	<path class="st0" d="M11.7,33.5L11.7,33.5l1.8-0.1c1.4,0,2.3-0.4,3-1.1c0.3-0.3,0.5-0.7,0.7-1.1c0.2-0.5,0.3-1.1,0.3-1.8
		c0-1.2-0.3-2.3-0.9-2.9c-0.3-0.5-0.8-0.7-1.4-0.9h-0.1c-0.1,0-0.2,0-0.3-0.1c0,0,0,0-0.1,0s-0.2,0-0.4,0l0,0c-0.1,0-0.3,0-0.4,0
		H8.4v12.7h3.3V33.5z M11.7,28h0.9c0.7,0,1,0.2,1.2,0.4c0.3,0.3,0.4,0.7,0.4,1c0,0.5-0.1,0.8-0.4,1c-0.2,0.3-0.7,0.4-1.3,0.4h-0.8
		C11.6,30.8,11.6,28,11.7,28z"/>
	<polygon class="st0" points="21,35 22.6,32.8 23,33.5 24.9,38.1 28.9,38.1 24.9,30.2 28.9,25.4 24.9,25.4 24.5,25.4 21,30.2 
		21,25.4 17.6,25.4 17.6,38.1 21,38.1 	"/>
	<g>
		<path class="st0" d="M44.8,21.8h-2.9c-0.2,0-0.3,0.1-0.3,0.2l-0.2,1c0,0.2,0.1,0.2,0.2,0.2h2.9c0.2,0,0.3-0.1,0.3-0.2l0.2-1
			C45.1,21.9,44.9,21.8,44.8,21.8z"/>
		<path class="st0" d="M47.9,21.2c-0.4-0.9-1-1.8-1.6-2.6c-3.7-4.7-9.7-6.4-15.1-4.6c-3.2-4-8-6.5-13.5-6.5
			C8.2,7.4,0.5,15.2,0.5,24.8c0,2.9,0.7,5.5,1.9,7.9c2.8,5.8,8.7,9.9,15.6,9.9c3.8,0,7.4-1.2,10.2-3.4c4.8,3.1,11.2,3.1,16-0.7
			C49.6,34.3,50.9,27,47.9,21.2z M40.1,20.9c-0.4,1-0.8,1.9-1.3,2.7h-1c0.5-0.8,0.9-1.7,1.3-2.7C39.1,21,40.1,21,40.1,20.9z
			 M40.6,24.1h1c-0.3,0.8-0.7,1.5-1.1,2.1h-1C39.8,25.6,40.2,24.9,40.6,24.1z M32.9,24.8l1.7-0.5l0.5-2.5h-1.6l0.2-0.3h1.5l0.3-1.5
			h1l-1.2,6.4h-1l0.2-1.3l-1.7,0.4L32.9,24.8z M35.8,38.3h-3.6h-1.8v-0.4h1.8V30v-0.1c0-0.1-0.1-0.1-0.1-0.2c0,0,0,0-0.1-0.1
			c-0.1-0.1-0.2-0.1-0.5-0.1c-0.8,2.2-2.1,4.1-3.7,5.7l1.3,2.6c0.1,0.1,0.1,0.3,0,0.4c-0.1,0.1-0.2,0.2-0.3,0.2h-4
			c-0.2,0-0.3-0.1-0.4-0.2l-0.1-0.4c-2.7,1.4-5.9,1.9-9.2,1.4c-1.1-0.2-2.2-0.5-3.1-0.9c-0.1,0.1-0.2,0.2-0.3,0.2H8.4
			c-0.2,0-0.4-0.2-0.4-0.4v-2.3c-3.8-3.3-5.9-8.4-5-13.7C4.4,14,12,8.6,20.1,10s13.5,9,12.1,17.1c-0.1,0.7-0.3,1.4-0.5,2.1
			c0.1,0,0.2,0,0.3,0c0.5,0,1-0.1,1.6-0.2l0,0c0.1,0,0.1,0,0.2,0h0.6v8.9l0,0h1.5V38.3z M36.3,25.8l1.1-5.8h1l-1,5.7
			c0,0.2,0.1,0.2,0.2,0.2h1.6l-0.1,0.4h-2.4C36.4,26.2,36.3,26,36.3,25.8z M43.8,35.5c-0.2,0.5-0.4,1-0.8,1.5
			c-0.3,0.4-0.8,0.8-1.2,1c-0.4,0.3-0.9,0.3-1.3,0.3c-0.5,0-0.9-0.1-1.3-0.3c-0.4-0.3-0.8-0.6-1.2-1s-0.6-0.9-0.8-1.6
			C37,34.8,37,34.3,37,33.7c0-0.6,0.1-1.2,0.2-1.8c0.2-0.6,0.4-1.1,0.8-1.5c0.3-0.4,0.8-0.8,1.2-1c0.4-0.3,0.9-0.3,1.4-0.3
			s1,0.1,1.4,0.3c0.4,0.2,0.8,0.6,1.2,1.2c0.3,0.4,0.6,0.9,0.8,1.5c0.2,0.6,0.2,1.1,0.2,1.8C43.9,34.5,43.8,35.2,43.8,35.5z
			 M44.8,26.3c-0.2-0.6-0.3-1.4-0.3-2.1h1c0,0.8,0.1,1.5,0.3,2.1H44.8z M45.8,23.2c0,0.2-0.2,0.4-0.5,0.4h-1.7l-0.4,2.1
			c-0.1,0.2-0.3,0.5-0.5,0.5h-1.4l0.1-0.4h0.5c0.2,0,0.3-0.1,0.3-0.2l0.4-2h-1.7c-0.2,0-0.4-0.2-0.4-0.5l0.2-1.3
			c0.1-0.2,0.3-0.5,0.5-0.5h4.5c0.2,0,0.4,0.2,0.4,0.5L45.8,23.2z M46.7,20.9h-6.3l0.1-0.4h2.7l0.1-0.5h1l-0.1,0.5h2.7L46.7,20.9z"
			/>
		<path class="st0" d="M41.2,29.8c-0.2-0.2-0.5-0.3-0.8-0.3c-0.3,0-0.5,0.1-0.7,0.2c-0.2,0.1-0.3,0.3-0.3,0.5
			c-0.1,0.3-0.2,0.7-0.2,1.2s-0.1,1.5-0.1,2.9v0.3c0,1.6,0.1,2.6,0.3,3c0.2,0.4,0.5,0.6,1,0.6s0.8-0.2,1-0.6
			c0.2-0.4,0.3-1.4,0.3-3.2v-0.2c0-1,0-1.8,0-2.4c0.1-0.7,0-1,0-1.2C41.4,30.2,41.3,29.9,41.2,29.8z"/>
		<path class="st0" d="M30.6,29.2v0.3h0.8c0.1,0,0.2,0,0.3,0c0-0.1,0.1-0.3,0.1-0.4C31.4,29.2,31,29.2,30.6,29.2z"/>
	</g>
	<g>
		<g>
			<g>
				<path class="st0" d="M21.6,16.1c0,0.1-0.2,0.2-0.3,0.2h-0.1c-1-0.5-1.9-0.7-2.9-0.8c-0.2,0-0.3-0.2-0.3-0.3l0.3-3.8
					c0-0.2,0.2-0.3,0.3-0.3c1.5,0.1,3,0.5,4.3,1.1c0.2,0.1,0.2,0.3,0.2,0.4L21.6,16.1z"/>
				<path class="st0" d="M26,20.9l3.5-1.2c0.1,0,0.2,0,0.2,0c0.1,0,0.1,0.1,0.2,0.2c0.4,1.1,0.6,2.2,0.7,3.3c0,0.2,0,0.4,0,0.6
					s-0.1,0.3-0.3,0.3l0,0h-3.7c-0.1,0-0.2,0-0.2-0.1c-0.1-0.1-0.1-0.1-0.1-0.2s0-0.3,0-0.4c0-0.8-0.2-1.5-0.4-2.2
					C25.6,21.1,25.8,21,26,20.9L26,20.9z"/>
				<path class="st0" d="M11.5,12.7c1.3-0.7,2.7-1.2,4.2-1.4c0.1,0,0.2,0,0.2,0.1c0.1,0,0.1,0.1,0.1,0.2l0.6,3.7
					c0,0.2-0.1,0.3-0.3,0.4c-1,0.2-1.9,0.5-2.8,1h-0.1h-0.1c-0.1,0-0.1-0.1-0.2-0.1l-1.7-3.5C11.2,13,11.2,12.8,11.5,12.7L11.5,12.7
					z"/>
				<path class="st0" d="M6.3,18.2c0-0.1,0-0.2,0-0.2C7,16.8,7.9,15.5,9,14.5c0.1-0.1,0.1-0.1,0.2-0.1c0.1,0,0.2,0,0.2,0.1l2.5,2.8
					c0.1,0.1,0.1,0.1,0.1,0.2c0,0.1,0,0.2-0.1,0.2c-0.7,0.7-1.3,1.5-1.8,2.3c-0.1,0.1-0.2,0.2-0.3,0.2s-0.1,0-0.2,0l-3.3-1.7
					C6.4,18.4,6.4,18.3,6.3,18.2L6.3,18.2z"/>
				<path class="st0" d="M17.6,21.1L17.6,21.1l6.5-0.6c0.1,0,0.1,0.1,0.1,0.1c0,0.1,0,0.1-0.1,0.2l-6,2.1c0,0,0,0.1-0.1,0.1
					c-0.2,0.3-0.5,0.5-0.9,0.6s-0.7,0-1.1-0.2c-0.3-0.2-0.5-0.5-0.6-0.9s0-0.7,0.2-1.1c0.2-0.3,0.5-0.5,0.9-0.6
					C17,20.8,17.4,20.9,17.6,21.1L17.6,21.1z"/>
				<path class="st0" d="M22.8,17.1c0-0.1,0-0.2,0.1-0.2l2.3-2.9c0.1-0.1,0.1-0.1,0.2-0.1s0.2,0,0.2,0.1c1.2,0.9,2.2,2.1,3,3.3
					c0,0.1,0.1,0.2,0,0.2c0,0.1-0.1,0.1-0.1,0.2l-3.2,2h-0.1c-0.1,0-0.2,0-0.3-0.1c-0.5-0.8-1.2-1.6-2-2.2
					C22.9,17.2,22.8,17.2,22.8,17.1L22.8,17.1z"/>
			</g>
		</g>
	</g>
</g>
</svg>
