<?xml version="1.0" encoding="utf-8"?>
<!-- Generator: Adobe Illustrator 22.0.0, SVG Export Plug-In . SVG Version: 6.00 Build 0)  -->
<svg version="1.1" id="logo_x5F_cqssc" xmlns="http://www.w3.org/2000/svg" xmlns:xlink="http://www.w3.org/1999/xlink" x="0px"
	 y="0px" viewBox="0 0 49.3 38.9" style="enable-background:new 0 0 49.3 38.9;" xml:space="preserve">
<style type="text/css">
	.st0{fill:#FFFFFF;}
	.st1{fill-rule:evenodd;clip-rule:evenodd;fill:#FFFFFF;}
</style>
<title>logo_cqssc</title>
<g>
	<path class="st0" d="M11.3,28L11.3,28l1.8-0.1c1.4,0,2.3-0.4,3-1.1c0.3-0.3,0.5-0.7,0.7-1.1c0.2-0.5,0.3-1.1,0.3-1.8
		c0-1.2-0.3-2.3-0.9-2.9c-0.3-0.5-0.8-0.7-1.4-0.9c0,0-0.1,0-0.1,0c-0.1,0-0.2,0-0.3-0.1c0,0,0,0-0.1,0c-0.1,0-0.2,0-0.4,0
		c0,0,0,0,0,0c-0.1,0-0.3,0-0.4,0H8v12.7h3.3V28z M11.3,22.5h0.9c0.7,0,1,0.2,1.2,0.4c0.3,0.3,0.4,0.7,0.4,1c0,0.5-0.1,0.8-0.4,1
		c-0.2,0.3-0.7,0.4-1.3,0.4h-0.8V22.5z"/>
	<polygon class="st0" points="20.6,29.5 22.3,27.3 22.6,28 24.5,32.6 28.5,32.6 24.5,24.7 28.5,19.9 24.5,19.9 24.1,19.9 20.6,24.7 
		20.6,19.9 17.3,19.9 17.3,32.6 20.6,32.6 	"/>
	<g>
		<path class="st0" d="M44.4,16.3h-2.9c-0.2,0-0.3,0.1-0.3,0.2l-0.2,1c0,0.2,0.1,0.2,0.2,0.2h2.9c0.2,0,0.3-0.1,0.3-0.2l0.2-1
			C44.7,16.4,44.6,16.3,44.4,16.3z"/>
		<path class="st0" d="M47.6,15.7c-0.4-0.9-1-1.8-1.6-2.6c-3.7-4.7-9.7-6.4-15.1-4.6c-3.2-4-8-6.5-13.5-6.5
			C7.9,1.9,0.1,9.7,0.1,19.2c0,2.9,0.7,5.5,1.9,7.9c2.8,5.8,8.7,9.9,15.6,9.9c3.8,0,7.4-1.2,10.2-3.4c4.8,3.1,11.2,3.1,16-0.7
			C49.2,28.8,50.6,21.5,47.6,15.7z M39.7,15.4c-0.4,1-0.8,1.9-1.3,2.7h-1c0.5-0.8,0.9-1.7,1.3-2.7H39.7z M40.2,18.6h1
			c-0.3,0.8-0.7,1.5-1.1,2.1h-1C39.5,20.1,39.9,19.4,40.2,18.6z M32.6,19.2l1.7-0.5l0.5-2.5h-1.6l0.2-0.3h1.5l0.3-1.5h1L35,20.8h-1
			l0.2-1.3l-1.7,0.4L32.6,19.2z M35.5,32.8h-3.6h-1.8v-0.4h1.8v-7.9c0,0,0-0.1,0-0.1c0-0.1-0.1-0.1-0.1-0.2c0,0,0,0-0.1-0.1
			c-0.1-0.1-0.2-0.1-0.5-0.1c-0.8,2.2-2.1,4.1-3.7,5.7l1.3,2.6c0.1,0.1,0.1,0.3,0,0.4c-0.1,0.1-0.2,0.2-0.3,0.2h-4
			c-0.2,0-0.3-0.1-0.4-0.2L24,32.3c-2.7,1.4-5.9,1.9-9.2,1.4c-1.1-0.2-2.2-0.5-3.1-0.9c-0.1,0.1-0.2,0.2-0.3,0.2H8
			c-0.2,0-0.4-0.2-0.4-0.4v-2.3c-3.8-3.3-5.9-8.4-5-13.7c1.4-8.1,9-13.5,17.1-12.1c8.1,1.4,13.5,9,12.1,17.1
			c-0.1,0.7-0.3,1.4-0.5,2.1c0.1,0,0.2,0,0.3,0c0.5,0,1-0.1,1.6-0.2c0,0,0,0,0,0c0.1,0,0.1,0,0.2,0H34v8.9H34h1.5V32.8z M36,20.2
			l1.1-5.8h1l-1,5.7c0,0.2,0.1,0.2,0.2,0.2h1.6l-0.1,0.4h-2.4C36.1,20.7,36,20.5,36,20.2z M43.4,30c-0.2,0.5-0.4,1-0.8,1.5
			c-0.3,0.4-0.8,0.8-1.2,1c-0.4,0.3-0.9,0.3-1.3,0.3c-0.5,0-0.9-0.1-1.3-0.3c-0.4-0.3-0.8-0.6-1.2-1s-0.6-0.9-0.8-1.6
			c-0.2-0.6-0.2-1.1-0.2-1.8c0-0.6,0.1-1.2,0.2-1.8c0.2-0.6,0.4-1.1,0.8-1.5c0.3-0.4,0.8-0.8,1.2-1c0.4-0.3,0.9-0.3,1.4-0.3
			c0.5,0,1,0.1,1.4,0.3c0.4,0.2,0.8,0.6,1.2,1.2c0.3,0.4,0.6,0.9,0.8,1.5c0.2,0.6,0.2,1.1,0.2,1.8C43.6,29,43.5,29.6,43.4,30z
			 M44.4,20.8c-0.2-0.6-0.3-1.4-0.3-2.1h1c0,0.8,0.1,1.5,0.3,2.1H44.4z M45.4,17.7c0,0.2-0.2,0.4-0.5,0.4h-1.7l-0.4,2.1
			c-0.1,0.2-0.3,0.5-0.5,0.5h-1.4l0.1-0.4h0.5c0.2,0,0.3-0.1,0.3-0.2l0.4-2h-1.7c-0.2,0-0.4-0.2-0.4-0.5l0.2-1.3
			c0.1-0.2,0.3-0.5,0.5-0.5h4.5c0.2,0,0.4,0.2,0.4,0.5L45.4,17.7z M46.3,15.4H40l0.1-0.4h2.7l0.1-0.5h1L43.8,15h2.7L46.3,15.4z"/>
		<path class="st0" d="M40.8,24.2c-0.2-0.2-0.5-0.3-0.8-0.3c-0.3,0-0.5,0.1-0.7,0.2c-0.2,0.1-0.3,0.3-0.3,0.5
			c-0.1,0.3-0.2,0.7-0.2,1.2c0,0.5-0.1,1.5-0.1,2.9V29c0,1.6,0.1,2.6,0.3,3c0.2,0.4,0.5,0.6,1,0.6c0.5,0,0.8-0.2,1-0.6
			c0.2-0.4,0.3-1.4,0.3-3.2v-0.2c0-1,0-1.8,0-2.4c0.1-0.7,0-1,0-1.2C41.1,24.7,41,24.4,40.8,24.2z"/>
		<path class="st0" d="M30.2,23.7v0.3h0.8c0.1,0,0.2,0,0.3,0c0-0.1,0.1-0.3,0.1-0.4C31,23.7,30.6,23.7,30.2,23.7z"/>
	</g>
	<g>
		<g>
			<g>
				<path class="st1" d="M21.3,10.6c0,0.1-0.2,0.2-0.3,0.2c0,0-0.1,0-0.1,0C19.9,10.3,19,10.1,18,10c-0.2,0-0.3-0.2-0.3-0.3L18,5.9
					c0-0.2,0.2-0.3,0.3-0.3c1.5,0.1,3,0.5,4.3,1.1c0.2,0.1,0.2,0.3,0.2,0.4L21.3,10.6z"/>
				<path class="st1" d="M25.6,15.4l3.5-1.2c0.1,0,0.2,0,0.2,0c0.1,0,0.1,0.1,0.2,0.2c0.4,1.1,0.6,2.2,0.7,3.3c0,0.2,0,0.4,0,0.6
					c0,0.2-0.1,0.3-0.3,0.3c0,0,0,0,0,0l-3.7,0c-0.1,0-0.2,0-0.2-0.1c-0.1-0.1-0.1-0.1-0.1-0.2c0-0.1,0-0.3,0-0.4
					c0-0.8-0.2-1.5-0.4-2.2C25.3,15.6,25.4,15.5,25.6,15.4L25.6,15.4z"/>
				<path class="st1" d="M11.1,7.2c1.3-0.7,2.7-1.2,4.2-1.4c0.1,0,0.2,0,0.2,0.1c0.1,0,0.1,0.1,0.1,0.2l0.6,3.7
					c0,0.2-0.1,0.3-0.3,0.4c-1,0.2-1.9,0.5-2.8,1c0,0-0.1,0-0.1,0c0,0-0.1,0-0.1,0c-0.1,0-0.1-0.1-0.2-0.1L11,7.6
					C10.9,7.5,10.9,7.3,11.1,7.2L11.1,7.2z"/>
				<path class="st1" d="M5.9,12.7c0-0.1,0-0.2,0-0.2c0.7-1.3,1.6-2.5,2.7-3.5c0.1-0.1,0.1-0.1,0.2-0.1c0.1,0,0.2,0,0.2,0.1l2.5,2.8
					c0.1,0.1,0.1,0.1,0.1,0.2c0,0.1,0,0.2-0.1,0.2c-0.7,0.7-1.3,1.5-1.8,2.3c-0.1,0.1-0.2,0.2-0.3,0.2c-0.1,0-0.1,0-0.2,0l-3.3-1.7
					C6,12.9,6,12.8,5.9,12.7L5.9,12.7z"/>
				<path class="st1" d="M17.3,15.6C17.3,15.6,17.3,15.6,17.3,15.6l6.5-0.6c0.1,0,0.1,0.1,0.1,0.1c0,0.1,0,0.1-0.1,0.2l-6,2.1
					c0,0,0,0.1-0.1,0.1c-0.2,0.3-0.5,0.5-0.9,0.6c-0.4,0.1-0.7,0-1.1-0.2c-0.3-0.2-0.5-0.5-0.6-0.9c-0.1-0.4,0-0.7,0.2-1.1
					c0.2-0.3,0.5-0.5,0.9-0.6C16.6,15.3,17,15.4,17.3,15.6L17.3,15.6z"/>
				<path class="st1" d="M22.4,11.6c0-0.1,0-0.2,0.1-0.2l2.3-2.9c0.1-0.1,0.1-0.1,0.2-0.1c0.1,0,0.2,0,0.2,0.1
					c1.2,0.9,2.2,2.1,3,3.3c0,0.1,0.1,0.2,0,0.2c0,0.1-0.1,0.1-0.1,0.2l-3.2,2c0,0-0.1,0-0.1,0c-0.1,0-0.2,0-0.3-0.1
					c-0.5-0.8-1.2-1.6-2-2.2C22.5,11.7,22.4,11.7,22.4,11.6L22.4,11.6z"/>
			</g>
		</g>
	</g>
</g>
</svg>
