<?xml version="1.0" encoding="utf-8"?>
<!-- Generator: Adobe Illustrator 21.1.0, SVG Export Plug-In . SVG Version: 6.00 Build 0)  -->
<svg version="1.1" id="logo_x5F_cqssc" xmlns="http://www.w3.org/2000/svg" xmlns:xlink="http://www.w3.org/1999/xlink" x="0px"
	 y="0px" viewBox="0 0 190 150" style="enable-background:new 0 0 190 150;" xml:space="preserve">
<style type="text/css">
	.st0{fill:#FFFFFF;}
</style>
<title>logo_cqssc</title>
<g id="图层_2">
	<g id="top">
		<path class="st0" d="M45.9,126.3c-0.7,0.4-1.4,0.7-2.2,1.8c-0.7,1.1-0.7,2.2-0.7,3.2s0,2.2,0.7,2.9c0.7,0.4,1.4,0.7,2.2,0.4
			c0.7-0.4,1.4-0.7,2.2-1.8c0.7-1.1,0.7-2.5,0.7-3.6s0-1.8-0.7-2.5C47.3,125.9,46.2,125.9,45.9,126.3z"/>
		<polygon class="st0" points="46.6,128.1 42.6,129.5 42.6,143.6 53.1,140 53.1,136.4 46.6,138.9 		"/>
		<polygon class="st0" points="69.3,91 71.4,85.6 67.8,86.7 65.7,92.1 		"/>
		<polygon class="st0" points="19.9,93.2 23.5,92.1 25.3,86.7 21.7,87.8 		"/>
		<path class="st0" d="M105.3,117.3c0.4,0,0.4-0.4,0.7-0.7c0-0.4,0-0.7,0-1.1c0-0.4,0-0.7-0.4-0.7s-0.7,0-1.4,0l-1.8,0.7v2.9
			l1.8-0.7L105.3,117.3z"/>
		<polygon class="st0" points="76.8,69.7 73.2,71.2 71.4,76.6 75,75.1 		"/>
		<path class="st0" d="M27.8,92.1l5.8-16.6l3.2-1.4l1.4-4.3l-20.5,7.9L0.8,125.6l20.5-7.9l9.7-27L27.8,92.1z M17.8,107.6l-3.6,1.4
			l1.8-5.4l3.6-1.4L17.8,107.6z M23.5,92.1l-3.6,1.4l1.8-5.4l3.6-1.4L23.5,92.1z"/>
		<path class="st0" d="M73.2,101.1l9.7-27l-3.2,1.4l5.8-16.6l3.2-1.4l1.4-4.3l-20.5,7.9L52.7,109L73.2,101.1z M73.2,71.2l3.6-1.4
			L75,75.1l-3.6,1.4L73.2,71.2z M71.1,85.6L69.3,91l-3.6,1.4l2.2-5.8L71.1,85.6z"/>
		<path class="st0" d="M109.6,62.2L115,60l4.3-12.2l-5.4,2.2l3.6-10.1l-10.8,4.3l-3.6,10.1l-16.6,6.5L82.2,73l16.6-6.5l-1.4,4
			c1.1,1.8,1.1,4,0.4,5.8c-1.1,2.9-2.9,5.8-5,7.9l-1.4,4c0,0.7-0.4,1.1-0.7,1.4c-1.1,0.7-2.2,1.1-3.2,1.4L83,92.8l-4.7,11.9
			l14.4-5.4c1.4-0.4,2.5-1.4,3.2-2.5c0.7-0.7,1.4-1.8,2.2-2.9c1.1-2.2,1.8-4.3,2.5-6.5L109.6,62.2z"/>
		<path class="st0" d="M44.4,113.3c0.7-0.7,1.4-1.8,2.2-2.9c1.1-2.2,1.8-4.3,2.5-6.5l9-25.2l5.4-2.2l4.3-12.2l-5.4,2.2L66,56.4
			l-10.8,4.3l-3.6,10.1l-16.6,6.5l-4.3,12.2l16.6-6.1l-1.4,4c1.1,1.8,1.1,4,0.4,5.8c-1.1,2.9-2.9,5.8-5,7.9l-1.8,3.6
			c0,0.7-0.4,1.1-0.7,1.4c-1.1,0.7-2.2,1.1-3.2,1.4l-4.3,1.8l-4.3,11.9l14.4-5.4C42.3,115.1,43.3,114.4,44.4,113.3z"/>
		<path class="st0" d="M87.3,84.2c3.2-1.1,5.8-3.6,6.8-6.8c1.1-3.6,0-6.1-2.9-5.8c-3.2,1.1-5.8,3.6-6.8,6.8
			C83.7,81.6,84.8,84.5,87.3,84.2z"/>
		<path class="st0" d="M36.1,100.7c3.2-1.1,5.8-3.6,6.8-6.8c1.1-3.6,0-6.1-2.9-5.8c-3.2,1.1-5.8,3.6-6.8,6.8
			C32.2,98.2,33.6,101.1,36.1,100.7z"/>
		<path class="st0" d="M107.8,114.8h0.4c0.4,0,0.7,0,1.1,0c0.4,0.4,0.4,0.4,0.7,0.7l2.2,3.6l4.7-1.8l-1.8-3.6c0-0.4-0.4-0.4-0.7-0.7
			c-0.4-0.4-0.4-0.4-0.7-0.4c-0.4,0-0.7,0-1.1,0c0.4-0.4,1.1-0.7,1.4-1.1c0.4-0.7,1.1-1.1,1.1-1.8c0.4-0.7,0.4-1.4,0.4-2.2
			c0-0.7,0-1.4-0.7-2.2c-0.4-0.4-0.7-0.7-1.4-0.7c-1.1,0-1.8,0.4-2.9,0.7l-6.8,2.5v14.4l4-1.4L107.8,114.8z M107.8,109l1.8-0.7
			c0.7-0.4,1.1-0.4,1.4,0c0.4,0.4,0.4,0.7,0.4,0.7c0,0.4,0,0.7-0.4,1.1c0,0.4-0.4,0.4-0.7,0.7l-1.1,0.7l-1.8,0.7L107.8,109z"/>
		<polygon class="st0" points="95.9,119.1 102.4,116.6 102.4,113.7 95.9,116.2 95.9,113.7 102.8,111.2 102.8,108.3 92,112.2 
			92,126.3 103.1,122.3 103.1,119.1 95.9,122 		"/>
		<path class="st0" d="M66.4,123.1c-1.4-0.7-3.6-0.7-5,0c-2.2,0.7-3.6,1.8-5,3.6c-1.1,1.8-1.8,4-1.8,6.1c0,1.4,0.4,2.9,0.7,4
			c0.4,0.7,1.4,1.4,2.2,1.4c1.1,0,2.5,0,3.6-0.7c1.4-0.4,2.5-1.1,3.6-2.2c1.1-1.1,1.8-2.2,2.2-3.2c0.4-1.4,0.7-2.9,0.7-4.3
			C68.2,125.9,67.8,124.1,66.4,123.1z M63.5,132.8c-0.4,0.7-1.1,1.4-2.2,1.8c-0.7,0.4-1.4,0.4-1.8-0.4c-0.7-0.7-0.7-1.8-0.7-2.9
			c0-1.1,0.4-2.5,0.7-3.2c0.4-0.7,1.1-1.4,1.8-1.8s1.4-0.4,2.2,0c0.7,0.7,0.7,1.8,0.7,2.5C64.2,130.3,64.2,131.7,63.5,132.8
			L63.5,132.8z"/>
		<polygon class="st0" points="124.4,114.4 124.4,108.3 129.4,98.2 125.1,100 122.6,105.8 119.7,101.8 115.4,103.6 120.4,110.1 
			120.4,115.8 		"/>
		<polygon class="st0" points="68.2,120.9 68.2,124.1 72.2,122.7 72.2,133.5 76.5,132.1 76.5,121.3 79,120.2 80.4,119.8 83,118.7 
			83,129.5 87.3,128.1 87.3,117.3 91.2,115.8 91.2,112.2 79,116.9 		"/>
		<polygon class="st0" points="148.9,47.8 159.3,43.8 159.3,33.4 148.9,37.7 		"/>
		<polygon class="st0" points="115,94.2 127.6,70.1 120.1,93.2 131.6,88.5 139.2,66.1 137.4,85.2 148.2,80.9 150,57.9 155,55.7 
			157.2,48.9 142.8,54.6 143.8,51.4 132,56.1 131.2,59.3 116.5,65.1 114.3,71.9 119,70.1 104.6,98.6 		"/>
		<polygon class="st0" points="134.1,44.2 134.1,53.9 144.9,49.6 144.9,39.1 134.8,43.1 136.3,40.6 149.2,35.5 159,31.6 160.8,30.8 
			166.2,20.8 154.6,25.1 153.2,27.6 141,32.6 131.6,36.2 130.1,37 116.5,60.7 127.3,56.4 		"/>
		<path class="st0" d="M170.9,88.5L170.9,88.5c-5.8-2.2-14-5-7.9-13.3c0.7-1.1,1.4-2.2,2.2-3.2c2.5-2.9,4-6.5,4.3-10.4
			c0-1.1,0-2.2-0.4-3.2c-4-19.5,13.7-40.3,19.8-46.8l-16.2,6.5h-0.4c-4,4.7-6.5,10.4-7.9,16.6l0,0c-1.1,4-1.4,7.9-1.8,11.9
			c-0.4,10.8,3.6,14-4,27.4l0,0c-1.4,1.8-2.5,4-3.6,5.8c-2.5,4.7-4.3,10.4,0,11.5c6.8,1.8,14.8,7.6,0,19.8l0,0
			c-13.7,13.7-23.4,1.1-41.8,36.7h17.7c7.9-24.9,10.8-18.7,26.3-32.4l0,0l2.5-1.8c4.3-3.6,7.6-6.5,10.1-8.6c6.1-5.8,6.8-10.8,4-14
			C173,89.6,171.9,89.2,170.9,88.5z"/>
	</g>
</g>
<g>
	<path class="st0" d="M11.3,30.5l36-12.2v2.2l-14.4,5l0.7,10.4c0,0.4,0,0.7,0,1.1l16.9-5.8v2.2L34,39.1c2.2,6.1,9,10.4,18,14
		l-8.3,2.9c-4.7-1.8-9.4-4.7-12.6-8.6c-2.5,5.8-6.8,11.9-10.8,16.6L12,66.9c7.9-9.4,14-18,15.5-25.2L10.2,47v-2.2l16.9-5.8
		c0-0.4,0-0.7,0-1.1l-0.7-10.4l-15.1,5V30.5z"/>
	<path class="st0" d="M55.9,22.2L52.7,15l6.5-2.5l3.2,7.6L55.9,22.2z M57.4,33.4l-3.6-7.9l6.5-2.2l3.6,7.9L57.4,33.4z M54.1,52.8
		c1.8-5.8,2.9-10.4,3.6-16.6l6.5-2.2C63.9,39.8,62.8,46,61,50.7L54.1,52.8z M75.4,45.6l-0.4-5l-9,2.9v-2.2l9-2.9l-0.4-4.7L66,36.6
		v-2.2l8.6-2.9l-0.4-4L66,30.5v-2.2l8.3-2.9l-0.7-4.3l-9,2.9v-2.2l9-2.9l-0.4-5.4L65,16.4v-2.2l8.3-3.2l-0.4-3.2l6.8-2.2l0.4,3.2
		L88.4,6c1.8-0.7,3.2,0.4,3.2,1.8l0.4,5l1.1-0.4v2.2L92,15l0.4,3.6c0,1.4-1.1,2.9-2.9,3.6l-8.6,2.9l0.4,4L92,25.4v2.2l-10.8,3.6
		l0.4,4.7l11.2-3.6v2.2L81.5,38l0.4,5L75.4,45.6z M84.8,11c0-0.7-1.1-1.1-1.8-1.1L80.1,11l0.4,5.4l4.7-1.4L84.8,11z M83.7,21.8
		c1.1-0.4,1.8-1.1,1.8-2.2v-2.5l-4.7,1.4v4.3L83.7,21.8z"/>
</g>
</svg>
