<?xml version="1.0" encoding="utf-8"?>
<!-- Generator: Adobe Illustrator 22.0.1, SVG Export Plug-In . SVG Version: 6.00 Build 0)  -->
<svg version="1.1" id="logo_x5F_cqssc" xmlns="http://www.w3.org/2000/svg" xmlns:xlink="http://www.w3.org/1999/xlink" x="0px"
	 y="0px" viewBox="0 0 50 50" style="enable-background:new 0 0 50 50;" xml:space="preserve">
<style type="text/css">
	.st0{fill:#FFFFFF;}
	.st1{opacity:0.4;fill:#FFFFFF;enable-background:new    ;}
</style>
<title>logo_cqssc</title>
<g>
	<g>
		<path class="st0" d="M21.1,32.9c-0.1,0.3-1.3,2.7-1.4,2.7h-1.6c0-0.3,1.3-2.7,1.4-2.7C20.2,32.9,20.6,32.9,21.1,32.9L21.1,32.9z"
			/>
		<path class="st0" d="M15.3,30.3h2.6l-0.8,5.6c-0.1,0.3,0.2,0.5,0.4,0.5c0,0,4.8,0,7.2,0c0,0.3,0,0.9,0,1.2c0,0-6.2,0-8.4,0
			c-0.4,0-0.9-0.2-1-0.9l0.7-5.3c-0.2,0-0.7,0-0.9,0L15.3,30.3L15.3,30.3z"/>
		<path class="st0" d="M21.1,27.8l-0.3,0.8c0.2,0,0.5,0,0.8,0l0.1-0.8h1.7v0.8H26v1h-2.7l-0.1,1.7h2.6v1h-2l-0.1,2.2h1.4v1.2
			c-1.1,0-2.2,0-2.2,0c-0.9,0.1-1-0.4-0.9-1l0.1-2.3h-3.7v-1h2.8c0.1-0.5,0.1-1.1,0.2-1.5c-0.5-0.1-0.3-0.1-1-0.2l-0.3,1h-1.6l1-2.8
			H21.1L21.1,27.8z"/>
		<path class="st0" d="M16,27.8c0.5,0,1.1,0,1.6,0c0.1,0.8,0.2,1.4,0.4,2.2h-1.6C16.3,29.2,16.1,28.4,16,27.8L16,27.8z"/>
		<path class="st0" d="M7.7,27.3L6.3,37.6H3.9c0-0.1-0.1-0.1-0.1-0.2l1.1-7c-0.5,0.1-1,0.3-1.5,0.4V29L7.7,27.3L7.7,27.3z"/>
		<path class="st0" d="M12.5,37.6H9.9l1-7.2l-1.6,0.4l0.2-1.7l4.3-2C13.4,30.6,12.9,34.3,12.5,37.6L12.5,37.6z"/>
		<path class="st0" d="M28.3,24.4c2.7,0,5.4,0,8.1,0c-0.1,0.9-0.1,1.7-0.2,2.6h-5.5c-0.1,0.5-0.1,1.1-0.2,1.6c8.2,1,6.5,9.1-0.2,9.1
			h-3.6v-2.2h3.7c3.9-0.5,3-4.4-1-4.6h-2C27.7,28.7,28.1,26.5,28.3,24.4L28.3,24.4z"/>
		<path class="st0" d="M9.2,21.9c0.2-0.5,1.3-1,2.3,0.1c3.1,2.6,5.3,2.3,8.5,2.2C16.7,26,7.5,25.7,9.2,21.9L9.2,21.9z"/>
		<path class="st0" d="M20.6,23.4c-6.8,1.2-15.2-9.1-10.3-11.1c1-0.3,2.4-0.3,3,1.7C14.1,19,16.5,22.5,20.6,23.4L20.6,23.4z"/>
		<path class="st0" d="M31.2,11.9c11.8-0.5,16.9,9.3,15.9,16.5c-1.3,9.8-13.7,18.5-24.4,9.8c12.1,5.1,19.1-4.1,18.9-11.3
			c-0.2-6.3-7.8-10.8-14.9-4.2C19.4,26.6,15.2,13.8,31.2,11.9L31.2,11.9z"/>
		<path class="st0" d="M41.7,5.9c2.3,2.5-0.7,5-2.6,4.8c-1.4,0.1-9.7-3.1-18.4,4.3C24.7,5,37.8,1.4,41.7,5.9L41.7,5.9z"/>
		<path class="st0" d="M20.9,4.2c2.1,0,3.5,2.5,2.4,4.1c-4,3.8-6.5,10.2-2.5,14.7C12,18,15.5,4.2,20.9,4.2L20.9,4.2z"/>
		<path class="st0" d="M26.7,22.5C25.8,16.3,38.9,14,42.8,22c2.4,4.6-0.1,12.3-6,15.1c4-3.4,5.2-8.4,4.3-12.3
			C40.2,21.6,34.7,15.6,26.7,22.5L26.7,22.5z"/>
		<path class="st1" d="M17.9,5.8c1.5,0.1,3.6,0.5,5.7,1.6c0-0.2,0-0.3,0-0.5c0-0.5-0.8-2.7-2.8-2.6C19.4,4.3,18.4,5.1,17.9,5.8
			L17.9,5.8z M25.6,8.5c1,0.7,2,1.4,2.9,2.3c1.2-0.3,4.3-1.1,8.4-0.4c0,0,0.8,0.1,1.4,0.2C37.7,8,36.6,5.8,35.1,4
			C29.2,4.9,25.9,8.1,25.6,8.5L25.6,8.5z M29.8,12.2c1.7,1.8,3.4,4.2,5,7.3c0.8,0.1,2.2,0.4,3.8,1.6c0.3-2.5,0.3-5.2,0.1-7.9
			C37.6,12.7,34.1,11.5,29.8,12.2L29.8,12.2z"/>
	</g>
</g>
<g>
	<path class="st0" d="M4.3,45.9H3.1c0.4-0.5,0.5-1.2,0.5-1.7v-4c0-0.3,0.2-0.5,0.5-0.5h2.5v-1h1.2v1h2.5V40H5.2
		c-0.1,0-0.3,0.1-0.3,0.3v3.8C4.9,44.7,4.6,45.4,4.3,45.9z"/>
	<path class="st0" d="M10.7,39.6h1.4l0.4-1h1.2l-0.4,1h4.6V40h-4.7l-0.8,1.7c0,0.1,0,0.2,0,0.2c0,0.1,0.1,0.1,0.2,0.1h1.2v-1.4h1.2
		v1.4h2.7v0.4h-2.7v2.8c0,0.3-0.2,0.5-0.5,0.5H13v-0.4h0.7c0.1,0,0.3-0.1,0.3-0.3v-2.6h-2.3c-0.1,0-0.3-0.1-0.4-0.2
		c-0.1-0.1-0.1-0.3-0.1-0.4L12,40h-1.3L10.7,39.6z M10.8,45.9c0.3-0.9,0.7-1.7,0.8-2.8h1.2c-0.2,1.1-0.4,2.1-0.8,2.8H10.8z
		 M16.8,45.9C16.5,45,16.1,44,15.9,43h1.2c0.2,1.1,0.4,2.1,0.9,2.8L16.8,45.9z"/>
</g>
</svg>
