<?xml version="1.0" encoding="utf-8"?>
<!-- Generator: Adobe Illustrator 22.0.1, SVG Export Plug-In . SVG Version: 6.00 Build 0)  -->
<svg version="1.1" id="圖層_1" xmlns="http://www.w3.org/2000/svg" xmlns:xlink="http://www.w3.org/1999/xlink" x="0px" y="0px"
	 viewBox="0 0 50 50" style="enable-background:new 0 0 50 50;" xml:space="preserve">
<style type="text/css">
	.st0{fill:#FFFFFF;}
</style>
<title>logo_hwk3</title>
<g id="圖層_2_1_">
	<g id="logo_cqssc">
		<path class="st0" d="M35.5,29.9c-0.8-0.4-1.6-0.7-2.5-1l10.3-7.7c-0.6-1.2-1.4-1.7-2.8-1.7c-3.4,0.1-6.8,0-10.1,0.1
			c-0.8,0-1.6,0.1-2.4,0.3c-1.7,0.5-2.7,1.9-2.8,3.7h10c-2,1.6-3.9,3-5.7,4.5c-0.7,0.6-1.2,1.4-1.8,2.3c0.7,0.3,1.1,0.4,1.4,0.6
			c0.6,0.5,1.3,0.9,1.6,1.6c1.1,2,0.9,4-0.8,5.5c-1.4,1.2-3,2.3-4.6,3.1c-3.2,1.4-6.5,2.6-9.8,3.9l-0.8,0.3l0.1,0.3
			c2.6-0.4,5.3-0.7,7.9-1.1c3.6-0.6,7-1.6,10.3-3.1c1.8-0.8,3.6-1.8,4.7-3.6C39.4,34.9,39.4,31.6,35.5,29.9z"/>
		<path class="st0" d="M18.7,33.1h5.9c0.1-1,0.1-2,0.2-3l-0.9-0.2c0.1-1.8,0.3-3.4,0.3-5.1c0-1.8-0.8-2.6-2.6-2.6
			c-0.8,0-1.6,0-2.4,0v-1.7H16c-0.1,0.6-0.1,1.1-0.2,1.7h-2.4c-0.1,1-0.1,2-0.2,3.1c0.6,0,1.1-0.1,1.6,0c0.3,0.1,0.8,0.5,0.8,0.7
			c0,1.3-0.1,2.5-0.2,3.9h-3.2c-0.1,1-0.1,2-0.2,3.1h2.8c-0.6,1.8-1.5,3.3-2.9,4.4c-0.2,0.2-0.5,0.5-0.5,0.7c-0.1,1.1,0,2.2,0,3.3
			C14.3,41.1,17,38,18.7,33.1z M19.1,25.4c1.8-0.2,2,0,1.9,1.6c-0.1,0.9-0.1,1.8-0.2,2.7c0,0.1-0.1,0.1-0.1,0.2h-1.9L19.1,25.4z"/>
		<path class="st0" d="M7,21.8H4.4C4,28.1,3.6,34.3,3.2,40.5c2.1,0.1,2.7-0.4,2.8-2.3C6.3,33.2,6.7,28,7,22.9C7,22.6,7,22.3,7,21.8z
			"/>
		<path class="st0" d="M35.8,28.6l9.6-5l-1-1.4l-8.6,6.1L35.8,28.6z"/>
		<path class="st0" d="M37,29.1l9.9-3.2c-0.3-0.5-0.6-0.9-0.8-1.3l-9.1,4.3L37,29.1z"/>
		<path class="st0" d="M11.9,28.3l0.2-3.4l-0.9-0.1l-0.1,0c0.1-1.4,0.2-2.8,0.3-4.2H7.8C7.4,27.6,7,34.6,6.5,41.8H8
			c1.4,0,2-0.5,2.1-2c0.1-1,0.1-2,0.2-3c0.2-2.9,0.4-5.9,0.6-8.6L11.9,28.3z"/>
		<path class="st0" d="M17.6,38.8c0,1.9,1.5,3.4,3.4,3.4c1.9,0,3.4-1.5,3.4-3.4c0-1.8-1.5-3.3-3.3-3.4
			C19.2,35.3,17.7,36.9,17.6,38.8C17.6,38.7,17.6,38.7,17.6,38.8z M19.5,39.9c-0.4,0-0.7-0.3-0.7-0.7c0-0.4,0.3-0.7,0.7-0.7
			c0.4,0,0.7,0.3,0.7,0.7l0,0C20.1,39.6,19.8,39.9,19.5,39.9z M22.8,38.6c0.4,0,0.7,0.3,0.7,0.7c0,0.4-0.3,0.7-0.7,0.7
			c-0.4,0-0.7-0.3-0.7-0.7C22.1,38.9,22.4,38.6,22.8,38.6L22.8,38.6z M21.4,37.3c0,0.5-0.4,0.8-0.8,0.8s-0.8-0.4-0.8-0.8
			s0.4-0.8,0.8-0.8l0,0C21,36.5,21.4,36.9,21.4,37.3z"/>
		<path class="st0" d="M12.7,9.9h2.3V8.1h1.8v1.8l7.9-0.1v0.7l-2.3,0c-0.1,1.8-0.8,3.1-2,4.1c1.4,0.5,2.9,0.7,4.4,0.7v1.3
			c-2.3,0-4.4-0.3-6-1c-1.6,0.7-3.7,1-6,1v-1.3c1.5,0,2.9-0.3,4.3-0.7c-1.2-0.9-1.9-2.3-2.1-4.1l-2.3,0V9.9z M12.7,8.5V6.8
			c0-0.5,0.4-0.8,0.8-0.8l4.1,0V4.7h1.9V6l4.2,0c0.5,0,0.8,0.4,0.8,0.8v1.7h-1.9V7.1c0-0.3-0.2-0.5-0.5-0.5l-7.1,0
			c-0.3,0-0.5,0.2-0.5,0.5v1.3L12.7,8.5z M18.7,13.8c1.1-0.8,1.8-2,1.8-3.3l-3.7,0C16.9,11.9,17.6,13.1,18.7,13.8z"/>
		<path class="st0" d="M26.7,16.6l0-5.2h-1.3c0.4-0.9,0.8-1.8,1.1-2.8h-1.1C26,7.3,26.5,6,26.8,4.5h1.7c-0.2,0.8-0.4,1.6-0.7,2.3
			h0.8l0-1.8H30v2.1c0,0.1,0.1,0.2,0.1,0.2h0h0.2l0-2.8h1.6l0,2.8h0.2c0.1,0,0.2-0.1,0.2-0.2c0,0,0,0,0,0V5h1.4v2.1
			c0,0.5-0.4,0.8-0.8,0.8l-3.3,0c-0.5,0-0.8-0.4-0.8-0.8V7c-0.2,0.9-0.5,1.9-0.8,2.7h0.5l0,6.9L26.7,16.6z M28.7,16.6
			c0.2-0.9,0.3-1.8,0.3-2.7h1c-0.1,0.9-0.1,1.8-0.3,2.7C29.7,16.6,28.7,16.6,28.7,16.6z M30,15.9h0.1c0.1,0,0.2-0.1,0.2-0.3v-2.2
			h-1.6v-0.7h1l0.6-1.2h-1c-0.3,0-0.6-0.3-0.6-0.6c0-0.1,0-0.2,0.1-0.3l0.7-1.4h-0.7V8.4l4.5,0v0.7h-2.2l-0.7,1.4c0,0,0,0.1,0,0.1
			c0,0,0.1,0.1,0.1,0.1h0.3l0.4-0.8h1.7l-1.4,2.7H32c0.1,0,0.1,0,0.2-0.1c0.1-0.1,0.1-0.1,0.1-0.2v-0.7h1.5v0.8c0,0.2,0,0.4-0.1,0.6
			c-0.1,0.2-0.3,0.3-0.6,0.3h-1.1v2.3c0,0.5-0.4,0.8-0.8,0.8h-1.2L30,15.9z M32.6,16.6c-0.1-0.9-0.3-1.8-0.3-2.7h1
			c0.1,0.9,0.2,1.8,0.3,2.7H32.6z M35.9,16.6c-0.1-0.3-0.2-0.7-0.3-1c-0.1,0.3-0.2,0.7-0.3,1h-1.5c0.4-1.2,0.8-2.3,1.1-3.5
			c-0.3-1.1-0.5-2.2-0.7-3.3h-0.7c0.4-1.7,0.6-3.4,0.7-5.2h1.5c0,0.6-0.1,1.2-0.1,1.7h1.9v0.7h-0.1c-0.1,2.1-0.5,4.1-1,6.1
			c0.3,1.2,0.7,2.4,1.2,3.5H35.9z M35.5,9.7c0.2-0.9,0.3-1.8,0.4-2.7h-0.4c-0.1,0.4-0.1,0.8-0.2,1.2C35.4,8.6,35.4,9.1,35.5,9.7
			L35.5,9.7z"/>
	</g>
</g>
</svg>
