<?xml version="1.0" encoding="utf-8"?>
<!-- Generator: Adobe Illustrator 22.0.1, SVG Export Plug-In . SVG Version: 6.00 Build 0)  -->
<svg version="1.1" id="logo_x5F_cqssc" xmlns="http://www.w3.org/2000/svg" xmlns:xlink="http://www.w3.org/1999/xlink" x="0px"
	 y="0px" viewBox="0 0 50 50" style="enable-background:new 0 0 50 50;" xml:space="preserve">
<style type="text/css">
	.st0{fill:#FFFFFF;}
</style>
<title>logo_cqssc</title>
<g>
	<g>
		<path class="st0" d="M35.5,29.8c-0.8-0.3-1.6-0.7-2.5-1c3.4-2.6,6.9-5.2,10.3-7.7c-0.6-1.1-1.4-1.7-2.8-1.7c-3.3,0.1-6.8,0-10.1,0
			c-0.8,0-1.6,0.1-2.4,0.3c-1.7,0.5-2.8,1.8-2.8,3.7c3.2,0,6.5,0,10,0c-2.1,1.6-3.9,3-5.7,4.5c-0.7,0.6-1.1,1.4-1.8,2.3
			c0.7,0.2,1,0.3,1.4,0.6c0.6,0.5,1.3,0.9,1.6,1.6c1.1,1.9,0.9,4-0.8,5.5c-1.4,1.3-3,2.3-4.6,3c-3.2,1.4-6.5,2.6-9.7,3.9
			c-0.2,0.1-0.6,0.2-0.8,0.3c0,0.1,0.1,0.2,0.1,0.3c2.6-0.3,5.3-0.7,7.9-1.1c3.6-0.6,7-1.6,10.3-3.1c1.8-0.8,3.6-1.8,4.7-3.6
			C39.4,34.8,39.4,31.5,35.5,29.8z"/>
		<path class="st0" d="M18.6,33c1.9,0,3.9,0,5.8,0c0.1-1,0.1-1.9,0.2-3c-0.3-0.1-0.6-0.1-0.9-0.1c0.1-1.7,0.2-3.4,0.3-5
			c0-1.7-0.9-2.6-2.6-2.6c-0.8,0-1.6,0-2.4,0c0-0.7,0-1.1,0-1.7c-1,0-2.1,0-3.1,0c-0.1,0.6-0.1,1.1-0.2,1.7c-0.8,0-1.6,0-2.4,0
			c-0.1,1-0.1,2.1-0.2,3.1c0.6,0,1.1-0.1,1.6,0c0.3,0.1,0.8,0.5,0.8,0.7c0,1.3-0.1,2.5-0.2,3.9c-1.1,0-2.1,0-3.2,0
			c-0.1,1-0.1,2.1-0.2,3.1c0.9,0,1.8,0,2.8,0c-0.6,1.8-1.5,3.3-3,4.5c-0.2,0.2-0.5,0.5-0.6,0.7c-0.1,1,0,2.2,0,3.2
			C14.3,41,16.9,37.9,18.6,33z M19.1,25.3c1.8-0.2,2.1,0,1.9,1.6c-0.1,0.9-0.1,1.8-0.2,2.6c0,0-0.1,0.1-0.1,0.2c-0.6,0-1.1,0-1.8,0
			C18.9,28.3,19,26.8,19.1,25.3z"/>
		<path class="st0" d="M7.1,21.7c-0.8,0-1.6,0-2.6,0C4.1,28,3.6,34.2,3.3,40.4c2.2,0.1,2.6-0.3,2.8-2.3c0.3-5,0.7-10.2,1-15.2
			C7.1,22.5,7.1,22.2,7.1,21.7z"/>
		<path class="st0" d="M35.7,28.5c3.1-1.6,6.3-3.2,9.5-4.9c-0.3-0.5-0.7-0.9-1-1.4c-2.9,2.1-5.7,4.1-8.6,6.2
			C35.7,28.4,35.7,28.5,35.7,28.5z"/>
		<path class="st0" d="M36.9,29c3.2-1,6.5-2.2,9.9-3.2c-0.3-0.5-0.6-0.9-0.8-1.3c-3.1,1.5-6.1,2.9-9.2,4.4
			C36.9,28.8,36.9,29,36.9,29z"/>
		<path class="st0" d="M11.9,28.2l0.2-3.4h-0.9c0,0,0,0-0.1,0c0.1-1.4,0.1-2.8,0.2-4.2c-1.3,0-2.3,0-3.6,0c-0.3,7-0.8,14-1.3,21.2
			c0.6,0,1,0,1.5,0c1.5,0,1.9-0.5,2.1-1.9c0.1-1,0.1-1.9,0.2-3c0.2-2.9,0.3-5.8,0.6-8.6L11.9,28.2z"/>
		<path class="st0" d="M17.6,38.6c0,1.8,1.5,3.3,3.3,3.4c1.8,0,3.4-1.5,3.4-3.3s-1.5-3.4-3.3-3.4C19.2,35.3,17.6,36.8,17.6,38.6z
			 M19.4,39.8c-0.3,0-0.7-0.2-0.7-0.7c0-0.3,0.2-0.7,0.7-0.7c0.3,0,0.7,0.2,0.7,0.7C20.1,39.5,19.8,39.8,19.4,39.8z M22.8,38.5
			c0.3,0,0.7,0.2,0.7,0.7c0,0.3-0.2,0.7-0.7,0.7c-0.3,0-0.7-0.2-0.7-0.7C22.1,38.8,22.3,38.5,22.8,38.5z M21.4,37.2
			c0,0.5-0.3,0.8-0.8,0.8c-0.5,0-0.8-0.3-0.8-0.8s0.3-0.8,0.8-0.8C21,36.4,21.4,36.8,21.4,37.2z"/>
	</g>
	<g>
		<path class="st0" d="M12.8,16.7c0.7-1.6,1-3,1.3-4.8H16c-0.2,1.8-0.7,3.6-1.3,4.8H12.8z M13.8,7.3L13,4.7H15l0.9,2.6H13.8z
			 M14.1,11l-0.9-2.9h1.9L16,11H14.1z M16.2,16.6v-0.7h3.2L19.3,6h-2.9V5.4h7.8V6h-3l0.1,9.9h3.3v0.7H16.2z"/>
		<path class="st0" d="M25.4,5.8h2.3V4.5h1.9v1.3h3.6V4.5h1.9v1.3h2.3v0.7h-2.3v1.3h-1.9V6.5h-3.6v1.3h-1.9V6.5h-2.3L25.4,5.8z
			 M25.6,14.7l0.6-3.7h1.9l-0.6,3.7H25.6z M26.9,9.4h2.3c0-0.5,0.1-0.8,0.1-1.3h1.9c0,0.5-0.1,0.8-0.1,1.3h2.8
			c0.5,0,0.8,0.3,0.8,0.8v5.6c0,0.5-0.3,0.8-0.8,0.8H31v-0.7h1.4c0.2,0,0.5-0.2,0.5-0.5v-4.8c0-0.2-0.2-0.5-0.5-0.5h-1.3
			c-0.2,2.2-0.7,4.4-1.5,6.5h-2.2c0.8-2.2,1.4-4.4,1.6-6.5h-2.3L26.9,9.4z M35.6,14.6L35.1,11h1.9l0.5,3.7H35.6z"/>
	</g>
</g>
</svg>
