<?xml version="1.0" encoding="utf-8"?>
<!-- Generator: Adobe Illustrator 21.0.0, SVG Export Plug-In . SVG Version: 6.00 Build 0)  -->
<svg version="1.1" id="logo_x5F_cqssc" xmlns="http://www.w3.org/2000/svg" xmlns:xlink="http://www.w3.org/1999/xlink" x="0px"
	 y="0px" viewBox="0 0 49.3 38.9" style="enable-background:new 0 0 49.3 38.9;" xml:space="preserve">
<style type="text/css">
	.st0{fill:#FFFFFF;}
	.st1{opacity:0.4;fill:#FFFFFF;enable-background:new    ;}
</style>
<title>logo_cqssc</title>
<g>
	<g>
		<path class="st0" d="M21,26.7c-0.1,0.3-1.2,2.5-1.3,2.5h-1.5c0-0.3,1.2-2.5,1.3-2.5C20.1,26.7,20.5,26.7,21,26.7L21,26.7z"/>
		<path class="st0" d="M15.6,24.3H18l-0.7,5.2c-0.1,0.3,0.2,0.5,0.4,0.5c0,0,4.4,0,6.6,0c0,0.3,0,0.8,0,1.1c0,0-5.7,0-7.7,0
			c-0.4,0-0.8-0.2-0.9-0.8l0.6-4.9c-0.2,0-0.6,0-0.8,0L15.6,24.3L15.6,24.3z"/>
		<path class="st0" d="M21,22l-0.3,0.7c0.2,0,0.5,0,0.7,0l0.1-0.7h1.6v0.7h2.4v0.9H23l-0.1,1.6h2.4v0.9h-1.8l-0.1,2h1.3v1.1
			c-1,0-2,0-2,0c-0.8,0.1-0.9-0.4-0.8-0.9l0.1-2.1h-3.4v-0.9h2.6c0.1-0.5,0.1-1,0.2-1.4c-0.5-0.1-0.3-0.1-0.9-0.2l-0.3,0.9h-1.5
			l0.9-2.6H21L21,22z"/>
		<path class="st0" d="M16.3,22c0.5,0,1,0,1.5,0c0.1,0.7,0.2,1.3,0.4,2h-1.5C16.5,23.3,16.4,22.6,16.3,22L16.3,22z"/>
		<path class="st0" d="M8.6,21.6l-1.3,9.5H5.1C5.1,31,5,31,5,30.9l1-6.5c-0.5,0.1-0.9,0.3-1.4,0.4v-1.7L8.6,21.6L8.6,21.6z"/>
		<path class="st0" d="M13,31.1h-2.4l0.9-6.6L10,24.9l0.2-1.6l4-1.8C13.9,24.6,13.4,28,13,31.1L13,31.1z"/>
		<path class="st0" d="M27.6,18.9c2.5,0,5,0,7.5,0c-0.1,0.8-0.1,1.6-0.2,2.4h-5.1c-0.1,0.5-0.1,1-0.2,1.5c7.6,0.9,6,8.4-0.2,8.4
			h-3.3v-2h3.4c3.6-0.5,2.8-4.1-0.9-4.2h-1.8C27.1,22.9,27.4,20.8,27.6,18.9L27.6,18.9z"/>
		<path class="st0" d="M10,16.6c0.2-0.5,1.2-0.9,2.1,0.1c2.9,2.4,4.9,2.1,7.8,2C16.9,20.4,8.4,20.1,10,16.6L10,16.6z"/>
		<path class="st0" d="M20.5,18c-6.3,1.1-14-8.4-9.5-10.2c0.9-0.3,2.2-0.3,2.8,1.6C14.5,13.9,16.7,17.1,20.5,18L20.5,18z"/>
		<path class="st0" d="M30.3,7.4C41.2,6.9,45.9,16,45,22.6c-1.2,9-12.6,17.1-22.5,9c11.2,4.7,17.6-3.8,17.4-10.4
			c-0.2-5.8-7.2-10-13.7-3.9C19.4,20.9,15.5,9.1,30.3,7.4L30.3,7.4z"/>
		<path class="st0" d="M40,1.8c2.1,2.3-0.6,4.6-2.4,4.4c-1.3,0.1-8.9-2.9-17,4C24.3,1,36.4-2.3,40,1.8L40,1.8z"/>
		<path class="st0" d="M20.8,0.3c1.9,0,3.2,2.3,2.2,3.8c-3.7,3.5-6,9.4-2.3,13.6C12.6,13,15.8,0.3,20.8,0.3L20.8,0.3z"/>
		<path class="st0" d="M26.1,17.1c-0.8-5.7,11.3-7.8,14.9-0.4c2.2,4.2-0.1,11.3-5.5,13.9c3.7-3.1,4.8-7.7,4-11.3
			C38.6,16.3,33.5,10.8,26.1,17.1L26.1,17.1z"/>
		<path class="st1" d="M18,1.7c1.4,0.1,3.3,0.5,5.3,1.5c0-0.2,0-0.3,0-0.5c0-0.5-0.7-2.5-2.6-2.4C19.4,0.4,18.5,1.1,18,1.7L18,1.7z
			 M25.1,4.2c0.9,0.6,1.8,1.3,2.7,2.1c1.1-0.3,4-1,7.7-0.4c0,0,0.7,0.1,1.3,0.2c-0.5-2.3-1.5-4.4-2.9-6C28.4,0.9,25.4,3.9,25.1,4.2
			L25.1,4.2z M29,7.6c1.6,1.7,3.1,3.9,4.6,6.7c0.7,0.1,2,0.4,3.5,1.5c0.3-2.3,0.3-4.8,0.1-7.3C36.2,8.1,33,7,29,7.6L29,7.6z"/>
	</g>
</g>
<g>
	<path class="st0" d="M4.5,33.1h1.1v5c0,0.1,0.1,0.3,0.3,0.3h1.2v-6.3h1.1v6.3h1.2c0.1,0,0.3-0.1,0.3-0.3v-5h1.1v5.2
		c0,0.3-0.2,0.5-0.5,0.5H5c-0.3,0-0.5-0.2-0.5-0.5L4.5,33.1z"/>
	<path class="st0" d="M11.4,32.9h1.4l0.3-0.9h1.2l-0.4,0.9h4.2v0.4h-4.4L13,34.9c0,0.1,0,0.2,0,0.2c0,0.1,0.1,0.1,0.2,0.1h1.1v-1.3
		h1.1v1.3h2.5v0.4h-2.5v2.6c0,0.3-0.2,0.5-0.5,0.5h-1.4v-0.4h0.6c0.1,0,0.3-0.1,0.3-0.3v-2.4h-2.1c-0.1,0-0.3-0.1-0.4-0.2
		c-0.1-0.1-0.1-0.3-0.1-0.4l0.8-1.8h-1.2L11.4,32.9z M11.5,38.8c0.3-0.8,0.6-1.7,0.7-2.7h1.1c-0.2,1-0.4,1.9-0.7,2.6L11.5,38.8z
		 M17,38.7c-0.3-0.8-0.6-1.7-0.8-2.6h1.1c0.2,1,0.4,1.9,0.8,2.6H17z"/>
</g>
</svg>
