<?xml version="1.0" encoding="utf-8"?>
<!-- Generator: Adobe Illustrator 22.0.1, SVG Export Plug-In . SVG Version: 6.00 Build 0)  -->
<svg version="1.1" id="圖層_1" xmlns="http://www.w3.org/2000/svg" xmlns:xlink="http://www.w3.org/1999/xlink" x="0px" y="0px"
	 viewBox="0 0 50 50" style="enable-background:new 0 0 50 50;" xml:space="preserve">
<style type="text/css">
	.st0{fill:#FFFFFF;}
</style>
<title>logo_hbk3</title>
<g id="圖層_2_1_">
	<g id="logo_cqssc">
		<path class="st0" d="M36.1,30.1c-0.8-0.4-1.7-0.7-2.7-1.1L44.3,21c-0.6-1.2-1.5-1.8-2.9-1.8c-3.6,0.1-7.1,0-10.7,0.1
			c-0.8,0-1.7,0.1-2.5,0.3c-1.8,0.5-2.8,2-2.9,3.9h10.5c-2.2,1.7-4.2,3.1-6.1,4.7c-0.7,0.6-1.2,1.5-1.9,2.4c0.7,0.3,1.1,0.4,1.5,0.7
			c0.6,0.5,1.3,1,1.7,1.6c1.2,2.1,1,4.2-0.9,5.8c-1.5,1.3-3.1,2.4-4.9,3.2c-3.4,1.5-6.9,2.7-10.3,4.1c-0.3,0.1-0.6,0.2-0.8,0.3
			l0.1,0.3c2.8-0.4,5.6-0.7,8.3-1.2c3.8-0.6,7.4-1.7,10.9-3.3c2-0.9,3.8-1.9,4.9-3.8C40.2,35.4,40.2,31.9,36.1,30.1z"/>
		<path class="st0" d="M18.3,33.5h6.2c0.1-1.1,0.1-2.1,0.2-3.2l-0.9-0.2c0.1-1.8,0.3-3.6,0.3-5.4c0-1.9-0.9-2.7-2.8-2.8
			c-0.8,0-1.7,0-2.6,0v-1.8h-3.3c-0.1,0.6-0.1,1.2-0.2,1.8h-2.6c-0.1,1.1-0.1,2.1-0.2,3.3c0.7,0,1.2-0.1,1.6,0
			c0.3,0.1,0.8,0.5,0.8,0.8c0,1.3-0.1,2.7-0.2,4.1h-3.4c-0.1,1.1-0.1,2.1-0.2,3.3h3c-0.7,1.9-1.6,3.5-3.1,4.7
			c-0.2,0.2-0.5,0.5-0.6,0.8c-0.1,1.1,0,2.3,0,3.4C13.7,41.9,16.5,38.7,18.3,33.5z M18.7,25.4c1.9-0.2,2.1,0,2,1.7
			c-0.1,0.9-0.1,1.9-0.2,2.8c0,0.1-0.1,0.1-0.1,0.2h-2C18.5,28.6,18.6,27,18.7,25.4z"/>
		<path class="st0" d="M6,21.6H3.2C2.8,28.2,2.4,34.8,2,41.3c2.3,0.1,2.8-0.4,2.9-2.4c0.3-5.4,0.7-10.8,1.1-16.2C6,22.4,6,22,6,21.6
			z"/>
		<path class="st0" d="M36.4,28.8l10.1-5.2l-1.1-1.4l-9.1,6.5L36.4,28.8z"/>
		<path class="st0" d="M37.6,29.3L48,25.9c-0.3-0.5-0.6-0.9-0.9-1.4l-9.6,4.6L37.6,29.3z"/>
		<path class="st0" d="M11.1,28.4l0.2-3.7l-1-0.1l-0.1,0c0.1-1.5,0.2-2.9,0.3-4.4H6.8c-0.5,7.5-0.9,14.9-1.4,22.4c0.6,0,1.1,0,1.6,0
			c1.5,0,2.1-0.5,2.2-2c0.1-1.1,0.1-2.1,0.2-3.2c0.2-3.1,0.4-6.2,0.6-9.1L11.1,28.4z"/>
		<path class="st0" d="M17.2,39.5c0,2,1.6,3.6,3.6,3.6s3.6-1.6,3.6-3.6c0-2-1.5-3.6-3.5-3.6C18.9,35.9,17.2,37.5,17.2,39.5z
			 M19.1,40.7c-0.4,0-0.8-0.3-0.8-0.7c0-0.4,0.3-0.8,0.7-0.8s0.8,0.3,0.8,0.7c0,0,0,0,0,0C19.8,40.4,19.5,40.7,19.1,40.7z
			 M22.6,39.3c0.4,0,0.7,0.3,0.8,0.7c0,0.4-0.3,0.7-0.7,0.8c-0.4,0-0.7-0.3-0.8-0.7C21.9,39.7,22.2,39.3,22.6,39.3
			C22.6,39.3,22.6,39.3,22.6,39.3z M21.2,38c0,0.5-0.4,0.9-0.9,0.9c-0.5,0-0.9-0.4-0.9-0.9c0-0.5,0.4-0.9,0.9-0.9
			C20.8,37.1,21.2,37.5,21.2,38C21.2,37.9,21.2,37.9,21.2,38z"/>
		<path class="st0" d="M12,16.2c0.7-1.6,1.1-3.3,1.4-5.1h2c-0.3,1.9-0.7,3.7-1.3,5.1L12,16.2z M13.1,6.2l-0.9-2.8h2.1l0.9,2.8H13.1z
			 M13.3,10.1l-0.9-3.1h2.1l0.9,3L13.3,10.1z M19.1,9.9c0.3,0,0.5,0.2,0.5,0.5c0,0,0,0,0,0l0,5.2c0,0.3-0.2,0.5-0.5,0.5c0,0,0,0,0,0
			h-2.9c-0.3,0-0.5-0.2-0.5-0.5c0,0,0,0,0,0l0-5.1c0-0.3,0.2-0.5,0.5-0.5h0.5l0-3h-1.1V6.2h1.1l0-2.8l2,0l0,2.8h1.1v0.8h-1.1l0,3
			L19.1,9.9z M17.9,10.8c0-0.1-0.1-0.1-0.1-0.1c0,0,0,0,0,0h-0.2c-0.1,0-0.1,0.1-0.1,0.1l0,4.5c0,0.1,0.1,0.1,0.1,0.1h0.2
			c0.1,0,0.1-0.1,0.1-0.1c0,0,0,0,0,0L17.9,10.8z M19.8,16.1c0.3-0.9,0.4-1.8,0.3-2.8l-0.1-9c0-0.5,0.4-0.9,0.9-0.9l2.7,0
			c0.5,0,0.9,0.4,0.9,0.9l0.1,10.9c0,0.5-0.4,0.9-0.9,0.9c0,0,0,0,0,0h-1.5v-0.8h0.2c0.2,0,0.4-0.2,0.4-0.4c0,0,0,0,0,0l0-2.7h-0.9
			v0.8c0,1.2-0.1,2.3-0.3,3L19.8,16.1z M22.8,4.5c0-0.1-0.1-0.3-0.3-0.3l0,0h-0.4c-0.1,0-0.3,0.1-0.3,0.3c0,0,0,0,0,0l0,3.1h0.9
			L22.8,4.5z M21.9,11.5h0.9l0-3.1h-0.9L21.9,11.5z"/>
		<path class="st0" d="M25.3,6.5l3.2,0l0-3.1h2l0.1,12.7h-2l0-2.7l-3.2,1v-1.2l3.2-1l0-5l-3.2,0L25.3,6.5z M32.3,3.3h2l0.1,11.5
			c0,0.3,0.2,0.5,0.5,0.5c0,0,0,0,0,0l3.2,0V16l-4.9,0c-0.5,0-0.9-0.4-0.9-0.9L32.3,3.3z M34.6,10.8c0.7-1.8,1.2-3.7,1.5-5.6h1.9
			c-0.3,1.9-0.8,3.8-1.5,5.6H34.6z"/>
	</g>
</g>
</svg>
