<?xml version="1.0" encoding="utf-8"?>
<!-- Generator: Adobe Illustrator 22.0.1, SVG Export Plug-In . SVG Version: 6.00 Build 0)  -->
<svg version="1.1" id="圖層_1" xmlns="http://www.w3.org/2000/svg" xmlns:xlink="http://www.w3.org/1999/xlink" x="0px" y="0px"
	 viewBox="0 0 50 50" style="enable-background:new 0 0 50 50;" xml:space="preserve">
<style type="text/css">
	.st0{fill:#FFFFFF;}
</style>
<title>幸运28反白50*50</title>
<path class="st0" d="M38.7,14.8c6.2,0,11.2,5,11.2,11.2s-5,11.2-11.2,11.2s-11.2-5-11.2-11.2c0,0,0,0,0,0
	C27.5,19.8,32.5,14.8,38.7,14.8z M41.5,30.6c3.9,0,7-3.2,7-7.1c0-3.9-3.2-7-7.1-7c-3.9,0-7,3.1-7,7c-0.1,3.9,3,7,6.9,7.1
	C41.4,30.6,41.5,30.6,41.5,30.6L41.5,30.6z"/>
<path class="st0" d="M29,35.3L29,35.3"/>
<path class="st0" d="M3.6,33.1h5l0.1-0.7h3.8l-0.1,0.7h4.5v-0.6h3.4l0.1,1.1H21l0.1-0.8h8C25.3,28,26.2,21,31,17.2
	c0.4-0.3,0.9-0.6,1.4-0.9C28.5,7.8,18.4,4.1,10,8s-12.2,14-8.3,22.4c0.5,1.1,1.1,2.1,1.8,3.1L3.6,33.1z M13.8,8.7
	c5.6,0,10.2,4.5,10.2,10.2C24,24.5,19.4,29,13.8,29S3.6,24.5,3.6,18.9c0,0,0,0,0,0C3.7,13.3,8.2,8.7,13.8,8.7z"/>
<path class="st0" d="M33.9,22.1c-0.1,0.5-0.2,1-0.2,1.5c0,0.5,0,0.9,0.1,1.4c0.1-0.5,0.1-1.1,0.1-1.6C33.9,22.9,33.9,22.5,33.9,22.1
	z"/>
<path class="st0" d="M22.9,18.8c0,5.1-4.2,9.3-9.3,9.3s-9.3-4.2-9.3-9.3s4.2-9.3,9.3-9.3c0,0,0,0,0,0C18.8,9.6,22.9,13.7,22.9,18.8z
	 M4.8,18.7c0,4.8,3.9,8.7,8.7,8.7c4.7-0.1,8.6-3.9,8.7-8.7c0-4.8-3.9-8.7-8.7-8.8S4.8,13.8,4.8,18.7L4.8,18.7z"/>
<path class="st0" d="M48.3,23.4c0,3.6-2.9,6.6-6.6,6.6c-3.6,0-6.6-2.9-6.6-6.6s2.9-6.6,6.6-6.6c0,0,0,0,0,0
	C45.3,16.9,48.3,19.8,48.3,23.4z M35.7,23.2c0,3.4,2.8,6.1,6.2,6.1s6.1-2.8,6.1-6.2S45.2,17,41.8,17c0,0,0,0,0,0
	C38.5,17,35.7,19.8,35.7,23.2C35.7,23.2,35.7,23.2,35.7,23.2L35.7,23.2z"/>
<path class="st0" d="M5.3,37.3H8l0.5,1.2h2.8l1-1.2h2.6l-1,1.2h2l-0.2,1.2H11l-0.1,0.9h5.1l-0.2,1.2h-5.1l-0.2,1.2H7.8L8,41.7H2.9
	l0.2-1.2h5.1l0.1-0.9H3.7l0.2-1.2h1.9L5.3,37.3z M9.5,33.2h2.6L12,33.8h4.8L16.6,35h-4.8l-0.1,0.8h5.2L16.7,37H3.6l0.2-1.2h5.2
	L9.2,35H4.4l0.2-1.2h4.8L9.5,33.2z"/>
<path class="st0" d="M15.8,42.8l0.2-1.2h0.7l0.9-4.9h-0.7l0.2-1.3h3l-1.3,7.4L15.8,42.8z M17.7,35.2l-0.1-1.9h2.2l0.1,1.1h0.4
	l-0.3,0.8H17.7z M19.6,42.8L19,41.6h9.9l-1,1.2H19.6z M28.2,38l0.6,2.8h-2.2l-0.2-1.1l-0.6,1.1H20l0.2-1.1l2.1-2.6h-2l0.2-1.2h9.2
	l-0.2,1.2h-4.6l-2.1,2.6h3.6L26.1,38H28.2z M29.5,33.6l-0.2,1.2h-8l0.2-1.2H29.5z"/>
<path class="st0" d="M31.4,38.5l-0.6,3.6h0.8l-0.3,0.5h-1.9l0.7-4.1H31.4z"/>
<path class="st0" d="M33.4,39.8L33,42.1h0.9l-0.3,0.5h-1.8l0.5-2.7H33.4z M35.5,39.8l-0.4,2.2h0.4l-0.3,0.5h-1.4l0.5-2.7L35.5,39.8z
	"/>
<path class="st0" d="M39,40.4h-1.8l-0.3,1.7h1.8l-0.2,0.5h-2.7l0.5-2.7h2.9L39,40.4z"/>
<path class="st0" d="M41.8,39.8H43l-1.6,1.2l1,1.1h0.3l-0.3,0.4h-0.9l-1.2-1.3l-0.2,1.3h-1.3l0.7-4.1h1.2l-0.4,2.3l0,0L41.8,39.8z"
	/>
<path class="st0" d="M44.6,39.8l-0.1,0.4l0.5,1.1l0.9-1.1l0.1-0.4h1.2L47,40.4l-2.5,3.2h-1.2l-0.1-0.5h0.4l0.7-0.8l-0.9-1.9l0.1-0.6
	L44.6,39.8z"/>
<path class="st0" d="M6.8,21.5l1-2.1c0.2-0.1,0.8-0.3,1.8-0.5c3.7-1,5.7-1.9,6.1-2.7c0.4-0.7,0.1-1.6-0.6-2c-0.8-0.3-1.5,0-2.1,1
	L10.6,14c0.9-2,2.7-2.5,5.1-1.4c2.3,1.2,3,2.8,2.2,4.7c-0.6,1.2-2.5,2.3-5.7,3.1c-0.8,0.2-1.6,0.4-2.4,0.7l5.1,2.5l-0.7,1.5
	L6.8,21.5z"/>
<path class="st0" d="M42,23.4L42,23.4c-0.6,0.4-1.5,0.3-2-0.3c-0.7-0.9-0.5-1.8,0.6-2.9c1.2-0.9,2.2-1,3-0.2c0.5,0.6,0.5,1.4,0,2
	c0.7-0.4,1.7-0.2,2.2,0.4c0.7,1,0.5,2-0.6,3.1c-1.2,1-2.3,1-3.2,0.1C41.5,25,41.5,24,42,23.4z M41.1,22.2c0.3,0.4,0.9,0.4,1.3,0.1
	c0,0,0.1-0.1,0.1-0.1c0.4-0.3,0.5-0.9,0.2-1.2c0,0,0,0,0-0.1c-0.4-0.4-1-0.4-1.4,0c-0.4,0.3-0.5,0.8-0.2,1.2
	C41,22.1,41,22.2,41.1,22.2L41.1,22.2z M43.1,24.6c0.3,0.4,1,0.5,1.4,0.2c0,0,0,0,0.1,0c0.4-0.4,0.4-1,0-1.4c0,0,0,0,0,0
	c-0.3-0.4-1-0.5-1.4-0.2c0,0,0,0-0.1,0C42.7,23.6,42.7,24.2,43.1,24.6C43.1,24.6,43.1,24.6,43.1,24.6L43.1,24.6z"/>
</svg>
