<?xml version="1.0" encoding="utf-8"?>
<!-- Generator: Adobe Illustrator 21.0.0, SVG Export Plug-In . SVG Version: 6.00 Build 0)  -->
<svg version="1.1" id="logo_x5F_cqssc" xmlns="http://www.w3.org/2000/svg" xmlns:xlink="http://www.w3.org/1999/xlink" x="0px"
	 y="0px" viewBox="0 0 49.3 38.9" style="enable-background:new 0 0 49.3 38.9;" xml:space="preserve">
<style type="text/css">
	.st0{fill:#FFFFFF;}
	.st1{opacity:0.4;fill:#FFFFFF;enable-background:new    ;}
</style>
<title>logo_cqssc</title>
<g>
	<g>
		<path class="st0" d="M21.1,26.7c-0.1,0.3-1.2,2.5-1.3,2.5h-1.5c0-0.3,1.2-2.5,1.3-2.5C20.2,26.7,20.6,26.7,21.1,26.7L21.1,26.7z"
			/>
		<path class="st0" d="M15.7,24.3h2.4l-0.7,5.2c-0.1,0.3,0.2,0.5,0.4,0.5c0,0,4.4,0,6.6,0c0,0.3,0,0.8,0,1.1c0,0-5.7,0-7.7,0
			c-0.4,0-0.8-0.2-0.9-0.8l0.6-4.9c-0.2,0-0.6,0-0.8,0L15.7,24.3L15.7,24.3z"/>
		<path class="st0" d="M21.1,22l-0.3,0.7c0.2,0,0.5,0,0.7,0l0.1-0.7h1.6v0.7h2.4v0.9h-2.5L23,25.2h2.4v0.9h-1.8l-0.1,2h1.3v1.1
			c-1,0-2,0-2,0c-0.8,0.1-0.9-0.4-0.8-0.9l0.1-2.1h-3.4v-0.9h2.6c0.1-0.5,0.1-1,0.2-1.4c-0.5-0.1-0.3-0.1-0.9-0.2l-0.3,0.9h-1.5
			l0.9-2.6H21.1L21.1,22z"/>
		<path class="st0" d="M16.4,22c0.5,0,1,0,1.5,0c0.1,0.7,0.2,1.3,0.4,2h-1.5C16.6,23.3,16.5,22.6,16.4,22L16.4,22z"/>
		<path class="st0" d="M8.7,21.6l-1.3,9.5H5.2c0-0.1-0.1-0.1-0.1-0.2l1-6.5c-0.5,0.1-0.9,0.3-1.4,0.4v-1.7L8.7,21.6L8.7,21.6z"/>
		<path class="st0" d="M13.1,31.1h-2.4l0.9-6.6l-1.5,0.4l0.2-1.6l4-1.8C14,24.6,13.5,28,13.1,31.1L13.1,31.1z"/>
		<path class="st0" d="M27.7,18.9c2.5,0,5,0,7.5,0c-0.1,0.8-0.1,1.6-0.2,2.4h-5.1c-0.1,0.5-0.1,1-0.2,1.5c7.6,0.9,6,8.4-0.2,8.4
			h-3.3v-2h3.4c3.6-0.5,2.8-4.1-0.9-4.2h-1.8C27.2,22.9,27.5,20.8,27.7,18.9L27.7,18.9z"/>
		<path class="st0" d="M10.1,16.6c0.2-0.5,1.2-0.9,2.1,0.1c2.9,2.4,4.9,2.1,7.8,2C17,20.4,8.5,20.1,10.1,16.6L10.1,16.6z"/>
		<path class="st0" d="M20.6,18c-6.3,1.1-14-8.4-9.5-10.2c0.9-0.3,2.2-0.3,2.8,1.6C14.6,13.9,16.8,17.1,20.6,18L20.6,18z"/>
		<path class="st0" d="M30.4,7.4C41.3,6.9,46,16,45.1,22.6c-1.2,9-12.6,17.1-22.5,9c11.2,4.7,17.6-3.8,17.4-10.4
			c-0.2-5.8-7.2-10-13.7-3.9C19.5,20.9,15.6,9.1,30.4,7.4L30.4,7.4z"/>
		<path class="st0" d="M40.1,1.8c2.1,2.3-0.6,4.6-2.4,4.4c-1.3,0.1-8.9-2.9-17,4C24.4,1,36.5-2.3,40.1,1.8L40.1,1.8z"/>
		<path class="st0" d="M20.9,0.3c1.9,0,3.2,2.3,2.2,3.8c-3.7,3.5-6,9.4-2.3,13.6C12.7,13,15.9,0.3,20.9,0.3L20.9,0.3z"/>
		<path class="st0" d="M26.2,17.1c-0.8-5.7,11.3-7.8,14.9-0.4c2.2,4.2-0.1,11.3-5.5,13.9c3.7-3.1,4.8-7.7,4-11.3
			C38.7,16.3,33.6,10.8,26.2,17.1L26.2,17.1z"/>
		<path class="st1" d="M18.1,1.7c1.4,0.1,3.3,0.5,5.3,1.5c0-0.2,0-0.3,0-0.5c0-0.5-0.7-2.5-2.6-2.4C19.5,0.4,18.6,1.1,18.1,1.7
			L18.1,1.7z M25.2,4.2c0.9,0.6,1.8,1.3,2.7,2.1c1.1-0.3,4-1,7.7-0.4c0,0,0.7,0.1,1.3,0.2c-0.5-2.3-1.5-4.4-2.9-6
			C28.5,0.9,25.5,3.9,25.2,4.2L25.2,4.2z M29.1,7.6c1.6,1.7,3.1,3.9,4.6,6.7c0.7,0.1,2,0.4,3.5,1.5c0.3-2.3,0.3-4.8,0.1-7.3
			C36.3,8.1,33.1,7,29.1,7.6L29.1,7.6z"/>
	</g>
</g>
<g>
	<path class="st0" d="M5.6,38.7H4.5C4.9,38.2,5,37.6,5,37.1v-3.7c0-0.3,0.2-0.5,0.5-0.5h2.3V32h1.1v0.9h2.3v0.4H6.4
		c-0.1,0-0.3,0.1-0.3,0.3v3.5C6.1,37.6,5.9,38.3,5.6,38.7z"/>
	<path class="st0" d="M11.5,32.9h1.3l0.4-0.9h1.1l-0.4,0.9h4.2v0.4h-4.3l-0.7,1.6c0,0.1,0,0.2,0,0.2c0,0.1,0.1,0.1,0.2,0.1h1.1v-1.3
		h1.1v1.3H18v0.4h-2.5v2.6c0,0.3-0.2,0.5-0.5,0.5h-1.4v-0.4h0.6c0.1,0,0.3-0.1,0.3-0.3v-2.4h-2.1c-0.1,0-0.3-0.1-0.4-0.2
		c-0.1-0.1-0.1-0.3-0.1-0.4l0.8-1.7h-1.2L11.5,32.9z M11.6,38.7c0.3-0.8,0.6-1.6,0.7-2.6h1.1c-0.2,1-0.4,1.9-0.7,2.6H11.6z
		 M17.1,38.7c-0.3-0.8-0.6-1.7-0.8-2.7h1.1c0.2,1,0.4,1.9,0.8,2.6L17.1,38.7z"/>
</g>
</svg>
