<svg xmlns="http://www.w3.org/2000/svg" viewBox="0 0 155.25 146.26"><defs><style>.cls-1{fill:#fff;}</style></defs><title>logo_hbk3</title><g id="圖層_2" data-name="圖層 2"><g id="logo_cqssc"><path class="cls-1" d="M114.89,90.32c-2.85-1.28-5.81-2.3-9-3.55l36.81-27.25c-2.13-4.2-4.92-6.11-9.82-5.94-12,.4-24,.05-36.05.17a33.54,33.54,0,0,0-8.47,1.11c-6,1.67-9.6,6.64-9.89,13.27h35.45c-7.28,5.63-14,10.57-20.4,15.92C91,86.13,89.33,89.15,87,92.12c2.29,1,3.84,1.33,4.94,2.21C94,96,96.4,97.64,97.67,99.87c4.07,7.14,3.32,14.2-2.89,19.61A68,68,0,0,1,78.25,130.3c-11.35,5.11-23.15,9.24-34.76,13.78-1,.37-1.88.76-2.83,1.14l.32,1c9.37-1.33,18.79-2.44,28.12-4a157.46,157.46,0,0,0,36.75-11c6.58-2.88,12.77-6.53,16.62-12.81C128.74,108.17,128.81,96.53,114.89,90.32Z"/><path class="cls-1" d="M55.05,101.64h20.8c.25-3.75.48-7.13.71-10.65l-3.15-.59c.4-6.23,1-12.15,1.11-18.09.13-6.24-3.07-9.25-9.28-9.3-2.81,0-5.63,0-8.6,0V57H45.48c-.26,2-.5,3.92-.77,6.09H36.1c-.25,3.77-.48,7.22-.73,11,2.19,0,4-.34,5.55.11,1.1.32,2.68,1.7,2.69,2.62,0,4.52-.37,9-.64,13.83H31.62c-.22,3.73-.42,7.21-.63,11h10c-2.19,6.51-5.34,11.75-10.49,15.75-.81.64-1.83,1.65-1.88,2.54-.2,3.85-.09,7.71-.09,11.6C39.41,130.16,49,119.29,55.05,101.64Zm1.4-27.24c6.41-.68,7.22.08,6.77,5.86-.24,3.18-.47,6.37-.73,9.55,0,.2-.21.39-.4.72H55.37C55.73,85.1,56.08,79.82,56.45,74.4Z"/><path class="cls-1" d="M13.45,61.71H4.23C2.81,84,1.41,106.09,0,128.18c7.67.24,9.47-1.37,9.9-8.1q1.74-27.24,3.54-54.48C13.51,64.38,13.45,63.15,13.45,61.71Z"/><path class="cls-1" d="M116,85.79l34.1-17.67-3.73-4.78L115.67,85.23Z"/><path class="cls-1" d="M120.06,87.46,155.25,76c-1.14-1.8-2-3.11-3-4.64L119.78,86.78Z"/><path class="cls-1" d="M30.9,84.61l.68-12.35-3.27-.18L28,72c.31-5,.61-9.88.92-14.94H16.46c-1.59,25.15-3.17,50.11-4.78,75.53,2.08,0,3.77,0,5.45,0,5.18-.05,7-1.75,7.38-6.9.25-3.54.46-7.08.69-10.62.68-10.41,1.37-20.81,2-30.67Z"/><path class="cls-1" d="M51.26,121.93a12.09,12.09,0,1,0,12.45-12A12.25,12.25,0,0,0,51.26,121.93Zm6.49,4.2a2.48,2.48,0,1,1,2.35-2.59A2.48,2.48,0,0,1,57.75,126.13Zm11.81-4.77A2.47,2.47,0,1,1,67.21,124,2.48,2.48,0,0,1,69.56,121.36Zm-4.81-4.6a2.95,2.95,0,1,1-2.94-3A2.94,2.94,0,0,1,64.75,116.76Z"/><path class="cls-1" d="M33.71,43.43a61.87,61.87,0,0,0,4.55-17.21l6.89,0c-.87,6.44-2.32,12.61-4.51,17.2ZM37.47,9.87,34.41.33l7,0,3,9.54ZM38.19,23,35,12.69l7,0,3.06,10.26Zm19.53-.81a1.71,1.71,0,0,1,1.73,1.71l.12,17.35A1.72,1.72,0,0,1,57.86,43L48,43a1.72,1.72,0,0,1-1.73-1.72L46.13,24a1.73,1.73,0,0,1,1.71-1.74h1.54l-.07-10-3.76,0,0-2.58,3.76,0L49.23.23,56,.18l.07,9.38,3.76,0v2.59l-3.76,0,.07,10Zm-4.06,2.93a.42.42,0,0,0-.46-.41h-.81a.41.41,0,0,0-.41.41l.1,15a.42.42,0,0,0,.41.4h.82a.43.43,0,0,0,.45-.41ZM60.13,43.3a30.2,30.2,0,0,0,1.16-9.39L61.08,3.68a3.11,3.11,0,0,1,3-3.06L73.25.56a3.05,3.05,0,0,1,3,3l.25,36.57a3,3,0,0,1-3,3.05l-5.12,0,0-2.58h.77a1.27,1.27,0,0,0,1.26-1.32l-.06-9.11-3.17,0,0,2.86c0,3.89-.22,7.61-1.11,10.15ZM70.19,4a.86.86,0,0,0-.86-.86H67.88a.86.86,0,0,0-.86.87l.07,10.42,3.17,0Zm-3,23.63,3.17,0-.07-10.56-3.17,0Z"/><path class="cls-1" d="M78.8,10.67l10.7-.07L89.43.13l6.89,0L96.61,43l-6.89,0-.06-9L79,37.32l0-3.9,10.67-3.29-.11-16.94-10.7.07ZM102.25.05l6.89,0,.26,38.61a1.72,1.72,0,0,0,1.74,1.71l10.74-.07v2.58l-16.36.11a3,3,0,0,1-3-3ZM110,25.19a105,105,0,0,0,5.17-18.84l6.53,0a95.44,95.44,0,0,1-5.18,18.84Z"/></g></g></svg>