<?xml version="1.0" encoding="utf-8"?>
<!-- Generator: Adobe Illustrator 22.0.1, SVG Export Plug-In . SVG Version: 6.00 Build 0)  -->
<svg version="1.1" id="圖層_1" xmlns="http://www.w3.org/2000/svg" xmlns:xlink="http://www.w3.org/1999/xlink" x="0px" y="0px"
	 viewBox="0 0 50 50" style="enable-background:new 0 0 50 50;" xml:space="preserve">
<style type="text/css">
	.st0{fill:#FFFFFF;}
	.st1{fill:none;stroke:#FFFFFF;stroke-miterlimit:10;}
</style>
<g>
	<g>
		<path class="st0" d="M17.4,10c-0.2-0.1-0.3-0.1-0.4-0.3c-0.1-0.1-0.1-0.3-0.1-0.4c0-0.2,0.1-0.5,0.2-0.6c0.2-0.2,0.4-0.3,0.7-0.3
			s0.5,0.1,0.7,0.2c0.2,0.2,0.3,0.4,0.3,0.6s0,0.3-0.1,0.4c-0.1,0.1-0.2,0.2-0.4,0.3c0.2,0.1,0.4,0.2,0.5,0.3s0.2,0.3,0.2,0.5
			c0,0.3-0.1,0.5-0.3,0.7c-0.2,0.2-0.5,0.3-0.8,0.3c-0.3,0-0.6-0.1-0.8-0.3c-0.2-0.2-0.3-0.4-0.3-0.7c0-0.2,0-0.4,0.2-0.6
			C17,10.2,17.2,10.1,17.4,10z M17.2,11c0,0.1,0,0.2,0.1,0.3s0.1,0.2,0.3,0.2c0.1,0.1,0.2,0.1,0.4,0.1s0.4-0.1,0.5-0.2
			c0-0.1,0.1-0.2,0.1-0.4s-0.1-0.4-0.2-0.5s-0.3-0.2-0.5-0.2c-0.2,0-0.4,0.1-0.5,0.2S17.2,10.7,17.2,11z M17.3,9.3
			c0,0.2,0.1,0.3,0.2,0.4c0.1,0.1,0.2,0.1,0.4,0.1c0.2,0,0.3-0.1,0.4-0.2c0.1-0.1,0.1-0.2,0.1-0.4c0-0.2-0.1-0.3-0.2-0.4
			c-0.1-0.1-0.2-0.1-0.4-0.1s-0.3,0.1-0.4,0.2C17.3,9,17.3,9.2,17.3,9.3z"/>
	</g>
	<g>
		<path class="st0" d="M23.6,14.8l0.5,0.1c0,0.3,0,0.5,0.1,0.7s0.2,0.3,0.4,0.3c0.2,0.1,0.4,0.1,0.6,0s0.3-0.3,0.4-0.5
			c0.1-0.2,0.1-0.4,0-0.6c-0.1-0.2-0.2-0.3-0.5-0.4c-0.1,0-0.2-0.1-0.3-0.1l0.2-0.4h0.1c0.2,0.1,0.4,0.1,0.6,0
			c0.2,0,0.3-0.2,0.4-0.4c0.1-0.2,0.1-0.3,0-0.5c-0.1-0.2-0.2-0.3-0.4-0.3c-0.2-0.1-0.3-0.1-0.5,0S25,12.8,24.8,13l-0.4-0.3
			c0.2-0.3,0.4-0.5,0.7-0.6c0.3-0.1,0.5-0.1,0.8,0c0.2,0.1,0.4,0.2,0.5,0.3c0.1,0.2,0.2,0.3,0.3,0.5c0,0.2,0,0.4,0,0.5
			c-0.1,0.2-0.2,0.3-0.3,0.4C26.4,13.9,26.2,14,26,14c0.2,0.1,0.3,0.3,0.4,0.5c0.1,0.2,0,0.4,0,0.7c-0.1,0.3-0.3,0.6-0.7,0.7
			c-0.3,0.1-0.7,0.1-1.1,0s-0.6-0.3-0.7-0.6C23.8,15.1,23.6,15.1,23.6,14.8z"/>
	</g>
	<path class="st1" d="M14.4,16.7c-3.6,0.6-6,4.1-5.4,7.8c0.6,3.6,4.1,6.2,7.7,5.4c3.6-0.6,6-4.1,5.4-7.8
		C21.6,18.5,18.1,16,14.4,16.7z"/>
	<g>
		<path class="st0" d="M17.8,15.7c-0.5-0.2-1.2-0.3-1.8-0.3c0.5,0.2,1.1,0.3,1.7,0.3C17.8,15.7,17.8,15.7,17.8,15.7z"/>
		<path class="st0" d="M13.3,10.5c0.4-0.1,0.8-0.1,1.4-0.2c0,0,0,0,0-0.1c0-1.7,1.4-3.1,3.1-3.1c1.7,0,3.1,1.4,3.1,3.1
			c0,0.1,0,0.3,0,0.4c0.3-0.4,0.7-0.7,1.3-1.1c-0.6-1.8-2.3-3.1-4.3-3.1C15.5,6.6,13.6,8.4,13.3,10.5C13.3,10.6,13.3,10.6,13.3,10.5
			z"/>
	</g>
	<g>
		<path class="st0" d="M26.3,11.2c1.5,0.4,2.5,1.8,2.7,3.3h1.4c-0.1-2.8-2.4-4.9-5.2-4.9c-1.7,0-3.2,0.8-4.1,2.1
			c0.4,0.2,0.8,0.4,1.3,0.6C23.3,11.2,24.8,10.6,26.3,11.2z"/>
	</g>
	<g>
		<g>
			<path class="st0" d="M10.6,21.1h3.2c0.3,0,0.4,0,0.6-0.2h1c-0.1,0.3-0.3,0.5-0.7,0.5h-1.2v0.4h2.1v0.3h-2.1v0.3h1.7
				c0.2,0,0.3,0.2,0.3,0.3v1.3c0,0.2-0.2,0.3-0.3,0.3h-1.7v0.4h1.9v0.3h-1.9v0.4h2.1v0.3h-5.1v-0.3h2.1v-0.4h-1.9v-0.3h1.9v-0.4
				h-1.7c-0.2,0-0.3-0.1-0.3-0.3v-1.3c0-0.2,0.2-0.3,0.3-0.3h1.7v-0.3h-2.1v-0.3h2.1v-0.4h-2C10.6,21.5,10.6,21.1,10.6,21.1z
				 M11.4,23.5h1.2v-0.5h-1c-0.1,0-0.2,0.1-0.2,0.2C11.4,23.2,11.4,23.5,11.4,23.5z M11.6,24.3h1v-0.5h-1.2v0.3
				C11.4,24.2,11.5,24.3,11.6,24.3z M13.4,22.9v0.5h1.2v-0.3c0-0.1-0.1-0.2-0.2-0.2H13.4z M14.6,23.8h-1.2v0.5h1
				c0.1,0,0.2-0.1,0.2-0.2V23.8z"/>
		</g>
	</g>
	<g>
		<g>
			<path class="st0" d="M16.9,24.9c0,0.4-0.1,1-0.3,1.3h-0.8c0.3-0.4,0.4-1,0.4-1.3v-3c0-0.2,0.2-0.3,0.3-0.3h1.7V21H19v0.5h1.8v0.3
				h-3.7c-0.1,0-0.2,0.1-0.2,0.2V24.9z M17.1,23.2h1.4v-1h0.8v1h1.5v0.3h-1.4c0.3,1,0.7,1.8,1.3,2.7h-0.8c-0.3-0.5-0.6-1.1-1-1.7
				c-0.2,0.6-0.5,1.2-1,1.7h-1c0.5-0.8,1.1-1.6,1.3-2.7H17v-0.3H17.1z"/>
		</g>
	</g>
	<g>
		<g>
			<path class="st0" d="M24,35.5c1.3-2.8,2.3-6,3.2-9.3h-1.6l0.2-1.3h4.6l0.3-1.7h3.4l-0.3,1.7h4.7l-0.2,1.3h-1.6
				c-0.3,3.3-0.4,6.7-0.1,9.3h-3.2c-0.2-2.7-0.2-5.9,0.2-9.3l0,0L31.3,38h-3.4l2.3-11.9l0,0c-0.8,3.4-1.9,6.7-3.1,9.3
				C27.2,35.5,24,35.5,24,35.5z M27.2,22.4l0.5-5.1h3l-0.4,5.1H27.2z M27.6,15.3h6.3c1.4,0,2.1-0.3,2.7-1.1h3.7
				c-0.6,1.5-1.8,2.3-3.7,2.3h-9.2L27.6,15.3z M31.3,22.4l0.5-5.1h3.1l-0.5,5.1H31.3z M35,22.4l1.3-5.1h3.1l-1.3,5.1H35z M47.4,20.6
				c-1.6,2.5-3.2,4.6-5.3,6.3h-3.7c2.4-2,4.2-4.1,5.7-6.3H47.4z M48.5,13.4c-1.6,2.5-3.3,4.6-5.3,6.4h-3.7c2.4-2,4.2-4.1,5.7-6.4
				H48.5z"/>
		</g>
	</g>
	<path class="st0" d="M47.4,28.4c0,0-3.8,5.7-5.8,7.8c-2.1,2.2-2.9,3.2-5.6,4.8c-4.1,2.2-11.4,2.9-15.9,2.7
		c-3.3-0.1-6.5-0.3-9.8-0.7c-1.6-0.2-3.2-0.4-4.9-0.7c-1.3-0.2-2.5-0.8-3.8-1c5,0.5,9.9,0.5,14.9,0.4c4.3-0.1,9.8-0.8,14-2.1
		C37.1,37.4,43.6,28,43.6,28L47.4,28.4z"/>
	<g>
		<path class="st0" d="M25,24.7c0.1-0.4,0.4-0.7,0.8-0.7h1.8c0-0.2,0-0.4,0-0.6h-0.4c-0.2,0-0.5-0.1-0.6-0.3
			c-0.2-0.2-0.2-0.4-0.2-0.7l0.4-3.7c-2.1-5.1-7.5-8.3-13.3-7.2c-6.6,1.2-11,7.4-9.9,14c0.4,2.7,1.8,5,3.6,6.7
			c0.3,0,0.6,0.2,0.8,0.4h1.8v-0.2c0-0.4,0.3-0.7,0.7-0.7H12c0.4,0,0.7,0.3,0.7,0.7v0.2c0.3,0,0.6,0.3,0.6,0.7v-1
			c0-0.7,0.6-1.4,1.5-1.4h2.3c0.4,0,0.8,0.2,1.2,0.5l0,0h2.2V31c0-0.4,0.3-0.7,0.7-0.7h1.6c0.4,0,0.7,0.3,0.7,0.7v0.4
			c0.3,0,0.5,0.2,0.6,0.4c0.2-0.2,0.4-0.4,0.6-0.6c0.4-1.3,0.8-2.8,1.3-4.1h-0.4c-0.3,0-0.5-0.1-0.7-0.3c-0.2-0.2-0.2-0.4-0.2-0.7
			L25,24.7z M16.9,30.6c-4,0.7-7.8-2-8.6-6c-0.7-4,2-7.8,6-8.6c4-0.7,7.8,2,8.6,6C23.6,26,20.9,29.9,16.9,30.6z"/>
		<path class="st0" d="M20.3,33.4c0.1,0,0.1,0.1,0.1,0.1v-0.1H20.3z"/>
		<path class="st0" d="M12.6,34.5v0.6c0.2,0,0.4,0.1,0.6,0.1v-1.5C13.3,34.1,13,34.4,12.6,34.5z"/>
	</g>
	<g>
		<g>
			<path class="st0" d="M4.6,33.4c0-0.3,0.3-0.5,0.6-0.5h1.9c0.3,0,0.6,0.2,0.6,0.5v5.9c0,0.3-0.3,0.5-0.6,0.5H5.2
				c-0.3,0-0.6-0.2-0.6-0.5V33.4z M6.5,33.4c0-0.1-0.1-0.2-0.2-0.2H6c-0.1,0.1-0.1,0.1-0.1,0.2v2.7h0.6V33.4z M6.3,39.4
				c0.1,0,0.2-0.1,0.2-0.2v-2.5H5.9v2.7c0,0.1,0.1,0.2,0.2,0.2h0.2V39.4z M8.1,33.2h2.5v-1H12v1h0.6v0.5H12v6c0,0.3-0.2,0.5-0.6,0.5
				H9.6v-0.5h0.7c0.2,0,0.3-0.1,0.3-0.3v-5.8H8.1V33.2z M9,38.5c-0.3-1.2-0.5-2.3-0.6-3.6h1.2c0.1,1.3,0.3,2.4,0.6,3.6H9z"/>
		</g>
	</g>
	<g>
		<g>
			<path class="st0" d="M14,32.3c0-0.3,0.3-0.6,0.7-0.6h2.3c0.4,0,0.7,0.3,0.7,0.6v7c0,0.3-0.3,0.6-0.7,0.6h-2.3
				c-0.4,0-0.7-0.3-0.7-0.6C14,39.3,14,32.3,14,32.3z M16.3,32.4c0-0.1-0.1-0.2-0.2-0.2h-0.3c-0.1,0-0.2,0.1-0.2,0.2v3.2h0.7V32.4z
				 M16,39.4c0.1,0,0.2-0.1,0.2-0.2v-3.1h-0.7v3.1c0,0.1,0.1,0.2,0.2,0.2H16z M18.2,32.2h3V31h1.6v1.2h0.7v0.5h-0.7v7.1
				c0,0.3-0.3,0.6-0.7,0.6h-2.1v-0.5h0.8c0.2,0,0.4-0.2,0.4-0.4v-6.9h-3V32.2z M19.3,38.3c-0.4-1.4-0.6-2.8-0.7-4.2h1.5
				c0.2,1.5,0.4,2.9,0.7,4.2H19.3z"/>
		</g>
	</g>
</g>
</svg>
