<?xml version="1.0" encoding="utf-8"?>
<!-- Generator: Adobe Illustrator 22.0.1, SVG Export Plug-In . SVG Version: 6.00 Build 0)  -->
<svg version="1.1" id="圖層_1" xmlns="http://www.w3.org/2000/svg" xmlns:xlink="http://www.w3.org/1999/xlink" x="0px" y="0px"
	 viewBox="0 0 50 50" style="enable-background:new 0 0 50 50;" xml:space="preserve">
<style type="text/css">
	.st0{fill:#FFFFFF;}
	.st1{fill:none;stroke:#FFFFFF;stroke-width:0.5;stroke-miterlimit:10;}
</style>
<title>sixlottery</title>
<g id="图层_2">
	<g id="左側選單">
		<path class="st0" d="M10.3,21.3h5v1.6h-12v-1.6H10.3L10.3,21.3z M7.4,24.2l-0.7,5.6c-0.1,1-0.6,1.5-1.3,1.5h-2v-1.6h0.8
			c0.3,0,0.5-0.3,0.6-0.8l0.6-4.7H7.4z M10.7,24.2h2l0.7,5c0.1,0.3,0.2,0.5,0.4,0.5h1v1.7h-2c-0.6,0-1.1-0.4-1.2-0.9L10.7,24.2z"/>
		<path class="st0" d="M19,19.8h7.4l1,1.7c0.2,0.4,0.4,0.6,0.6,0.6h0.5v1.6h-1.4c-0.4,0-0.7-0.2-0.9-0.5L25,21.4h-4.6l-1.3,1.7
			c-0.2,0.3-0.6,0.5-0.9,0.5h-1.5v-1.6h0.6c0.2,0,0.4-0.2,0.6-0.6L19,19.8z M28.2,24.1v1.6H17v-1.6H28.2z M17.2,26.4H28v3.9
			c0,0.8-0.5,1.2-1.4,1.2h-9.4V26.4z M25.5,29.9c0.3,0,0.5-0.1,0.5-0.4V28h-7v1.9L25.5,29.9z"/>
		<path class="st0" d="M30.9,27.4h1.7L32,30.6c-0.1,0.7-0.5,1.1-1.1,1.1h-0.9v-1.5h0.4c0.1,0,0.2-0.2,0.3-0.5L30.9,27.4z M36.5,19.6
			h2c0,0.5-0.2,1.1-0.6,1.5c-0.3,0.3-0.7,0.4-1.2,0.4H30V20h6C36.2,20,36.4,19.9,36.5,19.6L36.5,19.6z M37.4,25.3v1.5h-2.8v4.8H33
			v-4.8h-2.9v-1.5H33v-0.8h1.7v0.8L37.4,25.3z M30.1,22h1.6v0.6c0,0.1,0.1,0.2,0.3,0.2h0.3v1.3h-1.2c-0.6,0-0.9-0.3-0.9-0.8L30.1,22
			z M32.6,22h1.6v0.6c0,0.1,0.1,0.2,0.3,0.2h0.3v1.3h-1.1c-0.6,0-0.9-0.3-0.9-0.8L32.6,22z M35.1,27.4h1.7l0.4,2.3
			c0,0.3,0.1,0.4,0.4,0.4h0.1v1.5h-0.9c-0.5,0-0.8-0.3-0.9-0.8L35.1,27.4z M35.9,22h1.6v1.4c0,0.5-0.3,0.8-0.9,0.8h-1.2v-1.3h0.4
			c0.1,0,0.2,0,0.2-0.2V22z"/>
		<polygon class="st0" points="44.7,18.6 38.8,25.1 41.4,26.4 39.2,29.7 44.7,25.3 42.5,24.2 		"/>
		<polygon class="st0" points="47,25.3 39.2,32 42.5,34.2 36.9,43.1 45.9,34.2 42.5,32 		"/>
		<circle class="st0" cx="9.6" cy="19.1" r="1.1"/>
		<circle class="st0" cx="13" cy="13.6" r="1.1"/>
		<circle class="st0" cx="19.1" cy="9.7" r="1.7"/>
		<circle class="st0" cx="26.9" cy="8.6" r="1.7"/>
		<circle class="st0" cx="34.7" cy="9.7" r="1.7"/>
		<circle class="st0" cx="40.8" cy="14.7" r="2.2"/>
		<line class="st1" x1="3" y1="34.8" x2="39.2" y2="34.8"/>
		<path class="st0" d="M12,39.2c0-0.5,0-1.2,0-1.6l0,0c-0.1,0.4-0.3,0.9-0.5,1.4l-0.7,1.8h-0.4L9.8,39c-0.2-0.5-0.3-1-0.4-1.4l0,0
			c0,0.5,0,1.1-0.1,1.7l-0.1,1.6H8.8L9,37.1h0.6l0.6,1.8c0.2,0.5,0.3,0.9,0.4,1.3l0,0c0.1-0.4,0.2-0.8,0.4-1.3l0.7-1.8h0.6l0.2,3.7
			h-0.4L12,39.2z"/>
		<path class="st0" d="M15,39.7l-0.4,1.2h-0.4l1.3-3.7H16l1.3,3.7h-0.6l-0.4-1.2H15z M16.2,39.3l-0.4-1.1c-0.1-0.3-0.1-0.5-0.2-0.7
			l0,0c0,0.2-0.1,0.4-0.2,0.7l-0.4,1.1H16.2z"/>
		<path class="st0" d="M18.9,37.1c0.3-0.1,0.6-0.1,0.9-0.1c0.4,0,0.8,0.1,1.1,0.3c0.2,0.2,0.3,0.4,0.3,0.7c0,0.4-0.3,0.8-0.7,1l0,0
			c0.3,0.1,0.5,0.4,0.6,0.8c0.1,0.4,0.2,0.7,0.3,1h-0.5c-0.1-0.3-0.2-0.6-0.3-0.9c-0.1-0.5-0.3-0.7-0.8-0.7h-0.5v1.6h-0.5V37.1z
			 M19.4,38.9h0.5c0.5,0,0.8-0.3,0.8-0.7s-0.3-0.7-0.9-0.7c-0.2,0-0.3,0-0.5,0L19.4,38.9z"/>
		<path class="st0" d="M23,37.1h0.5v1.8l0,0l0.3-0.4l1.1-1.4h0.6l-1.4,1.6l1.5,2.2H25L23.9,39l-0.4,0.4v1.4h-0.5L23,37.1z"/>
		<path class="st0" d="M27.6,37.1v3.7h-0.5v-3.7H27.6z"/>
		<path class="st0" d="M31.7,40.9L31.2,40c-0.2-0.3-0.3-0.5-0.4-0.7l0,0c-0.1,0.2-0.2,0.4-0.4,0.8l-0.4,0.8h-0.6l1.1-1.9l-1.1-1.9
			h0.6l0.5,0.9c0.1,0.3,0.3,0.4,0.3,0.6l0,0c0.1-0.2,0.2-0.4,0.3-0.6l0.5-0.9h0.6l-1.1,1.9l1.2,1.9H31.7z"/>
	</g>
</g>
</svg>
