<?xml version="1.0" encoding="utf-8"?>
<!-- Generator: Adobe Illustrator 22.0.1, SVG Export Plug-In . SVG Version: 6.00 Build 0)  -->
<svg version="1.1" id="logo_x5F_cqssc" xmlns="http://www.w3.org/2000/svg" xmlns:xlink="http://www.w3.org/1999/xlink" x="0px"
	 y="0px" viewBox="0 0 50 50" style="enable-background:new 0 0 50 50;" xml:space="preserve">
<style type="text/css">
	.st0{fill:#FFFFFF;}
</style>
<title>logo_cqssc</title>
<g>
	<g>
		<path class="st0" d="M34.8,29.9c-0.7-0.3-1.5-0.6-2.3-0.9c3.2-2.4,6.4-4.7,9.6-7.1c-0.6-1.1-1.3-1.6-2.5-1.5c-3.1,0.1-6.2,0-9.4,0
			c-0.7,0-1.5,0.1-2.2,0.3c-1.5,0.4-2.5,1.7-2.6,3.4c3,0,6,0,9.2,0c-1.9,1.5-3.6,2.7-5.3,4.1c-0.6,0.5-1.1,1.3-1.7,2.1
			c0.6,0.3,1,0.3,1.3,0.6c0.5,0.4,1.2,0.9,1.5,1.4c1.1,1.9,0.9,3.7-0.7,5.1c-1.3,1.1-2.7,2.1-4.3,2.8c-2.9,1.3-6,2.4-9,3.6
			c-0.2,0.1-0.5,0.2-0.7,0.3c0,0.1,0.1,0.2,0.1,0.3c2.4-0.3,4.9-0.6,7.3-1c3.3-0.6,6.5-1.5,9.5-2.9c1.7-0.7,3.3-1.7,4.3-3.3
			C38.4,34.5,38.6,31.5,34.8,29.9z"/>
		<path class="st0" d="M19.4,32.8c1.8,0,3.6,0,5.4,0c0.1-1,0.1-1.9,0.2-2.8c-0.3-0.1-0.5-0.1-0.8-0.2c0.1-1.6,0.3-3.2,0.3-4.7
			c0-1.6-0.8-2.4-2.4-2.4c-0.7,0-1.5,0-2.2,0c0-0.6,0-1,0-1.6c-1,0-1.9,0-2.9,0c-0.1,0.5-0.1,1-0.2,1.6c-0.8,0-1.5,0-2.2,0
			c-0.1,1-0.1,1.9-0.2,2.9c0.6,0,1-0.1,1.4,0c0.3,0.1,0.7,0.4,0.7,0.7c0,1.2-0.1,2.3-0.2,3.6c-1,0-1.9,0-2.9,0
			c-0.1,1-0.1,1.9-0.2,2.9c0.9,0,1.7,0,2.6,0c-0.6,1.7-1.4,3-2.7,4.1c-0.2,0.2-0.5,0.4-0.5,0.7c-0.1,1,0,2,0,3
			C15.4,40.2,17.8,37.4,19.4,32.8z M19.8,25.8c1.7-0.2,1.9,0,1.8,1.5c-0.1,0.8-0.1,1.7-0.2,2.5c0,0.1-0.1,0.1-0.1,0.2
			c-0.5,0-1.1,0-1.7,0C19.6,28.5,19.6,27.2,19.8,25.8z"/>
		<path class="st0" d="M8.6,22.5c-0.8,0-1.5,0-2.4,0C5.8,28.3,5.5,34,5.1,39.8c2,0.1,2.5-0.4,2.6-2.1C8,33,8.2,28.4,8.6,23.6
			C8.6,23.1,8.6,22.8,8.6,22.5z"/>
		<path class="st0" d="M35.2,28.8c2.9-1.5,5.8-3,8.9-4.6c-0.4-0.5-0.7-0.8-1-1.2c-2.7,1.9-5.3,3.8-8,5.7
			C35.2,28.6,35.2,28.8,35.2,28.8z"/>
		<path class="st0" d="M36.2,29.1c3-1,6-2,9.1-3c-0.3-0.5-0.5-0.8-0.8-1.2c-2.9,1.4-5.7,2.7-8.4,4C36.2,29,36.2,29.1,36.2,29.1z"/>
		<path class="st0" d="M13.1,28.4l0.2-3.2h-0.8c0,0,0,0-0.1,0c0.1-1.3,0.2-2.6,0.2-3.9c-1.1,0-2.1,0-3.2,0c-0.4,6.5-0.8,13-1.2,19.6
			c0.5,0,1,0,1.4,0c1.3,0,1.8-0.5,1.9-1.8c0.1-0.9,0.1-1.8,0.2-2.8c0.2-2.7,0.4-5.4,0.5-8L13.1,28.4z"/>
		<path class="st0" d="M18.4,38.1c0,1.7,1.4,3.1,3.1,3.1s3.1-1.4,3.2-3.1c0-1.7-1.3-3.2-3-3.2C19.9,34.9,18.4,36.4,18.4,38.1z
			 M20.1,39.2c-0.4,0-0.7-0.3-0.7-0.6c0-0.4,0.3-0.7,0.6-0.7c0.4,0,0.7,0.3,0.7,0.6C20.6,39,20.5,39.2,20.1,39.2z M23.1,38
			c0.4,0,0.7,0.3,0.7,0.6c0,0.4-0.3,0.7-0.6,0.7c-0.4,0-0.7-0.3-0.7-0.6C22.6,38.3,22.8,38,23.1,38z M21.9,36.8
			c0,0.4-0.3,0.8-0.8,0.8c-0.4,0-0.8-0.3-0.8-0.8c0-0.4,0.3-0.8,0.8-0.8C21.6,36,21.9,36.3,21.9,36.8z"/>
	</g>
	<g>
		<path class="st0" d="M14,17.8c0.6-1.5,1-2.8,1.2-4.5H17c-0.2,1.7-0.6,3.3-1.2,4.5H14z M14.9,9l-0.8-2.4h1.8L16.8,9H14.9z
			 M15.1,12.4l-0.8-2.6H16l0.8,2.7L15.1,12.4z M17.1,17.8V17h3L20,7.9h-2.7V7.2h7.3v0.7h-2.8L22,17h3.1v0.7H17.1z"/>
		<path class="st0" d="M25.6,7.7h2.1l0.1-1.2h1.8v1.1h3.3l-0.1-1.1h1.8v1.1h2.1v0.7h-2.1v1.2h-1.8V8.3h-3.3v1.2h-1.7V8.3h-2.1
			L25.6,7.7z M25.8,15.9l0.6-3.4h1.8l-0.6,3.4H25.8z M27,10.9h2.2c0-0.4,0.1-0.8,0.1-1.2h1.8c0,0.4-0.1,0.8-0.1,1.2h2.6
			c0.4,0,0.8,0.3,0.8,0.8v5.2c0,0.4-0.3,0.8-0.8,0.8h-2.7V17h1.2c0.2,0,0.4-0.2,0.4-0.4v-4.5c0-0.2-0.2-0.4-0.5-0.4h-1.2
			c-0.3,2.1-0.7,4.1-1.3,6.1h-2c0.8-2,1.3-4,1.5-6.1h-2.1L27,10.9z M34.9,15.8l-0.4-3.3h1.8l0.4,3.4L34.9,15.8z"/>
	</g>
</g>
</svg>
