<?xml version="1.0" encoding="utf-8"?>
<!-- Generator: Adobe Illustrator 22.0.1, SVG Export Plug-In . SVG Version: 6.00 Build 0)  -->
<svg version="1.1" id="圖層_1" xmlns="http://www.w3.org/2000/svg" xmlns:xlink="http://www.w3.org/1999/xlink" x="0px" y="0px"
	 viewBox="0 0 50 50" style="enable-background:new 0 0 50 50;" xml:space="preserve">
<style type="text/css">
	.st0{fill:#FFFFFF;}
</style>
<path class="st0" d="M23.8,13.2h0.9c0,0.4-0.1,0.6-0.2,0.8c-0.1,0.1-0.3,0.2-0.6,0.2h-0.2v0.6h1.1v0.9h-1.1v4.7h-0.9v-3.6l-0.2,2.8
	c0,0.2-0.1,0.4-0.2,0.5s-0.3,0.2-0.4,0.2h-0.3v-0.9l0,0c0.1,0,0.1-0.1,0.2-0.2l0.2-2.9h0.7v-0.5h-1v-0.9h1v-0.6H22v-0.8h1.7
	C23.6,13.5,23.7,13.3,23.8,13.2 M23.7,16.2h0.8l0.2,3c0,0.2,0.1,0.2,0.2,0.2v0.8h-0.4c-0.3,0-0.5-0.2-0.5-0.7L23.7,16.2z M25.4,13.3
	h0.9l-0.4,3.4c-0.1,0.8-0.4,1.2-0.8,1.2h-0.5V17h0.1c0.1,0,0.2-0.2,0.2-0.6L25.4,13.3z M27.9,17.1H29l-0.9,2.8
	c-0.1,0.3-0.2,0.5-0.5,0.5H25v-0.9h2.1c0.1,0,0.2-0.1,0.2-0.3L27.9,17.1z M26.4,13.2h0.9V18c0,0.2-0.1,0.5-0.2,0.6
	c-0.1,0.1-0.3,0.2-0.5,0.2h-0.7v-0.9h0.4c0.1,0,0.2-0.1,0.2-0.4C26.4,17.5,26.4,13.2,26.4,13.2z M27.5,13.3h0.9l0.2,2.5
	c0.1,0.2,0.1,0.2,0.2,0.2h0.1v0.9h-0.6c-0.3,0-0.6-0.2-0.6-0.7L27.5,13.3z"/>
<path class="st0" d="M29.7,15.4h1.4V19c0,0.2,0.2,0.3,0.6,0.3h8.1l0.6,1h-8.7c-0.3,0-0.6-0.1-0.7-0.3c-0.1,0.2-0.3,0.3-0.6,0.3h-0.6
	v-0.9h0.1c0.1,0,0.2-0.1,0.2-0.2v-2.8h-0.3L29.7,15.4L29.7,15.4z M30.2,13.2h1.1v1.6h-1.1V13.2z M32.3,17.4h1.1l-0.6,1.3
	c-0.1,0.3-0.3,0.4-0.6,0.4h-0.7v-0.8h0.3c0.1,0,0.2-0.1,0.2-0.2L32.3,17.4z M36.9,13.5v0.9h-2.2v0.4h2v1.7c0,0.5-0.2,0.7-0.7,0.7
	h-1.3v2.1h-1v-2.1h-1.9v-2.4h1.9v-0.4h-2v-0.9h2v-0.3h1v0.3H36.9z M33.6,15.6h-0.9v0.7h0.9V15.6z M35.4,16.3c0.1,0,0.2-0.1,0.2-0.3
	v-0.4h-1v0.7H35.4z M35,17.4h1.1l0.1,0.6c0.1,0.1,0.1,0.2,0.2,0.2h0.5V19h-1c-0.2,0-0.3-0.1-0.4-0.4L35,17.4z"/>
<polygon class="st0" points="15.7,33.8 13.4,33.8 13.4,26.6 11.9,26.6 11.9,25.6 14.7,23.4 15.7,23.4 "/>
<polygon class="st0" points="23.2,33.8 20.9,33.8 20.9,26.6 19.4,26.6 19.4,25.6 22.2,23.4 23.2,23.4 "/>
<path class="st0" d="M26,26.3h2.9v6.6c0,0.4,0.3,0.6,1,0.6h9.4v1.7h-9.7c-0.5,0-0.9-0.2-1.2-0.5c-0.2,0.3-0.6,0.5-1.1,0.5h-1.6v-1.7
	h0.7c0.3,0,0.4-0.1,0.4-0.4v-5.1H26C26,28.1,26,26.3,26,26.3z M26.8,22.1h2.1v2.6h-2.1V22.1z M30.8,22.3h1.8l-0.2,1h1.4v-1.6h2v1.6
	h3V25h-3v1.8h3.3v1.7h-2v2.4c0,0.2,0.1,0.3,0.3,0.3h1.6v1.7h-2.8c-0.7,0-1.1-0.3-1.1-0.9v-3.4h-5.6v-1.7h4.2V25H32
	c-0.2,0.6-0.6,0.9-1.3,0.9h-1v-1.6h0.4c0.1,0,0.2-0.1,0.3-0.3L30.8,22.3z M31.7,29.2h1.9L33,31.9c-0.2,0.6-0.6,1-1.3,1H30v-1.7h1
	c0.1,0,0.2-0.1,0.3-0.3L31.7,29.2z"/>
<path class="st0" d="M48.3,32.2c0,1.1-0.7,1.7-2,1.7h-4.7v-2.2h4.2v-2.3h-4.2v-5.9h6.2v2.2h-3.7v2.2h2.4c0.7,0,1.2,0.1,1.4,0.3
	c0.2,0.2,0.3,0.7,0.3,1.3V32.2z"/>
<path class="st0" d="M45.3,15.2c0,0.3-0.2,0.5-0.5,0.5s-0.5-0.2-0.5-0.5s0.2-0.5,0.5-0.5C45.1,14.7,45.3,14.9,45.3,15.2 M49.1,17.9
	c0-0.1-0.1-0.2-0.2-0.2c-0.1,0-0.1-0.1-0.2-0.1c-0.1,0-0.2,0.1-0.3,0.2l-1.4,2.6h-0.5l1.3-2.4l-2.1-0.8l-0.1,3.2H45l0.1-3.7
	c0-0.2-0.2-0.3-0.3-0.3c-0.2,0-0.3,0.2-0.4,0.3l-0.1,3.7h-0.5l0.1-3.1L41.7,18l1.2,2.4h-0.5L41,17.7c-0.1-0.1-0.2-0.2-0.3-0.2
	c-0.1,0-0.1,0-0.2,0.1c-0.2,0.1-0.2,0.3-0.2,0.5l1.2,2.3c-0.1,0-0.2,0.1-0.2,0.2v1.1c0,0.1,0.1,0.2,0.2,0.2l6.2,0.2
	c0.1,0,0.2-0.1,0.2-0.2v-1.1c0-0.1-0.1-0.2-0.2-0.2l1.3-2.2C49.1,18.1,49.1,18,49.1,17.9"/>
<path class="st0" d="M28.5,37.2c-0.4-0.5-0.9,0.1-1.1,1.3l-0.7,4.4c-0.2,1.3-1.1,1.5-1.9,0.5l-6-7c-0.8-1-2.5-1.6-3.8-1.4l-9.1,1.3
	c-1.3,0.2-1.7-0.6-1.1-1.7l4.8-7.8c0.7-1.1,0.7-2.9,0.2-4.1l-4-8.3c-0.6-1.2,0-1.8,1.3-1.6l8.9,2.1c1.3,0.3,3-0.2,3.9-1.1l6.6-6.4
	c0.9-0.9,1.7-0.6,1.8,0.7v0.1c0.1,1.3,0.2,2.2,0.3,2.1c0.1-0.1,0.6-0.5,0.9-0.8C29.8,9.3,30,8,29.9,6.8l-0.2-3.6
	c-0.1-1.3-0.9-1.6-1.8-0.7l-9,8.7c-0.9,0.9-2.7,1.4-3.9,1.1l-12.1-3C1.5,9,1,9.7,1.5,10.9l5.5,11.3c0.6,1.2,0.5,3-0.2,4.1L0.2,36.9
	C-0.5,38,0,38.7,1.3,38.5l12.4-1.7c1.3-0.2,3,0.5,3.8,1.4l8.1,9.5c0.8,1,1.7,0.7,1.9-0.5l1.2-6.8C29,39.2,28.8,37.7,28.5,37.2"/>
</svg>
