<?xml version="1.0" encoding="utf-8"?>
<!-- Generator: Adobe Illustrator 21.1.0, SVG Export Plug-In . SVG Version: 6.00 Build 0)  -->
<svg version="1.1" id="圖層_1" xmlns="http://www.w3.org/2000/svg" xmlns:xlink="http://www.w3.org/1999/xlink" x="0px" y="0px"
	 width="86px" height="86px" viewBox="0 0 86 86" style="enable-background:new 0 0 86 86;" xml:space="preserve">
<style type="text/css">
	.st0{fill:#FFFFFF;}
</style>
<path class="st0" d="M2.9,41V27.4H0v-2.4h2.9v-2H0.1v-2.3h9.5l-1.1,2.3H6.8v2h2.9v2.4H6.8V41H2.9z M0.1,28.3h2.1V41H0.1V28.3z
	 M7.5,28.3h2.1V41H7.5V28.3z M10.3,34.1L10,32h0.5l0.7-10.4h2.7l-0.8,12.5H10.3z M21.9,34.7c-0.5,1.2-1.1,2.2-1.8,3
	c-0.7,0.8-1.5,1.5-2.4,2c-0.9,0.5-2,0.9-3.3,1.1c-1.2,0.2-2.7,0.3-4.3,0.3v-2.7c1.1,0,2.1-0.1,3-0.2c0.9-0.1,1.7-0.4,2.3-0.7
	c0.7-0.3,1.3-0.7,1.8-1.1c0.5-0.4,1-1,1.4-1.6H21.9z M14.3,20.4h3.3v14.9h-3.3V20.4z M18.7,34.1L18,21.5h2.7L21.3,32h0.5l-0.3,2.1
	H18.7z"/>
<path class="st0" d="M22.5,40.9v-2.6h1.2V27.8h-1.2v-2.6h5v15.7H22.5z M23.5,24.6l-0.8-4.1h3.7l0.5,2.3h0.7l-0.3,1.7H23.5z
	 M28.9,40.9l-1.3-2.6h16.7l-1.3,2.6H28.9z M34.3,37.5v-5.5h-5.7v-6.9h5.7v-1h-6v-2.5h6v-1.1h3.8v1.1h6v2.5h-6v1h5.7v6.9H40v-4.4
	h-1.9v1.9H40l-0.8,2.5h-1.1v5.5H34.3z M28.8,37.5l-0.4-2.1h0.8l0.4-2.4h3.5l-0.7,4.6H28.8z M34.3,27.6h-1.9v1.9h1.9V27.6z M40,37.5
	l-0.7-4.6h3.5l0.4,2.4H44l-0.4,2.1H40z"/>
<path class="st0" d="M10.5,46.1v-1.2h4.4v1.2h10.5v3.2h-4.4v-1.3H4.4v1.3H0v-3.2H10.5z M5.4,52.7v-0.7H0.5v-2.2h4.8v-0.7h4.4v0.7
	h5.9v-0.7h4.4v0.7h4.8v2.2h-4.8v0.7h4.7v2.1h-4.7v0.7h5.4v2.1h-4.4c1.1,0.6,2.5,0.9,4.3,0.8v2.9c-0.6,0-1.3,0-1.8-0.1v2.9H19v-3.5
	H6.8v3.5h-5v-2.9c-0.6,0.1-1.2,0.1-1.8,0.1v-2.9c0.9,0,1.7,0,2.4-0.1c0.7-0.1,1.4-0.4,1.9-0.7H0v-2.1h5.4v-0.7H0.7v-2.1H5.4z
	 M0,65.1c3.5,0,6.1-0.3,7.8-0.8c1.7-0.5,2.5-1.4,2.5-2.6v-0.5h5v0.5c0,1.2,0.8,2,2.5,2.6c1.6,0.5,7.5,0.8,11,0.8l8.3,3.2
	c-1.3,0-14.2,0-15.4-0.1c-1.2-0.1-2.4-0.2-3.5-0.4c-1.1-0.2-2.1-0.4-3-0.7c-0.9-0.3-1.7-0.6-2.4-1.1c-0.7,0.4-1.5,0.8-2.4,1.1
	c-0.9,0.3-1.9,0.5-3,0.7c-1.1,0.2-2.3,0.3-3.5,0.4c-1.2,0.1-2.5,0.1-3.9,0.1V65.1z M9.1,57.6C9,57.8,8.8,57.9,8.7,58
	c-0.1,0.1-0.2,0.3-0.4,0.4h8.7c-0.1-0.1-0.3-0.3-0.4-0.4c-0.1-0.1-0.2-0.3-0.3-0.4H9.1z M9.8,52.7h5.9v-0.7H9.8V52.7z M9.8,55.5h5.9
	v-0.7H9.8V55.5z"/>
<polygon class="st0" points="42.8,61.1 42.8,58.7 30.6,58.7 30.6,55.8 34.2,50.2 27.5,50.2 27.5,47.3 36.1,47.3 38.9,44 45.5,42.9 
	43.3,47.3 61.2,47.3 70.7,50.2 41.4,50.2 37.8,55.8 42.8,55.8 42.8,52.3 49.2,52.3 49.2,55.8 60,55.8 67.6,58.7 49.2,58.7 
	49.2,61.1 61.2,61.1 79.8,64.1 49.2,64.1 49.2,68.3 42.8,68.3 42.8,64.1 33.6,64.1 27.5,61.1 "/>
<path class="st0" d="M60.7,16.6c0.4-0.7,0.2-1.7-0.5-2.1c-0.7-0.4-1.7-0.2-2.1,0.5L37.2,46.5c-0.4,0.6-0.5,4.8,0,5.3
	c0.1,0.1,0.2,0.2,0.3,0.2c0.7,0.4,6-5.8,6.5-6.5L60.7,16.6z"/>
<path class="st0" d="M76.2,48.2c3.2-5.4,6.3-10.8,9.5-16.2c0.3-0.6,0.6-1.3-0.1-2.2c-6-7-16.7-4.9-22.7-11.9c-0.4-0.6-1-0.6-1.4-0.1
	c-3.2,5.4-6.3,10.8-9.5,16.2c-0.5,0.9-0.3,1.6,0.1,2.2c6,7,16.7,4.9,22.7,11.9C75.3,48.7,75.9,48.8,76.2,48.2 M83.4,31
	c-0.9,1.5-1.7,3-2.6,4.5c-1.4-1.3-2.9-2.3-4.6-3.1c0.9-1.5,1.7-3,2.6-4.5C80.6,28.7,82,29.7,83.4,31 M56.9,30.6c1-1.7,2-3.4,3-5.1
	c1.5,1.4,3,2.4,4.9,3.2c0.9-1.5,1.7-3,2.6-4.5c1.9,0.7,3.8,1.3,5.7,1.8c-0.9,1.5-1.7,3-2.6,4.5c-1.9-0.5-3.9-1.1-5.7-1.8
	c-1,1.7-2,3.4-3,5.1C59.9,33,58.3,32,56.9,30.6 M59.1,38.3c0.9-1.5,1.8-3,2.6-4.5c1.9,0.7,3.8,1.3,5.7,1.8c-0.9,1.5-1.8,3-2.6,4.5
	C62.9,39.6,61,39,59.1,38.3 M67.5,35.6c1-1.7,2-3.4,3-5.1c1.9,0.5,3.9,1.1,5.7,1.8c-1,1.7-2,3.4-3,5.1
	C71.4,36.7,69.5,36.1,67.5,35.6 M70.6,42c0.9-1.5,1.8-3,2.6-4.5c1.7,0.8,3.2,1.7,4.6,3.1c-0.9,1.5-1.8,3-2.6,4.5
	C73.8,43.7,72.4,42.8,70.6,42"/>
</svg>
