<?xml version="1.0" encoding="utf-8"?>
<!-- Generator: Adobe Illustrator 21.1.0, SVG Export Plug-In . SVG Version: 6.00 Build 0)  -->
<svg version="1.1" id="圖層_1" xmlns="http://www.w3.org/2000/svg" xmlns:xlink="http://www.w3.org/1999/xlink" x="0px" y="0px"
	 width="86px" height="86px" viewBox="0 0 86 86" style="enable-background:new 0 0 86 86;" xml:space="preserve">
<style type="text/css">
	.st0{fill:#FFFFFF;}
</style>
<g>
	<path class="st0" d="M31,14.1c0.2,0.6,0.3,2,0.5,4.3c0,0.5,0.1,0.9,0.1,1.2l0.7-2.4c1.5,0.4,2.8,0.9,3.9,1.4l-0.8,2.7
		c-1.4-0.5-2.7-1-3.8-1.3c0.1,1.6,0.2,2.8,0.3,3.6c0.5-0.4,1-0.9,1.5-1.3l2.3,2.2c-2.5,2.2-5,4.6-7.6,7l-2.4-2.2
		c1.9-1.9,3.7-3.6,5.5-5.2l-2.6,0.2c-0.1-1.9-0.2-3.5-0.3-4.7c-0.6,1.2-1,2.3-1.4,3.5l-2.1-0.7l0,0.2c-0.5,0-0.9,0-1.4,0
		c0,0.3,0,0.7,0.1,1c0.6,0.1,1.3,0.2,1.9,0.2l-0.3,3.1c-0.5,0-1,0-1.4-0.1c0.1,1.1,0.1,2.2,0.2,3.3L21,30.6c-0.1-1-0.1-2-0.2-2.9
		c-0.2,0.3-0.4,0.6-0.7,0.9l-2-1.8c0.9-1.2,1.7-2.3,2.5-3.3c0-0.1,0-0.3,0-0.4c-0.5,0.1-1.1,0.2-1.6,0.3l-0.3-2.9
		c0.6-0.1,1.1-0.3,1.7-0.4c0-0.4,0-0.9-0.1-1.3c-0.4,0.1-0.7,0.1-1.1,0.2l-0.7-2.8c1.9-0.3,3.6-0.7,5.3-1.1l0.9,2.7
		c-0.5,0.2-0.9,0.3-1.4,0.4c0,0.6,0.1,1.1,0.1,1.6c0.4,0,0.8,0,1.2,0l0.1,1.1c0.4-0.9,0.7-1.7,1-2.5l2.6,0.9c0-0.4-0.1-0.7-0.1-1
		c-0.1-1.4-0.3-2.7-0.5-4L31,14.1z"/>
	<path class="st0" d="M44.3,14.8c1.1,0.1,2.1,0.1,3.1,0.2c0-0.3,0-0.7-0.1-1l3.1-0.3c0,0.5,0.1,1,0.1,1.5c1.8,0.1,3.6,0.3,5.3,0.4
		l-0.2,2.7c-1.7-0.2-3.3-0.3-4.9-0.4c0,0.2,0,0.5,0,0.7h0.1c1.2,0,2.1,0.1,2.6,0.2c0.9,0.2,1.5,0.6,1.9,1.1c0.4,0.4,0.6,1.3,0.6,2.5
		v0.3c0,0.8-0.3,1.4-0.8,2c-0.3,0.4-0.9,0.7-1.6,0.8c0.9,0.6,1.7,1.3,2.4,2.2l-1.9,1.8c-0.7-0.8-1.6-1.6-2.6-2.4l1.5-1.6
		c-0.5,0.1-1.1,0.2-1.8,0.2c0.1,1.1,0.1,2.3,0.2,3.4l-1.2,0.1l0.3,1.4c-1.8,0.5-3.4,0.8-5,0.8h-0.8c-1.6,0-2.9-0.3-4-0.9
		c-1.2-0.7-1.8-1.8-1.8-3.2c0-1.9,0.4-4.2,1.1-6.6l3.1,0.7c-0.7,2-1.1,3.8-1.1,5.4c0,0.7,0.3,1.1,0.8,1.5c0.5,0.3,1.3,0.5,2.5,0.5
		c1,0,2-0.1,3.1-0.4c0-0.9-0.1-1.9-0.1-2.7c-0.6,0-1.1-0.1-1.5-0.2l0.7,0.7c-0.9,0.7-1.7,1.5-2.6,2.3l-1.9-1.8
		c0.7-0.6,1.3-1.2,2-1.7c-1-0.5-1.5-1.2-1.5-2.2c0-1.3,0.5-2.7,1.5-4.4l2.1,0.4c0.3,0,0.6-0.1,0.9-0.1c0-0.4,0-0.7-0.1-1.1
		c-1.2-0.1-2.5-0.2-3.6-0.3L44.3,14.8z M39.8,15.7c1.2,0.2,2.3,0.6,3.1,1l-0.8,2.7c-1.1-0.5-2.1-0.9-3.1-1.1L39.8,15.7z M47.8,23.1
		c0-0.6-0.1-1.2-0.1-1.8c-0.6,0.1-1.2,0.2-1.8,0.3c0,0.1,0,0.3,0,0.4c0,0.4,0.3,0.7,0.8,0.9C46.9,23,47.3,23,47.8,23.1 M50.7,21.1
		c0.1,0.7,0.1,1.3,0.1,2c0.3,0,0.6,0,0.8,0c0.4,0,0.7-0.1,0.9-0.3c0.2-0.1,0.3-0.3,0.3-0.5c0-0.5-0.2-0.9-0.6-1
		C52.1,21.2,51.6,21.1,50.7,21.1"/>
	<path class="st0" d="M9.7,33.8l6.2,0.7c-0.6,4.8-1.1,9.8-1.6,14.8c0.9-0.2,1.8-0.5,2.6-0.9l1.2,6.8c-1.5,0.5-2.9,1-4.3,1.3
		c-0.3,4.7-0.4,9.5-0.5,14.4l-6.3-0.7c0-4.5,0.2-8.8,0.4-13.1c-1.9,0-3.4-0.8-4.7-2.3c-1.1-1.2-1.6-2.9-1.6-5.1
		c0-4.1,0.6-7.7,1.7-10.9l5.5,1.3c-1,3.2-1.6,6.2-1.7,9c0,0.4,0.1,0.7,0.3,0.9c0.2,0.2,0.5,0.4,0.9,0.4C8.4,44.7,9,39.2,9.7,33.8
		 M30.3,36.3c2.4,0,4.4,0.7,5.9,2c1.4,1.4,2.2,3.1,2.2,5.1v0.8c0,1.9-0.2,4.4-0.7,7.5c-0.3,1.4-0.5,2.7-0.8,3.9c1,0,2.1,0,3.1,0
		l0.7,6.6c-5.3,0-10.5,0.2-15.7,0.7c-0.5,2.5-0.9,5-1.3,7.4L17,68.8c0.3-1.8,0.6-3.5,0.9-5.2c-0.9,0.1-1.9,0.2-2.8,0.4l-0.7-6.6
		c1.6-0.3,3.2-0.5,4.8-0.6c0.8-4.4,1.6-8.6,2.4-12.5c-1.1,0.3-2.3,0.8-3.4,1.3l-2.4-6.8c1-0.4,2.8-0.9,5.4-1.5
		c0.6-0.2,1.3-0.3,2-0.4c0.3-1.6,0.7-3.1,1.1-4.6l6.5,1.4c-0.2,0.9-0.4,1.8-0.6,2.6H30.3z M28.7,43.1c-0.9,4.3-1.8,8.6-2.6,12.9
		c1-0.1,2.1-0.2,3.2-0.2c0.6-2,1-3.9,1.3-5.7c0.4-2.3,0.6-4.1,0.6-5.6c0-0.4-0.2-0.8-0.6-1C30.2,43.3,29.6,43.1,28.7,43.1L28.7,43.1
		z M35,59.2c1,4,1.7,7.4,2,10.3l-6.2,1.1c-0.7-4-1.4-7.4-2-10.3L35,59.2z"/>
	<path class="st0" d="M63.6,48.2c2.3,1.1,4.2,2.8,5.6,5c1.6,2.6,1.5,5.3-0.1,8.2c-1.3,2.3-3.4,4.2-6.1,5.9
		c-5.8,3.5-12.6,4.8-20.2,3.9l0.7-7.8c6.6,0.4,11.7-0.5,15.3-2.7c1.2-0.7,1.9-1.3,2.2-1.8c0.3-0.7,0.2-1.5-0.4-2.5
		c-0.7-1.1-3.2-1.3-7.6-0.5c-3.9,0.6-6.4,1.3-7.6,2.1l-2.1-7.8c4.9-1.3,8.8-2.7,11.5-4.4c2.5-1.5,3.4-2.9,2.6-4.1
		c-0.5-0.9-2.1-1-4.7-0.2c-2.1,0.7-4.1,1.7-6.1,2.9l-2.3-7.7c3.7-2.3,7.6-3.5,11.5-3.8c4.8-0.4,8.2,1.1,10.2,4.4
		C68.2,41,67.4,44.6,63.6,48.2"/>
	<path class="st0" d="M77,27.9c-0.8-0.3-1.6-0.2-2.3,0.1c-0.7,0.3-1.3,0.9-1.6,1.7c-0.1,0.3-0.2,0.7-0.2,1c0,1.3,0.8,2.4,2,2.8
		c0.3,0.1,0.7,0.2,1,0.2c1.2,0,2.4-0.8,2.8-2c0.1-0.3,0.2-0.7,0.2-1C79,29.4,78.2,28.3,77,27.9"/>
	<path class="st0" d="M73.5,37.7c-0.8-0.3-1.6-0.2-2.3,0.1c-0.7,0.3-1.3,0.9-1.6,1.7c-0.1,0.3-0.2,0.7-0.2,1c0,1.3,0.8,2.4,2,2.8
		c0.3,0.1,0.7,0.2,1,0.2c1.2,0,2.4-0.8,2.8-2c0.1-0.3,0.2-0.7,0.2-1C75.5,39.3,74.7,38.1,73.5,37.7"/>
	<path class="st0" d="M67.2,24.3c-1.6-0.6-3.3,0.2-3.9,1.8c-0.1,0.3-0.2,0.7-0.2,1c0,1.3,0.8,2.4,2,2.8c0.3,0.1,0.7,0.2,1,0.2
		c1.2,0,2.4-0.8,2.8-2c0.1-0.3,0.2-0.7,0.2-1C69.2,25.9,68.4,24.8,67.2,24.3"/>
	<path class="st0" d="M83,24.6l-18.3-6.7c-0.9-0.3-1.9-0.3-2.8,0.1c-0.9,0.4-1.6,1.1-1.9,2.1l-3.4,9.3c-0.2,0.6,0.1,1.2,0.6,1.4
		c0.3,0.1,0.6,0.1,0.8,0c0.3-0.1,0.5-0.3,0.6-0.6l3.4-9.3c0.3-0.8,1.2-1.2,2-0.9l18.3,6.7c0.8,0.3,1.2,1.2,0.9,2l-6.7,18.3
		c-0.3,0.8-1.2,1.2-2,0.9l-6.4-2.6c-0.3-0.1-0.6-0.1-0.8,0c-0.3,0.1-0.5,0.3-0.6,0.6c-0.2,0.6,0.2,1.1,6.2,3.7l0.8,0.3
		c0.4,0.1,0.8,0.2,1.2,0.2c1.5,0,2.9-0.9,3.4-2.4l6.7-18.3c0.1-0.4,0.2-0.8,0.2-1.2C85.4,26.5,84.5,25.1,83,24.6"/>
</g>
</svg>
