<?xml version="1.0" encoding="utf-8"?>
<!-- Generator: Adobe Illustrator 22.0.1, SVG Export Plug-In . SVG Version: 6.00 Build 0)  -->
<svg version="1.1" id="圖層_1" xmlns="http://www.w3.org/2000/svg" xmlns:xlink="http://www.w3.org/1999/xlink" x="0px" y="0px"
	 viewBox="0 0 50 50" style="enable-background:new 0 0 50 50;" xml:space="preserve">
<style type="text/css">
	.st0{fill:#FFFFFF;}
</style>
<path class="st0" d="M2.3,23.1v-7.7H0.6v-1.4h1.6v-1.1H0.7v-1.3h5.4l-0.6,1.3h-1v1.1h1.6v1.4H4.5v7.7H2.3z M0.7,15.9h1.2v7.2H0.7
	V15.9z M4.9,15.9h1.2v7.2H4.9V15.9z M6.5,19.2L6.3,18h0.3L7,12.1h1.5l-0.5,7.1H6.5z M13,19.6c-0.3,0.7-0.6,1.2-1,1.7
	c-0.4,0.5-0.9,0.9-1.4,1.1S9.5,22.9,8.8,23c-0.7,0.1-1.5,0.2-2.4,0.2v-1.5c0.6,0,1.2-0.1,1.7-0.1c0.5-0.1,1-0.2,1.3-0.4
	c0.4-0.2,0.7-0.4,1-0.6c0.3-0.2,0.6-0.6,0.8-0.9L13,19.6L13,19.6z M8.7,11.5h1.9v8.4H8.7V11.5z M11.2,19.2l-0.4-7.1h1.5l0.3,6H13
	l-0.2,1.2H11.2z"/>
<path class="st0" d="M13.4,23.1v-1.5h0.7v-6h-0.7v-1.5h2.8v8.9C16.2,23.1,13.4,23.1,13.4,23.1z M14,13.8l-0.5-2.3h2.1l0.3,1.3h0.4
	l-0.2,1L14,13.8L14,13.8z M17,23.1l-0.7-1.5h9.5L25,23.1H17z M20.1,21.1V18h-3.2v-3.9h3.2v-0.6h-3.4v-1.4h3.4v-0.6h2.2v0.6h3.4v1.4
	h-3.4v0.6h3.2V18h-2.2v-2.5h-1.1v1.1h1.1L22.9,18h-0.6v3.1H20.1z M17,21.1L16.7,20h0.5l0.2-1.4h2L19,21.2L17,21.1L17,21.1z
	 M20.1,15.5H19v1.1h1.1V15.5z M23.3,21.1l-0.4-2.6h2l0.2,1.4h0.5l-0.2,1.2L23.3,21.1L23.3,21.1z"/>
<path class="st0" d="M6.6,26v-0.7h2.5V26h6v1.8h-2.5v-0.7H3.1v0.7H0.6V26H6.6z M3.7,29.8v-0.4H0.9v-1.2h2.7v-0.4h2.5v0.4h3.3v-0.4
	H12v0.4h2.7v1.2H12v0.4h2.7V31H12v0.4H15v1.2h-2.5c0.6,0.3,1.4,0.5,2.4,0.5v1.6c-0.3,0-0.7,0-1-0.1v1.6h-2.6v-2H4.5v2H1.6v-1.6
	c-0.3,0.1-0.7,0.1-1,0.1V33c0.5,0,1,0,1.4-0.1s0.8-0.2,1.1-0.4H0.6v-1.2h3.1V31H1v-1.2C1,29.8,3.7,29.8,3.7,29.8z M0.6,36.8
	c2,0,3.5-0.2,4.4-0.5c1-0.3,1.4-0.8,1.4-1.5v-0.3h2.8v0.3c0,0.7,0.5,1.1,1.4,1.5c0.9,0.3,4.3,0.5,6.2,0.5l4.7,1.8
	c-0.7,0-8.1,0-8.7-0.1c-0.7-0.1-1.4-0.1-2-0.2s-1.2-0.2-1.7-0.4c-0.5-0.2-1-0.3-1.4-0.6c-0.4,0.2-0.9,0.5-1.4,0.6
	c-0.5,0.2-1.1,0.3-1.7,0.4c-0.6,0.1-1.3,0.2-2,0.2s-1.4,0.1-2.2,0.1C0.6,38.6,0.6,36.8,0.6,36.8z M5.8,32.5
	c-0.1,0.1-0.2,0.2-0.2,0.2S5.4,32.9,5.3,33h4.9c-0.1-0.1-0.2-0.2-0.2-0.2c-0.1-0.1-0.1-0.2-0.2-0.2H5.8z M6.2,29.8h3.3v-0.4H6.2
	V29.8z M6.2,31.3h3.3V31H6.2V31.3z"/>
<polygon class="st0" points="24.9,34.5 24.9,33.2 18,33.2 18,31.5 20,28.3 16.2,28.3 16.2,26.7 21.1,26.7 22.7,24.8 26.4,24.2 
	25.2,26.7 35.3,26.7 40.7,28.3 24.1,28.3 22.1,31.5 24.9,31.5 24.9,29.5 28.5,29.5 28.5,31.5 34.6,31.5 39,33.2 28.5,33.2 
	28.5,34.5 35.3,34.5 45.9,36.2 28.5,36.2 28.5,38.6 24.9,38.6 24.9,36.2 19.7,36.2 16.2,34.5 "/>
<path class="st0" d="M35,9.3c0.2-0.4,0.1-1-0.3-1.2c-0.4-0.2-1-0.1-1.2,0.3L21.7,26.2c-0.2,0.3-0.3,2.7,0,3c0.1,0.1,0.1,0.1,0.2,0.1
	c0.4,0.2,3.4-3.3,3.7-3.7L35,9.3z"/>
<path class="st0" d="M43.8,27.2c1.8-3.1,3.6-6.1,5.4-9.2c0.2-0.3,0.3-0.7-0.1-1.2c-3.4-4-9.5-2.8-12.9-6.7c-0.2-0.3-0.6-0.3-0.8-0.1
	c-1.8,3.1-3.6,6.1-5.4,9.2c-0.3,0.5-0.2,0.9,0.1,1.2c3.4,4,9.5,2.8,12.9,6.7C43.3,27.5,43.7,27.6,43.8,27.2 M47.9,17.5
	c-0.5,0.9-1,1.7-1.5,2.6c-0.8-0.7-1.6-1.3-2.6-1.8c0.5-0.9,1-1.7,1.5-2.6C46.3,16.2,47.1,16.7,47.9,17.5 M32.9,17.2
	c0.6-1,1.1-1.9,1.7-2.9c0.9,0.8,1.7,1.4,2.8,1.8c0.5-0.9,1-1.7,1.5-2.6c1.1,0.4,2.2,0.7,3.2,1c-0.5,0.9-1,1.7-1.5,2.6
	c-1.1-0.3-2.2-0.6-3.2-1c-0.6,1-1.1,1.9-1.7,2.9C34.6,18.6,33.7,18,32.9,17.2 M34.1,21.6c0.5-0.9,1-1.7,1.5-2.6
	c1.1,0.4,2.2,0.7,3.2,1c-0.5,0.9-1,1.7-1.5,2.6C36.3,22.3,35.2,22,34.1,21.6 M38.9,20.1c0.6-1,1.1-1.9,1.7-2.9
	c1.1,0.3,2.2,0.6,3.2,1c-0.6,1-1.1,1.9-1.7,2.9C41.1,20.7,40,20.4,38.9,20.1 M40.7,23.7c0.5-0.9,1-1.7,1.5-2.6c1,0.5,1.8,1,2.6,1.8
	c-0.5,0.9-1,1.7-1.5,2.6C42.5,24.7,41.7,24.1,40.7,23.7"/>
</svg>
