<?xml version="1.0" encoding="utf-8"?>
<!-- Generator: Adobe Illustrator 22.0.1, SVG Export Plug-In . SVG Version: 6.00 Build 0)  -->
<svg version="1.1" id="圖層_1" xmlns="http://www.w3.org/2000/svg" xmlns:xlink="http://www.w3.org/1999/xlink" x="0px" y="0px"
	 viewBox="0 0 50 50" style="enable-background:new 0 0 50 50;" xml:space="preserve">
<style type="text/css">
	.st0{fill:#FFFFFF;}
	.st1{fill:none;}
</style>
<path class="st0" d="M23.5,21.5h1.1c-0.1,0.5-0.1,0.8-0.3,1c-0.2,0.2-0.4,0.2-0.7,0.2h-0.3v0.8h1.4v1.1h-1.4v5.8h-1.2V26L22,29.5
	c0,0.3-0.1,0.5-0.2,0.6c-0.2,0.2-0.4,0.2-0.5,0.2h-0.4v-0.8v-0.1c0.1,0,0.2-0.4,0.2-0.6l0.2-3.6h0.9v-0.6H21v-1.1h1.2v-0.8h-1.1v-1
	h2.1C23.3,21.8,23.4,21.7,23.5,21.5 M23.3,25.2h1l0.2,3.7c0,0.2,0.1,0.3,0.2,0.3v1h-0.5c-0.4,0-0.6-0.3-0.6-0.9L23.3,25.2z
	 M25.5,21.6h1.2l-0.5,4.2c-0.1,1-0.5,1.5-1,1.5h-0.5v-1.1h0.2c0.1,0,0.2-0.2,0.3-0.8L25.5,21.6z M28.6,26.3h1.3l-1.2,3.5
	c-0.1,0.4-0.3,0.6-0.6,0.6h-3.3v-1.1h2.6c0.1,0,0.2-0.1,0.3-0.4L28.6,26.3z M26.8,21.4h1.2v6c0,0.3-0.1,0.5-0.3,0.8
	c-0.2,0.2-0.4,0.2-0.6,0.2h-0.9v-1.1h0.5c0.2,0,0.2-0.2,0.2-0.5L26.8,21.4L26.8,21.4z M28.1,21.6h1.2l0.3,3.1
	c0.1,0.2,0.1,0.3,0.3,0.3h0.1v1.1h-0.7c-0.5,0-0.7-0.3-0.8-0.9L28.1,21.6z"/>
<path class="st0" d="M30.9,24.2h1.7v4.5c0,0.3,0.3,0.4,0.8,0.4h15.8v1.2h-16c-0.4,0-0.7-0.1-0.9-0.4c-0.2,0.2-0.4,0.4-0.8,0.4h-0.7
	v-1.1H31c0.2,0,0.2-0.1,0.2-0.3v-3.5h-0.4L30.9,24.2L30.9,24.2z M31.4,21.5h1.4v1.9h-1.4V21.5z M34,26.8h1.3l-0.6,1.5
	c-0.1,0.4-0.4,0.5-0.7,0.5H33v-1h0.4c0.1,0,0.2-0.1,0.2-0.2L34,26.8z M39.7,21.8v1.1h-2.8v0.5h2.5v2.1c0,0.6-0.3,0.9-0.9,0.9H37v2.6
	h-1.4v-2.6h-2.3v-2.9h2.3v-0.5h-2.5v-1.1h2.5v-0.4h1.3v0.4H39.7z M35.6,24.4h-1.1v0.9h1.1V24.4z M37.9,25.3c0.2,0,0.2-0.1,0.2-0.4
	v-0.5h-1.2v0.9H37.9z M37.3,26.8h1.4l0.2,0.7c0.1,0.1,0.1,0.2,0.2,0.2h0.6v1.1h-1.2c-0.2,0-0.4-0.2-0.5-0.5L37.3,26.8z"/>
<path class="st0" d="M22,32h2.2v7.5c0,0.6-0.4,1-1.1,1h-2.3V32H22z M22,35.5h0.9v-2.3H22V35.5z M22,39.4h0.7c0.2,0,0.3-0.1,0.3-0.2
	v-2.5h-0.9L22,39.4L22,39.4z M29.5,32.7v1.2h-0.6v5.5c0,0.4-0.1,0.7-0.4,0.9c-0.2,0.2-0.5,0.3-0.8,0.3h-2.2v-1.1h1.8
	c0.2,0,0.3-0.2,0.3-0.5v-5h-3.1v-1.2h3.1v-1h1.4v1H29.5z M24.7,34.8H26l0.4,1.9c0.1,0.2,0.2,0.4,0.3,0.4h0.4v1.2H26
	c-0.4,0-0.6-0.2-0.8-0.7L24.7,34.8z"/>
<path class="st0" d="M32,32h2.2v7.5c0,0.6-0.4,1-1.1,1h-2.3V32H32z M32,35.5h0.9v-2.3H32V35.5z M32,39.4h0.7c0.2,0,0.3-0.1,0.3-0.2
	v-2.5H32L32,39.4L32,39.4z M39.5,32.7v1.2h-0.6v5.5c0,0.4-0.1,0.7-0.4,0.9c-0.2,0.2-0.5,0.3-0.8,0.3h-2.2v-1.1h1.8
	c0.2,0,0.3-0.2,0.3-0.5v-5h-3.1v-1.2h3.1v-1H39v1H39.5z M34.6,34.8H36l0.4,1.9c0.1,0.2,0.2,0.4,0.3,0.4h0.4v1.2H36
	c-0.4,0-0.6-0.2-0.8-0.7L34.6,34.8z"/>
<path class="st0" d="M41.3,37.6h1.2L42,39.9c-0.1,0.5-0.4,0.8-0.8,0.8h-0.7v-1.1h0.3c0.1,0,0.1-0.1,0.2-0.4L41.3,37.6z M45.5,31.7
	h1.4c-0.1,0.5-0.2,0.9-0.4,1.1c-0.2,0.2-0.5,0.3-0.9,0.3h-5V32H45C45.3,32,45.4,31.9,45.5,31.7 M46.2,36v1.1h-2.1v3.6h-1.3v-3.6
	h-2.2V36h2.2v-0.6h1.3V36H46.2z M40.7,33.5h1.2V34c0,0.1,0.1,0.2,0.2,0.2h0.2v1h-0.9c-0.5,0-0.7-0.2-0.7-0.6L40.7,33.5L40.7,33.5z
	 M42.6,33.5h1.2V34c0,0.1,0.1,0.2,0.2,0.2h0.2v1h-0.9c-0.5,0-0.7-0.2-0.7-0.6C42.6,34.6,42.6,33.5,42.6,33.5z M44.4,37.6h1.2
	l0.3,1.7c0.1,0.2,0.1,0.3,0.3,0.3h0.1v1.1h-0.7c-0.4,0-0.6-0.2-0.7-0.6L44.4,37.6z M45,33.5h1.2v1c0,0.4-0.2,0.6-0.7,0.6h-0.9v-1
	h0.2c0.1,0,0.2-0.1,0.2-0.2C45,33.9,45,33.5,45,33.5z M49.4,31.8L49,34.1c-0.1,0.4-0.4,0.6-0.8,0.6h-1.5v-1.2h0.7
	c0.2,0,0.3-0.1,0.4-0.2l0.4-1.5L49.4,31.8L49.4,31.8z M49.5,35l-0.4,2.1c-0.1,0.4-0.4,0.6-0.8,0.6h-1.7v-1.2h0.9
	c0.2,0,0.2-0.1,0.3-0.2l0.3-1.4L49.5,35L49.5,35z M49.6,38l-0.4,2.1c-0.1,0.4-0.4,0.6-0.8,0.6h-1.8v-1.2h1c0.2,0,0.2-0.1,0.3-0.2
	l0.3-1.3H49.6z"/>
<path class="st0" d="M30.9,3.3c0.1,0.5-0.2,0.9-0.7,0.9c-0.5,0.1-0.9-0.2-0.9-0.7c-0.1-0.5,0.2-0.9,0.7-0.9
	C30.5,2.6,30.9,2.9,30.9,3.3 M37.6,6.5c-0.1-0.1-0.2-0.2-0.4-0.3c-0.1-0.1-0.2-0.1-0.3,0c-0.2,0.1-0.4,0.2-0.5,0.4L35,11l-0.8,0.1
	l1.4-4.1l-3.6-0.6l0.8,4.9L32,11.5L31,5.6c-0.1-0.3-0.4-0.5-0.6-0.5c-0.3,0.1-0.5,0.4-0.5,0.6l0.9,5.9l-0.7,0.1l-0.8-4.9l-3.3,1.8
	l2.5,3.3l-0.8,0.2l-2.8-3.8c-0.1-0.2-0.4-0.2-0.5-0.2c-0.1,0-0.2,0.1-0.2,0.1c-0.2,0.2-0.3,0.5-0.1,0.8l2.5,3.3
	c-0.2,0.1-0.3,0.2-0.3,0.4l0.3,1.7c0.1,0.2,0.2,0.4,0.4,0.3l9.7-1.5c0.2-0.1,0.4-0.2,0.3-0.4l-0.3-1.7c-0.1-0.2-0.2-0.3-0.4-0.3
	L37.6,7C37.6,6.8,37.6,6.6,37.6,6.5"/>
<path class="st0" d="M20.2,38.4c0-0.5-0.7-0.3-1.5,0.5l-2.3,2.3c-0.8,0.8-1.6,0.5-1.7-0.6l-0.6-7.2C14,32.3,13,30.9,12,30.3
	l-6.4-3.5c-1.1-0.5-1-1.4,0.1-1.8l6.6-2.8c1.1-0.5,2.1-1.8,2.3-2.9l1.2-7.1c0.2-1.2,1-1.4,1.8-0.5l4.7,5.5c0.8,0.9,2.3,1.5,3.5,1.3
	l7.1-1c1.2-0.2,1.6,0.5,1.1,1.4c-0.6,0.9-0.9,1.6-0.9,1.6c0.1-0.1,0.6-0.1,1-0.1c0.4,0,1.2-0.8,1.8-1.8l1.4-2.3c0.6-1,0.2-1.7-1-1.5
	l-9.9,1.4c-1.2,0.2-2.8-0.4-3.5-1.3l-6.5-7.6c-0.8-0.9-1.6-0.6-1.8,0.5l-1.7,9.8c-0.2,1.2-1.2,2.5-2.3,2.9l-9.2,3.9
	c-1.1,0.5-1.1,1.3-0.1,1.8l8.8,4.6c1.1,0.5,2,1.9,2.1,3.1l0.8,9.9c0.1,1.2,0.9,1.5,1.7,0.6l3.8-3.7C19.5,40.1,20.2,39,20.2,38.4"/>
<polygon class="st0" points="15.4,26.1 14.8,22.8 18,23.9 16,24.3 "/>
<rect x="18.2" y="23.2" transform="matrix(0.762 -0.6476 0.6476 0.762 -13.1602 18.4243)" class="st0" width="0.6" height="7.9"/>
<rect x="0.7" y="2.6" class="st1" width="48.9" height="42.4"/>
</svg>
