<?xml version="1.0" encoding="utf-8"?>
<!-- Generator: Adobe Illustrator 22.0.1, SVG Export Plug-In . SVG Version: 6.00 Build 0)  -->
<svg version="1.1" id="圖層_1" xmlns="http://www.w3.org/2000/svg" xmlns:xlink="http://www.w3.org/1999/xlink" x="0px" y="0px"
	 viewBox="0 0 50 50" style="enable-background:new 0 0 50 50;" xml:space="preserve">
<style type="text/css">
	.st0{fill:#FFFFFF;}
</style>
<path class="st0" d="M42.7,14.8C39.9,9.8,35.6,7,33,8.4S30.7,15,33.5,20c2.8,4.9,7.1,7.8,9.7,6.3C45.7,24.9,45.5,19.7,42.7,14.8z
	 M34.1,19.7c-2.6-4.5-2.8-9.3-0.4-10.6s6.3,1.3,8.9,5.8c2.6,4.5,2.8,9.3,0.4,10.6C40.6,26.8,36.6,24.2,34.1,19.7z"/>
<g>
	<polygon class="st0" points="13.5,23 15.5,23 15.5,20 13.8,20 	"/>
	<path class="st0" d="M45.5,19.6C43,8.1,31.7,0.8,20.2,3.3C8.8,5.8,1.5,17.1,4,28.5c0.3,1.3,0.7,2.6,1.2,3.7h0.3v-1.6h6v1.6h5.4V35
		c2.2-0.9,3.8-2.2,4.6-3.7l0.4-0.8H27l0.4,0.8c0.8,1.6,2.3,2.8,4.5,3.7l-0.5-1.7H32v-2.1l6.5,0c0.8,0,1.7-0.1,2.6-0.4l1.9-0.7v2.5
		c0.1-0.2,0.2-0.4,0.2-0.7l0.3-1h1.2C46,27.4,46.3,23.5,45.5,19.6z M18,23.9H9.9v-1h2l0.3-3h-1.8v-1.1h1.9l0.2-1.7h-2.3V16h7.6v1.1
		h-3.7l-0.2,1.7H17v4h1V23.9z M26.7,20c-0.2-0.1-0.4-0.2-0.7-0.3c-0.2-0.1-0.4-0.2-0.4-0.2v3.2c0,1-0.4,1.4-1.4,1.4h-1.3V23h0.7
		c0.3,0,0.4-0.1,0.4-0.5v-2.4h-1.5c-0.1,2.1-1.2,3.4-3.5,4.1v-0.9c1.3-0.7,1.9-1.8,1.9-3.2H20v-0.8c-0.3,0.2-0.8,0.4-1.2,0.6v-1.1
		c1.2-0.7,1.8-1.5,2.1-3.2h1.6c-0.3,1.6-1,2.7-1.9,3.3H25c-0.9-0.6-1.6-1.7-1.9-3.3h1.6c0.3,1.4,0.9,2.5,2.1,3.2V20z M43,27.3
		c-3,1.6-7.7-1.5-10.5-6.8c-2.9-5.4-2.8-11,0.2-12.6c3-1.6,7.7,1.5,10.5,6.8C46,20.1,45.9,25.8,43,27.3z"/>
</g>
<g>
	<path class="st0" d="M0.8,45.7v-2c1.6-1.5,2.3-4,2.2-7.5h2.9C6,40.6,4.3,43.7,0.8,45.7z M15.3,32.7v2H1v-2h5.5v-1.7h3.3v1.7H15.3z
		 M15.5,45.7c-3.6-2-5.3-5.1-5.1-9.5h2.9c-0.1,3.5,0.6,5.9,2.2,7.5V45.7z"/>
	<path class="st0" d="M19.8,37.6v-1.3C19,36.7,18,37,16.9,37.3v-1.7c2.8-1.1,4.7-2.6,5.8-4.7h3.4c1.1,2,3,3.6,5.8,4.7v1.7
		c-1.1-0.3-2-0.5-2.9-0.8v1.2H19.8z M18.7,45.3v-6.5h11.7v4.1c0,1.6-0.8,2.4-2.4,2.4H18.7z M24.5,33.5c-0.9,0.9-2,1.6-3.2,2.3h6.4
		C26.5,35.1,25.4,34.3,24.5,33.5z M21.4,40.7v2.9h5.4c0.5,0,0.8-0.2,0.8-0.8v-2H21.4z"/>
	<path class="st0" d="M42.2,33.7c-0.3,1.4-0.8,2.6-1.3,3.4h-1.7v0.6h2.6v1.8h-0.5c0.1,1.4,0.5,2.7,1.2,3.7v0.7
		c1.7-0.9,2.9-2.4,3.6-4.5h2.5c-0.8,3.3-3,5.4-6.5,6.4v-1.2c-1.8-0.9-2.7-2.5-2.8-5h-0.1v6.1h-2.5v-6.1h-0.2c0,2.6-1.2,4.5-3.3,5.6
		v-1.6c0.8-1,1.3-2.3,1.3-4h-0.9v-1.8h3.1v-0.8h2.4c0.5-0.9,0.8-1.9,0.9-3.1H42.2z M33.6,33.7h1.9c0.5,1.2,0.8,2.4,0.9,3.4h-2.1
		C34.2,36.1,34,35,33.6,33.7z M33.7,31.6h5.2c1.1,0,2.1-0.1,3.2-0.5V33c-0.9,0.3-1.9,0.4-2.9,0.4h-5.4V31.6z M36.3,33.7h1.9
		c0.4,0.9,0.7,1.8,0.8,2.7h-2.1C36.9,35.8,36.7,34.9,36.3,33.7z M42.2,36.4v-1.7c1.5-0.6,2.5-1.8,3-3.5h2.7
		C46.9,34.2,45,35.9,42.2,36.4z M42.2,40.8v-1.7c1.8-0.9,3-2.2,3.6-4.1h2.6C47.5,38.1,45.4,40,42.2,40.8z"/>
</g>
<g>
	<path class="st0" d="M36.6,15.4l2.3,3.9l0.9-0.5l0.2,0.3l-0.9,0.5l0.9,1.5l-0.4,0.2l-0.9-1.5L36,21.4l-0.2-0.4
		c0.1-0.4,0.2-0.9,0.2-1.4c0.1-0.5,0.1-1,0.2-1.5c0-0.5,0.1-0.9,0.1-1.4c0-0.5,0-0.9,0-1.2L36.6,15.4z M36.2,20.9l2.3-1.3l-1.9-3.3
		c0,0.5,0,0.9,0,1.3s-0.1,0.9-0.1,1.3c0,0.4-0.1,0.8-0.1,1.1S36.2,20.6,36.2,20.9z"/>
	<path class="st0" d="M39.7,13.4l3.4,5.9l-0.4,0.2l-3-5.3c-0.1,0.3-0.2,0.6-0.4,0.8c-0.2,0.3-0.4,0.5-0.6,0.8l-0.2-0.3
		c0.1-0.2,0.3-0.3,0.4-0.5s0.2-0.3,0.3-0.5c0.1-0.2,0.2-0.3,0.2-0.5c0.1-0.2,0.1-0.4,0.2-0.6L39.7,13.4z"/>
</g>
</svg>
