<?xml version="1.0" encoding="utf-8"?>
<!-- Generator: Adobe Illustrator 22.0.1, SVG Export Plug-In . SVG Version: 6.00 Build 0)  -->
<svg version="1.1" id="logo_x5F_cqssc" xmlns="http://www.w3.org/2000/svg" xmlns:xlink="http://www.w3.org/1999/xlink" x="0px"
	 y="0px" viewBox="0 0 50 50" style="enable-background:new 0 0 50 50;" xml:space="preserve">
<style type="text/css">
	.st0{fill:#FFFFFF;}
</style>
<title>logo_cqssc</title>
<g id="图层_2">
	<g id="top">
		<path class="st0" d="M12,38.5c-0.2,0.1-0.4,0.2-0.6,0.5c-0.2,0.3-0.2,0.6-0.2,0.8s0,0.6,0.2,0.7c0.2,0.1,0.4,0.2,0.6,0.1
			c0.2-0.1,0.4-0.2,0.6-0.5c0.2-0.3,0.2-0.6,0.2-0.9c0-0.3,0-0.5-0.2-0.6C12.4,38.4,12.1,38.4,12,38.5z"/>
		<polygon class="st0" points="12.2,38.9 11.2,39.3 11.2,42.9 13.8,42 13.8,41.1 12.2,41.7 		"/>
		<polygon class="st0" points="18,29.5 18.5,28.1 17.6,28.4 17.1,29.7 		"/>
		<polygon class="st0" points="5.4,30 6.3,29.7 6.7,28.4 5.8,28.7 		"/>
		<path class="st0" d="M27.2,36.2c0.1,0,0.1-0.1,0.2-0.2c0-0.1,0-0.2,0-0.3s0-0.2-0.1-0.2s-0.2,0-0.4,0l-0.5,0.2v0.7l0.5-0.2
			L27.2,36.2z"/>
		<polygon class="st0" points="19.9,24 19,24.4 18.5,25.8 19.4,25.4 		"/>
		<path class="st0" d="M7.4,29.7l1.5-4.2l0.8-0.4l0.4-1.1l-5.3,2L0.5,38.3l5.3-2l2.5-6.9L7.4,29.7z M4.8,33.7l-0.9,0.4l0.5-1.4
			l0.9-0.4L4.8,33.7z M6.3,29.7l-0.9,0.4l0.5-1.4l0.9-0.4L6.3,29.7z"/>
		<path class="st0" d="M19,32.1l2.5-6.9l-0.8,0.4l1.5-4.2l0.8-0.4l0.4-1.1l-5.3,2l-4.3,12.2L19,32.1z M19,24.4l0.9-0.4l-0.5,1.4
			l-0.9,0.4L19,24.4z M18.4,28.1L18,29.5l-0.9,0.4l0.6-1.5L18.4,28.1z"/>
		<path class="st0" d="M28.3,22.1l1.4-0.6l1.1-3.1L29.4,19l0.9-2.6l-2.8,1.1l-0.9,2.6l-4.2,1.7l-1.1,3.1l4.2-1.7l-0.4,1
			c0.3,0.5,0.3,1,0.1,1.5c-0.3,0.7-0.7,1.5-1.3,2l-0.4,1c0,0.2-0.1,0.3-0.2,0.4c-0.3,0.2-0.6,0.3-0.8,0.4l-1.1,0.5l-1.2,3l3.7-1.4
			c0.4-0.1,0.6-0.4,0.8-0.6c0.2-0.2,0.4-0.5,0.6-0.7c0.3-0.6,0.5-1.1,0.6-1.7L28.3,22.1z"/>
		<path class="st0" d="M11.6,35.2c0.2-0.2,0.4-0.5,0.6-0.7c0.3-0.6,0.5-1.1,0.6-1.7l2.3-6.5l1.4-0.6l1.1-3.1l-1.4,0.6l0.9-2.6
			l-2.8,1.1l-0.9,2.6L9.2,26l-1.1,3.1l4.2-1.6l-0.4,1c0.3,0.5,0.3,1,0.1,1.5c-0.3,0.7-0.7,1.5-1.3,2L10.4,33c0,0.2-0.1,0.3-0.2,0.4
			c-0.3,0.2-0.6,0.3-0.8,0.4l-1.1,0.5l-1.1,3l3.7-1.4C11.1,35.6,11.3,35.5,11.6,35.2z"/>
		<path class="st0" d="M22.6,27.7c0.8-0.3,1.5-0.9,1.8-1.8c0.3-0.9,0-1.6-0.7-1.5c-0.8,0.3-1.5,0.9-1.8,1.8
			C21.7,27.1,21.9,27.8,22.6,27.7z"/>
		<path class="st0" d="M9.5,32c0.8-0.3,1.5-0.9,1.8-1.8c0.3-0.9,0-1.6-0.7-1.5c-0.8,0.3-1.5,0.9-1.8,1.8C8.5,31.3,8.9,32.1,9.5,32z"
			/>
		<path class="st0" d="M27.8,35.5h0.1c0.1,0,0.2,0,0.3,0c0.1,0.1,0.1,0.1,0.2,0.2l0.6,0.9l1.2-0.5l-0.5-0.9c0-0.1-0.1-0.1-0.2-0.2
			C29.4,35,29.4,35,29.3,35c-0.1,0-0.2,0-0.3,0c0.1-0.1,0.3-0.2,0.4-0.3c0.1-0.2,0.3-0.3,0.3-0.5c0.1-0.2,0.1-0.4,0.1-0.6
			c0-0.2,0-0.4-0.2-0.6c-0.1-0.1-0.2-0.2-0.4-0.2c-0.3,0-0.5,0.1-0.7,0.2l-1.8,0.6v3.7l1-0.4L27.8,35.5z M27.8,34.1l0.5-0.2
			c0.2-0.1,0.3-0.1,0.4,0s0.1,0.2,0.1,0.2c0,0.1,0,0.2-0.1,0.3c0,0.1-0.1,0.1-0.2,0.2l-0.3,0.2l-0.5,0.2L27.8,34.1z"/>
		<polygon class="st0" points="24.8,36.7 26.4,36 26.4,35.3 24.8,35.9 24.8,35.3 26.5,34.6 26.5,33.9 23.8,34.9 23.8,38.5 
			26.6,37.5 26.6,36.7 24.8,37.4 		"/>
		<path class="st0" d="M17.2,37.7c-0.4-0.2-0.9-0.2-1.3,0c-0.6,0.2-0.9,0.5-1.3,0.9c-0.3,0.5-0.5,1-0.5,1.6c0,0.4,0.1,0.7,0.2,1
			c0.1,0.2,0.4,0.4,0.6,0.4c0.3,0,0.6,0,0.9-0.2c0.4-0.1,0.6-0.3,0.9-0.6c0.3-0.3,0.5-0.6,0.6-0.8c0.1-0.4,0.2-0.7,0.2-1.1
			C17.7,38.4,17.6,38,17.2,37.7z M16.5,40.2c-0.1,0.2-0.3,0.4-0.6,0.5c-0.2,0.1-0.4,0.1-0.5-0.1c-0.2-0.2-0.2-0.5-0.2-0.7
			s0.1-0.6,0.2-0.8c0.1-0.2,0.3-0.4,0.5-0.5c0.2-0.1,0.4-0.1,0.6,0c0.2,0.2,0.2,0.5,0.2,0.6C16.7,39.5,16.7,39.9,16.5,40.2
			L16.5,40.2z"/>
		<polygon class="st0" points="32.1,35.5 32.1,33.9 33.3,31.3 32.2,31.8 31.6,33.3 30.8,32.2 29.8,32.7 31.1,34.3 31.1,35.8 		"/>
		<polygon class="st0" points="17.7,37.1 17.7,38 18.7,37.6 18.7,40.3 19.8,40 19.8,37.2 20.5,36.9 20.8,36.8 21.5,36.6 21.5,39.3 
			22.6,38.9 22.6,36.2 23.6,35.8 23.6,34.9 20.5,36.1 		"/>
		<polygon class="st0" points="38.3,18.4 41,17.4 41,14.7 38.3,15.9 		"/>
		<polygon class="st0" points="29.7,30.3 32.9,24.1 31,30 33.9,28.8 35.8,23.1 35.4,28 38.1,26.9 38.6,21 39.9,20.5 40.4,18.7 
			36.7,20.2 37,19.4 34,20.6 33.8,21.4 30,22.8 29.5,24.6 30.7,24.1 27,31.4 		"/>
		<polygon class="st0" points="34.5,17.5 34.5,20 37.3,18.9 37.3,16.2 34.7,17.2 35.1,16.6 38.4,15.3 40.9,14.3 41.4,14.1 
			42.7,11.5 39.8,12.6 39.4,13.3 36.3,14.6 33.9,15.5 33.5,15.7 30,21.7 32.8,20.6 		"/>
		<path class="st0" d="M43.9,28.8L43.9,28.8c-1.5-0.6-3.6-1.3-2-3.4c0.2-0.3,0.4-0.6,0.6-0.8c0.6-0.7,1-1.7,1.1-2.7
			c0-0.3,0-0.6-0.1-0.8c-1-5,3.5-10.3,5.1-12l-4.1,1.7h-0.1c-1,1.2-1.7,2.7-2,4.2l0,0c-0.3,1-0.4,2-0.5,3c-0.1,2.8,0.9,3.6-1,7l0,0
			c-0.4,0.5-0.6,1-0.9,1.5c-0.6,1.2-1.1,2.7,0,2.9c1.8,0.5,3.8,1.9,0,5.1l0,0c-3.5,3.5-6,0.3-10.7,9.4h4.5c2-6.3,2.8-4.8,6.7-8.3
			l0,0l0.6-0.5c1.1-0.9,1.9-1.7,2.6-2.2c1.6-1.5,1.8-2.8,1-3.6C44.5,29.1,44.2,29,43.9,28.8z"/>
	</g>
</g>
<g>
	<g>
		<path class="st0" d="M3.3,19.3l3.4-1.1v-0.6l-2.7,0.9c-0.4,0.1-0.6-0.1-0.6-0.4l-0.2-2.8c0-0.4,0.2-0.6,0.6-0.8l6.7-2.2
			c0.4-0.1,0.6,0,0.6,0.4l0.2,2.8c0,0.3-0.3,0.6-0.6,0.7l-2.7,0.9v0.6l3.4-1.1v0.5l-3.4,1.1v0.6l3.7-1.2V18l-8.6,3v-0.5l3.7-1.2
			v-0.6l-3.4,1.1L3.3,19.3z M3.3,22.9l0.5-1.8l1.5-0.5l-0.5,1.8L3.3,22.9z M5.2,17.6l1.5-0.5l-0.2-2.9L5,14.8
			c-0.2,0-0.4,0.2-0.4,0.4l0.2,2.3C4.8,17.6,5,17.7,5.2,17.6z M5.2,16.9l-0.3-1.6L6.1,15l0.3,1.6L5.2,16.9z M6.3,22l-0.7-1.5L7,20.1
			l0.7,1.5L6.3,22z M8.5,21.3l-0.7-1.5l1.4-0.5l0.6,1.5L8.5,21.3z M9.8,13.5c0-0.2-0.2-0.3-0.4-0.2L8,13.7l0.2,2.9l1.5-0.5
			c0.2-0.1,0.4-0.3,0.4-0.5L9.8,13.5z M8.3,16l0.1-1.7L9.6,14l-0.1,1.7L8.3,16z M10.6,20.6l-0.7-1.4l1.4-0.5l0.7,1.5L10.6,20.6z"/>
		<path class="st0" d="M16.4,10.3c-0.1,0.6-0.2,1.2-0.3,1.8l4.8-1.7V11l-2.6,0.8l0.2,2.4c0.7-0.7,1.3-1.5,1.9-2.4l0.1,1
			c-0.6,0.8-1.3,1.6-1.9,2.3l0.1,1.8c0,0.2,0.2,0.3,0.4,0.2l2.2-0.7v0.5L17.9,18c-0.4,0.1-0.6,0-0.6-0.4v-1c-0.6,0.7-1.4,1.4-2.2,2
			v-0.7c0.7-0.7,1.5-1.4,2.2-2.1l-0.2-3.4l-0.9,0.3c-0.5,2.3-1.1,4.5-1.9,6.7l-1.5,0.5c0.9-2.2,1.6-4.4,2-6.7l-2.4,0.8v-0.5l2.5-0.8
			c0.1-0.6,0.2-1.2,0.3-1.8L16.4,10.3z M18.5,11.2l-0.6-1l1.4-0.5l0.7,0.9L18.5,11.2z"/>
		<path class="st0" d="M22.3,10.1l-0.7-1.6L23,8.1l0.7,1.6L22.3,10.1z M22.6,12.6l-0.7-1.8l1.5-0.5l0.7,1.8L22.6,12.6z M21.8,16.8
			c0.5-1.2,0.6-2.3,0.7-3.6l1.5-0.5c-0.1,1.3-0.4,2.6-0.7,3.6L21.8,16.8z M24.4,15.9v-0.5l2.3-0.8l-0.5-6.6l-2.1,0.7V8.2l5.7-1.9
			v0.5l-2.2,0.7l0.5,6.6l2.5-0.8v0.5L24.4,15.9z"/>
	</g>
</g>
</svg>
