<?xml version="1.0" encoding="utf-8"?>
<!-- Generator: Adobe Illustrator 21.1.0, SVG Export Plug-In . SVG Version: 6.00 Build 0)  -->
<svg version="1.1" id="logo_x5F_cqssc" xmlns="http://www.w3.org/2000/svg" xmlns:xlink="http://www.w3.org/1999/xlink" x="0px"
	 y="0px" viewBox="0 0 190 150" style="enable-background:new 0 0 190 150;" xml:space="preserve">
<style type="text/css">
	.st0{fill:#FFFFFF;}
</style>
<title>logo_cqssc</title>
<g id="图层_2">
	<g id="top">
		<path class="st0" d="M46.7,127.3c-0.7,0.4-1.4,0.7-2.2,1.8c-0.7,1.1-0.7,2.2-0.7,3.2c0,1.1,0,2.2,0.7,2.9c0.7,0.4,1.4,0.7,2.2,0.4
			c0.7-0.4,1.4-0.7,2.2-1.8c0.7-1.1,0.7-2.5,0.7-3.6c0-1.1,0-1.8-0.7-2.5C48.2,127,47.1,127,46.7,127.3z"/>
		<polygon class="st0" points="47.4,129.1 43.5,130.6 43.5,144.6 53.9,141 53.9,137.4 47.4,139.9 		"/>
		<polygon class="st0" points="70.1,92.1 72.3,86.7 68.7,87.7 66.5,93.1 		"/>
		<polygon class="st0" points="20.8,94.2 24.4,93.1 26.2,87.7 22.6,88.8 		"/>
		<path class="st0" d="M106.1,118.3c0.4,0,0.4-0.4,0.7-0.7c0-0.4,0-0.7,0-1.1c0-0.4,0-0.7-0.4-0.7s-0.7,0-1.4,0l-1.8,0.7v2.9
			l1.8-0.7L106.1,118.3z"/>
		<polygon class="st0" points="77.7,70.8 74.1,72.3 72.3,77.7 75.9,76.2 		"/>
		<path class="st0" d="M28.7,93.1l5.8-16.6l3.2-1.4l1.4-4.3l-20.5,7.9L1.7,126.6l20.5-7.9l9.7-27L28.7,93.1z M18.6,108.6L15,110
			l1.8-5.4l3.6-1.4L18.6,108.6z M24.4,93.1l-3.6,1.4l1.8-5.4l3.6-1.4L24.4,93.1z"/>
		<path class="st0" d="M74.1,102.1l9.7-27l-3.2,1.4L86.3,60l3.2-1.4l1.4-4.3l-20.5,7.9L53.6,110L74.1,102.1z M74.1,72.3l3.6-1.4
			l-1.8,5.4l-3.6,1.4L74.1,72.3z M71.9,86.7l-1.8,5.4l-3.6,1.4l2.2-5.8L71.9,86.7z"/>
		<path class="st0" d="M110.4,63.3l5.4-2.2l4.3-12.2l-5.4,2.2l3.6-10.1l-10.8,4.3l-3.6,10.1l-16.6,6.5l-4.3,12.2l16.6-6.5l-1.4,4
			c1.1,1.8,1.1,4,0.4,5.8c-1.1,2.9-2.9,5.8-5,7.9l-1.4,4c0,0.7-0.4,1.1-0.7,1.4c-1.1,0.7-2.2,1.1-3.2,1.4l-4.3,1.8l-4.7,11.9
			l14.4-5.4c1.4-0.4,2.5-1.4,3.2-2.5c0.7-0.7,1.4-1.8,2.2-2.9c1.1-2.2,1.8-4.3,2.5-6.5L110.4,63.3z"/>
		<path class="st0" d="M45.3,114.4c0.7-0.7,1.4-1.8,2.2-2.9c1.1-2.2,1.8-4.3,2.5-6.5l9-25.2l5.4-2.2l4.3-12.2l-5.4,2.2l3.6-10.1
			l-10.8,4.3l-3.6,10.1l-16.6,6.5l-4.3,12.2l16.6-6.1l-1.4,4c1.1,1.8,1.1,4,0.4,5.8c-1.1,2.9-2.9,5.8-5,7.9l-1.8,3.6
			c0,0.7-0.4,1.1-0.7,1.4c-1.1,0.7-2.2,1.1-3.2,1.4l-4.3,1.8l-4.3,11.9l14.4-5.4C43.1,116.2,44.2,115.4,45.3,114.4z"/>
		<path class="st0" d="M88.1,85.2c3.2-1.1,5.8-3.6,6.8-6.8c1.1-3.6,0-6.1-2.9-5.8c-3.2,1.1-5.8,3.6-6.8,6.8
			C84.5,82.7,85.6,85.6,88.1,85.2z"/>
		<path class="st0" d="M37,101.8c3.2-1.1,5.8-3.6,6.8-6.8c1.1-3.6,0-6.1-2.9-5.8c-3.2,1.1-5.8,3.6-6.8,6.8
			C33,99.2,34.5,102.1,37,101.8z"/>
		<path class="st0" d="M108.6,115.8h0.4c0.4,0,0.7,0,1.1,0c0.4,0.4,0.4,0.4,0.7,0.7l2.2,3.6l4.7-1.8l-1.8-3.6c0-0.4-0.4-0.4-0.7-0.7
			c-0.4-0.4-0.4-0.4-0.7-0.4c-0.4,0-0.7,0-1.1,0c0.4-0.4,1.1-0.7,1.4-1.1c0.4-0.7,1.1-1.1,1.1-1.8c0.4-0.7,0.4-1.4,0.4-2.2
			c0-0.7,0-1.4-0.7-2.2c-0.4-0.4-0.7-0.7-1.4-0.7c-1.1,0-1.8,0.4-2.9,0.7l-6.8,2.5v14.4l4-1.4L108.6,115.8z M108.6,110l1.8-0.7
			c0.7-0.4,1.1-0.4,1.4,0s0.4,0.7,0.4,0.7c0,0.4,0,0.7-0.4,1.1c0,0.4-0.4,0.4-0.7,0.7l-1.1,0.7l-1.8,0.7L108.6,110z"/>
		<polygon class="st0" points="96.7,120.1 103.2,117.6 103.2,114.7 96.7,117.2 96.7,114.7 103.6,112.2 103.6,109.3 92.8,113.3 
			92.8,127.3 103.9,123.4 103.9,120.1 96.7,123 		"/>
		<path class="st0" d="M67.2,124.1c-1.4-0.7-3.6-0.7-5,0c-2.2,0.7-3.6,1.8-5,3.6c-1.1,1.8-1.8,4-1.8,6.1c0,1.4,0.4,2.9,0.7,4
			c0.4,0.7,1.4,1.4,2.2,1.4c1.1,0,2.5,0,3.6-0.7c1.4-0.4,2.5-1.1,3.6-2.2c1.1-1.1,1.8-2.2,2.2-3.2c0.4-1.4,0.7-2.9,0.7-4.3
			C69,127,68.7,125.2,67.2,124.1z M64.4,133.8c-0.4,0.7-1.1,1.4-2.2,1.8c-0.7,0.4-1.4,0.4-1.8-0.4c-0.7-0.7-0.7-1.8-0.7-2.9
			c0-1.1,0.4-2.5,0.7-3.2c0.4-0.7,1.1-1.4,1.8-1.8c0.7-0.4,1.4-0.4,2.2,0c0.7,0.7,0.7,1.8,0.7,2.5C65.1,131.3,65.1,132.7,64.4,133.8
			L64.4,133.8z"/>
		<polygon class="st0" points="125.2,115.4 125.2,109.3 130.2,99.2 125.9,101 123.4,106.8 120.5,102.8 116.2,104.6 121.2,111.1 
			121.2,116.9 		"/>
		<polygon class="st0" points="69,121.9 69,125.2 73,123.7 73,134.5 77.3,133.1 77.3,122.3 79.8,121.2 81.3,120.8 83.8,119.8 
			83.8,130.6 88.1,129.1 88.1,118.3 92.1,116.9 92.1,113.3 79.8,118 		"/>
		<polygon class="st0" points="149.6,48.9 160.1,44.9 160.1,34.5 149.6,38.8 		"/>
		<polygon class="st0" points="115.8,95.3 128.4,71.2 120.9,94.2 132.4,89.5 139.9,67.2 138.1,86.3 148.9,82 150.7,58.9 155.8,56.8 
			157.9,49.9 143.5,55.7 144.6,52.5 132.7,57.1 132,60.4 117.3,66.1 115.1,73 119.8,71.2 105.4,99.6 		"/>
		<polygon class="st0" points="134.9,45.3 134.9,55 145.7,50.7 145.7,40.2 135.6,44.2 137,41.7 150,36.6 159.7,32.7 161.5,32 
			166.9,21.9 155.4,26.2 154,28.7 141.7,33.8 132.4,37.4 130.9,38.1 117.3,61.8 128,57.5 		"/>
		<path class="st0" d="M171.6,89.5L171.6,89.5c-5.8-2.2-14-5-7.9-13.3c0.7-1.1,1.4-2.2,2.2-3.2c2.5-2.9,4-6.5,4.3-10.4
			c0-1.1,0-2.2-0.4-3.2c-4-19.4,13.7-40.3,19.8-46.8L173.4,19H173c-4,4.7-6.5,10.4-7.9,16.6l0,0c-1.1,4-1.4,7.9-1.8,11.9
			c-0.4,10.8,3.6,14-4,27.3l0,0c-1.4,1.8-2.5,4-3.6,5.8c-2.5,4.7-4.3,10.4,0,11.5c6.8,1.8,14.8,7.6,0,19.8l0,0
			c-13.7,13.7-23.4,1.1-41.7,36.7h17.6c7.9-24.8,10.8-18.7,26.3-32.4l0,0l2.5-1.8c4.3-3.6,7.6-6.5,10.1-8.6c6.1-5.8,6.8-10.8,4-14
			C173.8,90.6,172.7,90.3,171.6,89.5z"/>
	</g>
</g>
<g>
	<path class="st0" d="M21.2,35.6v-2.2l6.1-2.2l-0.4-3.6l6.1-2.2l0.4,3.6l6.1-2.2v2.2L21.2,35.6z M27.6,62.2L27.6,62.2
		c1.1-0.4,1.4-1.1,1.4-1.8l-0.7-11.2l-6.1,2.5v-2.2l6.5-2.2l-0.7-4l-6.5,2.2v-2.2l2.5-0.7L22.2,37l5.8-1.8l1.1,5.4l2.9-1.1l0.7-6.1
		l5.8-1.8l-0.7,6.1l2.5-0.7v2.2l-6.1,2.2l0.4,4l6.5-2.2v2.2l-6.5,2.2l0.7,11.9c0,1.4-1.1,2.9-2.5,3.6l-5,1.4V62.2z M22.6,65.4
		C23,61.1,23,57.1,23,53.5l4.3-1.8c0,4,0,7.9-0.4,11.9L22.6,65.4z M37,60.4c-0.7-3.6-1.4-7.6-1.8-11.2l4.3-1.4
		c0.4,3.6,1.1,7.2,1.8,11.2L37,60.4z M52.8,56.1l-1.4-23l-3.6,1.1l0.7,13.3c0.4,3.2,0.4,6.8-0.7,10.1L42,59.3
		c1.1-3.6,0.7-6.8,0.4-10.1L41,26.9c0-1.4,1.1-2.9,2.2-3.2l6.1-1.8c2.2-0.7,3.2-1.1,4-2.9l5.8-1.8c-0.4,2.9-1.8,4.3-5.4,5.4
		l-5.4,1.8c-0.7,0.4-1.4,1.1-1.4,1.8l0.4,6.1L59.7,28v2.2l-3.2,1.1l1.4,23L52.8,56.1z"/>
	<path class="st0" d="M70.5,17.2c0-0.4-0.4-0.7-1.1-0.7L61.8,19v-2.2l11.9-4c1.4-0.4,2.5,0.4,2.5,1.4l0.4,6.1c0,1.4-1.1,2.9-2.2,3.2
		l-4.3,1.4c-0.7,0.4-1.4,1.1-1.4,1.8l0.4,4c0,0.7,0.7,1.1,1.4,1.1l4-1.1c1.4-0.4,2.5,0.4,2.5,1.4l0.7,13c0,1.4-1.1,2.9-2.2,3.2
		L67.6,51v-2.2l3.2-1.1c0.4-0.4,0.7-0.7,0.7-1.1l-0.7-11.5c0-0.4-0.4-0.7-1.1-0.7l-5,1.8c-1.4,0.4-2.5-0.4-2.5-1.4l-0.4-6.5
		c0-1.1,1.1-2.9,2.2-3.2l5.8-2.2c0.7,0,1.1-0.7,1.1-1.1L70.5,17.2z M63.6,48.9v-2.2l1.1-0.4L64.4,42l-1.1,0.4v-2.2l1.1-0.4v-2.5
		l5-1.8v2.5l1.1-0.4v2.2l-1.1,0.4l0.4,4l1.1-0.4V46L63.6,48.9z M76.9,11.8l23.8-7.9V6L76.9,14V11.8z M78,17.6c0-1.4,1.1-2.9,2.5-3.2
		l17.6-5.8c1.4-0.4,2.5,0.4,2.9,1.8l0.4,6.8c0,1.4-1.1,2.9-2.5,3.2l-17.6,5.8c-1.4,0.4-2.5-0.4-2.9-1.8L78,17.6z M78,28.4l23.8-7.9
		v2.2L78,30.5V28.4z M78.7,34.1c0-1.4,1.1-2.9,2.5-3.2l17.6-5.8c1.4-0.4,2.5,0.4,2.9,1.8l0.4,7.2c0,1.4-1.1,2.9-2.5,3.2L82,43.1
		c-1.4,0.4-2.5-0.4-2.9-1.8L78.7,34.1z M79.1,44.9l23.8-7.9v2.2l-23.8,7.9V44.9z M83.4,18.3l3.2-1.1v-2.9L84.5,15
		c-0.7,0.4-1.1,0.7-1.1,1.4V18.3z M86.7,21.9V19l-3.2,1.1v1.8c0,0.7,0.7,1.1,1.1,0.7L86.7,21.9z M84.5,34.8l2.9-1.1v-2.9l-2.2,0.7
		c-0.7,0.4-1.1,0.7-1.1,1.4L84.5,34.8z M87.7,38.8v-2.9L84.5,37v1.8c0,0.7,0.7,1.1,1.1,0.7L87.7,38.8z M95.3,12.5
		c0-0.7-0.4-1.1-1.1-0.7l-1.8,0.7v2.9l3.2-1.1L95.3,12.5z M94.9,19.4c0.7-0.4,1.1-0.7,1.1-1.4v-1.8l-3.6,1.1v2.9L94.9,19.4z
		 M96.4,29.1c0-0.7-0.4-1.1-1.1-0.7l-2.2,0.7V32l3.2-1.1V29.1z M95.7,35.9c0.7-0.4,1.1-0.7,1.1-1.4v-1.8l-3.2,1.1v2.9L95.7,35.9z"/>
</g>
</svg>
