<?xml version="1.0" encoding="utf-8"?>
<!-- Generator: Adobe Illustrator 21.1.0, SVG Export Plug-In . SVG Version: 6.00 Build 0)  -->
<svg version="1.1" id="圖層_1" xmlns="http://www.w3.org/2000/svg" xmlns:xlink="http://www.w3.org/1999/xlink" x="0px" y="0px"
	 width="86px" height="86px" viewBox="0 0 86 86" style="enable-background:new 0 0 86 86;" xml:space="preserve">
<style type="text/css">
	.st0{fill:#FFFFFF;}
</style>
<path class="st0" d="M42.3,22.4h1.6c0,0.7-0.2,1.1-0.4,1.4c-0.2,0.2-0.5,0.4-1,0.4h-0.4v1H44v1.5h-1.9v8.1h-1.6v-6.2l-0.3,4.9
	c0,0.4-0.1,0.7-0.3,0.9c-0.2,0.2-0.5,0.3-0.7,0.3h-0.5v-1.5h0c0.2,0,0.2-0.1,0.3-0.4l0.3-5.1h1.3v-0.9h-1.7v-1.5h1.7v-1h-1.5v-1.4
	h2.9C42,22.8,42.2,22.6,42.3,22.4 M42.1,27.6h1.4l0.3,5.2c0,0.3,0.1,0.4,0.3,0.4v1.4h-0.7c-0.5,0-0.8-0.4-0.9-1.2L42.1,27.6z
	 M45.1,22.6h1.6L46,28.5c-0.2,1.4-0.7,2-1.4,2h-0.8V29H44c0.2,0,0.3-0.4,0.4-1.1L45.1,22.6z M49.4,29.1h1.9L49.7,34
	c-0.2,0.6-0.4,0.9-0.8,0.9h-4.6v-1.6H48c0.2,0,0.3-0.2,0.4-0.5L49.4,29.1z M46.9,22.3h1.6v8.4c0,0.4-0.1,0.8-0.4,1
	c-0.2,0.2-0.5,0.4-0.9,0.4h-1.3v-1.5h0.7c0.2,0,0.3-0.2,0.3-0.7V22.3z M48.7,22.6h1.6l0.4,4.3c0.1,0.3,0.2,0.4,0.4,0.4h0.1v1.5h-1
	c-0.6,0-1-0.4-1.1-1.2L48.7,22.6z"/>
<path class="st0" d="M52.6,26.1H55v6.4c0,0.4,0.4,0.6,1.1,0.6h14.1l1,1.7H56c-0.5,0-1-0.2-1.3-0.5c-0.2,0.4-0.6,0.5-1,0.5h-1v-1.6
	h0.2c0.2,0,0.4-0.1,0.4-0.4v-4.9h-0.6V26.1z M53.4,22.4h1.9v2.7h-1.9V22.4z M57.1,29.7h1.9L58,31.9c-0.2,0.5-0.5,0.7-1,0.7h-1.3
	v-1.4h0.6c0.2,0,0.3-0.1,0.3-0.4L57.1,29.7z M65,22.8v1.5h-3.9V25h3.4v2.9c0,0.8-0.4,1.2-1.3,1.2h-2.2v3.7h-1.8v-3.7h-3.3V25h3.3
	v-0.7h-3.5v-1.5h3.5v-0.6h1.8v0.6H65z M59.4,26.5h-1.5v1.2h1.5V26.5z M62.5,27.7c0.2,0,0.3-0.2,0.3-0.5v-0.7h-1.7v1.2H62.5z
	 M61.7,29.7h1.9l0.2,1c0.1,0.2,0.2,0.3,0.3,0.3H65v1.5h-1.7c-0.3,0-0.5-0.2-0.7-0.7L61.7,29.7z"/>
<polygon class="st0" points="28.3,58.2 24.3,58.2 24.3,45.7 21.7,45.7 21.7,44 26.5,40.1 28.3,40.1 "/>
<polygon class="st0" points="41.3,58.2 37.2,58.2 37.2,45.7 34.7,45.7 34.7,44 39.5,40.1 41.3,40.1 "/>
<path class="st0" d="M46.1,45.1h5.1v11.5c0,0.7,0.6,1.1,1.8,1.1h16.4v3H52.5c-0.9,0-1.6-0.3-2.1-0.9c-0.4,0.6-1,0.9-1.9,0.9h-2.7
	v-2.9H47c0.5,0,0.7-0.2,0.7-0.7v-8.9h-1.6V45.1z M47.5,37.8h3.7v4.5h-3.7V37.8z M54.5,38.2h3.2L57.3,40h2.4v-2.8h3.5V40h5.3v2.9
	h-5.3v3.1h5.8v3h-3.4v4.1c0,0.3,0.2,0.5,0.6,0.5H69v2.9h-4.9c-1.3,0-1.9-0.6-1.9-1.6V49h-9.8v-3h7.3v-3.1h-3.1
	c-0.3,1.1-1,1.6-2.2,1.6h-1.8v-2.8h0.7c0.2,0,0.4-0.2,0.5-0.6L54.5,38.2z M56.1,50.1h3.3l-1.2,4.8c-0.3,1.1-1,1.7-2.2,1.7h-2.9v-2.9
	h1.8c0.2,0,0.3-0.2,0.5-0.6L56.1,50.1z"/>
<path class="st0" d="M84.9,55.3c0,1.9-1.2,2.9-3.4,2.9h-8.1v-3.9h7.3v-4h-7.3V40.1h10.8V44h-6.5v3.9h4.1c1.3,0,2.1,0.2,2.5,0.6
	c0.4,0.4,0.6,1.2,0.6,2.3V55.3z"/>
<path class="st0" d="M79.7,25.8c0,0.5-0.4,0.9-0.9,0.9c-0.5,0-0.9-0.4-0.9-0.9c0-0.5,0.4-0.9,0.9-0.9C79.3,24.9,79.7,25.3,79.7,25.8
	 M86.2,30.5c0-0.2-0.1-0.3-0.3-0.4c-0.1,0-0.2-0.1-0.3-0.1c-0.2,0-0.4,0.1-0.6,0.3l-2.5,4.5l-0.9,0l2.3-4.1l-3.7-1.4L80,34.8l-0.8,0
	l0.2-6.5c0-0.3-0.3-0.6-0.6-0.6c-0.3,0-0.6,0.3-0.7,0.6L78,34.8l-0.8,0l0.1-5.4l-3.9,1.3l2,4.1l-0.9,0l-2.3-4.6
	c-0.1-0.2-0.3-0.3-0.5-0.3c-0.1,0-0.2,0-0.3,0.1c-0.3,0.2-0.4,0.5-0.3,0.8l2,4c-0.2,0-0.4,0.2-0.4,0.4l0,1.9c0,0.2,0.2,0.4,0.4,0.4
	l10.7,0.3c0.2,0,0.4-0.2,0.4-0.4l0-1.9c0-0.2-0.1-0.4-0.3-0.4l2.2-3.9C86.2,30.8,86.2,30.7,86.2,30.5"/>
<path class="st0" d="M50.4,64.1c-0.7-0.9-1.5,0.1-1.9,2.3l-1.3,7.6c-0.4,2.2-1.9,2.6-3.3,0.9L33.4,62.7C32,61,29,59.9,26.8,60.2
	L11,62.4c-2.2,0.3-3-1-1.9-2.9l8.3-13.6c1.2-1.9,1.3-5.1,0.3-7.1l-7-14.4c-1-2,0-3.2,2.2-2.7l15.5,3.7c2.2,0.5,5.2-0.3,6.8-1.9
	l11.5-11.1c1.6-1.5,3-1,3.2,1.2l0,0.2c0.2,2.2,0.4,3.9,0.5,3.7c0.1-0.2,1-0.9,1.6-1.4c0.7-0.5,1.1-2.7,0.9-4.9L52.5,5
	c-0.2-2.2-1.6-2.8-3.2-1.2L33.6,18.9c-1.6,1.5-4.7,2.4-6.8,1.9L5.7,15.6c-2.2-0.5-3.1,0.7-2.2,2.7L13,37.9c1,2,0.8,5.2-0.3,7.1
	L1.3,63.5c-1.2,1.9-0.3,3.2,1.9,2.9l21.5-3c2.2-0.3,5.2,0.8,6.6,2.5l14.1,16.5c1.4,1.7,2.9,1.3,3.3-0.9l2.1-11.8
	C51.3,67.5,51,65,50.4,64.1"/>
</svg>
