<?xml version="1.0" encoding="utf-8"?>
<!-- Generator: Adobe Illustrator 21.1.0, SVG Export Plug-In . SVG Version: 6.00 Build 0)  -->
<svg version="1.1" id="圖層_1" xmlns="http://www.w3.org/2000/svg" xmlns:xlink="http://www.w3.org/1999/xlink" x="0px" y="0px"
	 width="86px" height="86px" viewBox="0 0 86 86" style="enable-background:new 0 0 86 86;" xml:space="preserve">
<style type="text/css">
	.st0{fill:#FFFFFF;}
	.st1{fill:none;}
</style>
<path class="st0" d="M40.3,37.9h1.9c-0.1,0.8-0.2,1.4-0.5,1.7C41.4,39.9,41,40,40.5,40H40v1.3h2.3v1.9H40V53h-2v-7.5l-0.3,6
	c0,0.5-0.2,0.8-0.4,1c-0.3,0.3-0.6,0.4-0.9,0.4h-0.7v-1.3l0-0.1c0.2,0,0.3-0.7,0.3-1l0.4-6.2h1.6v-1H36v-1.9h2.1V40h-1.8v-1.7h3.5
	C40,38.3,40.2,38.2,40.3,37.9 M40,44.2h1.7l0.3,6.3c0,0.3,0.1,0.5,0.3,0.5v1.7h-0.9c-0.6,0-1-0.5-1.1-1.5L40,44.2z M43.7,38.1h2
	l-0.9,7.2c-0.2,1.7-0.8,2.5-1.7,2.5h-0.9v-1.9h0.3c0.2,0,0.4-0.4,0.5-1.3L43.7,38.1z M49,46h2.2l-2,5.9c-0.2,0.7-0.5,1-1,1h-5.6V51
	h4.4c0.2,0,0.4-0.2,0.5-0.7L49,46z M45.9,37.7h2v10.2c0,0.5-0.2,0.9-0.5,1.3c-0.3,0.3-0.6,0.4-1.1,0.4h-1.6v-1.9h0.9
	c0.3,0,0.4-0.3,0.4-0.9V37.7z M48.1,38.1h2l0.5,5.3c0.1,0.4,0.2,0.5,0.5,0.5h0.1v1.8H50c-0.8,0-1.2-0.5-1.3-1.5L48.1,38.1z"/>
<path class="st0" d="M52.9,42.4h2.9v7.7c0,0.5,0.5,0.7,1.4,0.7h26.9v2.1H56.9c-0.7,0-1.2-0.2-1.6-0.7c-0.3,0.4-0.7,0.7-1.3,0.7h-1.2
	V51h0.3c0.3,0,0.4-0.2,0.4-0.5v-6h-0.7V42.4z M53.8,37.9h2.3v3.3h-2.3V37.9z M58.2,46.8h2.2l-1.1,2.6c-0.2,0.6-0.6,0.9-1.2,0.9h-1.6
	v-1.7h0.7c0.2,0,0.3-0.1,0.4-0.4L58.2,46.8z M67.9,38.3v1.9h-4.7v0.9h4.2v3.5c0,1-0.5,1.5-1.5,1.5h-2.6v4.4H61v-4.4h-4v-5h4v-0.9
	h-4.2v-1.9H61v-0.7h2.2v0.7H67.9z M61,42.8h-1.9v1.5H61V42.8z M64.8,44.3c0.3,0,0.4-0.2,0.4-0.6v-0.9h-2v1.5H64.8z M63.9,46.8h2.3
	l0.3,1.2c0.1,0.2,0.2,0.3,0.4,0.3h1v1.8h-2.1c-0.4,0-0.7-0.3-0.9-0.8L63.9,46.8z"/>
<path class="st0" d="M37.8,55.8h3.7v12.8c0,1.1-0.6,1.7-1.8,1.7h-4V55.8H37.8z M37.8,61.7h1.6v-4h-1.6V61.7z M37.8,68.4H39
	c0.3,0,0.5-0.1,0.5-0.4v-4.3h-1.6V68.4z M50.5,56.9v2.1h-1v9.3c0,0.6-0.2,1.2-0.6,1.6c-0.3,0.4-0.8,0.5-1.4,0.5h-3.8v-1.9h3
	c0.3,0,0.5-0.3,0.5-0.9v-8.6h-5.3v-2.1h5.3v-1.7h2.4v1.7H50.5z M42.3,60.5h2.3l0.7,3.2c0.1,0.4,0.3,0.6,0.5,0.6h0.7v2.1h-1.9
	c-0.7,0-1.1-0.4-1.3-1.2L42.3,60.5z"/>
<path class="st0" d="M54.8,55.8h3.7v12.8c0,1.1-0.6,1.7-1.8,1.7h-4V55.8H54.8z M54.8,61.7h1.6v-4h-1.6V61.7z M54.8,68.4H56
	c0.3,0,0.5-0.1,0.5-0.4v-4.3h-1.6V68.4z M67.6,56.9v2.1h-1v9.3c0,0.6-0.2,1.2-0.6,1.6c-0.3,0.4-0.8,0.5-1.4,0.5h-3.8v-1.9h3
	c0.3,0,0.5-0.3,0.5-0.9v-8.6h-5.3v-2.1h5.3v-1.7h2.4v1.7H67.6z M59.3,60.5h2.3l0.7,3.2c0.1,0.4,0.3,0.6,0.5,0.6h0.7v2.1h-1.9
	c-0.7,0-1.1-0.4-1.3-1.2L59.3,60.5z"/>
<path class="st0" d="M70.6,65.2h2.1l-0.8,4c-0.2,0.9-0.7,1.4-1.4,1.4h-1.2v-1.9h0.5c0.1,0,0.2-0.2,0.3-0.6L70.6,65.2z M77.8,55.3
	h2.4c-0.1,0.9-0.3,1.5-0.6,1.9c-0.3,0.3-0.8,0.5-1.5,0.5h-8.6v-1.9H77C77.4,55.7,77.6,55.6,77.8,55.3 M79,62.5v1.9h-3.5v6.2h-2.2
	v-6.2h-3.7v-1.9h3.7v-1h2.2v1H79z M69.6,58.3h2v0.8c0,0.2,0.1,0.3,0.3,0.3h0.3v1.7h-1.5c-0.8,0-1.2-0.3-1.2-1V58.3z M72.9,58.3h2
	v0.8c0,0.2,0.1,0.3,0.3,0.3h0.4v1.7h-1.5c-0.8,0-1.2-0.3-1.2-1V58.3z M75.9,65.2H78l0.5,2.9c0.1,0.4,0.2,0.5,0.5,0.5h0.1v1.9h-1.2
	c-0.6,0-1-0.4-1.2-1.1L75.9,65.2z M76.9,58.3h2v1.7c0,0.7-0.4,1-1.2,1h-1.5v-1.7h0.4c0.2,0,0.3-0.1,0.3-0.3V58.3z M84.5,55.4l-0.7,4
	c-0.2,0.7-0.6,1.1-1.4,1.1h-2.6v-2h1.2c0.3,0,0.5-0.2,0.6-0.4l0.6-2.6H84.5z M84.7,60.9L84,64.5c-0.1,0.7-0.6,1-1.3,1h-2.9v-2h1.5
	c0.3,0,0.4-0.1,0.5-0.4l0.5-2.3H84.7z M84.8,66l-0.7,3.6c-0.1,0.7-0.6,1-1.3,1h-3.1v-2h1.7c0.3,0,0.4-0.1,0.5-0.4l0.5-2.2H84.8z"/>
<path class="st0" d="M53,6.9c0.1,0.8-0.4,1.5-1.2,1.6c-0.8,0.1-1.5-0.4-1.6-1.2c-0.1-0.8,0.4-1.5,1.2-1.6C52.2,5.6,52.9,6.1,53,6.9
	 M64.3,12.3c-0.1-0.2-0.3-0.4-0.6-0.5c-0.2-0.1-0.3-0.1-0.5,0c-0.4,0.1-0.6,0.3-0.8,0.7L59.9,20l-1.4,0.2l2.3-6.9l-6.1-1.1l1.3,8.4
	l-1.2,0.2l-1.6-10c-0.1-0.5-0.6-0.9-1.1-0.8c-0.5,0.1-0.9,0.6-0.8,1.1l1.6,10l-1.2,0.2L50.3,13L44.7,16l4.3,5.7L47.6,22l-4.8-6.4
	c-0.2-0.3-0.6-0.4-0.9-0.4c-0.2,0-0.3,0.1-0.4,0.2c-0.4,0.3-0.5,0.9-0.2,1.4l4.2,5.6c-0.3,0.1-0.5,0.4-0.5,0.7l0.5,2.9
	c0.1,0.3,0.4,0.6,0.7,0.5l16.5-2.6c0.3-0.1,0.6-0.4,0.5-0.7l-0.5-2.9c-0.1-0.3-0.3-0.5-0.6-0.5l2.2-6.6
	C64.4,12.8,64.4,12.5,64.3,12.3"/>
<path class="st0" d="M34.8,66.7c0-0.9-1.2-0.5-2.6,0.9l-4,3.9c-1.4,1.4-2.8,0.9-2.9-1.1l-1-12.2c-0.2-2-1.8-4.4-3.5-5.3L9.9,47
	c-1.8-0.9-1.7-2.3,0.1-3.1l11.3-4.8c1.9-0.8,3.6-3,4-5L27.4,22c0.3-2,1.7-2.4,3-0.8l8,9.3c1.3,1.5,4,2.5,6,2.2L56.5,31
	c2-0.3,2.8,0.8,1.9,2.4c-1,1.6-1.6,2.8-1.5,2.8C57,36,58,36,58.6,36c0.7,0,2.1-1.4,3.1-3.1l2.4-3.9c1-1.7,0.3-2.9-1.7-2.6l-16.8,2.4
	c-2,0.3-4.7-0.7-6-2.2L28.5,13.6c-1.3-1.5-2.7-1.1-3,0.8l-2.9,16.7c-0.3,2-2.1,4.2-4,5L2.9,42.8C1.1,43.6,1,45,2.8,45.9l15,7.9
	c1.8,0.9,3.4,3.3,3.5,5.3l1.4,16.9c0.2,2,1.5,2.5,2.9,1.1l6.5-6.3C33.6,69.5,34.8,67.6,34.8,66.7"/>
<polygon class="st0" points="26.5,45.7 25.6,40.1 31,41.9 27.5,42.6 "/>
<rect x="31.3" y="40.7" transform="matrix(0.762 -0.6476 0.6476 0.762 -23.1317 31.892)" class="st0" width="1" height="13.4"/>
<rect x="1.5" y="5.7" class="st1" width="83.3" height="72.3"/>
</svg>
