<?xml version="1.0" encoding="utf-8"?>
<!-- Generator: Adobe Illustrator 22.0.1, SVG Export Plug-In . SVG Version: 6.00 Build 0)  -->
<svg version="1.1" id="圖層_1" xmlns="http://www.w3.org/2000/svg" xmlns:xlink="http://www.w3.org/1999/xlink" x="0px" y="0px"
	 width="24px" height="24px" viewBox="0 0 24 24" style="enable-background:new 0 0 24 24;" xml:space="preserve">
<style type="text/css">
	.st0{fill:#FFFFFF;}
</style>
<path class="st0" d="M4.4,12.6c-0.1-0.1-0.2-0.3-0.2-0.4s0.1-0.3,0.2-0.4l0.8-0.8c0.2-0.2,0.6-0.2,0.8,0L6.2,11l3.3,3.6
	c0.1,0.1,0.3,0.1,0.4,0L18,6.1h0.1l0,0c0.2-0.2,0.6-0.2,0.8,0L19.8,7c0.2,0.2,0.2,0.6,0,0.8l0,0l-9.7,10C10,18,9.8,18,9.7,18
	S9.4,18,9.2,17.9l-4.7-5.1L4.4,12.6L4.4,12.6z"/>
</svg>
