<?xml version="1.0" encoding="utf-8"?>
<!-- Generator: Adobe Illustrator 22.0.1, SVG Export Plug-In . SVG Version: 6.00 Build 0)  -->
<svg version="1.1" xmlns="http://www.w3.org/2000/svg" xmlns:xlink="http://www.w3.org/1999/xlink" x="0px" y="0px" width="480px"
	 height="192px" viewBox="0 0 480 192" style="enable-background:new 0 0 480 192;" xml:space="preserve">
<style type="text/css">
	.st0{fill:#FFFFFF;}
	.st1{fill:#999999;}
	.st2{fill:#4F4F4F;}
	.st3{fill:#3CB5EC;}
	.st4{fill:#BC0000;}
	.st5{fill:#CBCBCB;}
	.st6{fill:#FF0000;}
</style>
<g id="icon_x5F_sprite">
	<g id="參考線">
	</g>
	<g>
		<path class="st0" d="M40.6,10.3H8.7c-0.8,0-1.4-0.6-1.4-1.4l0,0c0-0.8,0.6-1.4,1.4-1.4h31.8c0.8,0,1.4,0.6,1.4,1.4l0,0
			C42,9.7,41.3,10.3,40.6,10.3z"/>
		<path class="st0" d="M40.6,25.9H8.7c-0.8,0-1.4-0.6-1.4-1.4l0,0c0-0.8,0.6-1.4,1.4-1.4h31.8c0.8,0,1.4,0.6,1.4,1.4l0,0
			C42,25.3,41.3,25.9,40.6,25.9z"/>
		<path class="st0" d="M40.6,41.5H8.7c-0.8,0-1.4-0.6-1.4-1.4l0,0c0-0.8,0.6-1.4,1.4-1.4h31.8c0.8,0,1.4,0.6,1.4,1.4l0,0
			C42,40.8,41.3,41.5,40.6,41.5z"/>
	</g>
	<g>
		<path class="st0" d="M61.5,34.1v-8.5c0-0.9,0.6-1.5,1.5-1.5l0,0c0.9,0,1.5,0.6,1.5,1.5v8.5c0,0.9-0.6,1.5-1.5,1.5l0,0
			C62.3,35.6,61.5,34.8,61.5,34.1z"/>
		<path class="st0" d="M69.3,34.1v-14c0-0.9,0.6-1.5,1.5-1.5l0,0c0.9,0,1.5,0.6,1.5,1.5v14c0,0.9-0.6,1.5-1.5,1.5l0,0
			C70,35.6,69.3,34.8,69.3,34.1z"/>
		<path class="st0" d="M77,34.1V23.2c0-0.9,0.6-1.5,1.5-1.5l0,0c0.9,0,1.5,0.6,1.5,1.5v10.9c0,0.9-0.6,1.5-1.5,1.5l0,0
			C77.8,35.6,77,34.8,77,34.1z"/>
		<path class="st0" d="M84.8,34.1V17.8c0-0.9,0.6-1.5,1.5-1.5l0,0c0.9,0,1.5,0.6,1.5,1.5v16.3c0,0.9-0.6,1.5-1.5,1.5l0,0
			C85.5,35.6,84.8,34.8,84.8,34.1z"/>
		<path class="st0" d="M89.5,43.3H55.3c-0.9,0-1.5-0.6-1.5-1.5l0,0c0-0.9,0.6-1.5,1.5-1.5h34.1c0.9,0,1.5,0.6,1.5,1.5l0,0
			C91,42.7,90.4,43.3,89.5,43.3z"/>
		<path class="st0" d="M53.8,41.8V7.6c0-0.9,0.6-1.5,1.5-1.5l0,0c0.9,0,1.5,0.6,1.5,1.5v34.1c0,0.9-0.6,1.5-1.5,1.5l0,0
			C54.6,43.3,53.8,42.7,53.8,41.8z"/>
		<path class="st0" d="M61.5,20.6c-0.4,0-0.7-0.2-1-0.5c-0.5-0.5-0.4-1.4,0.2-1.8l9.4-7.8c0.4-0.4,1-0.4,1.5-0.1l6.9,4.3l9.4-7.3
			c0.6-0.4,1.4-0.3,1.8,0.2C90.1,8.2,90,9,89.5,9.4l-10.1,7.8c-0.4,0.3-1,0.4-1.5,0.1L71,13.1l-8.7,7.2
			C62.1,20.5,61.8,20.6,61.5,20.6z"/>
	</g>
	<path class="st1" d="M419.7,82.2l-9.7-9.7l9.7-9.7c0.5-0.5,0.5-1.3,0-1.8c-0.5-0.5-1.3-0.5-1.8,0l-9.7,9.7l-9.7-9.7
		c-0.5-0.5-1.3-0.5-1.8,0c-0.5,0.5-0.5,1.3,0,1.8l9.7,9.7l-9.7,9.7c-0.5,0.5-0.5,1.3,0,1.8c0.5,0.5,1.3,0.5,1.8,0l9.7-9.7l9.7,9.7
		c0.5,0.5,1.3,0.5,1.8,0C420.2,83.5,420.2,82.7,419.7,82.2z"/>
	<g>
		<path class="st2" d="M130.5,32c0-0.3-0.3-0.6-0.6-0.6h-21.3c-0.3,0-0.6,0.3-0.6,0.6c0,0.3,0.3,0.6,0.6,0.6h21.3
			C130.2,32.4,130.5,32.3,130.5,32z"/>
		<path class="st2" d="M108.6,37.5c-0.3,0-0.6,0.3-0.6,0.6s0.3,0.6,0.6,0.6H124c0.3,0,0.6-0.3,0.6-0.6s-0.3-0.6-0.6-0.6H108.6z"/>
		<path class="st2" d="M112.4,21.4l-1.3,4.6c-0.1,0.3,0,0.7,0.3,1c0.1,0.1,0.4,0.3,0.7,0.3c0.1,0,0.1,0,0.3,0l4.9-1.3
			c0.1,0,0.4-0.1,0.4-0.3l17.6-16.7c0.1-0.1,0.3-0.4,0.3-0.7s-0.1-0.6-0.3-0.7l-3.6-3.4c-0.4-0.4-1.1-0.4-1.5,0L112.6,21
			C112.6,21.1,112.4,21.2,112.4,21.4z M129.6,7.8l1.4-1.4l2.1,2l-1.4,1.4L129.6,7.8z M113.7,24.9l0.7-2.7l13.7-13l2.1,2l-13.7,13
			L113.7,24.9z"/>
		<path class="st2" d="M134.7,13.4c-0.6,0-1.1,0.4-1.1,1v28h-28.7v-33h17.1c0.6,0,1.1-0.4,1.1-1s-0.4-1-1.1-1h-18.1
			c-0.6,0-1.1,0.4-1.1,1v35.1c0,0.6,0.4,1,1.1,1h30.9c0.6,0,1.1-0.4,1.1-1v-29C135.8,14,135.4,13.4,134.7,13.4z"/>
	</g>
	<g>
		<g>
			<g>
				<path class="st2" d="M183.7,37.2c-4.1-1.8-4.2-9.7-4.2-10v-5.3c0-5-3.1-9.4-7.5-11.3c0-2.6-2.2-4.8-4.8-4.8s-4.8,2.2-4.8,4.8
					c-4.4,1.9-7.5,6.3-7.5,11.3v5.3c0,0.1-0.1,8.1-4.2,10c-0.4,0.3-0.7,0.7-0.5,1.2s0.5,0.8,1.1,0.8h10.4c0.3,1.2,0.8,2.2,1.6,3.1
					c1.1,1.2,2.6,1.8,4.1,1.8s3-0.7,4.1-1.8c0.8-0.8,1.4-1.9,1.6-3.1h10.4c0.5,0,1-0.4,1.1-0.8C184.4,37.8,184.1,37.3,183.7,37.2z
					 M178.2,33.3c0.4,1.4,1.1,2.6,1.9,3.7h-26.1c0.8-1.1,1.5-2.3,1.9-3.7L178.2,33.3z M167.2,8c1.2,0,2.2,0.8,2.5,1.9
					c-0.8-0.1-1.6-0.3-2.5-0.3c-0.8,0-1.6,0.1-2.5,0.3C164.8,8.8,165.9,8,167.2,8z M156.9,27.2v-5.3c0-5.6,4.5-10.1,10.1-10.1
					c5.6,0,10.1,4.5,10.1,10.1v5.3c0,0.1,0,1.9,0.4,4h-21.2C156.9,29.1,156.9,27.3,156.9,27.2z M167.2,41.9c-1.6,0-3.1-1.2-3.5-2.7
					h7.1C170.2,40.7,168.8,41.9,167.2,41.9z"/>
				<path class="st2" d="M167.2,13.3c-4.6,0-8.5,3.8-8.5,8.5c0,0.5,0.5,1.1,1.1,1.1c0.5,0,1.1-0.5,1.1-1.1c0-3.4,2.9-6.3,6.3-6.3
					c0.5,0,1.1-0.5,1.1-1.1C168.1,13.8,167.7,13.3,167.2,13.3z"/>
			</g>
		</g>
	</g>
	<g>
		<path class="st2" d="M232.1,7.5h-32.6c-0.7,0-1.2,0.3-1.2,0.9v6.4c0,0.7,0.5,0.9,1.2,0.9h2v14.7c0,0.7,0.5,1.2,1.2,1.2h4.5
			l-5.6,8.8c-0.4,0.5-0.3,1.3,0.4,1.7c0.3,0.1,0.4,0.1,0.7,0.1c0.4,0,0.8-0.3,1.1-0.5l6.5-10.1h11.3l6.5,10.1
			c0.3,0.4,0.7,0.5,1.1,0.5c0.3,0,0.4,0,0.7-0.1c0.5-0.4,0.8-1.1,0.4-1.7l-5.6-8.8h4.5c0.7,0,1.2-0.5,1.2-1.2V15.7h2
			c0.7,0,1.2-0.3,1.2-0.9V8.4C233.3,7.8,232.8,7.5,232.1,7.5z M228,29.3v0.3h-5.3c0,0,0,0-0.1,0h-2.8h-0.1h-10.2c0,0,0,0-0.1,0h-5.8
			V15.7H228V29.3z M230.8,13.6h-2h-26.1h-2V9.8l0,0l0,0h30.1V13.6z"/>
		<path class="st2" d="M209.9,26.8c0.3,0,0.7-0.1,0.9-0.4l2-2l4.1,1.1c0.4,0.1,0.9,0,1.3-0.4l4.1-4.9c0.4-0.5,0.4-1.3-0.1-1.7
			c-0.3-0.1-1.1-0.4-1.5,0.1l-3.6,4.6l-4-1.1c-0.4-0.1-0.9-0.3-1.2,0l-2.5,2.5c-0.4,0.4-0.7,0.8-0.5,1.2c0.1,0.4,0.4,0.7,0.8,0.8
			C209.7,26.8,209.8,26.8,209.9,26.8z"/>
	</g>
	<g>
		<g>
			<path class="st2" d="M311.3,43c10,0,18.2-8.2,18.2-18.2s-8.2-18.2-18.2-18.2s-18.2,8.2-18.2,18.2S301.3,43,311.3,43z M311.3,9.1
				c8.7,0,15.6,7.1,15.6,15.6s-7.1,15.6-15.6,15.6c-8.7,0-15.6-7.1-15.6-15.6S302.6,9.1,311.3,9.1z"/>
			<path class="st2" d="M308.2,32.8c-0.7,0-1.2,0.6-1.2,1.2c0,0.7,0.6,1.2,1.2,1.2h8.4c0.7,0,1.2-0.6,1.2-1.2c0-0.7-0.6-1.2-1.2-1.2
				h-3V21.6c0-0.7-0.6-1.2-1.2-1.2h-4.2c-0.7,0-1.2,0.6-1.2,1.2c0,0.7,0.6,1.2,1.2,1.2h3v10H308.2z"/>
			<circle class="st2" cx="310.7" cy="16" r="2.1"/>
		</g>
	</g>
	<g>
		<path class="st2" d="M375.8,27.9c-1-2.3-2.3-4.5-4.1-6.6c-2.1-2.6-4.3-4.3-5.3-5l4-7.5c0.3-0.4,0.1-0.8-0.1-1.2
			c-1-1-2.2-1.6-3.4-1.6c-1.2,0-2.2,0.4-3.1,0.8c-0.8,0.3-1.4,0.5-1.9,0.5c-0.1,0-0.3,0-0.5-0.1c-1.9-0.6-3.4-1.2-4.8-1.2
			c-1.8,0-3.4,0.8-4.8,2.2c-0.3,0.3-0.4,0.8-0.1,1.2l4.4,6.6c-1,0.8-3.1,2.5-5.2,5c-1.7,2.1-3.1,4.3-4.1,6.6c-1.3,2.8-1.9,5.9-1.9,9
			c0,4.1,3.4,7.4,7.4,7.4h18.1c4.1,0,7.4-3.4,7.4-7.4C377.6,33.9,377,30.9,375.8,27.9z M353.7,9.3c0.9-0.8,1.8-1.2,2.8-1.2
			c1.2,0,2.5,0.4,4.1,1c0.4,0.1,0.8,0.1,1.2,0.1c0.9,0,1.8-0.4,2.7-0.8c0.8-0.4,1.6-0.6,2.3-0.6c0.4,0,0.9,0,1.6,0.5l-3.9,7.1H358
			L353.7,9.3z M370.2,42.4h-18.1c-3,0-5.6-2.5-5.6-5.6c0-5,1.8-10,5.6-14.3c2.3-2.8,4.7-4.5,5.4-5h7.1c0.8,0.5,3.1,2.2,5.4,5
			c3.6,4.4,5.6,9.3,5.6,14.3C375.7,40,373.2,42.4,370.2,42.4z"/>
		<g>
			<path class="st2" d="M358.1,34.1h1.9v-1.3h-1.9c-0.8,0-1.2-0.3-1.2-0.8c0-0.5,0.4-0.8,1.2-0.8h1l-2.6-4c-0.3-0.3-0.4-0.5-0.4-0.6
				c0-0.1-0.1-0.3-0.1-0.5s0.1-0.5,0.3-0.8c0.1-0.1,0.4-0.3,0.6-0.3s0.5,0.1,0.6,0.3c0.1,0.1,0.4,0.5,0.6,0.9l2.7,4.3l2.5-4.1
				c0.1-0.1,0.1-0.4,0.3-0.5c0.1-0.1,0.3-0.3,0.3-0.4c0.1-0.1,0.3-0.3,0.4-0.3c0.1-0.1,0.3-0.1,0.5-0.1c0.3,0,0.5,0.1,0.6,0.3
				c0.1,0.1,0.3,0.4,0.3,0.6s0,0.4-0.1,0.5c-0.1,0.1-0.1,0.4-0.4,0.6l-2.5,4h1c0.8,0,1.2,0.3,1.2,0.8c0,0.5-0.4,0.8-1.2,0.8h-1.9V34
				h1.9c0.8,0,1.2,0.3,1.2,0.8c0,0.5-0.4,0.8-1.2,0.8h-1.9v0.6c0,1.2-0.4,1.7-1.2,1.7c-0.8,0-1.2-0.5-1.2-1.7v-0.6h-1.9
				c-0.8,0-1.2-0.3-1.2-0.8C356.9,34.4,357.3,34.1,358.1,34.1z"/>
		</g>
	</g>
	<g>
		<path class="st3" d="M230.4,172.1c-1-2.3-2.3-4.5-4.1-6.6c-2.1-2.6-4.3-4.3-5.3-5l4-7.5c0.3-0.4,0.1-0.8-0.1-1.2
			c-1-1-2.2-1.6-3.4-1.6c-1.2,0-2.2,0.4-3.1,0.8c-0.8,0.3-1.4,0.5-1.9,0.5c-0.1,0-0.3,0-0.5-0.1c-1.9-0.6-3.4-1.2-4.8-1.2
			c-1.8,0-3.4,0.8-4.8,2.2c-0.3,0.3-0.4,0.8-0.1,1.2l4.4,6.6c-1,0.8-3.1,2.5-5.2,5c-1.7,2.1-3.1,4.3-4.1,6.6c-1.3,2.8-1.9,5.9-1.9,9
			c0,4.1,3.4,7.4,7.4,7.4h18.1c4.1,0,7.4-3.4,7.4-7.4C232.3,178.1,231.6,175.1,230.4,172.1z M208.3,153.5c0.9-0.8,1.8-1.2,2.8-1.2
			c1.2,0,2.5,0.4,4.1,1c0.4,0.1,0.8,0.1,1.2,0.1c0.9,0,1.8-0.4,2.7-0.8c0.8-0.4,1.6-0.6,2.3-0.6c0.4,0,0.9,0,1.6,0.5l-3.9,7.1h-6.6
			L208.3,153.5z M224.9,186.6h-18.1c-3,0-5.6-2.5-5.6-5.6c0-5,1.8-10,5.6-14.3c2.3-2.8,4.7-4.5,5.4-5h7.1c0.8,0.5,3.1,2.2,5.4,5
			c3.6,4.4,5.6,9.3,5.6,14.3C230.3,184.1,227.9,186.6,224.9,186.6z"/>
		<g>
			<path class="st3" d="M212.7,178.3h1.9V177h-1.9c-0.8,0-1.2-0.3-1.2-0.8c0-0.5,0.4-0.8,1.2-0.8h1l-2.6-4c-0.3-0.3-0.4-0.5-0.4-0.6
				s-0.1-0.3-0.1-0.5c0-0.3,0.1-0.5,0.3-0.8c0.1-0.1,0.4-0.3,0.6-0.3c0.3,0,0.5,0.1,0.6,0.3c0.1,0.1,0.4,0.5,0.6,0.9l2.7,4.3
				l2.5-4.1c0.1-0.1,0.1-0.4,0.3-0.5c0.1-0.1,0.3-0.3,0.3-0.4c0.1-0.1,0.3-0.3,0.4-0.3c0.1-0.1,0.3-0.1,0.5-0.1
				c0.3,0,0.5,0.1,0.6,0.3c0.1,0.1,0.3,0.4,0.3,0.6s0,0.4-0.1,0.5c-0.1,0.1-0.1,0.4-0.4,0.6l-2.5,4h1c0.8,0,1.2,0.3,1.2,0.8
				c0,0.5-0.4,0.8-1.2,0.8h-1.9v1.3h1.9c0.8,0,1.2,0.3,1.2,0.8c0,0.5-0.4,0.8-1.2,0.8h-1.9v0.6c0,1.2-0.4,1.7-1.2,1.7
				c-0.8,0-1.2-0.5-1.2-1.7v-0.6h-1.9c-0.8,0-1.2-0.3-1.2-0.8C211.6,178.6,212,178.3,212.7,178.3z"/>
		</g>
	</g>
	<g>
		<rect x="245.5" y="7.5" class="st2" width="19.2" height="3.1"/>
		<rect x="245.5" y="15.3" class="st2" width="27.6" height="3.1"/>
		<rect x="245.5" y="22.9" class="st2" width="34" height="3.1"/>
		<rect x="245.5" y="30.6" class="st2" width="27.6" height="3.1"/>
		<rect x="245.5" y="38.4" class="st2" width="20.1" height="3.1"/>
	</g>
	<g>
		<path class="st2" d="M441.1,31.8c-0.3,0-0.8-0.2-0.9-0.5c-0.6-0.5-0.6-1.4,0-2L454,15.6c0.6-0.6,1.4-0.6,2,0c0.6,0.5,0.6,1.4,0,2
			l-13.7,13.7C441.7,31.8,441.4,31.8,441.1,31.8z"/>
		<path class="st2" d="M468.6,31.8c-0.3,0-0.8-0.2-0.9-0.5L454,17.6c-0.6-0.5-0.6-1.4,0-2s1.4-0.6,2,0l13.7,13.7
			c0.6,0.5,0.6,1.4,0,2C469.2,31.8,468.9,31.8,468.6,31.8z"/>
	</g>
	<g>
		<path class="st3" d="M84.7,157.3c0.3,0,0.8,0.2,1,0.5c0.7,0.5,0.7,1.5,0,2.2l-15.2,15.2c-0.7,0.7-1.5,0.7-2.2,0
			c-0.7-0.5-0.7-1.5,0-2.2l15.2-15.2C84,157.3,84.4,157.3,84.7,157.3z"/>
		<path class="st3" d="M60.3,163.3c0.3,0,0.8,0.2,1,0.5l9.2,9.2c0.7,0.5,0.7,1.5,0,2.2c-0.7,0.7-1.5,0.7-2.2,0l-9.2-9.2
			c-0.7-0.5-0.7-1.5,0-2.2C59.6,163.3,59.9,163.3,60.3,163.3z"/>
	</g>
	<g>
		<path class="st2" d="M17,108.8c0-0.2,0.1-0.6,0.4-0.7c0.4-0.5,1.1-0.5,1.6,0l11.3,11.3c0.5,0.5,0.5,1.1,0,1.6
			c-0.4,0.5-1.1,0.5-1.6,0l-11.3-11.3C17,109.3,17,109.1,17,108.8z"/>
		<path class="st2" d="M17,131.5c0-0.2,0.1-0.6,0.4-0.7l11.3-11.3c0.4-0.5,1.1-0.5,1.6,0c0.5,0.5,0.5,1.1,0,1.6L19,132.3
			c-0.4,0.5-1.1,0.5-1.6,0C17,132,17,131.7,17,131.5z"/>
	</g>
	<g>
		<path class="st1" d="M65.6,108.8c0-0.2,0.1-0.6,0.4-0.7c0.4-0.5,1.1-0.5,1.6,0l11.3,11.3c0.5,0.5,0.5,1.1,0,1.6
			c-0.4,0.5-1.1,0.5-1.6,0l-11.3-11.3C65.6,109.3,65.6,109.1,65.6,108.8z"/>
		<path class="st1" d="M65.6,131.5c0-0.2,0.1-0.6,0.4-0.7l11.3-11.3c0.4-0.5,1.1-0.5,1.6,0s0.5,1.1,0,1.6l-11.3,11.3
			c-0.4,0.5-1.1,0.5-1.6,0C65.6,132,65.6,131.7,65.6,131.5z"/>
	</g>
	<g id="图层_2">
		<g id="footer">
			<circle class="st1" cx="418" cy="167.8" r="1.7"/>
			<circle class="st1" cx="408.4" cy="167.8" r="1.7"/>
			<circle class="st1" cx="398.8" cy="168" r="1.7"/>
			<path class="st1" d="M408.4,187.8c-11,0-20-9-20-20s9-20,20-20s20,9,20,20S419.4,187.8,408.4,187.8z M408.4,149.3
				c-10.2,0-18.6,8.3-18.6,18.6s8.3,18.6,18.6,18.6s18.6-8.3,18.6-18.6S418.6,149.3,408.4,149.3z"/>
		</g>
	</g>
	<g id="图层_2_1_">
		<g id="footer_1_">
			<path class="st4" d="M456,187.8c-11,0-20-9-20-20s9-20,20-20s20,9,20,20S467,187.8,456,187.8z M456,149.3
				c-10.2,0-18.6,8.3-18.6,18.6s8.3,18.6,18.6,18.6s18.6-8.3,18.6-18.6S466.2,149.3,456,149.3z"/>
			<path class="st4" d="M455.4,155.7h0.8c0.4,0,0.8,0.4,0.8,0.8V174c0,0.4-0.4,0.8-0.8,0.8h-0.8c-0.4,0-0.8-0.4-0.8-0.8v-17.7
				C454.7,155.9,455,155.7,455.4,155.7z"/>
			<circle class="st4" cx="455.8" cy="178.6" r="1.3"/>
		</g>
	</g>
	<g>
		<path class="st1" d="M373.7,162.1c-3.5-3.5-8.1-5.4-13.1-5.4s-9.6,1.9-13.1,5.4l-4.8,4.8l4.9,4.9c3.5,3.5,8.1,5.4,13.1,5.4
			s9.6-1.9,13.1-5.4l4.8-4.8L373.7,162.1z M372.9,171c-3.3,3.3-7.6,5-12.2,5s-9-1.8-12.2-5l-4.1-4.1l4-4c3.3-3.3,7.6-5,12.2-5
			s9,1.8,12.2,5l4.1,4.1L372.9,171z"/>
		<path class="st1" d="M360.6,159.1c-4.4,0-7.9,3.5-7.9,7.9s3.5,7.9,7.9,7.9s7.9-3.5,7.9-7.9S364.9,159.1,360.6,159.1z M360.6,164
			c-1.7,0-3,1.3-3,3c0,0.4-0.2,0.6-0.6,0.6s-0.6-0.2-0.6-0.6c0-2.4,1.9-4.3,4.3-4.3c0.4,0,0.6,0.2,0.6,0.6S360.9,164,360.6,164z"/>
	</g>
	<g>
		<path class="st1" d="M324.7,162.3c-1.3-1.3-2.7-2.4-4.3-3.2l5.8-5.8c0.2-0.2,0.2-0.6,0-0.9c-0.2-0.2-0.6-0.2-0.9,0l-6.1,6.1
			c-2.4-1.1-5-1.7-7.7-1.7c-4.9,0-9.6,1.9-13.1,5.4l-4.8,4.9l4.9,4.9c1.2,1.2,2.6,2.2,4.1,3.1l-5.5,5.5c-0.2,0.2-0.2,0.6,0,0.9
			c0.1,0.1,0.3,0.2,0.4,0.2s0.3-0.1,0.4-0.2l5.8-5.8c2.4,1.2,5.1,1.8,7.9,1.8c4.9,0,9.6-1.9,13.1-5.4l4.8-4.8L324.7,162.3z
			 M303.5,174.2c-1.5-0.8-2.9-1.8-4.1-3l-4.1-4.1l4-4c3.3-3.3,7.6-5,12.2-5c2.4,0,4.7,0.5,6.8,1.4L303.5,174.2z M323.9,171.2
			c-3.3,3.3-7.6,5-12.2,5c-2.4,0-4.8-0.5-7-1.5l14.8-14.8c1.6,0.8,3,1.9,4.3,3.2l4.1,4.1L323.9,171.2z"/>
		<path class="st1" d="M311.6,159.3c-4.4,0-7.9,3.5-7.9,7.9c0,1.5,0.4,3,1.2,4.2l10.9-10.9C314.6,159.7,313.1,159.3,311.6,159.3z"/>
		<path class="st1" d="M307.3,173.8c1.2,0.8,2.7,1.3,4.3,1.3c4.4,0,7.9-3.5,7.9-7.9c0-1.6-0.5-3.1-1.3-4.3L307.3,173.8z"/>
	</g>
	<path id="购彩大厅" class="st0" d="M150.7,70.7c-0.4,0-0.8-0.2-1.1-0.5c-0.5-0.5-0.4-1.3,0.1-1.8c0,0,0,0,0.1,0l15.8-13
		c1.5-1.1,3.5-1.1,4.9,0l15.8,12.9c0.6,0.5,0.6,1.3,0.2,1.9c-0.5,0.6-1.3,0.6-1.9,0.2c0,0,0,0,0,0l-15.6-12.6
		c-0.5-0.3-1.1-0.3-1.6,0l-15.8,12.9C151.3,70.7,151,70.8,150.7,70.7L150.7,70.7L150.7,70.7z M180.8,89.5h-8.7
		c-0.7,0-1.3-0.5-1.3-1.2c0-0.1,0-0.1,0-0.2v-6.3c0-0.9-1.6-1.9-2.8-1.9s-2.7,0.8-2.7,1.9v6.3c0,0.7-0.5,1.3-1.2,1.3
		c-0.1,0-0.1,0-0.2,0h-8.4c-1.8,0.1-3.4-1.4-3.5-3.2c0,0,0-0.1,0-0.1V73.4c0-0.7,0.6-1.4,1.3-1.4c0.7,0,1.4,0.6,1.4,1.3
		c0,0,0,0,0,0.1v12.8c0,0.4,0.3,0.7,0.7,0.7c0,0,0.1,0,0.1,0h7.2v-5c0-2.7,2.8-4.6,5.3-4.6c2.5,0,5.5,1.9,5.5,4.6v5h7.4
		c0.4,0,0.7,0,0.7-0.8V73.4c0-0.7,0.6-1.3,1.3-1.3c0.7,0,1.3,0.6,1.3,1.3v12.8c0,1.8-1.5,3.3-3.3,3.4
		C180.9,89.5,180.8,89.5,180.8,89.5L180.8,89.5L180.8,89.5z"/>
	<g>
		<path class="st0" d="M275.3,90.2C275.3,90.2,275.3,90.2,275.3,90.2h-21.7c-1.9,0-3.8-0.8-5.1-2.1c-1.4-1.4-2.1-3.2-2.1-5.1V60.6
			c0-4,3.3-7.2,7.2-7.2c0,0,0,0,0,0h2.4c0.7,0,1.2,0.5,1.2,1.2s-0.5,1.2-1.2,1.2h-2.4c0,0,0,0,0,0c-2.7,0-4.8,2.2-4.8,4.8v22.3
			c0,1.3,0.5,2.5,1.4,3.4c0.9,0.9,2.1,1.4,3.4,1.4h21.7h0c1.3,0,2.5-0.5,3.4-1.4c0.9-0.9,1.4-2.1,1.4-3.4V60.6
			c0-2.7-2.2-4.8-4.8-4.8c0,0,0,0,0,0h-2.4c-0.7,0-1.2-0.5-1.2-1.2s0.5-1.2,1.2-1.2h2.4c0,0,0,0,0,0c4,0,7.2,3.2,7.2,7.2v22.3
			C282.5,86.9,279.3,90.2,275.3,90.2z"/>
		<path class="st0" d="M267.3,55.8h-5.9c-0.7,0-1.2-0.5-1.2-1.2s0.5-1.2,1.2-1.2h5.9c0.7,0,1.2,0.5,1.2,1.2S268,55.8,267.3,55.8z"/>
		<path class="st0" d="M273.4,64.8h-17.6c-0.7,0-1.2-0.5-1.2-1.2s0.5-1.2,1.2-1.2h17.6c0.7,0,1.2,0.5,1.2,1.2S274,64.8,273.4,64.8z"
			/>
		<path class="st0" d="M273.4,72.1h-17.6c-0.7,0-1.2-0.5-1.2-1.2s0.5-1.2,1.2-1.2h17.6c0.7,0,1.2,0.5,1.2,1.2S274,72.1,273.4,72.1z"
			/>
		<path class="st0" d="M273.4,79.3h-17.6c-0.7,0-1.2-0.5-1.2-1.2s0.5-1.2,1.2-1.2h17.6c0.7,0,1.2,0.5,1.2,1.2S274,79.3,273.4,79.3z"
			/>
	</g>
	<g>
		<path class="st0" d="M216.1,90.4c-5.2,0-10.4-2.2-14.1-6.4c-6.7-7.8-5.9-19.6,1.9-26.3c5.8-5,14-6,20.8-2.5c0.6,0.3,0.8,1,0.5,1.6
			c-0.3,0.6-1,0.8-1.6,0.5c-5.9-3.1-13-2.2-18.1,2.1c-6.8,5.9-7.5,16.1-1.6,22.9c2.8,3.3,6.8,5.3,11.1,5.6c4.3,0.3,8.5-1.1,11.8-3.9
			c6.8-5.9,7.5-16.1,1.6-22.9c-0.4-0.5-0.4-1.3,0.1-1.7c0.5-0.4,1.3-0.4,1.7,0.1c6.7,7.8,5.9,19.6-1.9,26.3
			C224.8,88.9,220.5,90.4,216.1,90.4z"/>
		<path class="st0" d="M223.6,81.8h-15c-0.7,0-1.2-0.5-1.2-1.2s0.5-1.2,1.2-1.2h15c0.7,0,1.2,0.5,1.2,1.2S224.3,81.8,223.6,81.8z"/>
		<path id="_08" class="st0" d="M213.3,66.1c0-1.4-0.7-2.1-1.9-2.1c-1.2,0-1.8,0.7-1.9,2.1v5.8c0,1.4,0.6,2.1,1.9,2.1
			c1.2,0,1.8-0.7,1.9-2.1V66.1z M207.7,66c-0.1-1.1,0.4-2.2,1.2-2.9c0.7-0.7,1.6-1,2.6-1c1,0,1.9,0.3,2.6,1c0.8,0.8,1.2,1.8,1.1,2.9
			V72c0,1.1-0.4,2.2-1.1,2.9c-1.5,1.5-3.9,1.4-5.4-0.1c-0.7-0.7-1.1-1.8-1-2.8L207.7,66L207.7,66z M218.8,66c0,0.6,0.2,1.1,0.6,1.5
			c0.4,0.3,0.8,0.5,1.3,0.5c0.5,0,1-0.2,1.3-0.5c0.8-0.8,0.8-2.1,0-2.9c-0.4-0.3-0.8-0.5-1.3-0.5c-0.5,0-1,0.2-1.3,0.5
			C219,64.9,218.8,65.4,218.8,66L218.8,66z M216.7,71.9c0-1.2,0.6-2.4,1.6-3.1c-0.4-0.3-0.7-0.8-1-1.2c-0.3-0.5-0.4-1-0.4-1.5
			c0-1.1,0.4-2.1,1.1-2.8c0.7-0.7,1.7-1.2,2.7-1.1c1,0,2,0.4,2.7,1.1c0.7,0.8,1.1,1.8,1.1,2.8c0,0.5-0.1,1.1-0.4,1.6
			c-0.3,0.5-0.6,0.9-1,1.2c1,0.7,1.7,1.8,1.6,3.1c0,1.1-0.4,2.2-1.2,3c-0.8,0.8-1.8,1.2-2.9,1.2C218.5,76,216.7,74.2,216.7,71.9
			C216.7,71.9,216.7,71.9,216.7,71.9L216.7,71.9L216.7,71.9z M218.6,71.9c0,0.6,0.2,1.1,0.7,1.6c0.4,0.4,0.9,0.6,1.5,0.6
			c0.6,0,1.1-0.2,1.5-0.6c0.9-0.9,0.9-2.3,0-3.1c-0.4-0.4-1-0.6-1.5-0.6c-0.6,0-1.1,0.2-1.5,0.6C218.8,70.7,218.6,71.3,218.6,71.9
			L218.6,71.9z"/>
	</g>
	<path id="个人中心" class="st0" d="M312.5,76.6c5.2,0,9.5-4.2,9.5-10.8s-4.3-11.4-9.5-11.4c-2.6-0.2-5.2,0.9-6.8,3
		c-1.8,2.4-2.8,5.4-2.7,8.4C303,72.4,307.3,76.6,312.5,76.6L312.5,76.6L312.5,76.6z M312.5,56.6c4.1,0,7.4,3.8,7.4,9.2
		s-3.3,8.6-7.4,8.6s-7.4-3.2-7.4-8.6S308.4,56.6,312.5,56.6L312.5,56.6z M319.9,75.7c-0.6,0.1-1,0.6-1,1.2c0.1,0.5,0.5,0.9,1,1
		c4.1,0,8.6,4.1,8.6,8.3c0,0.6-0.5,1.1-1.1,1.1h-29.9c-0.6,0-1.1-0.5-1.1-1.1c0-4.2,4.5-8.3,8.6-8.3c0.6-0.1,1-0.6,1-1.2
		c-0.1-0.5-0.5-0.9-1-1c-5.2,0-10.7,5-10.7,10.5c0,1.8,1.4,3.2,3.2,3.3h29.9c1.8,0,3.2-1.5,3.2-3.3
		C330.6,80.7,325.1,75.7,319.9,75.7L319.9,75.7L319.9,75.7z"/>
	<path id="购彩大厅_1_" class="st3" d="M150.7,118.7c-0.4,0-0.8-0.2-1.1-0.5c-0.5-0.5-0.4-1.3,0.1-1.8c0,0,0,0,0.1,0l15.8-13
		c1.5-1.1,3.5-1.1,4.9,0l15.8,12.9c0.6,0.5,0.6,1.3,0.2,1.9c-0.5,0.6-1.3,0.6-1.9,0.2c0,0,0,0,0,0l-15.6-12.6
		c-0.5-0.3-1.1-0.3-1.6,0l-15.8,12.9C151.3,118.7,151,118.8,150.7,118.7L150.7,118.7L150.7,118.7z M180.8,137.5h-8.7
		c-0.7,0-1.3-0.5-1.3-1.2c0-0.1,0-0.1,0-0.2v-6.3c0-0.9-1.6-1.9-2.8-1.9s-2.7,0.8-2.7,1.9v6.3c0,0.7-0.5,1.3-1.2,1.3
		c-0.1,0-0.1,0-0.2,0h-8.4c-1.8,0.1-3.4-1.4-3.5-3.2c0,0,0-0.1,0-0.1v-12.8c0-0.7,0.6-1.4,1.3-1.4c0.7,0,1.4,0.6,1.4,1.3
		c0,0,0,0,0,0.1v12.8c0,0.4,0.3,0.7,0.7,0.7c0,0,0.1,0,0.1,0h7.2v-5c0-2.7,2.8-4.6,5.3-4.6c2.5,0,5.5,1.9,5.5,4.6v5h7.4
		c0.4,0,0.7,0,0.7-0.8v-12.6c0-0.7,0.6-1.3,1.3-1.3c0.7,0,1.3,0.6,1.3,1.3v12.8c0,1.8-1.5,3.3-3.3,3.4
		C180.9,137.5,180.8,137.5,180.8,137.5L180.8,137.5L180.8,137.5z"/>
	<g>
		<path class="st3" d="M275.3,138.6C275.3,138.6,275.3,138.6,275.3,138.6h-21.7c-4,0-7.2-3.3-7.2-7.2V109c0-1.9,0.8-3.8,2.1-5.1
			c1.4-1.4,3.2-2.1,5.1-2.1c0,0,0,0,0,0h2.4c0.7,0,1.2,0.5,1.2,1.2s-0.5,1.2-1.2,1.2h-2.4c0,0,0,0,0,0c-1.3,0-2.5,0.5-3.4,1.4
			c-0.9,0.9-1.4,2.1-1.4,3.4v22.3c0,1.3,0.5,2.5,1.4,3.4c0.9,0.9,2.1,1.4,3.4,1.4h21.7h0c1.3,0,2.5-0.5,3.4-1.4
			c0.9-0.9,1.4-2.1,1.4-3.4V109c0-1.3-0.5-2.5-1.4-3.4c-0.9-0.9-2.1-1.4-3.4-1.4c0,0,0,0,0,0h-2.4c-0.7,0-1.2-0.5-1.2-1.2
			s0.5-1.2,1.2-1.2h2.4c0,0,0,0,0,0c1.9,0,3.7,0.8,5.1,2.1c1.4,1.4,2.1,3.2,2.1,5.1v22.3c0,1.9-0.8,3.8-2.1,5.1
			C279,137.9,277.2,138.6,275.3,138.6z"/>
		<path class="st3" d="M267.3,104.2h-5.9c-0.7,0-1.2-0.5-1.2-1.2s0.5-1.2,1.2-1.2h5.9c0.7,0,1.2,0.5,1.2,1.2S268,104.2,267.3,104.2z
			"/>
		<path class="st3" d="M273.4,113.3h-17.6c-0.7,0-1.2-0.5-1.2-1.2s0.5-1.2,1.2-1.2h17.6c0.7,0,1.2,0.5,1.2,1.2
			S274,113.3,273.4,113.3z"/>
		<path class="st3" d="M273.4,120.5h-17.6c-0.7,0-1.2-0.5-1.2-1.2s0.5-1.2,1.2-1.2h17.6c0.7,0,1.2,0.5,1.2,1.2
			S274,120.5,273.4,120.5z"/>
		<path class="st3" d="M273.4,127.8h-17.6c-0.7,0-1.2-0.5-1.2-1.2s0.5-1.2,1.2-1.2h17.6c0.7,0,1.2,0.5,1.2,1.2
			S274,127.8,273.4,127.8z"/>
	</g>
	<g>
		<path class="st3" d="M216.1,138.9c-5.2,0-10.4-2.2-14.1-6.4c-6.7-7.8-5.9-19.6,1.9-26.3c5.8-5,14-6,20.8-2.5
			c0.6,0.3,0.8,1,0.5,1.6c-0.3,0.6-1,0.8-1.6,0.5c-5.9-3.1-13-2.2-18.1,2.1c-6.8,5.9-7.5,16.1-1.6,22.9c5.9,6.8,16.1,7.5,22.9,1.6
			c6.8-5.9,7.5-16.1,1.6-22.9c-0.4-0.5-0.4-1.3,0.1-1.7c0.5-0.4,1.3-0.4,1.7,0.1c6.7,7.8,5.9,19.6-1.9,26.3
			C224.8,137.4,220.5,138.9,216.1,138.9z"/>
		<path class="st3" d="M223.6,130.2h-15c-0.7,0-1.2-0.5-1.2-1.2s0.5-1.2,1.2-1.2h15c0.7,0,1.2,0.5,1.2,1.2S224.3,130.2,223.6,130.2z
			"/>
		<path id="_08_1_" class="st3" d="M213.3,114.5c0-1.4-0.7-2.1-1.9-2.1c-1.2,0-1.8,0.7-1.9,2.1v5.8c0,1.4,0.6,2.1,1.9,2.1
			c1.2,0,1.8-0.7,1.9-2.1V114.5z M207.7,114.4c-0.1-1.1,0.4-2.2,1.2-2.9c0.7-0.7,1.6-1,2.6-1c1,0,1.9,0.3,2.6,1
			c0.8,0.8,1.2,1.8,1.1,2.9v6.1c0,1.1-0.4,2.2-1.1,2.9c-1.5,1.5-3.9,1.4-5.4-0.1c-0.7-0.7-1.1-1.8-1-2.8L207.7,114.4L207.7,114.4z
			 M218.8,114.4c0,0.6,0.2,1.1,0.6,1.5c0.4,0.3,0.8,0.5,1.3,0.5c0.5,0,1-0.2,1.3-0.5c0.8-0.8,0.8-2.1,0-2.9
			c-0.4-0.3-0.8-0.5-1.3-0.5c-0.5,0-1,0.2-1.3,0.5C219,113.3,218.8,113.9,218.8,114.4L218.8,114.4z M216.7,120.3
			c0-1.2,0.6-2.4,1.6-3.1c-0.4-0.3-0.7-0.8-1-1.2c-0.3-0.5-0.4-1-0.4-1.5c0-1.1,0.4-2.1,1.1-2.8c0.7-0.7,1.7-1.2,2.7-1.1
			c1,0,2,0.4,2.7,1.1c0.7,0.8,1.1,1.8,1.1,2.8c0,0.5-0.1,1.1-0.4,1.6c-0.3,0.5-0.6,0.9-1,1.2c1,0.7,1.7,1.8,1.6,3.1
			c0,1.1-0.4,2.2-1.2,3c-0.8,0.8-1.8,1.2-2.9,1.2C218.5,124.5,216.7,122.6,216.7,120.3C216.7,120.4,216.7,120.3,216.7,120.3
			L216.7,120.3L216.7,120.3z M218.6,120.3c0,0.6,0.2,1.1,0.7,1.6c0.4,0.4,0.9,0.6,1.5,0.6c0.6,0,1.1-0.2,1.5-0.6
			c0.9-0.9,0.9-2.3,0-3.1c-0.4-0.4-1-0.6-1.5-0.6c-0.6,0-1.1,0.2-1.5,0.6C218.8,119.1,218.6,119.7,218.6,120.3L218.6,120.3z"/>
	</g>
	<path id="个人中心_1_" class="st3" d="M312.5,124.6c5.2,0,9.5-4.2,9.5-10.8s-4.3-11.4-9.5-11.4c-2.6-0.2-5.2,0.9-6.8,3
		c-1.8,2.4-2.8,5.4-2.7,8.4C303,120.4,307.3,124.6,312.5,124.6L312.5,124.6L312.5,124.6z M312.5,104.6c4.1,0,7.4,3.8,7.4,9.2
		s-3.3,8.6-7.4,8.6s-7.4-3.2-7.4-8.6S308.4,104.6,312.5,104.6L312.5,104.6z M319.9,123.7c-0.6,0.1-1,0.6-1,1.2c0.1,0.5,0.5,0.9,1,1
		c4.1,0,8.6,4.1,8.6,8.3c0,0.6-0.5,1.1-1.1,1.1h-29.9c-0.6,0-1.1-0.5-1.1-1.1c0-4.2,4.5-8.3,8.6-8.3c0.6-0.1,1-0.6,1-1.2
		c-0.1-0.5-0.5-0.9-1-1c-5.2,0-10.7,5-10.7,10.5c0,1.8,1.4,3.2,3.2,3.3h29.9c1.8,0,3.2-1.5,3.2-3.3
		C330.6,128.7,325.1,123.7,319.9,123.7L319.9,123.7L319.9,123.7z"/>
	<g>
		<g>
			<path class="st3" d="M147.2,168.3c0,11.6,9.4,21.1,21.1,21.1s21.1-9.4,21.1-21.1c0-11.6-9.4-21.1-21.1-21.1
				S147.2,156.7,147.2,168.3z M156,182.7c3.1-2.1,5.8-3.4,6.6-3.8c0.5-0.2,0.8-0.7,0.8-1.2V175c0-0.2-0.1-0.4-0.1-0.5
				c-0.5-0.9-0.9-2-1.1-3.2c-0.1-0.4-0.4-0.8-0.8-0.9c-0.1-0.1-0.4-0.6-0.8-1.9c-0.3-1-0.3-1.5-0.3-1.8c0.3,0,0.6-0.1,0.8-0.4
				c0.2-0.3,0.3-0.7,0.2-1c-0.4-1.2-0.5-2.4-0.1-3.6c0.3-1.2,0.9-2.3,1.9-3.3c0.5-0.6,1.1-1.1,1.8-1.5c0,0,0,0,0,0
				c0.5-0.4,1.1-0.7,1.7-0.9h0c0.5-0.2,1-0.3,1.5-0.3c1.4-0.1,2.7,0.1,3.8,0.8c1.2,0.7,1.7,1.6,1.7,1.6c0.2,0.3,0.5,0.5,0.9,0.6
				c0,0,0.5,0.1,0.9,0.6c0.5,0.7,1.2,2.4,0.3,6.6c-0.1,0.5,0.1,0.9,0.6,1.2c0,0.2,0.1,0.7-0.3,1.8c-0.3,1-0.5,1.5-0.7,1.8
				c-0.2,0-0.4,0-0.6,0.1c-0.3,0.1-0.6,0.4-0.6,0.8c-0.2,1-0.4,1.8-0.8,2.6c-0.1,0.1-0.1,0.3-0.1,0.5v3.1c0,0.5,0.3,1,0.8,1.2
				c0.8,0.4,3.5,1.7,6.6,3.8c-3.3,2.8-7.6,4.5-12.3,4.5C163.6,187.2,159.3,185.5,156,182.7z M168.3,149.3c10.4,0,18.9,8.5,18.9,18.9
				c0,5-1.9,9.5-5.1,12.9c-3-2-5.6-3.4-6.8-4v-2.4c0.3-0.6,0.5-1.3,0.7-2c0.8-0.3,1.4-1.3,2-3.3c0.5-1.8,0.5-3.1-0.1-3.8
				c0.6-3.5,0.3-6-0.9-7.6c-0.6-0.8-1.3-1.2-1.8-1.3c-0.4-0.5-1.1-1.3-2.3-2c-1.5-0.9-3.2-1.2-5-1.1c-0.7,0-1.4,0.2-2,0.4h0
				c-0.7,0.3-1.5,0.6-2.2,1.1c-0.8,0.5-1.5,1.1-2.2,1.8c-1.2,1.3-2.1,2.7-2.4,4.2c-0.3,1.3-0.4,2.5-0.1,3.8
				c-0.1,0.1-0.2,0.2-0.3,0.3c-0.6,0.8-0.7,2-0.2,3.8c0.3,1.2,0.8,2.5,1.6,3c0.2,1.2,0.6,2.2,1.1,3.2v1.9c-1.2,0.6-3.8,2-6.8,4
				c-3.2-3.4-5.1-7.9-5.1-12.9C149.3,157.8,157.8,149.3,168.3,149.3z"/>
		</g>
	</g>
	<g>
		<path class="st0" d="M134.7,156.2c-0.2-0.3-0.5-0.5-0.8-0.5h-29.1c-0.4,0-0.7,0.2-0.8,0.5c-0.2,0.3-0.1,0.7,0.1,1l11.2,13.5v12.5
			c0,0.3,0.2,0.6,0.4,0.8c0.2,0.1,0.3,0.1,0.5,0.1c0.1,0,0.3,0,0.4-0.1l6.3-3.1c0.3-0.2,0.5-0.5,0.5-0.8l0-9.4l11.2-13.5
			C134.8,156.9,134.8,156.5,134.7,156.2z M121.7,169.8c-0.1,0.2-0.2,0.4-0.2,0.6l0,9.1l-4.4,2.2v-11.3c0-0.2-0.1-0.4-0.2-0.6
			l-10.1-12.3h25.1L121.7,169.8z"/>
	</g>
	<g>
		<path class="st3" d="M408.1,140c11,0,20-9,20-20s-9-20-20-20c-11,0-20,9-20,20S397.1,140,408.1,140z"/>
		<path class="st0" d="M401.9,116.4C401.9,116.4,401.9,116.4,401.9,116.4c0.8,0,1.4-0.6,1.4-1.4c0,0,0-1.1,0.6-2.3
			c0.7-1.4,2-2.2,3.9-2.2c1.7,0,3,0.5,3.8,1.4c0.6,0.8,0.8,1.8,0.5,3c-0.4,1.4-1.6,2.6-2.8,3.8c-1.4,1.5-2.9,3-2.9,5
			c0,0.8,0.6,1.4,1.4,1.4c0.8,0,1.4-0.6,1.4-1.4c0-0.9,1-1.9,2.1-3c1.4-1.4,2.9-3,3.5-5.1c0.5-2,0.2-4-1-5.4c-0.9-1.1-2.7-2.5-6-2.5
			c-3.8,0-5.6,2-6.4,3.7c-0.9,1.7-0.9,3.4-0.9,3.6C400.5,115.8,401.1,116.4,401.9,116.4z"/>
		<path class="st0" d="M407.6,128.4c-0.8,0-1.4,0.6-1.4,1.4v1c0,0.8,0.6,1.4,1.4,1.4c0.8,0,1.4-0.6,1.4-1.4v-1
			C409.1,129,408.4,128.4,407.6,128.4z"/>
	</g>
	<g>
		<g>
			<path class="st3" d="M472.1,109.8l-10.3-9.5c-0.2-0.2-0.5-0.4-0.8-0.4h-10.6c-3.3,0-5.5,1.7-5.5,4.1v3.1h-2c-3,0-5.2,1.9-5.2,4.4
				v24.1c0,2.7,2.5,4.6,5.2,4.6h17.6c2.8,0,4.9-2,4.9-4.6V133h2.6c2.7,0,4.6-2.1,4.6-4.9V111c0,0,0.1,0,0.1-0.1c0,0,0.1,0,0.1-0.1
				C472.8,110.4,472.5,109.9,472.1,109.8z M461.7,103.8l6.7,5.6h-6.7V103.8z M462.9,135.6c0,1.4-1.2,2.2-2.5,2.2h-17.6
				c-1.4,0-2.8-0.8-2.8-2.2v-24.1c0-1.6,1.9-2,2.8-2h9.3v9.3c0,0.7,0.8,1,1.5,1h9.3L462.9,135.6L462.9,135.6z M461.5,117.3h-7.1v-6
				L461.5,117.3z M467.9,130.6h-2.6v-12c0-0.3,0-0.7-0.2-0.9l-10.5-9.7c-0.2-0.4-0.6-0.7-1-0.7c0,0,0-0.1,0-0.1c0,0,0-0.1-0.1-0.1
				h-6.2v-3.1c0-1.2,1.8-1.7,3.1-1.7h9v8.7c0,0.7,0.8,1,1.5,1h9.3v16.2C470.1,129.5,469.3,130.6,467.9,130.6z"/>
		</g>
	</g>
	<g>
		<path class="st3" d="M131.4,108.2c-2.3-2.3-5.9-2.3-8.2,0l-15,15c-0.1,0.1-0.2,0.3-0.2,0.4l-1.1,8.2c0,0.2,0.1,0.5,0.2,0.6
			c0.1,0.1,0.3,0.2,0.5,0.2c0,0,0.1,0,0.1,0l5-0.7c0.4-0.1,0.7-0.4,0.6-0.8c-0.1-0.4-0.4-0.7-0.8-0.6l-4,0.5l0.8-5.7l6,6
			c0.1,0.1,0.3,0.2,0.5,0.2c0.2,0,0.4-0.1,0.5-0.2l15-15c1.1-1.1,1.7-2.5,1.7-4.1S132.5,109.3,131.4,108.2z M123.5,110l2.5,2.5
			l-13.7,13.7l-2.5-2.5L123.5,110z M115.9,129.8l-2.5-2.5l13.7-13.7l2.5,2.5L115.9,129.8z M130.6,115l-6-6c0.8-0.6,1.7-1,2.7-1
			c1.1,0,2.2,0.4,3,1.3c0.8,0.8,1.3,1.9,1.3,3C131.6,113.3,131.3,114.2,130.6,115z"/>
	</g>
	<circle class="st5" cx="264.1" cy="167.4" r="13.2"/>
	<path class="st0" d="M269.9,172.3l-4.9-4.9l4.9-4.9c0.2-0.2,0.2-0.7,0-0.9s-0.7-0.2-0.9,0l-4.9,4.9l-4.9-4.9
		c-0.2-0.2-0.7-0.2-0.9,0s-0.2,0.7,0,0.9l4.9,4.9l-4.9,4.9c-0.2,0.2-0.2,0.7,0,0.9c0.2,0.2,0.7,0.2,0.9,0l4.9-4.9l4.9,4.9
		c0.2,0.2,0.7,0.2,0.9,0C270.1,172.9,270.1,172.5,269.9,172.3z"/>
	<g>
		<path class="st0" d="M23.8,51.1c-11.7,0-21.2,9.5-21.2,21.2s9.5,21.2,21.2,21.2S45,84,45,72.3S35.5,51.1,23.8,51.1L23.8,51.1z
			 M23.8,91C13.6,91,5.1,82.5,5.1,72.3s8.5-18.7,18.7-18.7S42.5,62,42.5,72.3S34,91,23.8,91L23.8,91z M23.8,91"/>
		<path class="st0" d="M29,67.8c0,0.7,0.5,1.2,1.2,1.2c0.7,0,1.2-0.5,1.2-1.2c0-2.9-2.8-5.2-6.5-5.6V61c0-0.7-0.5-1.2-1.2-1.2
			s-1.2,0.5-1.2,1.2v1.1c-3.7,0.4-6.5,2.7-6.5,5.6c0,2.9,2.8,5.2,6.5,5.6v6.5c-2.2-0.4-4-1.7-4-3.1c0-0.7-0.5-1.2-1.2-1.2
			c-0.7,0-1.2,0.5-1.2,1.2c0,2.9,2.8,5.2,6.5,5.6v1.1c0,0.7,0.5,1.2,1.2,1.2s1.2-0.5,1.2-1.2v-1.1c3.7-0.4,6.5-2.7,6.5-5.6
			c0-2.9-2.8-5.2-6.5-5.6v-6.5C27.3,65,29,66.3,29,67.8L29,67.8z M18.6,67.8c0-1.5,1.8-2.8,4-3.1v6.3C20.4,70.5,18.6,69.2,18.6,67.8
			L18.6,67.8z M29,76.7c0,1.5-1.8,2.8-4,3.1v-6.3C27.3,74,29,75.3,29,76.7L29,76.7z M29,76.7"/>
	</g>
	<g>
		<path class="st2" d="M72.4,51.1c-11.7,0-21.2,9.5-21.2,21.2s9.5,21.2,21.2,21.2S93.6,84,93.6,72.3S84.1,51.1,72.4,51.1L72.4,51.1z
			 M72.4,91c-10.2,0-18.7-8.5-18.7-18.7s8.5-18.7,18.7-18.7S91.1,62,91.1,72.3S82.6,91,72.4,91L72.4,91z M72.4,91"/>
		<path class="st2" d="M77.6,67.8c0,0.7,0.5,1.2,1.2,1.2c0.7,0,1.2-0.5,1.2-1.2c0-2.9-2.8-5.2-6.5-5.6V61c0-0.7-0.5-1.2-1.2-1.2
			s-1.2,0.5-1.2,1.2v1.1c-3.7,0.4-6.5,2.7-6.5,5.6c0,2.9,2.8,5.2,6.5,5.6v6.5c-2.2-0.4-4-1.7-4-3.1c0-0.7-0.5-1.2-1.2-1.2
			c-0.7,0-1.2,0.5-1.2,1.2c0,2.9,2.8,5.2,6.5,5.6v1.1c0,0.7,0.5,1.2,1.2,1.2s1.2-0.5,1.2-1.2v-1.1c3.7-0.4,6.5-2.7,6.5-5.6
			c0-2.9-2.8-5.2-6.5-5.6v-6.5C75.9,65,77.6,66.3,77.6,67.8L77.6,67.8z M67.2,67.8c0-1.5,1.8-2.8,4-3.1v6.3
			C68.9,70.5,67.2,69.2,67.2,67.8L67.2,67.8z M77.6,76.7c0,1.5-1.8,2.8-4,3.1v-6.3C75.9,74,77.6,75.3,77.6,76.7L77.6,76.7z
			 M77.6,76.7"/>
	</g>
	<g>
		<g>
			<path class="st2" d="M455.8,51.1c-11.7,0-21.2,9.5-21.2,21.2s9.5,21.2,21.2,21.2S477,84,477,72.3S467.5,51.1,455.8,51.1
				L455.8,51.1z M455.8,91c-10.2,0-18.7-8.5-18.7-18.7s8.5-18.7,18.7-18.7c10.2,0,18.7,8.5,18.7,18.7S466,91,455.8,91L455.8,91z
				 M455.8,91"/>
		</g>
		<g>
			<path class="st2" d="M460.5,72.9L460.5,72.9c-0.4,0-0.7,0.2-0.9,0.4s-0.3,0.6-0.3,0.9c0.1,0.6,0.5,1.1,1.2,1.1
				c2.6,0,5.3,2.6,5.3,5.1c0,0.1-0.1,0.2-0.2,0.2h-20c-0.1,0-0.2-0.1-0.2-0.2c0-2.5,2.7-5,5.3-5c0.7-0.1,1.2-0.7,1.1-1.4
				c-0.1-0.6-0.5-1.1-1.2-1.1c-3.9,0-7.7,3.7-7.7,7.5c0,1.5,1.1,2.7,2.6,2.7h20c1.5,0,2.6-1.2,2.6-2.7
				C468.2,76.6,464.4,72.9,460.5,72.9z"/>
			<path class="st2" d="M455.5,74.5c4,0,6.9-3.2,6.9-7.7c0-4.6-3-8.1-6.8-8.1c0,0,0,0,0,0c-1.9-0.1-3.8,0.7-5,2.2
				c-1.3,1.7-1.9,3.8-1.9,5.9C448.7,71.3,451.6,74.5,455.5,74.5z M451.1,66.8c0-3.2,1.9-5.7,4.5-5.7s4.5,2.4,4.5,5.7
				c0,3.1-1.8,5.3-4.5,5.3S451.1,70,451.1,66.8z"/>
		</g>
	</g>
	<g>
		<path class="st0" d="M422.5,10.2c-4-4-9.3-6.2-14.9-6.2s-10.9,2.2-14.9,6.2c-4,4-6.2,9.3-6.2,14.9s2.2,10.9,6.2,14.9
			c4,4,9.3,6.2,14.9,6.2s10.9-2.2,14.9-6.2c4-4,6.2-9.3,6.2-14.9S426.5,14.2,422.5,10.2z M427,25.1c0,10.7-8.7,19.3-19.3,19.3
			s-19.3-8.7-19.3-19.3S397,5.8,407.6,5.8S427,14.4,427,25.1z"/>
		<path class="st0" d="M413.5,14.1c-0.4-0.4-1.1-0.4-1.5,0l-10.3,10.3c-0.4,0.4-0.4,1.1,0,1.5L412,36.1c0.2,0.2,0.5,0.3,0.8,0.3
			c0.3,0,0.6-0.1,0.7-0.3c0.4-0.4,0.4-1.1,0-1.5l-9.5-9.5l9.5-9.5C413.9,15.2,413.9,14.5,413.5,14.1z"/>
	</g>
	<g>
		<g>
			<path class="st0" d="M120,51.3c-11.7,0-21.2,9.5-21.2,21.2s9.5,21.2,21.2,21.2s21.2-9.5,21.2-21.2S131.7,51.3,120,51.3L120,51.3z
				 M120,91.2c-10.2,0-18.7-8.5-18.7-18.7s8.5-18.7,18.7-18.7c10.2,0,18.7,8.5,18.7,18.7S130.2,91.2,120,91.2L120,91.2z M120,91.2"
				/>
		</g>
		<g>
			<path class="st0" d="M124.7,73.2L124.7,73.2c-0.4,0-0.7,0.2-0.9,0.4s-0.3,0.6-0.3,0.9c0.1,0.6,0.5,1.1,1.2,1.1
				c2.6,0,5.3,2.6,5.3,5.1c0,0.1-0.1,0.2-0.2,0.2h-20c-0.1,0-0.2-0.1-0.2-0.2c0-2.5,2.7-5,5.3-5c0.7-0.1,1.2-0.7,1.1-1.4
				c-0.1-0.6-0.5-1.1-1.2-1.1c-3.9,0-7.7,3.7-7.7,7.5c0,1.5,1.1,2.7,2.6,2.7h20c1.5,0,2.6-1.2,2.6-2.7
				C132.4,76.9,128.6,73.2,124.7,73.2z"/>
			<path class="st0" d="M119.7,74.8c4,0,6.9-3.2,6.9-7.7c0-4.6-3-8.1-6.8-8.1c0,0,0,0,0,0c-1.9-0.1-3.8,0.7-5,2.2
				c-1.3,1.7-1.9,3.8-1.9,5.9C112.9,71.5,115.8,74.8,119.7,74.8z M115.3,67.1c0-3.2,1.9-5.7,4.5-5.7s4.5,2.4,4.5,5.7
				c0,3.1-1.8,5.3-4.5,5.3S115.3,70.2,115.3,67.1z"/>
		</g>
	</g>
	<path class="st3" d="M23.5,173.1c0.9,1,2.3,1,3.2,0l9.6-11.2c0.9-1,0.5-1.8-0.8-1.8H14.7c-1.3,0-1.7,0.8-0.8,1.8L23.5,173.1z"/>
	<g>
		<g>
			<g>
				<path class="st6" d="M376.8,129.6l-13.5-23.1c-0.7-1.2-1.9-1.9-3.3-1.9s-2.6,0.7-3.3,1.9l-13.5,23.1c-0.7,1.2-0.7,2.6,0,3.8
					c0.7,1.2,1.9,1.9,3.3,1.9h27c1.4,0,2.6-0.7,3.3-1.9C377.5,132.2,377.5,130.8,376.8,129.6z M374.1,132c0,0.1-0.1,0.1-0.2,0.1
					h-27.7c-0.1,0-0.2,0-0.2-0.1c-0.1-0.1,0-0.2,0-0.2l13.8-23.8c0-0.1,0.1-0.1,0.2-0.1s0.2,0,0.2,0.1l13.8,23.8
					C374.1,131.8,374.1,131.9,374.1,132z"/>
			</g>
			<polygon class="st6" points="361.7,125.5 358.1,125.5 357.6,114.5 362.2,114.5 			"/>
			<rect x="358" y="126.7" class="st6" width="3.9" height="3.9"/>
		</g>
	</g>
</g>
<g id="圖層_2_1_">
</g>
</svg>
