<?xml version="1.0" encoding="utf-8"?>
<!-- Generator: Adobe Illustrator 21.1.0, SVG Export Plug-In . SVG Version: 6.00 Build 0)  -->
<svg version="1.1" xmlns="http://www.w3.org/2000/svg" xmlns:xlink="http://www.w3.org/1999/xlink" x="0px" y="0px"
	 viewBox="0 0 480 192" style="enable-background:new 0 0 480 192;" xml:space="preserve">
<style type="text/css">
	.st0{fill:#FFFFFF;}
	.st1{fill:#999999;}
	.st2{fill:#52ACD3;}
	.st3{fill:#2B2B2B;}
	.st4{fill:#BC0000;}
	.st5{fill:#FF3355;}
	.st6{fill:none;stroke:#FF3355;stroke-width:2.415;stroke-linecap:round;}
	.st7{fill:none;stroke:#FF3355;stroke-width:2.415;stroke-linecap:round;stroke-linejoin:round;}
	.st8{fill:none;stroke:#999999;stroke-width:2.415;stroke-linecap:round;}
	.st9{fill:none;stroke:#999999;stroke-width:2.415;stroke-linecap:round;stroke-linejoin:round;}
	.st10{fill:#CBCBCB;}
</style>
<g id="icon_x5F_sprite">
	<g id="參考線">
	</g>
	<g>
		<path class="st0" d="M40.6,10.3H8.7c-0.8,0-1.4-0.6-1.4-1.4l0,0c0-0.8,0.6-1.4,1.4-1.4h31.8c0.8,0,1.4,0.6,1.4,1.4l0,0
			C42,9.7,41.3,10.3,40.6,10.3z"/>
		<path class="st0" d="M40.6,25.9H8.7c-0.8,0-1.4-0.6-1.4-1.4l0,0c0-0.8,0.6-1.4,1.4-1.4h31.8c0.8,0,1.4,0.6,1.4,1.4l0,0
			C42,25.3,41.3,25.9,40.6,25.9z"/>
		<path class="st0" d="M40.6,41.5H8.7c-0.8,0-1.4-0.6-1.4-1.4l0,0c0-0.8,0.6-1.4,1.4-1.4h31.8c0.8,0,1.4,0.6,1.4,1.4l0,0
			C42,40.8,41.3,41.5,40.6,41.5z"/>
	</g>
	<g>
		<path class="st0" d="M61.5,34.1v-8.5c0-0.9,0.6-1.5,1.5-1.5l0,0c0.9,0,1.5,0.6,1.5,1.5v8.5c0,0.9-0.6,1.5-1.5,1.5l0,0
			C62.3,35.6,61.5,34.8,61.5,34.1z"/>
		<path class="st0" d="M69.3,34.1v-14c0-0.9,0.6-1.5,1.5-1.5l0,0c0.9,0,1.5,0.6,1.5,1.5v14c0,0.9-0.6,1.5-1.5,1.5l0,0
			C70,35.6,69.3,34.8,69.3,34.1z"/>
		<path class="st0" d="M77,34.1V23.2c0-0.9,0.6-1.5,1.5-1.5l0,0c0.9,0,1.5,0.6,1.5,1.5v10.9c0,0.9-0.6,1.5-1.5,1.5l0,0
			C77.8,35.6,77,34.8,77,34.1z"/>
		<path class="st0" d="M84.8,34.1V17.8c0-0.9,0.6-1.5,1.5-1.5l0,0c0.9,0,1.5,0.6,1.5,1.5v16.3c0,0.9-0.6,1.5-1.5,1.5l0,0
			C85.5,35.6,84.8,34.8,84.8,34.1z"/>
		<path class="st0" d="M89.5,43.3H55.3c-0.9,0-1.5-0.6-1.5-1.5l0,0c0-0.9,0.6-1.5,1.5-1.5h34.1c0.9,0,1.5,0.6,1.5,1.5l0,0
			C91,42.7,90.4,43.3,89.5,43.3z"/>
		<path class="st0" d="M53.8,41.8V7.6c0-0.9,0.6-1.5,1.5-1.5l0,0c0.9,0,1.5,0.6,1.5,1.5v34.1c0,0.9-0.6,1.5-1.5,1.5l0,0
			C54.6,43.3,53.8,42.7,53.8,41.8z"/>
		<path class="st0" d="M61.5,20.6c-0.4,0-0.7-0.2-1-0.5c-0.5-0.5-0.4-1.4,0.2-1.8l9.4-7.8c0.4-0.4,1-0.4,1.5-0.1l6.9,4.3l9.4-7.3
			c0.6-0.4,1.4-0.3,1.8,0.2C90.1,8.2,90,9,89.5,9.4l-10.1,7.8c-0.4,0.3-1,0.4-1.5,0.1L71,13.1l-8.7,7.2
			C62.1,20.5,61.8,20.6,61.5,20.6z"/>
	</g>
	<path class="st1" d="M424.6,86.3l-13.8-13.8l13.8-13.8c0.7-0.7,0.7-1.9,0-2.6c-0.7-0.7-1.9-0.7-2.6,0l-13.8,13.8l-13.8-13.8
		c-0.7-0.7-1.9-0.7-2.6,0c-0.7,0.7-0.7,1.9,0,2.6l13.8,13.8l-13.8,13.8c-0.7,0.7-0.7,1.9,0,2.6c0.7,0.7,1.9,0.7,2.6,0l13.8-13.8
		L422,88.9c0.7,0.7,1.9,0.7,2.6,0C425.3,88.2,425.3,87,424.6,86.3z"/>
	<g>
		<path class="st2" d="M23.6,87.2c-10.2,0-13.9-5.9-13.9-11.5c0-2.8,2.2-6.6,6.4-10.9c-1.1-1.2-2.2-2.6-0.9-4.6
			c0.5-0.8,1.3-1.3,2.3-1.4c0.8-0.1,1.8,0.1,2.6,0.6c0.5-2,2.4-2.5,3.5-2.5s3,0.6,3.5,2.5c0.8-0.5,1.7-0.7,2.6-0.6
			c1,0.1,1.8,0.6,2.3,1.4c1.3,2,0.3,3.4-0.9,4.6c4.2,4.3,6.4,8,6.4,10.9C37.5,81.3,33.8,87.2,23.6,87.2z"/>
		<path class="st0" d="M17.9,60.1c-0.1,0-0.2,0-0.2,0c-0.6,0.1-1.1,0.3-1.4,0.9c-0.9,1.3-0.2,2.1,1.1,3.5l0.4,0.4l-0.4,0.4
			c-4.2,4.2-6.5,7.9-6.5,10.4c0,2.4,0.9,10.3,12.7,10.3s12.7-7.9,12.7-10.3c0-2.6-2.3-6.3-6.5-10.4l-0.4-0.4l0.4-0.4
			c1.3-1.3,2-2.1,1.1-3.5c-0.3-0.5-0.8-0.8-1.4-0.9c-0.8-0.1-1.8,0.3-2.5,1l-1,1v-1.5c0-2.4-2.3-2.4-2.4-2.4c-0.2,0-2.4,0.1-2.4,2.4
			v1.5l-1-1C19.6,60.5,18.7,60.1,17.9,60.1z"/>
		<g>
			<path class="st2" d="M27.2,75.1H20c-0.3,0-0.6-0.3-0.6-0.6s0.3-0.6,0.6-0.6h7.2c0.3,0,0.6,0.3,0.6,0.6S27.6,75.1,27.2,75.1z"/>
			<path class="st2" d="M27.2,77.5H20c-0.3,0-0.6-0.3-0.6-0.6s0.3-0.6,0.6-0.6h7.2c0.3,0,0.6,0.3,0.6,0.6S27.6,77.5,27.2,77.5z"/>
			<path class="st2" d="M23.6,81.2c-0.3,0-0.6-0.3-0.6-0.6v-6c0-0.3,0.3-0.6,0.6-0.6c0.3,0,0.6,0.3,0.6,0.6v6
				C24.2,80.9,23.9,81.2,23.6,81.2z"/>
			<path class="st2" d="M23.3,75.1c-0.2,0-0.4-0.1-0.5-0.3l-3-4.2c-0.2-0.3-0.1-0.6,0.1-0.8c0.3-0.2,0.6-0.1,0.8,0.1l3,4.2
				c0.2,0.3,0.1,0.6-0.1,0.8C23.5,75.1,23.4,75.1,23.3,75.1z"/>
			<path class="st2" d="M23.9,75.1c-0.1,0-0.2,0-0.4-0.1c-0.3-0.2-0.3-0.6-0.1-0.8l3-4.2c0.2-0.3,0.6-0.3,0.8-0.1
				c0.3,0.2,0.3,0.6,0.1,0.8l-3,4.2C24.3,75,24.1,75.1,23.9,75.1z"/>
		</g>
	</g>
	<g>
		<path class="st3" d="M130.5,32c0-0.3-0.3-0.6-0.6-0.6h-21.3c-0.3,0-0.6,0.3-0.6,0.6c0,0.3,0.3,0.6,0.6,0.6h21.3
			C130.2,32.4,130.5,32.3,130.5,32z"/>
		<path class="st3" d="M108.6,37.5c-0.3,0-0.6,0.3-0.6,0.6s0.3,0.6,0.6,0.6H124c0.3,0,0.6-0.3,0.6-0.6s-0.3-0.6-0.6-0.6H108.6z"/>
		<path class="st3" d="M112.4,21.4l-1.3,4.6c-0.1,0.3,0,0.7,0.3,1c0.1,0.1,0.4,0.3,0.7,0.3c0.1,0,0.1,0,0.3,0l4.9-1.3
			c0.1,0,0.4-0.1,0.4-0.3l17.6-16.7c0.1-0.1,0.3-0.4,0.3-0.7s-0.1-0.6-0.3-0.7l-3.6-3.4c-0.4-0.4-1.1-0.4-1.5,0L112.6,21
			C112.6,21.1,112.4,21.2,112.4,21.4z M129.6,7.8l1.4-1.4l2.1,2l-1.4,1.4L129.6,7.8z M113.7,24.9l0.7-2.7l13.7-13l2.1,2l-13.7,13
			L113.7,24.9z"/>
		<path class="st3" d="M134.7,13.4c-0.6,0-1.1,0.4-1.1,1v28h-28.7v-33h17.1c0.6,0,1.1-0.4,1.1-1s-0.4-1-1.1-1h-18.1
			c-0.6,0-1.1,0.4-1.1,1v35.1c0,0.6,0.4,1,1.1,1h30.9c0.6,0,1.1-0.4,1.1-1v-29C135.8,14,135.4,13.4,134.7,13.4z"/>
	</g>
	<g>
		<g>
			<g>
				<path class="st3" d="M183.7,37.2c-4.1-1.8-4.2-9.7-4.2-10v-5.3c0-5-3.1-9.4-7.5-11.3c0-2.6-2.2-4.8-4.8-4.8s-4.8,2.2-4.8,4.8
					c-4.4,1.9-7.5,6.3-7.5,11.3v5.3c0,0.1-0.1,8.1-4.2,10c-0.4,0.3-0.7,0.7-0.5,1.2s0.5,0.8,1.1,0.8h10.4c0.3,1.2,0.8,2.2,1.6,3.1
					c1.1,1.2,2.6,1.8,4.1,1.8s3-0.7,4.1-1.8c0.8-0.8,1.4-1.9,1.6-3.1h10.4c0.5,0,1-0.4,1.1-0.8C184.4,37.8,184.1,37.3,183.7,37.2z
					 M178.2,33.3c0.4,1.4,1.1,2.6,1.9,3.7h-26.1c0.8-1.1,1.5-2.3,1.9-3.7L178.2,33.3z M167.2,8c1.2,0,2.2,0.8,2.5,1.9
					c-0.8-0.1-1.6-0.3-2.5-0.3c-0.8,0-1.6,0.1-2.5,0.3C164.8,8.8,165.9,8,167.2,8z M156.9,27.2v-5.3c0-5.6,4.5-10.1,10.1-10.1
					c5.6,0,10.1,4.5,10.1,10.1v5.3c0,0.1,0,1.9,0.4,4h-21.2C156.9,29.1,156.9,27.3,156.9,27.2z M167.2,41.9c-1.6,0-3.1-1.2-3.5-2.7
					h7.1C170.2,40.7,168.8,41.9,167.2,41.9z"/>
				<path class="st3" d="M167.2,13.3c-4.6,0-8.5,3.8-8.5,8.5c0,0.5,0.5,1.1,1.1,1.1c0.5,0,1.1-0.5,1.1-1.1c0-3.4,2.9-6.3,6.3-6.3
					c0.5,0,1.1-0.5,1.1-1.1C168.1,13.8,167.7,13.3,167.2,13.3z"/>
			</g>
		</g>
	</g>
	<g>
		<path class="st3" d="M232.1,7.5h-32.6c-0.7,0-1.2,0.3-1.2,0.9v6.4c0,0.7,0.5,0.9,1.2,0.9h2v14.7c0,0.7,0.5,1.2,1.2,1.2h4.5
			l-5.6,8.8c-0.4,0.5-0.3,1.3,0.4,1.7c0.3,0.1,0.4,0.1,0.7,0.1c0.4,0,0.8-0.3,1.1-0.5l6.5-10.1h11.3l6.5,10.1
			c0.3,0.4,0.7,0.5,1.1,0.5c0.3,0,0.4,0,0.7-0.1c0.5-0.4,0.8-1.1,0.4-1.7l-5.6-8.8h4.5c0.7,0,1.2-0.5,1.2-1.2V15.7h2
			c0.7,0,1.2-0.3,1.2-0.9V8.4C233.3,7.8,232.8,7.5,232.1,7.5z M228,29.3v0.3h-5.3c0,0,0,0-0.1,0h-2.8h-0.1h-10.2c0,0,0,0-0.1,0h-5.8
			V15.7H228V29.3z M230.8,13.6h-2h-26.1h-2V9.8l0,0l0,0h30.1V13.6z"/>
		<path class="st3" d="M209.9,26.8c0.3,0,0.7-0.1,0.9-0.4l2-2l4.1,1.1c0.4,0.1,0.9,0,1.3-0.4l4.1-4.9c0.4-0.5,0.4-1.3-0.1-1.7
			c-0.3-0.1-1.1-0.4-1.5,0.1l-3.6,4.6l-4-1.1c-0.4-0.1-0.9-0.3-1.2,0l-2.5,2.5c-0.4,0.4-0.7,0.8-0.5,1.2c0.1,0.4,0.4,0.7,0.8,0.8
			C209.7,26.8,209.8,26.8,209.9,26.8z"/>
	</g>
	<g>
		<g>
			<path class="st3" d="M311.3,43c10,0,18.2-8.2,18.2-18.2s-8.2-18.2-18.2-18.2s-18.2,8.2-18.2,18.2S301.3,43,311.3,43z M311.3,9.1
				c8.7,0,15.6,7.1,15.6,15.6s-7.1,15.6-15.6,15.6c-8.7,0-15.6-7.1-15.6-15.6S302.6,9.1,311.3,9.1z"/>
			<path class="st3" d="M308.2,32.8c-0.7,0-1.2,0.6-1.2,1.2c0,0.7,0.6,1.2,1.2,1.2h8.4c0.7,0,1.2-0.6,1.2-1.2c0-0.7-0.6-1.2-1.2-1.2
				h-3V21.6c0-0.7-0.6-1.2-1.2-1.2h-4.2c-0.7,0-1.2,0.6-1.2,1.2c0,0.7,0.6,1.2,1.2,1.2h3v10H308.2z"/>
			<circle class="st3" cx="310.7" cy="16" r="2.1"/>
		</g>
	</g>
	<g>
		<path class="st3" d="M375.8,27.9c-1-2.3-2.3-4.5-4.1-6.6c-2.1-2.6-4.3-4.3-5.3-5l4-7.5c0.3-0.4,0.1-0.8-0.1-1.2
			c-1-1-2.2-1.6-3.4-1.6c-1.2,0-2.2,0.4-3.1,0.8c-0.8,0.3-1.4,0.5-1.9,0.5c-0.1,0-0.3,0-0.5-0.1c-1.9-0.6-3.4-1.2-4.8-1.2
			c-1.8,0-3.4,0.8-4.8,2.2c-0.3,0.3-0.4,0.8-0.1,1.2l4.4,6.6c-1,0.8-3.1,2.5-5.2,5c-1.7,2.1-3.1,4.3-4.1,6.6c-1.3,2.8-1.9,5.9-1.9,9
			c0,4.1,3.4,7.4,7.4,7.4h18.1c4.1,0,7.4-3.4,7.4-7.4C377.6,33.9,377,30.9,375.8,27.9z M353.7,9.3c0.9-0.8,1.8-1.2,2.8-1.2
			c1.2,0,2.5,0.4,4.1,1c0.4,0.1,0.8,0.1,1.2,0.1c0.9,0,1.8-0.4,2.7-0.8c0.8-0.4,1.6-0.6,2.3-0.6c0.4,0,0.9,0,1.6,0.5l-3.9,7.1H358
			L353.7,9.3z M370.2,42.4h-18.1c-3,0-5.6-2.5-5.6-5.6c0-5,1.8-10,5.6-14.3c2.3-2.8,4.7-4.5,5.4-5h7.1c0.8,0.5,3.1,2.2,5.4,5
			c3.6,4.4,5.6,9.3,5.6,14.3C375.7,40,373.2,42.4,370.2,42.4z"/>
		<g>
			<path class="st3" d="M358.1,34.1h1.9v-1.3h-1.9c-0.8,0-1.2-0.3-1.2-0.8c0-0.5,0.4-0.8,1.2-0.8h1l-2.6-4c-0.3-0.3-0.4-0.5-0.4-0.6
				c0-0.1-0.1-0.3-0.1-0.5s0.1-0.5,0.3-0.8c0.1-0.1,0.4-0.3,0.6-0.3s0.5,0.1,0.6,0.3c0.1,0.1,0.4,0.5,0.6,0.9l2.7,4.3l2.5-4.1
				c0.1-0.1,0.1-0.4,0.3-0.5c0.1-0.1,0.3-0.3,0.3-0.4c0.1-0.1,0.3-0.3,0.4-0.3c0.1-0.1,0.3-0.1,0.5-0.1c0.3,0,0.5,0.1,0.6,0.3
				c0.1,0.1,0.3,0.4,0.3,0.6s0,0.4-0.1,0.5c-0.1,0.1-0.1,0.4-0.4,0.6l-2.5,4h1c0.8,0,1.2,0.3,1.2,0.8c0,0.5-0.4,0.8-1.2,0.8h-1.9V34
				h1.9c0.8,0,1.2,0.3,1.2,0.8c0,0.5-0.4,0.8-1.2,0.8h-1.9v0.6c0,1.2-0.4,1.7-1.2,1.7c-0.8,0-1.2-0.5-1.2-1.7v-0.6h-1.9
				c-0.8,0-1.2-0.3-1.2-0.8C356.9,34.4,357.3,34.1,358.1,34.1z"/>
		</g>
	</g>
	<g>
		<path class="st2" d="M230.4,172.1c-1-2.3-2.3-4.5-4.1-6.6c-2.1-2.6-4.3-4.3-5.3-5l4-7.5c0.3-0.4,0.1-0.8-0.1-1.2
			c-1-1-2.2-1.6-3.4-1.6c-1.2,0-2.2,0.4-3.1,0.8c-0.8,0.3-1.4,0.5-1.9,0.5c-0.1,0-0.3,0-0.5-0.1c-1.9-0.6-3.4-1.2-4.8-1.2
			c-1.8,0-3.4,0.8-4.8,2.2c-0.3,0.3-0.4,0.8-0.1,1.2l4.4,6.6c-1,0.8-3.1,2.5-5.2,5c-1.7,2.1-3.1,4.3-4.1,6.6c-1.3,2.8-1.9,5.9-1.9,9
			c0,4.1,3.4,7.4,7.4,7.4h18.1c4.1,0,7.4-3.4,7.4-7.4C232.3,178.1,231.6,175.1,230.4,172.1z M208.3,153.5c0.9-0.8,1.8-1.2,2.8-1.2
			c1.2,0,2.5,0.4,4.1,1c0.4,0.1,0.8,0.1,1.2,0.1c0.9,0,1.8-0.4,2.7-0.8c0.8-0.4,1.6-0.6,2.3-0.6c0.4,0,0.9,0,1.6,0.5l-3.9,7.1h-6.6
			L208.3,153.5z M224.9,186.6h-18.1c-3,0-5.6-2.5-5.6-5.6c0-5,1.8-10,5.6-14.3c2.3-2.8,4.7-4.5,5.4-5h7.1c0.8,0.5,3.1,2.2,5.4,5
			c3.6,4.4,5.6,9.3,5.6,14.3C230.3,184.1,227.9,186.6,224.9,186.6z"/>
		<g>
			<path class="st2" d="M212.7,178.3h1.9V177h-1.9c-0.8,0-1.2-0.3-1.2-0.8c0-0.5,0.4-0.8,1.2-0.8h1l-2.6-4c-0.3-0.3-0.4-0.5-0.4-0.6
				s-0.1-0.3-0.1-0.5c0-0.3,0.1-0.5,0.3-0.8c0.1-0.1,0.4-0.3,0.6-0.3c0.3,0,0.5,0.1,0.6,0.3c0.1,0.1,0.4,0.5,0.6,0.9l2.7,4.3
				l2.5-4.1c0.1-0.1,0.1-0.4,0.3-0.5c0.1-0.1,0.3-0.3,0.3-0.4c0.1-0.1,0.3-0.3,0.4-0.3c0.1-0.1,0.3-0.1,0.5-0.1
				c0.3,0,0.5,0.1,0.6,0.3c0.1,0.1,0.3,0.4,0.3,0.6s0,0.4-0.1,0.5c-0.1,0.1-0.1,0.4-0.4,0.6l-2.5,4h1c0.8,0,1.2,0.3,1.2,0.8
				c0,0.5-0.4,0.8-1.2,0.8h-1.9v1.3h1.9c0.8,0,1.2,0.3,1.2,0.8c0,0.5-0.4,0.8-1.2,0.8h-1.9v0.6c0,1.2-0.4,1.7-1.2,1.7
				c-0.8,0-1.2-0.5-1.2-1.7v-0.6h-1.9c-0.8,0-1.2-0.3-1.2-0.8C211.6,178.6,212,178.3,212.7,178.3z"/>
		</g>
	</g>
	<g>
		<rect x="245.5" y="7.5" class="st3" width="19.2" height="3.1"/>
		<rect x="245.5" y="15.3" class="st3" width="27.6" height="3.1"/>
		<rect x="245.5" y="22.9" class="st3" width="34" height="3.1"/>
		<rect x="245.5" y="30.6" class="st3" width="27.6" height="3.1"/>
		<rect x="245.5" y="38.4" class="st3" width="20.1" height="3.1"/>
	</g>
	<path class="st0" d="M399.4,25.3l15.2-15.2c0.6-0.6,0.6-1.5,0-2c-0.6-0.6-1.5-0.6-2,0l-16.2,16.2c-0.6,0.6-0.6,1.5,0,2l16.2,16.2
		c0.3,0.3,0.7,0.4,1,0.4s0.7-0.1,1-0.4c0.6-0.6,0.6-1.5,0-2L399.4,25.3z"/>
	<g>
		<path class="st2" d="M445.8,29c-0.2,0-0.5-0.1-0.6-0.3c-0.4-0.3-0.4-0.9,0-1.3l9.1-9.1c0.4-0.4,0.9-0.4,1.3,0
			c0.4,0.3,0.4,0.9,0,1.3l-9.1,9.1C446.2,29,446,29,445.8,29z"/>
		<path class="st2" d="M464,29c-0.2,0-0.5-0.1-0.6-0.3l-9.1-9.1c-0.4-0.3-0.4-0.9,0-1.3s0.9-0.4,1.3,0l9.1,9.1
			c0.4,0.3,0.4,0.9,0,1.3C464.4,29,464.2,29,464,29z"/>
	</g>
	<g>
		<path class="st3" d="M35.2,161c0.2,0,0.6,0.1,0.7,0.4c0.5,0.4,0.5,1.1,0,1.6l-11.3,11.3c-0.5,0.5-1.1,0.5-1.6,0
			c-0.5-0.4-0.5-1.1,0-1.6l11.3-11.3C34.7,161,34.9,161,35.2,161z"/>
		<path class="st3" d="M12.6,161c0.2,0,0.6,0.1,0.7,0.4l11.3,11.3c0.5,0.4,0.5,1.1,0,1.6c-0.5,0.5-1.1,0.5-1.6,0L11.7,163
			c-0.5-0.4-0.5-1.1,0-1.6C12.1,161,12.3,161,12.6,161z"/>
	</g>
	<g>
		<path class="st2" d="M84.7,157.3c0.3,0,0.8,0.2,1,0.5c0.7,0.5,0.7,1.5,0,2.2l-15.2,15.2c-0.7,0.7-1.5,0.7-2.2,0
			c-0.7-0.5-0.7-1.5,0-2.2l15.2-15.2C84,157.3,84.4,157.3,84.7,157.3z"/>
		<path class="st2" d="M60.3,163.3c0.3,0,0.8,0.2,1,0.5l9.2,9.2c0.7,0.5,0.7,1.5,0,2.2c-0.7,0.7-1.5,0.7-2.2,0l-9.2-9.2
			c-0.7-0.5-0.7-1.5,0-2.2C59.6,163.3,59.9,163.3,60.3,163.3z"/>
	</g>
	<g>
		<path class="st2" d="M17,108.8c0-0.2,0.1-0.6,0.4-0.7c0.4-0.5,1.1-0.5,1.6,0l11.3,11.3c0.5,0.5,0.5,1.1,0,1.6
			c-0.4,0.5-1.1,0.5-1.6,0l-11.3-11.3C17,109.3,17,109.1,17,108.8z"/>
		<path class="st2" d="M17,131.5c0-0.2,0.1-0.6,0.4-0.7l11.3-11.3c0.4-0.5,1.1-0.5,1.6,0c0.5,0.5,0.5,1.1,0,1.6L19,132.3
			c-0.4,0.5-1.1,0.5-1.6,0C17,132,17,131.7,17,131.5z"/>
	</g>
	<g>
		<path class="st1" d="M65.6,108.8c0-0.2,0.1-0.6,0.4-0.7c0.4-0.5,1.1-0.5,1.6,0l11.3,11.3c0.5,0.5,0.5,1.1,0,1.6
			c-0.4,0.5-1.1,0.5-1.6,0l-11.3-11.3C65.6,109.3,65.6,109.1,65.6,108.8z"/>
		<path class="st1" d="M65.6,131.5c0-0.2,0.1-0.6,0.4-0.7l11.3-11.3c0.4-0.5,1.1-0.5,1.6,0s0.5,1.1,0,1.6l-11.3,11.3
			c-0.4,0.5-1.1,0.5-1.6,0C65.6,132,65.6,131.7,65.6,131.5z"/>
	</g>
	<g id="图层_2">
		<g id="footer">
			<circle class="st1" cx="418" cy="167.8" r="1.7"/>
			<circle class="st1" cx="408.4" cy="167.8" r="1.7"/>
			<circle class="st1" cx="398.8" cy="168" r="1.7"/>
			<path class="st1" d="M408.4,187.8c-11,0-20-9-20-20s9-20,20-20s20,9,20,20S419.4,187.8,408.4,187.8z M408.4,149.3
				c-10.2,0-18.6,8.3-18.6,18.6s8.3,18.6,18.6,18.6s18.6-8.3,18.6-18.6S418.6,149.3,408.4,149.3z"/>
		</g>
	</g>
	<g id="图层_2_1_">
		<g id="footer_1_">
			<path class="st4" d="M456,187.8c-11,0-20-9-20-20s9-20,20-20s20,9,20,20S467,187.8,456,187.8z M456,149.3
				c-10.2,0-18.6,8.3-18.6,18.6s8.3,18.6,18.6,18.6s18.6-8.3,18.6-18.6S466.2,149.3,456,149.3z"/>
			<path class="st4" d="M455.4,155.7h0.8c0.4,0,0.8,0.4,0.8,0.8V174c0,0.4-0.4,0.8-0.8,0.8h-0.8c-0.4,0-0.8-0.4-0.8-0.8v-17.7
				C454.7,155.9,455,155.7,455.4,155.7z"/>
			<circle class="st4" cx="455.8" cy="178.6" r="1.3"/>
		</g>
	</g>
	<g>
		<path class="st1" d="M373.7,162.1c-3.5-3.5-8.1-5.4-13.1-5.4s-9.6,1.9-13.1,5.4l-4.8,4.8l4.9,4.9c3.5,3.5,8.1,5.4,13.1,5.4
			s9.6-1.9,13.1-5.4l4.8-4.8L373.7,162.1z M372.9,171c-3.3,3.3-7.6,5-12.2,5s-9-1.8-12.2-5l-4.1-4.1l4-4c3.3-3.3,7.6-5,12.2-5
			s9,1.8,12.2,5l4.1,4.1L372.9,171z"/>
		<path class="st1" d="M360.6,159.1c-4.4,0-7.9,3.5-7.9,7.9s3.5,7.9,7.9,7.9s7.9-3.5,7.9-7.9S364.9,159.1,360.6,159.1z M360.6,164
			c-1.7,0-3,1.3-3,3c0,0.4-0.2,0.6-0.6,0.6s-0.6-0.2-0.6-0.6c0-2.4,1.9-4.3,4.3-4.3c0.4,0,0.6,0.2,0.6,0.6S360.9,164,360.6,164z"/>
	</g>
	<g>
		<path class="st1" d="M324.7,162.3c-1.3-1.3-2.7-2.4-4.3-3.2l5.8-5.8c0.2-0.2,0.2-0.6,0-0.9c-0.2-0.2-0.6-0.2-0.9,0l-6.1,6.1
			c-2.4-1.1-5-1.7-7.7-1.7c-4.9,0-9.6,1.9-13.1,5.4l-4.8,4.9l4.9,4.9c1.2,1.2,2.6,2.2,4.1,3.1l-5.5,5.5c-0.2,0.2-0.2,0.6,0,0.9
			c0.1,0.1,0.3,0.2,0.4,0.2s0.3-0.1,0.4-0.2l5.8-5.8c2.4,1.2,5.1,1.8,7.9,1.8c4.9,0,9.6-1.9,13.1-5.4l4.8-4.8L324.7,162.3z
			 M303.5,174.2c-1.5-0.8-2.9-1.8-4.1-3l-4.1-4.1l4-4c3.3-3.3,7.6-5,12.2-5c2.4,0,4.7,0.5,6.8,1.4L303.5,174.2z M323.9,171.2
			c-3.3,3.3-7.6,5-12.2,5c-2.4,0-4.8-0.5-7-1.5l14.8-14.8c1.6,0.8,3,1.9,4.3,3.2l4.1,4.1L323.9,171.2z"/>
		<path class="st1" d="M311.6,159.3c-4.4,0-7.9,3.5-7.9,7.9c0,1.5,0.4,3,1.2,4.2l10.9-10.9C314.6,159.7,313.1,159.3,311.6,159.3z"/>
		<path class="st1" d="M307.3,173.8c1.2,0.8,2.7,1.3,4.3,1.3c4.4,0,7.9-3.5,7.9-7.9c0-1.6-0.5-3.1-1.3-4.3L307.3,173.8z"/>
	</g>
	<path id="购彩大厅" class="st5" d="M150.7,70.7c-0.4,0-0.8-0.2-1.1-0.5c-0.5-0.5-0.4-1.3,0.1-1.8c0,0,0,0,0.1,0l15.8-13
		c1.5-1.1,3.5-1.1,4.9,0l15.8,12.9c0.6,0.5,0.6,1.3,0.2,1.9c-0.5,0.6-1.3,0.6-1.9,0.2c0,0,0,0,0,0l-15.6-12.6
		c-0.5-0.3-1.1-0.3-1.6,0l-15.8,12.9C151.3,70.7,151,70.8,150.7,70.7L150.7,70.7L150.7,70.7z M180.8,89.5h-8.7
		c-0.7,0-1.3-0.5-1.3-1.2c0-0.1,0-0.1,0-0.2v-6.3c0-0.9-1.6-1.9-2.8-1.9s-2.7,0.8-2.7,1.9v6.3c0,0.7-0.5,1.3-1.2,1.3
		c-0.1,0-0.1,0-0.2,0h-8.4c-1.8,0.1-3.4-1.4-3.5-3.2c0,0,0-0.1,0-0.1V73.4c0-0.7,0.6-1.4,1.3-1.4c0.7,0,1.4,0.6,1.4,1.3
		c0,0,0,0,0,0.1v12.8c0,0.4,0.3,0.7,0.7,0.7c0,0,0.1,0,0.1,0h7.2v-5c0-2.7,2.8-4.6,5.3-4.6c2.5,0,5.5,1.9,5.5,4.6v5h7.4
		c0.4,0,0.7,0,0.7-0.8V73.4c0-0.7,0.6-1.3,1.3-1.3c0.7,0,1.3,0.6,1.3,1.3v12.8c0,1.8-1.5,3.3-3.3,3.4
		C180.9,89.5,180.8,89.5,180.8,89.5L180.8,89.5L180.8,89.5z"/>
	<g>
		<path id="圆角矩形_6" class="st6" d="M207.5,55.6h-2.4c-3.3,0-6,2.7-6,6v0V84c0,3.3,2.7,6,6,6c0,0,0,0,0,0h21.7
			c3.3,0,6-2.7,6-6c0,0,0,0,0,0V61.6c0-3.3-2.7-6-6-6h0h-2.4"/>
		<path id="圆角矩形_6_拷贝_4" class="st6" d="M213,55.6h5.9"/>
		<path id="圆角矩形_6_拷贝" class="st7" d="M207.4,64.6H225"/>
		<path id="圆角矩形_6_拷贝_2" class="st7" d="M207.4,71.9H225"/>
		<path id="圆角矩形_6_拷贝_3" class="st7" d="M207.4,79.1H225"/>
	</g>
	<g>
		<path id="椭圆_2" class="st6" d="M277.2,61.3c6.3,7.3,5.5,18.3-1.8,24.6s-18.3,5.5-24.6-1.8c-6.3-7.3-5.5-18.3,1.8-24.6
			c5.4-4.7,13.1-5.6,19.4-2.3"/>
		<path id="形状_4" class="st6" d="M256.5,81.5h15"/>
		<path id="_08" class="st5" d="M261.2,67c0-1.4-0.7-2.1-1.9-2.1c-1.2,0-1.8,0.7-1.9,2.1v5.8c0,1.4,0.6,2.1,1.9,2.1
			c1.2,0,1.8-0.7,1.9-2.1V67z M255.6,66.9c-0.1-1.1,0.4-2.2,1.2-2.9c0.7-0.7,1.6-1,2.6-1c1,0,1.9,0.3,2.6,1c0.8,0.8,1.2,1.8,1.1,2.9
			V73c0,1.1-0.4,2.2-1.1,2.9c-1.5,1.5-3.9,1.4-5.4-0.1c-0.7-0.7-1.1-1.8-1-2.8L255.6,66.9L255.6,66.9z M266.7,66.9
			c0,0.6,0.2,1.1,0.6,1.5c0.4,0.3,0.8,0.5,1.3,0.5c0.5,0,1-0.2,1.3-0.5c0.8-0.8,0.8-2.1,0-2.9c-0.4-0.3-0.8-0.5-1.3-0.5
			c-0.5,0-1,0.2-1.3,0.5C266.9,65.8,266.7,66.3,266.7,66.9L266.7,66.9z M264.5,72.8c0-1.2,0.6-2.4,1.6-3.1c-0.4-0.3-0.7-0.8-1-1.2
			c-0.3-0.5-0.4-1-0.4-1.5c0-1.1,0.4-2.1,1.1-2.8c0.7-0.7,1.7-1.2,2.7-1.1c1,0,2,0.4,2.7,1.1c0.7,0.8,1.1,1.8,1.1,2.8
			c0,0.5-0.1,1.1-0.4,1.6c-0.3,0.5-0.6,0.9-1,1.2c1,0.7,1.7,1.8,1.6,3.1c0,1.1-0.4,2.2-1.2,3c-0.8,0.8-1.8,1.2-2.9,1.2
			C266.4,76.9,264.5,75.1,264.5,72.8C264.5,72.8,264.5,72.8,264.5,72.8L264.5,72.8L264.5,72.8z M266.4,72.8c0,0.6,0.2,1.1,0.7,1.6
			c0.4,0.4,0.9,0.6,1.5,0.6c0.6,0,1.1-0.2,1.5-0.6c0.9-0.9,0.9-2.3,0-3.1c-0.4-0.4-1-0.6-1.5-0.6c-0.6,0-1.1,0.2-1.5,0.6
			C266.7,71.6,266.4,72.2,266.4,72.8L266.4,72.8z"/>
	</g>
	<path id="个人中心" class="st5" d="M312.5,76.6c5.2,0,9.5-4.2,9.5-10.8s-4.3-11.4-9.5-11.4c-2.6-0.2-5.2,0.9-6.8,3
		c-1.8,2.4-2.8,5.4-2.7,8.4C303,72.4,307.3,76.6,312.5,76.6L312.5,76.6L312.5,76.6z M312.5,56.6c4.1,0,7.4,3.8,7.4,9.2
		s-3.3,8.6-7.4,8.6s-7.4-3.2-7.4-8.6S308.4,56.6,312.5,56.6L312.5,56.6z M319.9,75.7c-0.6,0.1-1,0.6-1,1.2c0.1,0.5,0.5,0.9,1,1
		c4.1,0,8.6,4.1,8.6,8.3c0,0.6-0.5,1.1-1.1,1.1h-29.9c-0.6,0-1.1-0.5-1.1-1.1c0-4.2,4.5-8.3,8.6-8.3c0.6-0.1,1-0.6,1-1.2
		c-0.1-0.5-0.5-0.9-1-1c-5.2,0-10.7,5-10.7,10.5c0,1.8,1.4,3.2,3.2,3.3h29.9c1.8,0,3.2-1.5,3.2-3.3
		C330.6,80.7,325.1,75.7,319.9,75.7L319.9,75.7L319.9,75.7z"/>
	<path id="购彩大厅_1_" class="st1" d="M150.7,118.7c-0.4,0-0.8-0.2-1.1-0.5c-0.5-0.5-0.4-1.3,0.1-1.8c0,0,0,0,0.1,0l15.8-13
		c1.5-1.1,3.5-1.1,4.9,0l15.8,12.9c0.6,0.5,0.6,1.3,0.2,1.9c-0.5,0.6-1.3,0.6-1.9,0.2c0,0,0,0,0,0l-15.6-12.6
		c-0.5-0.3-1.1-0.3-1.6,0l-15.8,12.9C151.3,118.7,151,118.8,150.7,118.7L150.7,118.7L150.7,118.7z M180.8,137.5h-8.7
		c-0.7,0-1.3-0.5-1.3-1.2c0-0.1,0-0.1,0-0.2v-6.3c0-0.9-1.6-1.9-2.8-1.9s-2.7,0.8-2.7,1.9v6.3c0,0.7-0.5,1.3-1.2,1.3
		c-0.1,0-0.1,0-0.2,0h-8.4c-1.8,0.1-3.4-1.4-3.5-3.2c0,0,0-0.1,0-0.1v-12.8c0-0.7,0.6-1.4,1.3-1.4c0.7,0,1.4,0.6,1.4,1.3
		c0,0,0,0,0,0.1v12.8c0,0.4,0.3,0.7,0.7,0.7c0,0,0.1,0,0.1,0h7.2v-5c0-2.7,2.8-4.6,5.3-4.6c2.5,0,5.5,1.9,5.5,4.6v5h7.4
		c0.4,0,0.7,0,0.7-0.8v-12.6c0-0.7,0.6-1.3,1.3-1.3c0.7,0,1.3,0.6,1.3,1.3v12.8c0,1.8-1.5,3.3-3.3,3.4
		C180.9,137.5,180.8,137.5,180.8,137.5L180.8,137.5L180.8,137.5z"/>
	<g>
		<path id="圆角矩形_6_1_" class="st8" d="M207.5,103.6h-2.4c-3.3,0-6,2.7-6,6v0V132c0,3.3,2.7,6,6,6c0,0,0,0,0,0h21.7
			c3.3,0,6-2.7,6-6c0,0,0,0,0,0v-22.3c0-3.3-2.7-6-6-6h0h-2.4"/>
		<path id="圆角矩形_6_拷贝_4_1_" class="st8" d="M213,103.6h5.9"/>
		<path id="圆角矩形_6_拷贝_1_" class="st9" d="M207.4,112.6H225"/>
		<path id="圆角矩形_6_拷贝_2_1_" class="st9" d="M207.4,119.9H225"/>
		<path id="圆角矩形_6_拷贝_3_1_" class="st9" d="M207.4,127.1H225"/>
	</g>
	<g>
		<path id="椭圆_2_1_" class="st8" d="M277.2,109.3c6.3,7.3,5.5,18.3-1.8,24.6s-18.3,5.5-24.6-1.8c-6.3-7.3-5.5-18.3,1.8-24.6
			c5.4-4.7,13.1-5.6,19.4-2.3"/>
		<path id="形状_4_1_" class="st8" d="M256.5,129.5h15"/>
		<path id="_08_1_" class="st1" d="M261.2,115c0-1.4-0.7-2.1-1.9-2.1c-1.2,0-1.8,0.7-1.9,2.1v5.8c0,1.4,0.6,2.1,1.9,2.1
			c1.2,0,1.8-0.7,1.9-2.1V115z M255.6,114.9c-0.1-1.1,0.4-2.2,1.2-2.9c0.7-0.7,1.6-1,2.6-1c1,0,1.9,0.3,2.6,1
			c0.8,0.8,1.2,1.8,1.1,2.9v6.1c0,1.1-0.4,2.2-1.1,2.9c-1.5,1.5-3.9,1.4-5.4-0.1c-0.7-0.7-1.1-1.8-1-2.8L255.6,114.9L255.6,114.9z
			 M266.7,114.9c0,0.6,0.2,1.1,0.6,1.5c0.4,0.3,0.8,0.5,1.3,0.5c0.5,0,1-0.2,1.3-0.5c0.8-0.8,0.8-2.1,0-2.9
			c-0.4-0.3-0.8-0.5-1.3-0.5c-0.5,0-1,0.2-1.3,0.5C266.9,113.8,266.7,114.3,266.7,114.9L266.7,114.9z M264.5,120.8
			c0-1.2,0.6-2.4,1.6-3.1c-0.4-0.3-0.7-0.8-1-1.2c-0.3-0.5-0.4-1-0.4-1.5c0-1.1,0.4-2.1,1.1-2.8c0.7-0.7,1.7-1.2,2.7-1.1
			c1,0,2,0.4,2.7,1.1c0.7,0.8,1.1,1.8,1.1,2.8c0,0.5-0.1,1.1-0.4,1.6c-0.3,0.5-0.6,0.9-1,1.2c1,0.7,1.7,1.8,1.6,3.1
			c0,1.1-0.4,2.2-1.2,3c-0.8,0.8-1.8,1.2-2.9,1.2C266.4,124.9,264.5,123.1,264.5,120.8C264.5,120.8,264.5,120.8,264.5,120.8
			L264.5,120.8L264.5,120.8z M266.4,120.8c0,0.6,0.2,1.1,0.7,1.6c0.4,0.4,0.9,0.6,1.5,0.6c0.6,0,1.1-0.2,1.5-0.6
			c0.9-0.9,0.9-2.3,0-3.1c-0.4-0.4-1-0.6-1.5-0.6c-0.6,0-1.1,0.2-1.5,0.6C266.7,119.6,266.4,120.2,266.4,120.8L266.4,120.8z"/>
	</g>
	<path id="个人中心_1_" class="st1" d="M312.5,124.6c5.2,0,9.5-4.2,9.5-10.8s-4.3-11.4-9.5-11.4c-2.6-0.2-5.2,0.9-6.8,3
		c-1.8,2.4-2.8,5.4-2.7,8.4C303,120.4,307.3,124.6,312.5,124.6L312.5,124.6L312.5,124.6z M312.5,104.6c4.1,0,7.4,3.8,7.4,9.2
		s-3.3,8.6-7.4,8.6s-7.4-3.2-7.4-8.6S308.4,104.6,312.5,104.6L312.5,104.6z M319.9,123.7c-0.6,0.1-1,0.6-1,1.2c0.1,0.5,0.5,0.9,1,1
		c4.1,0,8.6,4.1,8.6,8.3c0,0.6-0.5,1.1-1.1,1.1h-29.9c-0.6,0-1.1-0.5-1.1-1.1c0-4.2,4.5-8.3,8.6-8.3c0.6-0.1,1-0.6,1-1.2
		c-0.1-0.5-0.5-0.9-1-1c-5.2,0-10.7,5-10.7,10.5c0,1.8,1.4,3.2,3.2,3.3h29.9c1.8,0,3.2-1.5,3.2-3.3
		C330.6,128.7,325.1,123.7,319.9,123.7L319.9,123.7L319.9,123.7z"/>
	<g>
		<g>
			<path class="st0" d="M98.9,72.4c0,11.6,9.4,21.1,21.1,21.1s21.1-9.4,21.1-21.1s-9.4-21.1-21.1-21.1S98.9,60.8,98.9,72.4z
				 M107.7,86.8c3.1-2.1,5.8-3.4,6.6-3.8c0.5-0.2,0.8-0.7,0.8-1.2v-2.6c0-0.2-0.1-0.4-0.1-0.5c-0.5-0.9-0.9-2-1.1-3.2
				c-0.1-0.4-0.4-0.8-0.8-0.9c-0.1-0.1-0.4-0.6-0.8-1.9c-0.3-1-0.3-1.5-0.3-1.8c0.3,0,0.6-0.1,0.8-0.4c0.2-0.3,0.3-0.7,0.2-1
				c-0.4-1.2-0.5-2.4-0.1-3.6c0.3-1.2,0.9-2.3,1.9-3.3c0.5-0.6,1.1-1.1,1.8-1.5c0,0,0,0,0,0c0.5-0.4,1.1-0.7,1.7-0.9h0
				c0.5-0.2,1-0.3,1.5-0.3c1.4-0.1,2.7,0.1,3.8,0.8c1.2,0.7,1.7,1.6,1.7,1.6c0.2,0.3,0.5,0.5,0.9,0.6c0,0,0.5,0.1,0.9,0.6
				c0.5,0.7,1.2,2.4,0.3,6.6c-0.1,0.5,0.1,0.9,0.6,1.2c0,0.2,0.1,0.7-0.3,1.8c-0.3,1-0.5,1.5-0.7,1.8c-0.2,0-0.4,0-0.6,0.1
				c-0.3,0.1-0.6,0.4-0.6,0.8c-0.2,1-0.4,1.8-0.8,2.6c-0.1,0.1-0.1,0.3-0.1,0.5v3.1c0,0.5,0.3,1,0.8,1.2c0.8,0.4,3.5,1.7,6.6,3.8
				c-3.3,2.8-7.6,4.5-12.3,4.5C115.3,91.3,111.1,89.6,107.7,86.8z M120,53.5c10.4,0,18.9,8.5,18.9,18.9c0,5-1.9,9.5-5.1,12.9
				c-3-2-5.6-3.4-6.8-4v-2.4c0.3-0.6,0.5-1.3,0.7-2c0.8-0.3,1.4-1.3,2-3.3c0.5-1.8,0.5-3.1-0.1-3.8c0.6-3.5,0.3-6-0.9-7.6
				c-0.6-0.8-1.3-1.2-1.8-1.3c-0.4-0.5-1.1-1.3-2.3-2c-1.5-0.9-3.2-1.2-5-1.1c-0.7,0-1.4,0.2-2,0.4h0c-0.7,0.3-1.5,0.6-2.2,1.1
				c-0.8,0.5-1.5,1.1-2.2,1.8c-1.2,1.3-2.1,2.7-2.4,4.2c-0.3,1.3-0.4,2.5-0.1,3.8c-0.1,0.1-0.2,0.2-0.3,0.3c-0.6,0.8-0.7,2-0.2,3.8
				c0.3,1.2,0.8,2.5,1.6,3c0.2,1.2,0.6,2.2,1.1,3.2v1.9c-1.2,0.6-3.8,2-6.8,4c-3.2-3.4-5.1-7.9-5.1-12.9
				C101.1,62,109.6,53.5,120,53.5z"/>
		</g>
	</g>
	<g>
		<g>
			<path class="st2" d="M147.2,168.3c0,11.6,9.4,21.1,21.1,21.1s21.1-9.4,21.1-21.1c0-11.6-9.4-21.1-21.1-21.1
				S147.2,156.7,147.2,168.3z M156,182.7c3.1-2.1,5.8-3.4,6.6-3.8c0.5-0.2,0.8-0.7,0.8-1.2V175c0-0.2-0.1-0.4-0.1-0.5
				c-0.5-0.9-0.9-2-1.1-3.2c-0.1-0.4-0.4-0.8-0.8-0.9c-0.1-0.1-0.4-0.6-0.8-1.9c-0.3-1-0.3-1.5-0.3-1.8c0.3,0,0.6-0.1,0.8-0.4
				c0.2-0.3,0.3-0.7,0.2-1c-0.4-1.2-0.5-2.4-0.1-3.6c0.3-1.2,0.9-2.3,1.9-3.3c0.5-0.6,1.1-1.1,1.8-1.5c0,0,0,0,0,0
				c0.5-0.4,1.1-0.7,1.7-0.9h0c0.5-0.2,1-0.3,1.5-0.3c1.4-0.1,2.7,0.1,3.8,0.8c1.2,0.7,1.7,1.6,1.7,1.6c0.2,0.3,0.5,0.5,0.9,0.6
				c0,0,0.5,0.1,0.9,0.6c0.5,0.7,1.2,2.4,0.3,6.6c-0.1,0.5,0.1,0.9,0.6,1.2c0,0.2,0.1,0.7-0.3,1.8c-0.3,1-0.5,1.5-0.7,1.8
				c-0.2,0-0.4,0-0.6,0.1c-0.3,0.1-0.6,0.4-0.6,0.8c-0.2,1-0.4,1.8-0.8,2.6c-0.1,0.1-0.1,0.3-0.1,0.5v3.1c0,0.5,0.3,1,0.8,1.2
				c0.8,0.4,3.5,1.7,6.6,3.8c-3.3,2.8-7.6,4.5-12.3,4.5C163.6,187.2,159.3,185.5,156,182.7z M168.3,149.3c10.4,0,18.9,8.5,18.9,18.9
				c0,5-1.9,9.5-5.1,12.9c-3-2-5.6-3.4-6.8-4v-2.4c0.3-0.6,0.5-1.3,0.7-2c0.8-0.3,1.4-1.3,2-3.3c0.5-1.8,0.5-3.1-0.1-3.8
				c0.6-3.5,0.3-6-0.9-7.6c-0.6-0.8-1.3-1.2-1.8-1.3c-0.4-0.5-1.1-1.3-2.3-2c-1.5-0.9-3.2-1.2-5-1.1c-0.7,0-1.4,0.2-2,0.4h0
				c-0.7,0.3-1.5,0.6-2.2,1.1c-0.8,0.5-1.5,1.1-2.2,1.8c-1.2,1.3-2.1,2.7-2.4,4.2c-0.3,1.3-0.4,2.5-0.1,3.8
				c-0.1,0.1-0.2,0.2-0.3,0.3c-0.6,0.8-0.7,2-0.2,3.8c0.3,1.2,0.8,2.5,1.6,3c0.2,1.2,0.6,2.2,1.1,3.2v1.9c-1.2,0.6-3.8,2-6.8,4
				c-3.2-3.4-5.1-7.9-5.1-12.9C149.3,157.8,157.8,149.3,168.3,149.3z"/>
		</g>
	</g>
	<g>
		<path class="st0" d="M134.7,156.2c-0.2-0.3-0.5-0.5-0.8-0.5h-29.1c-0.4,0-0.7,0.2-0.8,0.5c-0.2,0.3-0.1,0.7,0.1,1l11.2,13.5v12.5
			c0,0.3,0.2,0.6,0.4,0.8c0.2,0.1,0.3,0.1,0.5,0.1c0.1,0,0.3,0,0.4-0.1l6.3-3.1c0.3-0.2,0.5-0.5,0.5-0.8l0-9.4l11.2-13.5
			C134.8,156.9,134.8,156.5,134.7,156.2z M121.7,169.8c-0.1,0.2-0.2,0.4-0.2,0.6l0,9.1l-4.4,2.2v-11.3c0-0.2-0.1-0.4-0.2-0.6
			l-10.1-12.3h25.1L121.7,169.8z"/>
	</g>
	<g>
		<g>
			<path class="st1" d="M407.6,128.4c-0.8,0-1.4,0.6-1.4,1.4v1c0,0.8,0.6,1.4,1.4,1.4c0.8,0,1.4-0.6,1.4-1.4v-1
				C409.1,129,408.4,128.4,407.6,128.4z"/>
			<path class="st1" d="M408.1,140c11,0,20-9,20-20s-9-20-20-20c-11,0-20,9-20,20S397.1,140,408.1,140z M408.1,102.9
				c9.4,0,17.1,7.7,17.1,17.1s-7.7,17.1-17.1,17.1S391,129.5,391,120S398.7,102.9,408.1,102.9z"/>
			<path class="st1" d="M401.9,116.4C401.9,116.4,401.9,116.4,401.9,116.4c0.8,0,1.4-0.6,1.4-1.4c0,0,0-1.1,0.6-2.3
				c0.7-1.4,2-2.2,3.9-2.2c1.7,0,3,0.5,3.8,1.4c0.6,0.8,0.8,1.8,0.5,3c-0.4,1.4-1.6,2.6-2.8,3.8c-1.4,1.5-2.9,3-2.9,5
				c0,0.8,0.6,1.4,1.4,1.4c0.8,0,1.4-0.6,1.4-1.4c0-0.9,1-1.9,2.1-3c1.4-1.4,2.9-3,3.5-5.1c0.5-2,0.2-4-1-5.4
				c-0.9-1.1-2.7-2.5-6-2.5c-3.8,0-5.6,2-6.4,3.7c-0.9,1.7-0.9,3.4-0.9,3.6C400.5,115.8,401.1,116.4,401.9,116.4z"/>
		</g>
	</g>
	<g>
		<g>
			<path class="st1" d="M360,100.1c-11,0-20,9-20,20s9,20,20,20c11,0,20-9,20-20S371.1,100.1,360,100.1z M360,137.6
				c-9.7,0-17.5-7.9-17.5-17.5s7.9-17.5,17.5-17.5c9.7,0,17.5,7.9,17.5,17.5S369.7,137.6,360,137.6z"/>
			<circle class="st1" cx="360.3" cy="112.1" r="2.1"/>
			<path class="st1" d="M359.8,117.5c-0.7,0-1.2,0.6-1.2,1.2v10.5c0,0.7,0.6,1.2,1.2,1.2c0.7,0,1.2-0.6,1.2-1.2v-10.5
				C361,118,360.5,117.5,359.8,117.5z"/>
		</g>
	</g>
	<g>
		<g>
			<path class="st1" d="M472.1,109.8l-10.3-9.5c-0.2-0.2-0.5-0.4-0.8-0.4h-10.6c-3.3,0-5.5,1.7-5.5,4.1v3.1h-2c-3,0-5.2,1.9-5.2,4.4
				v24.1c0,2.7,2.5,4.6,5.2,4.6h17.6c2.8,0,4.9-2,4.9-4.6V133h2.6c2.7,0,4.6-2.1,4.6-4.9V111c0,0,0.1,0,0.1-0.1c0,0,0.1,0,0.1-0.1
				C472.8,110.4,472.5,109.9,472.1,109.8z M461.7,103.8l6.7,5.6h-6.7V103.8z M462.9,135.6c0,1.4-1.2,2.2-2.5,2.2h-17.6
				c-1.4,0-2.8-0.8-2.8-2.2v-24.1c0-1.6,1.9-2,2.8-2h9.3v9.3c0,0.7,0.8,1,1.5,1h9.3L462.9,135.6L462.9,135.6z M461.5,117.3h-7.1v-6
				L461.5,117.3z M467.9,130.6h-2.6v-12c0-0.3,0-0.7-0.2-0.9l-10.5-9.7c-0.2-0.4-0.6-0.7-1-0.7c0,0,0-0.1,0-0.1c0,0,0-0.1-0.1-0.1
				h-6.2v-3.1c0-1.2,1.8-1.7,3.1-1.7h9v8.7c0,0.7,0.8,1,1.5,1h9.3v16.2C470.1,129.5,469.3,130.6,467.9,130.6z"/>
		</g>
	</g>
	<g>
		<path class="st2" d="M131.4,108.2c-2.3-2.3-5.9-2.3-8.2,0l-15,15c-0.1,0.1-0.2,0.3-0.2,0.4l-1.1,8.2c0,0.2,0.1,0.5,0.2,0.6
			c0.1,0.1,0.3,0.2,0.5,0.2c0,0,0.1,0,0.1,0l5-0.7c0.4-0.1,0.7-0.4,0.6-0.8c-0.1-0.4-0.4-0.7-0.8-0.6l-4,0.5l0.8-5.7l6,6
			c0.1,0.1,0.3,0.2,0.5,0.2c0.2,0,0.4-0.1,0.5-0.2l15-15c1.1-1.1,1.7-2.5,1.7-4.1S132.5,109.3,131.4,108.2z M123.5,110l2.5,2.5
			l-13.7,13.7l-2.5-2.5L123.5,110z M115.9,129.8l-2.5-2.5l13.7-13.7l2.5,2.5L115.9,129.8z M130.6,115l-6-6c0.8-0.6,1.7-1,2.7-1
			c1.1,0,2.2,0.4,3,1.3c0.8,0.8,1.3,1.9,1.3,3C131.6,113.3,131.3,114.2,130.6,115z"/>
	</g>
	<circle class="st10" cx="264.1" cy="167.4" r="13.2"/>
	<path class="st0" d="M269.9,172.3l-4.9-4.9l4.9-4.9c0.2-0.2,0.2-0.7,0-0.9s-0.7-0.2-0.9,0l-4.9,4.9l-4.9-4.9
		c-0.2-0.2-0.7-0.2-0.9,0s-0.2,0.7,0,0.9l4.9,4.9l-4.9,4.9c-0.2,0.2-0.2,0.7,0,0.9c0.2,0.2,0.7,0.2,0.9,0l4.9-4.9l4.9,4.9
		c0.2,0.2,0.7,0.2,0.9,0C270.1,172.9,270.1,172.5,269.9,172.3z"/>
</g>
<g id="圖層_2_1_">
</g>
</svg>
