<?xml version="1.0" encoding="utf-8"?>
<!-- Generator: Adobe Illustrator 21.1.0, SVG Export Plug-In . SVG Version: 6.00 Build 0)  -->
<svg version="1.1" id="圖層_1" xmlns="http://www.w3.org/2000/svg" xmlns:xlink="http://www.w3.org/1999/xlink" x="0px" y="0px"
	 viewBox="0 0 122.5 51" style="enable-background:new 0 0 122.5 51;" xml:space="preserve">
<style type="text/css">
	.st0{fill:#FFFFFF;}
</style>
<g>
	<path class="st0" d="M118.8,16.4l0.9-3H93.2l-0.9,3h8.1l-0.3,1.8h-6.4l-2.1,6.7h24.5c0,0,0.6-2.6,0.9-4.6s-2.1-2.1-2.1-2.1h-4.6
		l0.3-1.8C110.5,16.4,118.8,16.4,118.8,16.4z M96.1,20.2h3.5l-0.3,2.1h-3.5L96.1,20.2z M102.8,22.2l0.3-2.1h3.5l-0.3,2.1H102.8z
		 M103.7,18.2l0.3-1.8h3.5l-0.3,1.8C107.2,18.2,103.7,18.2,103.7,18.2z M112.1,20.2c0,0,1.4,0,1.2,0.9C113,22,113,22,113,22h-3.2
		l0.3-2.1h2.1V20.2z"/>
	<polygon class="st0" points="115.7,26.1 91.7,26.1 90.8,28.6 115,28.6 	"/>
	<path class="st0" d="M88.8,32.5h4.1l-4.1,5h5l4.1-5c0,0,1.8,0,3.5,0c-0.3,2.6-1.8,2.6-1.8,2.6h-1.4l-0.9,2.3c0,0,1.2,0,3.7,0
		c2.6,0,3-1.4,3-1.4l0.6-3.5h2.3l2.1,5h4.1l-2.4-5h5l0.9-2.6H89.7L88.8,32.5z"/>
	<polygon class="st0" points="63.9,13.5 62.8,16.4 78.6,16.4 79.8,13.5 	"/>
	<polygon class="st0" points="83.5,13.5 78,20.5 82.3,20.5 88.1,13.5 	"/>
	<polygon class="st0" points="84.1,20.5 77.5,28.6 81.8,28.6 88.8,20.5 	"/>
	<polygon class="st0" points="83.8,27.5 76.3,37.4 80.7,37.4 88.5,27.5 	"/>
	<polygon class="st0" points="62.8,17.8 66,17.8 66.6,22.9 63.4,22.9 	"/>
	<polygon class="st0" points="67.8,17.6 71.3,17.6 71.9,22 68.3,22 	"/>
	<polygon class="st0" points="74.5,17.6 72.4,22.2 75.4,22.2 78,17.6 	"/>
	<polygon class="st0" points="60.5,24.5 59.6,27.5 63.4,27.5 57.9,36.2 61.9,36.2 66.6,28.9 64.3,38 67.8,38 69.9,29.3 71.3,36.2 
		75.4,36.2 73.1,27.2 76.8,27.2 78,24.5 71,24.5 71.3,22.9 67.8,22.9 67.2,24.5 	"/>
	<path class="st0" d="M55.8,17.6l0.9-3.7h-4.1l-1.2,3.7h-7l-0.6,2.6h7L50,24c0.6,0.9,1.2,2.1,1.2,3.5c0,2.3-1.4,4.4-3.5,5.3
		l-0.3,1.4c-0.3,0.9-0.9,1.4-1.8,1.4h-2.3l-0.6,2.3h4.1c2.3,0,3.7-1.2,4.6-3.7l3.7-14h2.1l0.6-2.6H55.8z"/>
	<path class="st0" d="M42.7,21.7l1.8-6.7h-9.9l-5.5,20.7h6.2c2.6,0,4.1-1.2,4.6-3.5l0.3-1.4c-0.6-0.9-1.2-2.1-1.2-3.5
		C39.2,24.9,40.6,22.9,42.7,21.7z M36.3,32.5c0,0.9-0.6,1.2-1.4,1.2h-1.5l2.1-7.3h2.6L36.3,32.5z M35.6,24l1.8-6.2H40L38.2,24
		C38.2,24,35.6,24,35.6,24z"/>
	<path class="st0" d="M50,27.2c0-2.6-2.3-5-5-5c-2.6,0-5,2.3-5,5s2.3,5,5,5C47.6,32.1,50,29.8,50,27.2z M42.4,25.4
		c-0.3-0.3,0-0.6,0-0.6h0.6l2.1,2.3l1.4-1.2c0.3-0.3,0.6,0,0.6,0c0.3,0.3,0,0.6,0,0.6L45.1,28c-0.3,0.3-0.6,0-0.6,0L42.4,25.4z"/>
	<path class="st0" d="M30.1,17.6h-2.3l0.9-3.7h-4.1l-0.9,3.7h-7l-0.9,2.6h7l-0.9,3.7c0.6,0.9,1.2,2.1,1.2,3.5c0,2.3-1.4,4.4-3.5,5.3
		l-0.3,1.4c-0.3,0.9-0.9,1.4-1.8,1.4h-2.2l-0.6,2.3h4.1c2.3,0,3.7-1.2,4.6-3.7l3.7-14h2.3L30.1,17.6z"/>
	<path class="st0" d="M14.6,21.7l1.8-6.4H6.5L1,36h6.2c2.6,0,4.1-1.2,4.6-3.5l0.3-1.8c-0.6-1.2-0.9-2.3-0.9-3.5
		C11.2,24.9,12.6,22.9,14.6,21.7z M8.2,32.5c-0.3,0.9-0.6,1.2-1.4,1.2H5L7,26.3h2.6L8.2,32.5z M7.7,24l1.8-6.2h2.6L10.3,24
		C10.3,24,7.7,24,7.7,24z"/>
	<path class="st0" d="M22,27.2c0-2.6-2.3-5-5-5s-5,2.3-5,5s2.3,5,5,5C19.7,32.1,22,29.8,22,27.2z M14.4,25.4c-0.3-0.3,0-0.6,0-0.6
		H15l2.1,2.3l1.4-1.2c0.3-0.3,0.6,0,0.6,0c0.3,0.3,0,0.6,0,0.6L17.1,28c-0.3,0.3-0.6,0-0.6,0L14.4,25.4z"/>
</g>
</svg>
