<?xml version="1.0" encoding="utf-8"?>
<!-- Generator: Adobe Illustrator 22.0.1, SVG Export Plug-In . SVG Version: 6.00 Build 0)  -->
<svg version="1.1" id="圖層_1" xmlns="http://www.w3.org/2000/svg" xmlns:xlink="http://www.w3.org/1999/xlink" x="0px" y="0px"
	 width="122.5px" height="51px" viewBox="0 0 122.5 51" style="enable-background:new 0 0 122.5 51;" xml:space="preserve">
<style type="text/css">
	.st0{fill:#FFFFFF;}
</style>
<g>
	<path class="st0" d="M59.2,19.6c-0.4,2.1-0.9,4.1-1.3,6.2c0.9,0,1.7,0,2.5,0c0.1,0,0.3-0.3,0.3-0.4c0.3-1.4,0.6-2.9,0.9-4.3
		c0.3-1.2,0.5-2.4,0.8-3.6c0-0.2,0.3-0.4,0.5-0.4c0.7,0,1.3,0,2,0c0.4,0,0.5,0.1,0.4,0.5c-0.6,2.7-1.2,5.4-1.7,8.1c0,0,0,0,0,0.1
		c0.8,0,1.5,0,2.3,0c0.1,0,0.3-0.3,0.4-0.4c0.4-1.7,0.7-3.3,1-5c0.2-1,0.4-2,0.7-3c0-0.1,0.3-0.3,0.4-0.3c0.7,0,1.4,0,2,0
		c0.4,0,0.5,0.2,0.4,0.5c-0.4,1.8-0.8,3.6-1.2,5.3c-0.2,0.9-0.4,1.9-0.6,2.9c0.8,0,1.7,0,2.5,0c0.1,0,0.3-0.2,0.3-0.4
		c0.4-2,0.9-4.1,1.3-6.2c0.1-0.6,0.3-1.3,0.4-1.9c0-0.1,0.3-0.3,0.4-0.3c0.7,0,1.3,0,2,0c0.5,0,0.5,0.2,0.4,0.6
		c-0.5,2.3-1,4.6-1.4,6.8c-0.1,0.4-0.2,0.8-0.3,1.4c1.2,0,2.2,0,3.3,0c1.7,0,3.3,0,5,0c0.4,0,0.6-0.1,0.7-0.5c0-0.5,0.3-0.7,0.9-0.7
		c0.7,0.1,1.3,0,2.1,0c0,0.4-0.1,0.7-0.1,1.1c1.9,0,3.9,0,5.8,0c0,0.4,0,0.8,0,1.3c-0.5,0-1,0-1.6,0c-0.3,0-0.4,0.1-0.5,0.4
		c-0.6,3.1-1.3,6.1-1.9,9.2c-0.1,0.6-0.2,1.1-0.4,1.7c0,0.2-0.3,0.4-0.5,0.4c-0.7,0-1.3,0-2,0c-0.4,0-0.5-0.2-0.4-0.5
		c0.4-1.7,0.7-3.4,1.1-5.1c0.4-1.9,0.8-3.8,1.2-5.7c0-0.1,0-0.1,0-0.3c-0.3,0-0.7,0-1,0c-0.1,0-0.3,0.2-0.3,0.3
		c-0.5,2.2-1,4.4-1.4,6.6c-0.3,1.4-0.6,2.8-0.9,4.2c-0.1,0.3-0.2,0.5-0.5,0.4c-0.7,0-1.4,0-2,0c-0.3,0-0.5-0.1-0.4-0.5
		c0.7-3.2,1.3-6.4,2-9.5c0.1-0.5,0.2-1,0.3-1.5c-0.1,0-0.1,0-0.2-0.1c-0.9,0-0.9,0-1.1,1c-0.7,3.3-1.4,6.6-2.1,10
		c-0.1,0.5-0.3,0.7-0.8,0.7c-0.6,0-1.1,0-1.7,0c-0.5,0-0.6-0.2-0.5-0.6c0.4-1.8,0.8-3.7,1.2-5.5c0.4-1.8,0.8-3.6,1.2-5.5
		c-0.3,0-0.4,0-0.6,0c-1.2,0-2.3,0-3.5,0c-0.4,0-0.6,0.2-0.7,0.6c-0.4,1.9-0.8,3.9-1.2,5.8c-0.3,1.6-0.7,3.1-1,4.7
		c-0.1,0.3-0.2,0.5-0.6,0.5c-0.7,0-1.3,0-2,0c-0.4,0-0.5-0.2-0.4-0.6c0.7-3.3,1.4-6.6,2.1-9.8c0.1-0.4,0.1-0.7,0.2-1.2
		c-0.9,0-1.7,0-2.5,0c-0.1,0-0.2,0.2-0.3,0.4c-0.5,2.5-1.1,5.1-1.6,7.7c-0.2,1.1-0.4,2.1-0.7,3.2c0,0.1-0.2,0.3-0.3,0.4
		c-0.8,0-1.7,0-2.6,0c0.8-3.9,1.7-7.7,2.5-11.6c-0.9,0-1.7,0-2.5,0c-0.1,0-0.3,0.2-0.3,0.4c-0.5,2.1-0.9,4.2-1.3,6.3
		c-0.3,1.5-0.6,2.9-0.9,4.4c-0.1,0.4-0.3,0.5-0.6,0.5c-0.6,0-1.2,0-1.8,0c-0.5,0-0.6-0.2-0.5-0.6c0.4-1.6,0.7-3.1,1-4.7
		c0.4-1.9,0.8-3.9,1.2-5.8c0-0.1,0-0.2,0-0.4c-0.8,0-1.6,0-2.4,0c-0.4,0-0.4,0.4-0.4,0.6c-0.3,1.2-0.5,2.4-0.8,3.5
		c-0.3,1.2-0.9,1.6-2.1,1.7c-0.5,0-1.1,0-1.6,0c-0.4,0-0.6,0.1-0.7,0.5c-0.3,1.5-0.7,3.1-1,4.6c-0.1,0.5-0.3,0.8-0.9,0.7
		c-0.7-0.1-1.4,0-2.2,0c0.4-2,0.8-3.9,1.2-5.8c-0.3,0-0.5,0-0.7,0c-0.9,0-1.9,0-2.8,0c-0.4,0-0.5-0.1-0.4-0.5c0.5-2.3,1-4.6,1.5-6.9
		c0.3-1.4,0.6-2.9,0.9-4.3c0.2-0.9,0.9-1.6,1.9-1.6c0.6,0,1.3,0,1.9,0c0.5,0,0.7-0.2,0.7-0.6c0.1-0.5,0.2-1,0.3-1.5
		c0-0.3,0.2-0.4,0.5-0.4c0.7,0,1.4,0,2,0c0.4,0,0.5,0.2,0.4,0.5c-0.1,0.5-0.2,1-0.4,1.4c-0.2,0.5-0.1,0.6,0.4,0.6c0.9,0,1.9,0,2.8,0
		C58.8,19.5,59,19.6,59.2,19.6z M56.1,20.6c-0.5,0.2-1-0.2-1.2,0.4c-0.4,1.6-0.7,3.1-1.1,4.7c1.1,0.2,1.1,0.2,1.3-0.9
		c0.1-0.4,0.2-0.7,0.2-1.1C55.6,22.8,55.9,21.8,56.1,20.6z M52,20.8c-1-0.2-1.1-0.2-1.3,0.7c-0.1,0.3-0.2,0.6-0.2,1
		c-0.2,1.1-0.5,2.2-0.7,3.3c0.4,0,0.8,0,1.1,0C51.3,24.1,51.7,22.5,52,20.8z M52.6,31.6c0.9,0.3,1.1,0.1,1.3-0.6
		c0.2-1.2,0.5-2.3,0.8-3.5c0-0.1,0-0.2,0-0.4c-0.3,0-0.5,0-0.7,0s-0.4,0.2-0.4,0.3C53.2,28.8,52.9,30.2,52.6,31.6z M50.7,27.1
		c-1-0.2-1.1-0.2-1.2,0.7c-0.2,1.1-0.5,2.2-0.7,3.3c0,0.2-0.3,0.5,0.1,0.6c0.5,0.2,0.9,0,1-0.5c0.2-0.7,0.3-1.5,0.5-2.2
		C50.4,28.4,50.5,27.8,50.7,27.1z"/>
	<path class="st0" d="M114.8,20.4c0.6,0,1.2,0,1.7,0c0.9,0,1.9,0,2.8,0c0.3,0,0.5,0.1,0.4,0.5c-0.3,1.2-0.5,2.4-0.8,3.6
		c-0.3,1.3-1,2-2.5,2c-4.7-0.1-9.4,0-14.1,0c-0.2,0-0.5,0-0.8-0.1c0.3-1.6,0.6-3,1-4.5c0.3-1,0.9-1.5,2-1.5c0.7,0,1.5,0,2.2,0
		c0.3,0,0.5-0.1,0.6-0.4s0.1-0.6,0.2-0.9c0.2-0.5-0.1-0.6-0.5-0.6c-1.3,0-2.5,0-3.8,0c-0.2,0-0.6,0.2-0.6-0.3c0-0.6,0.2-1,0.6-1.1
		c0.3,0,0.6,0,0.9,0c3.6,0,7.1,0,10.7,0c1.9,0,3.9,0,5.8,0c0.2,0,0.6-0.1,0.6,0.3c0,0.7-0.2,1-0.6,1c-1.6,0-3.1,0-4.7,0
		c-0.4,0-0.6,0.1-0.7,0.5C115.1,19.4,114.9,19.8,114.8,20.4z M113.8,25.2c0.6,0,1.1,0,1.6,0c0.4,0,0.5-0.2,0.6-0.5
		c0.2-0.9,0.4-1.8,0.6-2.8c0-0.1,0-0.2,0.1-0.5c-0.6,0-1.1,0-1.6,0c-0.3,0-0.5,0.1-0.5,0.4c-0.2,0.9-0.4,1.7-0.6,2.6
		C113.9,24.6,113.9,24.9,113.8,25.2z M111.6,21.5c-0.6,0-1.1,0-1.6,0c-0.1,0-0.2,0.1-0.3,0.2c-0.3,1.1-0.5,2.3-0.7,3.5
		c0.6,0,1.1,0,1.6,0c0.1,0,0.2-0.1,0.3-0.2C111.2,23.8,111.4,22.7,111.6,21.5z M106.9,21.5c-0.3,0-0.5,0-0.6,0c-0.8,0-0.8,0-1,0.8
		c-0.1,0.7-0.3,1.4-0.5,2.1c-0.2,1-0.2,1,0.8,0.9c0.2,0,0.5-0.1,0.5-0.3C106.4,23.8,106.6,22.7,106.9,21.5z M111,20.3
		c0.9,0,0.9,0,1.1-0.9c0-0.3,0.1-0.5,0.1-0.8c0-0.1-0.1-0.3-0.2-0.3c-1-0.3-1.6,0-1.8,1C110.1,20.3,109.9,20.4,111,20.3z"/>
	<path class="st0" d="M41.6,26.7c0.7-0.1,0.7,0.2,0.6,0.7c-0.5,2.4-1,4.7-1.5,7.1c-0.2,1.2-0.5,2.3-0.7,3.5
		c-0.1,0.5-0.3,0.8-0.9,0.7c-0.7-0.1-1.4,0-2.2,0c0.6-2.7,1.1-5.2,1.7-8c-0.2,0.2-0.3,0.2-0.4,0.3c-0.3,0.6-0.8,0.7-1.4,0.7
		c-0.7-0.1-1.4,0-2.2,0c0-0.1-0.1-0.1-0.1-0.2c2.5-3.3,5.1-6.6,7.7-10c-0.3,0-0.5-0.1-0.8-0.1c-2.3,0-4.6,0-6.9,0
		c-0.2,0-0.6,0.2-0.7-0.3c-0.1-0.6,0.2-0.8,0.8-0.8c2.7,0,5.4,0,8.1,0c0.7,0,1.4,0,2.1,0c0.3,0,0.7,0.2,0.8,0.4
		c0.1,0.2,0,0.6-0.2,0.9c-1,1.3-2,2.6-3,3.9C42.1,25.9,41.9,26.2,41.6,26.7z"/>
	<path class="st0" d="M99.8,30.9c0.1-0.4,0.1-0.8,0.2-1.1c0.1-0.2,0.4-0.3,0.6-0.3c2.6,0,5.3,0,7.9,0c3,0,6.1,0,9.1,0
		c0.3,0,0.8-0.2,0.7,0.3c-0.1,1,0,1-0.8,1c-2.2,0-4.3,0-6.5,0c-0.5,0-0.7,0.2-0.8,0.7c-0.3,1.8-0.7,3.6-1.1,5.4
		c-0.2,1.1-1,1.7-2.1,1.7c-0.8,0-1.7,0-2.5,0c-0.2,0-0.5-0.2-0.5-0.3c0-0.3-0.1-0.8,0.5-0.8c0.4,0,0.7,0,1.1,0
		c0.2,0,0.5-0.2,0.5-0.4c0.5-2,0.9-4,1.3-6.2C105,30.9,102.4,30.9,99.8,30.9z"/>
	<path class="st0" d="M101.1,28.5c0-0.1-0.1-0.1-0.1-0.1c0.3-1.5,0.1-1.2,1.3-1.2c5.1,0,10.1,0,15.2,0c0.3,0,0.7-0.2,0.7,0.3
		c0,0.7-0.2,1-0.8,1c-3.4,0-6.9,0-10.3,0c-1.9,0-3.7,0-5.6,0C101.5,28.6,101.3,28.5,101.1,28.5z"/>
	<path class="st0" d="M98.1,38.6c0.7-1,1.3-1.9,1.9-2.7c0.8-1.2,1.7-2.4,2.5-3.6c0.2-0.3,0.5-0.5,1-0.5c0.7,0,1.4,0,2.3,0
		c-0.6,0.8-1,1.5-1.5,2.2c-1,1.4-2,2.8-3,4.3c-0.2,0.3-0.5,0.4-0.8,0.4C99.8,38.6,99.1,38.6,98.1,38.6z"/>
	<path class="st0" d="M86.9,17.1c2.3,0,4.6,0,6.9,0c0.2,0,0.6-0.2,0.6,0.3c0.1,0.5-0.3,1.1-0.7,1.1c-1.2,0-2.5,0-3.7,0
		c-3.5,0-6.9,0-10.4,0c-0.2,0-0.6,0.1-0.6-0.3c0-0.5,0.3-1,0.6-1c1.4,0,2.8,0,4.3,0C84.9,17,85.9,17,86.9,17.1
		C86.9,17,86.9,17,86.9,17.1z"/>
	<path class="st0" d="M115,38.6c-1.4,0-1.2,0.3-1.7-1.4c-0.4-1.6-0.9-3.1-1.3-4.6c-0.2-0.8-0.2-0.8,0.6-0.8c0.5,0,1.1,0,1.6,0
		c0.4,0,0.6,0.2,0.7,0.5c0.5,2,1.1,3.9,1.6,5.8c0.1,0.3,0,0.5-0.4,0.5C115.8,38.6,115.5,38.6,115,38.6z"/>
	<path class="st0" d="M91.4,19.1c-0.2,1.1-0.4,2.1-0.6,3.1c-0.1,0.6-0.3,1.3-0.5,1.9c0,0.2-0.3,0.3-0.4,0.3c-0.7,0-1.3,0-2,0
		c-0.4,0-0.5-0.2-0.4-0.5c0.3-1.5,0.6-3,0.9-4.4c0.1-0.3,0.2-0.5,0.5-0.5C89.8,19.2,90.6,19.1,91.4,19.1z"/>
	<path class="st0" d="M83.8,19.1c-0.2,0.9-0.3,1.7-0.5,2.6c-0.2,0.8-0.4,1.6-0.5,2.3c-0.1,0.4-0.3,0.5-0.6,0.5c-0.6,0-1.2,0-1.9,0
		c-0.4,0-0.5-0.1-0.4-0.5c0.3-1.5,0.6-3.1,1-4.6c0-0.1,0.2-0.3,0.3-0.3C82,19.1,82.8,19.1,83.8,19.1z"/>
	<path class="st0" d="M87.8,19.5c-0.3,1.3-0.5,2.5-0.8,3.7c0,0.1-0.3,0.3-0.4,0.3c-0.7,0-1.4,0-2.1,0c-0.3,0-0.4-0.2-0.3-0.5
		c0.2-1.1,0.4-2.2,0.7-3.3c0-0.1,0.2-0.3,0.3-0.3C86,19.5,86.8,19.5,87.8,19.5z"/>
	<path class="st0" d="M43.6,29.8c-1.2,0-1.1,0.1-0.9-1c0.2-0.9,0.4-1.9,0.6-2.8c0.1-0.5,0.3-0.6,0.8-0.6c0.4,0,0.7,0,1.1,0
		c0.3,0,0.5,0.1,0.4,0.5c-0.2,1.1-0.5,2.2-0.7,3.3c-0.1,0.5-0.4,0.8-0.9,0.7C43.8,29.8,43.7,29.8,43.6,29.8z"/>
</g>
<path class="st0" d="M88.6,38.6c0.2-0.2,0.4-0.4,0.6-0.6c1.6-1.9,3.3-3.7,4.9-5.6c0.3-0.4,0.7-0.6,1.2-0.5c0.7,0,1.3,0,2.2,0
	c-0.2,0.3-0.3,0.5-0.5,0.6c-1.7,1.9-3.4,3.9-5.2,5.8c-0.2,0.2-0.5,0.4-0.8,0.4c-0.8,0.1-1.5,0-2.3,0C88.7,38.7,88.6,38.6,88.6,38.6z
	"/>
<path class="st0" d="M90.1,31.3c0.5-0.6,1-1.1,1.4-1.6c1.4-1.6,2.9-3.2,4.3-4.8c0.1-0.1,0.3-0.3,0.4-0.3c0.9,0,1.7,0,2.6,0
	c0,0.1,0,0.1,0.1,0.2c-0.5,0.5-0.9,1.1-1.4,1.6c-1.4,1.6-2.8,3.2-4.2,4.7c-0.1,0.1-0.2,0.3-0.4,0.3C92,31.3,91.1,31.3,90.1,31.3z"/>
<path class="st0" d="M91.8,23.7c0.5-0.6,1-1.1,1.5-1.7c1.3-1.5,2.7-3,4.1-4.5c0.2-0.2,0.5-0.4,0.8-0.4c0.7-0.1,1.5,0,2.4,0
	c-0.5,0.6-0.9,1.1-1.4,1.6c-1.4,1.6-2.9,3.2-4.3,4.8c-0.2,0.2-0.5,0.3-0.8,0.4c-0.8,0-1.5,0-2.3,0C91.8,23.8,91.8,23.7,91.8,23.7z"
	/>
<path class="st0" d="M10.7,37.6c0,0,0.1,0.2,0.2,0.3c0.1,0.1,0.2,0.3,0.3,0.4c0.3,0.4,0.6,0.7,0.9,1.1c0.4,0.5,0.9,1,1.5,1.3
	c0.3,0.2,0.7,0.3,1.1,0.3c0.3,0,0.8,0.1,1-0.2l-0.5-0.1c-0.2-0.1-0.3-0.2-0.5-0.3c-0.2-0.2-0.4-0.7-0.2-1c0.1-0.2,0.5-0.2,0.7-0.1
	c0.2,0.1,0.4,0.4,0.6,0.6c1.2,1.4,2.9,2.1,4.6,1.3c-0.1,0-0.4-0.1-0.5-0.1c-0.6-0.1-1.5-0.4-1.8-1.1c-0.1-0.4,0.7-0.1,0.9,0
	c0.7,0.3,1.5,0.5,2.2,0.6c0.8,0.1,1.7,0,2.5-0.2c-0.3,0-0.7,0-1-0.1c-0.2,0-0.4,0-0.6-0.1s-0.6-0.3-0.2-0.4c0.6-0.1,1.1-0.2,1.7-0.4
	s1.3-0.5,1.9-0.8c1.1-0.5,2.1-1.2,3-1.9c0.2-0.2,0.4-0.4,0.5-0.6c0,0-0.2,0.1-0.3,0.1c-0.1,0-0.3,0.1-0.4,0.2
	c-0.3,0.1-0.5,0.2-0.8,0.4c-1,0.4-2,0.8-3,0.9c-1.5,0.3-3,0.3-4.4-0.1c-0.5-0.2-1-0.3-1.5-0.5c-0.3-0.1-0.5-0.2-0.7-0.4
	c-0.2-0.1-0.4-0.3-0.7-0.4c-0.3-0.1-0.7,0.3-1,0.4c-0.7,0.3-1.4,0.6-2.1,0.7C13,37.6,12,37.6,11,37.6C10.8,37.7,10.8,37.6,10.7,37.6
	z"/>
<path class="st0" d="M27.4,27.9c0.1,1.2-0.7,2.2-1.6,2.8c-0.9,0.6-2,0.9-3.1,0.9c-0.1,0-0.3-0.1-0.5,0s0.4,0.3,0.5,0.4
	c0.3,0.1,0.7,0.2,1,0.2c0.7,0.1,1.3,0,2-0.2c0.1,0,0.6-0.1,0.7-0.2c-0.3,0.6-1.2,1-1.7,1.3c-0.6,0.3-1.4,0.4-2.1,0.5
	c-0.8,0-1.5-0.1-2.3-0.1c0.1,0,0.2,0.1,0.3,0.2c0.1,0.1,0.3,0.1,0.4,0.2c0.3,0.1,0.6,0.2,0.8,0.3c0.6,0.2,1.2,0.3,1.8,0.3
	c0.7,0,1.8,0,2.4-0.4l-0.1,0.1c-0.6,0.7-1.3,1.1-2.1,1.3c-0.2,0-0.4,0.1-0.5,0.1c-0.5,0.1-1,0.1-1.5,0.1s-1.1,0-1.6,0s-1,0-1.5-0.2
	c0,0-0.1,0-0.1-0.1c0.1,0.1,0.2,0.2,0.3,0.2c0.1,0.1,0.2,0.1,0.4,0.2c0,0,0.1,0,0.2,0.1c0.1,0,0.1,0,0.2,0.1c0.1,0,0.3,0.1,0.4,0.1
	c0.3,0.1,0.5,0.1,0.8,0.2c0.3,0.1,0.5,0.1,0.8,0.1c1,0.2,2.1,0.1,3.1,0c1-0.2,2-0.5,2.9-0.9c1.1-0.5,2.1-1.3,2.9-2.2
	c0.4-0.5,0.8-1,1.1-1.5c0.3-0.5,0.6-1,0.8-1.6c0-0.1,0-0.2-0.1-0.2c-0.2-0.6-0.4-0.8-0.8-1.1c-0.7-0.5-1.1-0.7-2-0.9
	c-0.1,0-0.3-0.1-0.4-0.1c-0.5,0-0.8,0-1.3,0.1c-0.1,0-0.1,0-0.2,0C27.4,27.8,27.4,27.8,27.4,27.9z"/>
<path class="st0" d="M10.7,28.9c2.7-0.1,4-1.3,6-3c0.7-0.6,1.4-1.2,2-1.7c1.3-1.1,2.7-2.1,4.2-2.9c1.6-0.8,3.3-1.1,5-0.6
	s3.1,1.7,3.9,3.3c0.1,0.3,0.3,0.6,0.4,0.8c0.3,0.8,0.5,1.7,0.5,2.6s0,1.8-0.4,2.6c0-0.1,0-0.2-0.1-0.2c-0.2-0.4-0.4-0.9-0.8-1.1
	c-0.9-0.6-1.2-0.7-2-0.9c-0.1,0-0.3-0.1-0.4-0.1c-1-0.1-2,0.2-2.9,0.6c-2.1,1.1-4.1,3.5-6,4.9c-2,1.5-4.1,2.7-6.6,3.3
	c-2,0.4-5.5,0.3-6.2-2.1c2,0.9,4.1,1.2,6.3,0.6c3.3-1,5.8-3.5,8.4-5.6c2-1.7,5.6-4.2,8.4-2.8c-0.2-1.1-2.1-1.6-3.1-1.5
	c-0.3,0-0.5,0-0.8,0.1c-1.7,0.3-3.2,1.3-4.4,2.4c-2.2,1.9-4.2,3.9-6.7,5.2s-6.2,2-8.4-0.2c-0.3-0.3-0.5-0.6-0.7-0.9
	C6.1,31.3,6,31.1,6,30.9c0-0.1,0-0.5,0-0.6c0.8,1.5,3.2,1.9,4.7,1.8c3.7-0.1,6.7-2.9,9.3-5.2c0.9-0.7,1.7-1.5,2.7-2.1
	c0.2-0.1,0.4-0.3,0.6-0.4c1.6-0.9,3.4-1.6,5.2-1.2c0.3,0.1,0.6,0.2,0.8,0.3c0.2,0.1,0.5,0.1,0.6,0.3c-0.3-0.8-0.9-1.5-1.6-1.9
	c-0.9-0.4-1.9-0.4-2.9-0.1c-1.9,0.5-3.5,1.5-5,2.8c-3.3,2.7-8.2,8.3-12.9,5.2l0,0c-0.7-0.5-1.3-1.3-1.4-2.1c-0.1-1,0.2-1.9,0.6-2.8"
	/>
<path class="st0" d="M6.8,25c0.2-0.6,0.5-1,0.9-1.4c0.3-0.5,0.8-0.9,1.2-1.3c2.8-2.6,7.9-3.4,11-1.1c0.5,0.3,1,0.8,1,0.8
	c-0.9-0.8-2.7-1-3.8-1.1c-2.1-0.2-5.3,0-6.7,1.9c0.6-0.8,2.2-0.9,3.1-1c1.7-0.2,3.8-0.1,5.1,1c0.5,0.4,0.5,0.7,0.5,0.7
	s-0.3-0.1-0.8-0.3c-1.4-0.5-2.9-0.6-4.3-0.3c-0.7,0.1-1.4,0.3-2,0.6c-0.4,0.2-1.7,1-1.3,1.6c-0.1-0.2,1.7-0.9,1.8-1
	c1.5-0.5,3.5-0.5,4.7,0.7c-0.3-0.3-1-0.2-1.4-0.2c-1.3-0.1-2.6,0.5-3.6,1.3c-0.5,0.4-0.8,0.9-1.1,1.4c-0.2,0.4-0.6,1.4-0.4,1.8
	c0,0,0,0-0.7,0.1c-0.8,0-1.3,0.1-2.2-0.3c-0.8-0.3-0.9-0.9-1-1.1c-0.1-0.1-0.2-0.5-0.2-1.1C6.6,25.9,6.6,25.4,6.8,25z"/>
<path class="st0" d="M36.1,19.6c0,0,0.3-0.1,0.4-0.1c0.1,0,0.2-0.1,0.3-0.2c0.7-0.5,1.2-2,0.3-2.6c-0.8-0.5-1.6,0.1-2.3,0.3
	c-0.6,0.1-1.2-0.2-1.5-0.7c-0.4-0.6-0.3-1.4,0.1-1.9l0.1-0.1c0.5-0.4,1.1-0.7,1.6-1c0.1,0,0.1,0,0.2-0.1c0.7-0.3,1.5-0.6,2.3-0.8
	s1.6-0.5,2.4-0.7c0.7-0.2,1.4-0.3,1.9-0.8c0.1-0.1,0.1-0.1,0.2-0.2c0.5-0.5,0.5-1.2,0.2-1.8c-0.1-0.2-0.3-0.5-0.6-0.6
	c-0.6-0.3-1,0.3-1.2,0.7s-0.5,0.8-0.7,1.2c-0.3,0.4-0.7,0.7-1.2,0.8c-1.5,0.5-3,0.8-4.5,1.3c-0.7,0.2-1.4,0.5-1.9,1s-0.9,1.1-1,1.8
	c-0.1,0.5-0.1,1.1,0.1,1.6c0.1,0.4,0.3,0.7,0.6,1c0.4,0.5,1,0.7,1.7,0.9c0.7,0.1,1.3,0,2-0.2c0.2-0.1,0.7-0.4,0.8,0
	c0.1,0.2,0,0.4,0,0.6C36.1,19.2,36.1,19.4,36.1,19.6z"/>
<path class="st0" d="M33.9,11.8c0.1-0.1,0.2-0.3,0.3-0.4c0.3-0.7,0.1-1.6-0.5-2.1c-0.6-0.5-1.4-0.6-2.1-0.4c-0.3,0-0.5,0.1-0.8,0.2
	c-0.1,0-0.1,0.1-0.2,0.1c-0.3,0.1-0.7,0.3-1,0.5c-1,0.5-1.9,1-2.9,1.4c-0.5,0.2-1,0.4-1.5,0.5s-1.1,0.2-1.7,0.2
	c-0.6,0.1-1.3,0.1-1.9,0.1s-1.4,0-2,0.1l0.2,0.2c0.1,0.1,0.2,0.1,0.3,0.1c1.3,0.3,1.5,0.3,2.9,0.3c1,0,1.9,0,3.1-0.2
	c1.6-0.2,3.1-0.9,4.5-1.6c0.3-0.2,0.7-0.4,1-0.5c0.2-0.1,0.4-0.2,0.6-0.2c0.1,0,0.5-0.2,0.6-0.1c0,0-0.1,0.1-0.2,0.1
	c-0.1,0.1-0.1,0.1-0.2,0.2c-0.2,0.2-0.3,0.4-0.3,0.7s0,0.5,0.2,0.8c0.3,0.4,0.9,0.4,1.3,0.3C33.6,12.1,33.8,12,33.9,11.8z"/>
<path class="st0" d="M31.8,19.1c0.1,0,0.1,0.1,0.2,0.1C32,19.2,31.9,19.2,31.8,19.1z"/>
<path class="st0" d="M30,17.1c-0.8-1.5,0.1-4,0.1-4s-2.6-0.7-3.2,1.7c-0.3,0.7-3.1,1.7-5.8,0.1c0,0.1-0.4,0.6,1.7,1.5
	c2.1,0.8,4.7-0.2,4.7-0.2s-3,3.3-6.3,0.9c-1.3-0.9-4.9-3.5-6.3-1.9c-0.2,0.2-0.4,0.4-0.7,0.5C13.6,15.9,13,16,12.3,16
	c-0.3,0-0.6,0-0.8,0c-0.1,0-0.3,0-0.4,0c-0.1,0-0.2,0.2,0,0.2c0.2,0.1,0.4,0.1,0.6,0.1c0.8,0.1,1.7,0.1,2.5,0c0.2,0,0.4-0.1,0.6-0.2
	c0.1,0,0.2,0.1,0.1,0.2l0,0c-0.8,0.4-1.8,0.4-2.6,0.5c-0.9,0-1.9,0-2.8,0.1c-0.6,0-1.2,0.1-1.7,0.4c-1,0.5-1.7,1.5-2.8,1.9
	c-0.5,0.2-1,0.2-1.5,0.2c-0.3,0-0.7,0-1,0.1l0,0C3.2,20,4.1,20.1,5,19.8c0.8-0.2,1.5-0.6,2.2-1c0.3-0.2,1.1-0.4,1.3,0
	c0.2,0.5-0.4,0.8-0.7,0.9c-0.9,0.4-1.9,0.5-2.8,1c-1.5,0.8-3,2.1-3.7,3.7C1,25,0.9,25.6,0.9,26.2c0,0.1,0,0.5,0.2,0.5
	c0.1,0,0.2-0.4,0.2-0.5c0.4-1.4,1.7-2.4,2.9-3C4.5,23,5.1,23,4.9,23.5c-0.2,0.6-0.8,1-1.1,1.5c-1,1.7-0.9,3.8-0.3,5.6
	c0.2,0.5,0.4,1,0.6,1.5c0.2,0.4,0.3,0.8,0.5,1.2c0,0.1,0.2,0.1,0.2,0s0-0.2,0-0.4c-0.3-1-0.7-2.4-0.1-3.4C4.5,29.5,5,29.4,5,29
	c-0.3-1.4-0.4-2.8,0.2-4.1C6,23.2,7,21.8,8.4,20.7c1.1-0.8,2.3-1.4,3.5-1.8c1.5-0.4,3.1-0.5,4.7-0.3c1.7,0.3,3.1,1.2,4.7,1.5
	c1.8,0.3,3.6,0.2,5.3-0.4c1.7-0.6,3.3-1.5,5.1-0.5C31.2,18.8,30.6,18.4,30,17.1z"/>
<path class="st0" d="M32,19.2c0.1,0,0.1,0.1,0.1,0.1C32.1,19.3,32.1,19.3,32,19.2z"/>
<path class="st0" d="M25.4,13.5c0,0-5.4,0.4-8.3-0.7c-0.1,0-0.1,0.1,0,0.1c1.5,0.5,4.9,1.8,6.3,2C24.5,15.1,26.6,14.6,25.4,13.5z"/>
<g>
	<path class="st0" d="M53.4,13.4c-1.2-0.2-1.9-0.9-3-1.2c-0.9-0.3-1.8-0.3-2.8,0.1c-0.2,0.1-0.8,0.3-1,0.4l0,0
		c0.9-2,4.4-1.6,4.4-1.6c-2.1-1.3-5,0-5,0c-0.4,0.1-0.9,0.3-1.3,0.5c-0.6-0.1-1.2,0-1.9,0.1c-1.7,0.4-2.9,1.5-3.6,3.1
		c-1.1,2.4,0.3,5.1,3,5c1.6,0,3.2-0.9,4.2-2.3c1.9-0.2,3.6-1,5.3-1.7c-0.5,0.2-1.3,0.2-1.8,0.1c-0.5,0-1.1,0-1.6-0.2
		c-0.3-0.1-0.6-0.5-0.5-0.8c0.1-1,1.8-1.1,2.5-1c1,0.1,2,0.4,2.9,0.3c0.7,0,1.4-0.2,2.1-0.4c0.8-0.3,1.3-0.8,2-1.1
		C56.1,13.4,54.7,13.7,53.4,13.4z M45.3,15.4c-0.4,1.5-2,2.6-3.5,2.6c-2,0.1-3-1.9-2.2-3.6c0.5-1.1,1.4-1.9,2.6-2.2
		c0.9-0.2,1.9-0.2,2.6,0.6C45.5,13.6,45.6,14.5,45.3,15.4z"/>
	<path class="st0" d="M43.2,12.7c-0.5,0-0.9,0.1-1.2,0.3c-0.4,0.2-0.7,0.6-0.9,0.9c-0.1,0.2-0.1,0.4,0,0.6c0,0.1,0.2,0.3,0.3,0.4
		c-0.3,0.1-0.5,0.2-0.7,0.4s-0.3,0.4-0.4,0.7c-0.1,0.3-0.1,0.5,0,0.8c0.1,0.2,0.2,0.4,0.4,0.5s0.6,0.2,1.1,0.2c0.3,0,0.5,0,0.8-0.1
		c0.2-0.1,0.5-0.1,0.7-0.2s0.4-0.3,0.5-0.5c0.2-0.2,0.3-0.4,0.4-0.6c0.1-0.2,0.1-0.5,0-0.7S44,15,43.8,14.9c0.2-0.1,0.4-0.3,0.5-0.4
		c0.2-0.2,0.3-0.4,0.4-0.6c0.1-0.4,0.1-0.7-0.2-0.9C44.2,12.8,43.8,12.7,43.2,12.7z M42.8,16c-0.1,0.2-0.2,0.4-0.3,0.5
		c-0.2,0.1-0.3,0.2-0.5,0.2s-0.3-0.1-0.4-0.2c-0.1-0.1-0.1-0.3,0-0.5c0.1-0.2,0.2-0.4,0.3-0.5c0.2-0.1,0.3-0.2,0.5-0.2
		s0.3,0.1,0.4,0.2C42.8,15.6,42.8,15.8,42.8,16z M43.3,14c0,0.2-0.1,0.3-0.3,0.4c-0.1,0.1-0.3,0.1-0.4,0.1c-0.2,0-0.3,0-0.4-0.1
		c-0.1-0.1-0.1-0.2,0-0.4s0.1-0.3,0.3-0.4c0.1-0.1,0.3-0.1,0.4-0.1c0.2,0,0.3,0,0.3,0.1C43.4,13.7,43.4,13.8,43.3,14z"/>
</g>
<g>
	<path class="st0" d="M82.7,11.1l-0.1,2.3l1.3-2.3h0.6l-0.1,2.3l1.3-2.3h0.7l-2,3.1h-0.6l0.1-2.3l-1.3,2.3H82v-3.1H82.7z"/>
	<path class="st0" d="M87.2,11.1l-0.1,2.3l1.3-2.3H89l-0.1,2.3l1.3-2.3h0.7l-2,3.1h-0.6l0.1-2.3l-1.3,2.3h-0.6v-3.1H87.2z"/>
	<path class="st0" d="M91.6,11.1l-0.1,2.3l1.3-2.3h0.6l-0.1,2.3l1.3-2.3h0.7l-2,3.1h-0.6l0.1-2.3l-1.3,2.3H91v-3.1H91.6z"/>
	<path class="st0" d="M95.7,13.5c0.1,0.1,0.1,0.2,0,0.3c0,0.1-0.1,0.2-0.2,0.3s-0.2,0.1-0.4,0.1c-0.1,0-0.2,0-0.3-0.1
		c-0.1-0.1-0.1-0.2,0-0.3c0-0.1,0.1-0.2,0.2-0.3s0.2-0.1,0.4-0.1S95.7,13.4,95.7,13.5z"/>
	<path class="st0" d="M99.1,9.9l-1.3,4.3h-0.7l1.1-3.5c-0.3,0.2-0.7,0.4-1.1,0.5l0.2-0.7c0.2,0,0.4-0.1,0.7-0.3
		c0.2-0.1,0.5-0.3,0.6-0.4L99.1,9.9L99.1,9.9z"/>
	<path class="st0" d="M101.5,9.9l-1.3,4.3h-0.7l1.1-3.5c-0.3,0.2-0.7,0.4-1.1,0.5l0.2-0.7c0.2,0,0.4-0.1,0.7-0.3
		c0.2-0.1,0.5-0.3,0.6-0.4L101.5,9.9L101.5,9.9z"/>
	<path class="st0" d="M104.7,10.2c0.2,0.2,0.2,0.5,0.1,0.8c-0.1,0.2-0.2,0.4-0.3,0.6c-0.2,0.2-0.3,0.3-0.6,0.4l0,0
		c0.2,0.1,0.3,0.2,0.4,0.4s0.1,0.4,0,0.7c-0.1,0.4-0.4,0.7-0.7,0.9c-0.3,0.2-0.8,0.4-1.2,0.4c-0.5,0-0.8-0.1-1-0.4
		c-0.2-0.2-0.2-0.5-0.1-0.9c0.1-0.3,0.2-0.5,0.5-0.7c0.2-0.2,0.4-0.3,0.6-0.4l0,0c-0.2-0.1-0.3-0.2-0.3-0.4s0-0.3,0-0.6
		c0.1-0.3,0.3-0.6,0.6-0.8c0.3-0.2,0.7-0.4,1.2-0.4C104.2,9.9,104.5,10,104.7,10.2z M102.3,12.5c-0.2,0.1-0.3,0.3-0.4,0.6
		c-0.1,0.2,0,0.4,0.1,0.5s0.3,0.2,0.6,0.2c0.3,0,0.5-0.1,0.7-0.2c0.2-0.1,0.3-0.3,0.4-0.5s0.1-0.4,0-0.5c-0.1-0.2-0.3-0.2-0.6-0.2
		C102.7,12.3,102.5,12.3,102.3,12.5z M102.9,10.6c-0.2,0.1-0.3,0.3-0.3,0.4c-0.1,0.2-0.1,0.4,0,0.5s0.3,0.2,0.6,0.2
		c0.3,0,0.5-0.1,0.7-0.2c0.1-0.1,0.2-0.3,0.3-0.5c0.1-0.2,0-0.3-0.1-0.4c-0.1-0.1-0.3-0.2-0.5-0.2C103.3,10.4,103.1,10.5,102.9,10.6
		z"/>
	<path class="st0" d="M108.3,11h-0.7c0-0.4-0.1-0.6-0.5-0.6c-0.3,0-0.5,0.1-0.8,0.4c-0.2,0.3-0.4,0.6-0.5,1v0.1l0,0
		c0.2-0.2,0.4-0.3,0.6-0.4c0.2-0.1,0.4-0.1,0.6-0.1c0.4,0,0.7,0.1,0.8,0.4c0.2,0.3,0.2,0.6,0,1c-0.1,0.4-0.4,0.8-0.7,1.1
		c-0.4,0.3-0.8,0.4-1.2,0.4c-0.5,0-0.8-0.2-1-0.6c-0.1-0.4-0.1-0.9,0.1-1.5c0.2-0.7,0.5-1.3,0.9-1.7s0.9-0.7,1.3-0.7
		C108.1,9.9,108.4,10.2,108.3,11z M105.9,12.2c-0.2,0.2-0.3,0.4-0.4,0.7s-0.1,0.5,0,0.6c0.1,0.2,0.3,0.2,0.5,0.2s0.5-0.1,0.7-0.3
		s0.3-0.4,0.4-0.7s0.1-0.5,0-0.6c-0.1-0.2-0.3-0.2-0.5-0.2C106.3,12,106.1,12,105.9,12.2z"/>
	<path class="st0" d="M108.9,13.5c0.1,0.1,0.1,0.2,0,0.3c0,0.1-0.1,0.2-0.2,0.3s-0.2,0.1-0.4,0.1s-0.2,0-0.3-0.1
		c-0.1-0.1-0.1-0.2,0-0.3c0-0.1,0.1-0.2,0.2-0.3s0.2-0.1,0.4-0.1S108.9,13.4,108.9,13.5z"/>
	<path class="st0" d="M112.7,11.3c0.2,0.2,0.2,0.5,0.2,0.9h-0.6c0-0.2,0-0.3-0.1-0.4c-0.1-0.1-0.2-0.1-0.4-0.1
		c-0.2,0-0.5,0.1-0.7,0.3s-0.3,0.5-0.4,0.8s-0.1,0.6,0,0.8s0.2,0.3,0.5,0.3c0.4,0,0.7-0.2,0.9-0.7h0.6c-0.2,0.4-0.4,0.7-0.7,0.9
		c-0.3,0.2-0.6,0.3-1,0.3c-0.5,0-0.8-0.2-0.9-0.5c-0.2-0.3-0.2-0.7,0-1.2c0.1-0.5,0.4-0.9,0.7-1.2c0.4-0.3,0.8-0.5,1.2-0.5
		C112.2,11,112.5,11.1,112.7,11.3z"/>
	<path class="st0" d="M116.1,11.5c0.2,0.3,0.2,0.7,0,1.2c-0.1,0.5-0.4,0.9-0.8,1.2s-0.8,0.5-1.2,0.5c-0.5,0-0.8-0.2-0.9-0.5
		c-0.2-0.3-0.2-0.7,0-1.2c0.1-0.5,0.4-0.9,0.8-1.2s0.8-0.5,1.2-0.5C115.6,11,115.9,11.2,116.1,11.5z M114.2,11.9
		c-0.2,0.2-0.3,0.4-0.4,0.7s-0.1,0.5,0,0.7s0.3,0.3,0.5,0.3c0.3,0,0.5-0.1,0.7-0.3s0.3-0.4,0.4-0.7s0.1-0.6,0-0.7
		c-0.1-0.2-0.3-0.3-0.5-0.3C114.7,11.6,114.4,11.7,114.2,11.9z"/>
	<path class="st0" d="M119.4,11.5c0.2-0.2,0.4-0.3,0.6-0.4c0.2-0.1,0.3-0.1,0.5-0.1c0.3,0,0.5,0.1,0.7,0.3c0.1,0.2,0.1,0.5,0,0.8
		l-0.6,2h-0.7l0.6-1.9c0.1-0.2,0.1-0.4,0-0.5s-0.2-0.2-0.4-0.2c-0.2,0-0.3,0.1-0.5,0.2c-0.2,0.1-0.3,0.3-0.3,0.5l-0.6,1.9H118
		l0.6-1.9c0.1-0.5,0-0.7-0.4-0.7c-0.2,0-0.4,0.1-0.5,0.2c-0.2,0.1-0.3,0.3-0.3,0.5l-0.6,1.9h-0.7l1-3.1h0.7l-0.1,0.3
		c0.3-0.3,0.6-0.4,0.9-0.4C119.1,11,119.3,11.2,119.4,11.5z"/>
</g>
</svg>
