<?xml version="1.0" encoding="utf-8"?>
<!-- Generator: Adobe Illustrator 21.1.0, SVG Export Plug-In . SVG Version: 6.00 Build 0)  -->
<svg version="1.1" id="圖層_1" xmlns="http://www.w3.org/2000/svg" xmlns:xlink="http://www.w3.org/1999/xlink" x="0px" y="0px"
	 viewBox="0 0 102 51" style="enable-background:new 0 0 102 51;" xml:space="preserve">
<style type="text/css">
	.st0{fill:#FFFFFF;}
</style>
<g>
	<path class="st0" d="M96.4,19.5l0.7-2.3H76.5l-0.7,2.3h6.3l-0.2,1.4h-5l-1.6,5.2h19c0,0,0.5-2,0.7-3.6c0.2-1.6-1.6-1.6-1.6-1.6
		h-3.6l0.2-1.4H96.4z M78.8,22.4h2.7L81.3,24h-2.7L78.8,22.4z M84,24l0.2-1.6h2.7L86.7,24H84z M84.7,20.9l0.2-1.4h2.7l-0.2,1.4
		C87.4,20.9,84.7,20.9,84.7,20.9z M91.2,22.4c0,0,1.1,0,0.9,0.7s-0.2,0.7-0.2,0.7h-2.5l0.2-1.6h1.6V22.4z"/>
	<polygon class="st0" points="94,27 75.4,27 74.7,29 93.5,29 	"/>
	<path class="st0" d="M73.1,32h3.2l-3.2,3.9H77l3.2-3.9c0,0,1.4,0,2.7,0c-0.2,2-1.4,2-1.4,2h-1.1l-0.7,1.8c0,0,0.9,0,2.9,0
		c2,0,2.3-1.1,2.3-1.1l0.5-2.7h1.8l1.6,3.9h3.2L90.1,32H94l0.7-2H73.8L73.1,32z"/>
	<polygon class="st0" points="53.8,17.2 52.9,19.5 65.2,19.5 66.1,17.2 	"/>
	<polygon class="st0" points="69,17.2 64.7,22.7 68.1,22.7 72.6,17.2 	"/>
	<polygon class="st0" points="69.5,22.7 64.3,29 67.7,29 73.1,22.7 	"/>
	<polygon class="st0" points="69.2,28.1 63.4,35.8 66.8,35.8 72.9,28.1 	"/>
	<polygon class="st0" points="52.9,20.6 55.4,20.6 55.9,24.5 53.4,24.5 	"/>
	<polygon class="st0" points="56.8,20.4 59.5,20.4 60,23.8 57.2,23.8 	"/>
	<polygon class="st0" points="62,20.4 60.4,24 62.7,24 64.7,20.4 	"/>
	<polygon class="st0" points="51.1,25.8 50.4,28.1 53.4,28.1 49.1,34.9 52.2,34.9 55.9,29.2 54.1,36.3 56.8,36.3 58.4,29.5 
		59.5,34.9 62.7,34.9 60.9,27.9 63.8,27.9 64.7,25.8 59.3,25.8 59.5,24.5 56.8,24.5 56.3,25.8 	"/>
	<path class="st0" d="M47.5,20.4l0.7-2.9H45l-0.9,2.9h-5.4l-0.5,2h5.4L43,25.4c0.5,0.7,0.9,1.6,0.9,2.7c0,1.8-1.1,3.4-2.7,4.1
		l-0.2,1.1c-0.2,0.7-0.7,1.1-1.4,1.1h-1.8l-0.5,1.8h3.2c1.8,0,2.9-0.9,3.6-2.9L47,22.4h1.6l0.5-2C49.1,20.4,47.5,20.4,47.5,20.4z"/>
	<path class="st0" d="M37.3,23.6l1.4-5.2h-7.7l-4.3,16.1h4.8c2,0,3.2-0.9,3.6-2.7l0.2-1.1c-0.5-0.7-0.9-1.6-0.9-2.7
		C34.6,26.1,35.7,24.5,37.3,23.6z M32.3,32c0,0.7-0.5,0.9-1.1,0.9H30l1.6-5.7h2L32.3,32z M31.8,25.4l1.4-4.8h2l-1.4,4.8H31.8z"/>
	<path class="st0" d="M43,27.9c0-2-1.8-3.9-3.9-3.9c-2,0-3.9,1.8-3.9,3.9s1.8,3.9,3.9,3.9C41.1,31.7,43,29.9,43,27.9z M37.1,26.5
		c-0.2-0.2,0-0.5,0-0.5h0.5l1.6,1.8l1.1-0.9c0.2-0.2,0.5,0,0.5,0c0.2,0.2,0,0.5,0,0.5l-1.6,1.1c-0.2,0.2-0.5,0-0.5,0L37.1,26.5z"/>
	<path class="st0" d="M27.5,20.4h-1.8l0.7-2.9h-3.2l-0.7,2.9h-5.4l-0.7,2h5.4l-0.7,2.9c0.5,0.7,0.9,1.6,0.9,2.7
		c0,1.8-1.1,3.4-2.7,4.1l-0.2,1.1c-0.2,0.7-0.7,1.1-1.4,1.1H16l-0.5,1.8h3.2c1.8,0,2.9-0.9,3.6-2.9l2.9-10.9h1.8L27.5,20.4z"/>
	<path class="st0" d="M15.5,23.6l1.4-5H9.2L4.9,34.7h4.8c2,0,3.2-0.9,3.6-2.7l0.2-1.4c-0.5-0.9-0.7-1.8-0.7-2.7
		C12.8,26.1,13.9,24.5,15.5,23.6z M10.5,32c-0.2,0.7-0.5,0.9-1.1,0.9H8l1.6-5.7h2L10.5,32z M10.1,25.4l1.4-4.8h2l-1.4,4.8H10.1z"/>
	<path class="st0" d="M21.2,27.9c0-2-1.8-3.9-3.9-3.9s-3.9,1.8-3.9,3.9s1.8,3.9,3.9,3.9C19.4,31.7,21.2,29.9,21.2,27.9z M15.3,26.5
		c-0.2-0.2,0-0.5,0-0.5h0.5l1.6,1.8l1.1-0.9c0.2-0.2,0.5,0,0.5,0c0.2,0.2,0,0.5,0,0.5l-1.6,1.1c-0.2,0.2-0.5,0-0.5,0L15.3,26.5z"/>
</g>
</svg>
