<?xml version="1.0" encoding="utf-8"?>
<!-- Generator: Adobe Illustrator 21.0.0, SVG Export Plug-In . SVG Version: 6.00 Build 0)  -->
<svg version="1.1" id="图层_1" xmlns="http://www.w3.org/2000/svg" xmlns:xlink="http://www.w3.org/1999/xlink" x="0px" y="0px"
	 width="59.4px" height="59.4px" viewBox="0 0 59.4 59.4" style="enable-background:new 0 0 59.4 59.4;" xml:space="preserve">
<style type="text/css">
	.st0{opacity:0.4;fill:#FDFDFF;enable-background:new    ;}
	.st1{fill:#FFFFFF;}
	.st2{fill:#F0F3F3;}
	.st3{fill:#52ACD3;}
	.st4{fill:#44475A;}
</style>
<title>pic_user</title>
<g id="图层_2">
	<g id="左側選單">
		<circle class="st0" cx="29.7" cy="29.7" r="29.7"/>
		<circle class="st1" cx="29.9" cy="29.6" r="24.3"/>
		<circle class="st2" cx="29.9" cy="29.6" r="21.5"/>
		<polygon class="st3" points="29.9,29.6 29.9,29.6 29.9,29.6 		"/>
		<polygon class="st3" points="29.9,29.6 29.9,29.6 29.9,29.6 		"/>
		<polygon class="st3" points="29.9,29.6 29.9,29.6 29.9,29.6 		"/>
		<polygon class="st3" points="29.9,29.6 29.9,29.6 29.9,29.6 		"/>
		<polygon class="st3" points="29.9,29.6 29.9,29.6 29.9,29.6 		"/>
		<polygon class="st3" points="29.9,29.6 29.9,29.6 29.9,29.6 		"/>
		<polygon class="st3" points="29.9,29.6 29.9,29.6 29.9,29.6 		"/>
		<circle class="st3" cx="29.9" cy="29.6" r="0"/>
		<circle class="st3" cx="29.9" cy="29.6" r="0"/>
		<polygon class="st3" points="29.9,29.6 29.9,29.6 29.9,29.6 29.9,29.6 29.9,29.6 29.9,29.6 		"/>
		<polygon class="st3" points="29.9,29.6 29.9,29.6 29.9,29.6 		"/>
		<polygon class="st3" points="29.9,29.6 29.9,29.6 29.9,29.6 		"/>
		<polygon class="st3" points="29.9,29.6 29.9,29.6 29.9,29.6 		"/>
		<circle class="st3" cx="29.9" cy="29.6" r="0"/>
		<polygon class="st3" points="29.9,29.6 29.9,29.6 29.9,29.6 		"/>
		<circle class="st3" cx="29.9" cy="29.6" r="0"/>
		<circle class="st3" cx="29.9" cy="29.6" r="0"/>
		<circle class="st3" cx="29.9" cy="29.6" r="0"/>
		<polygon class="st3" points="29.9,29.6 29.9,29.6 29.9,29.6 		"/>
		<polygon class="st3" points="29.9,29.6 29.9,29.6 29.9,29.6 		"/>
		<polygon class="st3" points="29.9,29.6 29.9,29.6 29.9,29.6 		"/>
		<circle class="st3" cx="29.9" cy="29.6" r="0"/>
		<polygon class="st3" points="29.9,29.6 29.9,29.6 29.9,29.6 		"/>
		<polygon class="st3" points="29.9,29.6 29.9,29.6 29.9,29.6 		"/>
		<polygon class="st3" points="29.9,29.6 29.9,29.6 29.9,29.6 		"/>
		<polygon class="st3" points="29.9,29.6 29.9,29.6 29.9,29.6 		"/>
		<circle class="st3" cx="29.9" cy="29.6" r="0"/>
		<polygon class="st3" points="29.9,29.6 29.9,29.6 29.9,29.6 		"/>
		<polygon class="st3" points="29.9,29.6 29.9,29.6 29.9,29.6 		"/>
		<circle class="st3" cx="29.9" cy="29.6" r="0"/>
		<polygon class="st3" points="29.9,29.6 29.9,29.6 29.9,29.6 		"/>
		<polygon class="st3" points="29.9,29.6 29.9,29.6 29.9,29.6 		"/>
		<circle class="st3" cx="29.9" cy="29.6" r="0"/>
		<circle class="st3" cx="29.9" cy="29.6" r="0"/>
		<path class="st3" d="M29.9,29.6L29.9,29.6l-19.2,5.1c0.5,1.7,1.1,3.3,2,4.8L29.9,29.6L29.9,29.6z"/>
		<path class="st3" d="M29.9,29.6l-5.1-19.2c-1.7,0.5-3.3,1.1-4.8,2L29.9,29.6L29.9,29.6z"/>
		<path class="st4" d="M12.7,39.5c0.9,1.5,1.9,2.9,3.1,4.1l14-14L12.7,39.5z"/>
		<path class="st3" d="M29.9,29.6l-19.2-5.1c-0.4,1.7-0.7,3.4-0.7,5.1H29.9z"/>
		<path class="st3" d="M29.9,29.6L29.9,29.6l-14,14c1.2,1.2,2.6,2.3,4.1,3.2L29.9,29.6L29.9,29.6z"/>
		<path class="st4" d="M29.9,29.6l-9.9-17.2c-1.5,0.9-2.9,1.9-4.1,3.2L29.9,29.6L29.9,29.6z"/>
		<path class="st4" d="M12.7,19.6c-0.9,1.5-1.5,3.1-2,4.8l19.2,5.1L12.7,19.6z"/>
		<path class="st3" d="M29.9,29.6l-14-14c-1.2,1.2-2.3,2.6-3.1,4.1L29.9,29.6L29.9,29.6z"/>
		<path class="st4" d="M29.9,29.6H10c0,1.7,0.2,3.5,0.7,5.1L29.9,29.6z"/>
		<path class="st3" d="M29.9,29.6l14,14c1.2-1.2,2.3-2.6,3.1-4.1L29.9,29.6z"/>
		<path class="st4" d="M19.9,46.8c1.5,0.9,3.1,1.5,4.8,2l5.1-19.2L19.9,46.8z"/>
		<path class="st4" d="M29.9,29.6l9.9,17.2c1.5-0.9,2.9-1.9,4.1-3.2L29.9,29.6L29.9,29.6z"/>
		<path class="st4" d="M29.9,29.6L29.9,29.6L47,39.5c0.9-1.5,1.5-3.1,2-4.8L29.9,29.6z"/>
		<path class="st3" d="M35,48.8c1.7-0.5,3.3-1.1,4.8-2l-9.9-17.2L35,48.8z"/>
		<path class="st3" d="M29.9,29.6L29.9,29.6l-5.1,19.2c1.7,0.5,3.4,0.7,5.1,0.7l0,0C29.9,49.4,29.9,29.6,29.9,29.6z"/>
		<path class="st4" d="M29.9,29.6L29.9,29.6v19.8c1.7,0,3.5-0.2,5.1-0.7L29.9,29.6z"/>
		<path class="st4" d="M29.9,29.6h19.8c0-1.7-0.2-3.5-0.7-5.1L29.9,29.6z"/>
		<circle class="st3" cx="29.9" cy="29.6" r="0"/>
		<polygon class="st3" points="29.9,29.6 29.9,29.6 29.9,29.6 29.9,29.6 29.9,29.6 		"/>
		<polygon class="st3" points="29.9,29.6 29.9,29.6 29.9,29.6 		"/>
		<circle class="st3" cx="29.9" cy="29.6" r="0"/>
		<polygon class="st3" points="29.9,29.6 29.9,29.6 29.9,29.6 		"/>
		<polygon class="st3" points="29.9,29.6 29.9,29.6 29.9,29.6 		"/>
		<polygon class="st3" points="29.9,29.6 29.9,29.6 29.9,29.6 29.9,29.6 29.9,29.6 		"/>
		<circle class="st3" cx="29.9" cy="29.6" r="0"/>
		<circle class="st3" cx="29.9" cy="29.6" r="0"/>
		<path class="st3" d="M29.9,29.6l14-14c-1.2-1.2-2.6-2.3-4.1-3.1L29.9,29.6z"/>
		<path class="st3" d="M29.9,29.6L49,34.7c0.5-1.7,0.7-3.4,0.7-5.1L29.9,29.6L29.9,29.6z"/>
		<path class="st3" d="M29.9,29.6L35,10.4c-1.7-0.5-3.4-0.7-5.1-0.7V29.6L29.9,29.6z"/>
		<path class="st4" d="M29.9,29.6L29.9,29.6l9.9-17.2c-1.5-0.9-3.1-1.5-4.8-2L29.9,29.6z"/>
		<path class="st4" d="M29.9,9.7L29.9,9.7c-1.7,0-3.5,0.2-5.1,0.7l5.1,19.2V9.7z"/>
		<path class="st4" d="M29.9,29.6L47,19.6c-0.9-1.5-1.9-2.9-3.2-4.1L29.9,29.6L29.9,29.6z"/>
		<path class="st3" d="M49,24.4c-0.5-1.7-1.1-3.3-2-4.8l-17.1,9.9L49,24.4z"/>
		<circle class="st2" cx="29.9" cy="29.6" r="17.2"/>
		<circle class="st3" cx="29.9" cy="29.6" r="15.8"/>
		<path class="st1" d="M9.1,17.6l-3.6-2.1c-2.5,4.3-3.8,9.2-3.8,14.1h4.2C5.8,25.4,7,21.2,9.1,17.6z"/>
		<path class="st3" d="M17.9,50.3L15.8,54c4.3,2.5,9.2,3.8,14.1,3.8v-4.2C25.6,53.6,21.5,52.5,17.9,50.3z"/>
		<path class="st1" d="M29.9,53.6v4.2c5,0,9.8-1.3,14.1-3.8l-2.1-3.7C38.2,52.5,34.1,53.6,29.9,53.6z"/>
		<path class="st1" d="M9.1,41.6l-3.6,2.1c2.5,4.3,6,7.8,10.3,10.3l2.1-3.7C14.2,48.2,11.2,45.2,9.1,41.6z"/>
		<path class="st3" d="M41.9,50.3L44,54c4.3-2.5,7.8-6,10.3-10.3l-3.7-2.1C48.5,45.2,45.5,48.2,41.9,50.3z"/>
		<path class="st1" d="M53.9,29.6c0,4.2-1.1,8.4-3.2,12l3.7,2.1c2.5-4.3,3.8-9.2,3.8-14.1H53.9z"/>
		<path class="st3" d="M53.9,29.6h4.2c0-5-1.3-9.8-3.8-14.1l-3.7,2.1C52.8,21.2,53.9,25.4,53.9,29.6z"/>
		<path class="st3" d="M5.8,29.6H1.6c0,5,1.3,9.8,3.8,14.1l3.6-2.1C7,37.9,5.8,33.8,5.8,29.6z"/>
		<path class="st3" d="M41.9,8.8L44,5.1c-4.3-2.5-9.2-3.8-14.1-3.8v4.2C34.1,5.6,38.2,6.7,41.9,8.8z"/>
		<path class="st1" d="M50.6,17.6l3.7-2.1c-2.5-4.3-6-7.8-10.3-10.3l-2.1,3.6C45.5,10.9,48.5,13.9,50.6,17.6z"/>
		<path class="st3" d="M17.9,8.8l-2.1-3.6c-4.3,2.5-7.8,6-10.3,10.3l3.6,2.1C11.2,13.9,14.2,10.9,17.9,8.8z"/>
		<path class="st1" d="M29.9,5.6V1.4c-5,0-9.8,1.3-14.1,3.8l2.1,3.7C21.5,6.7,25.6,5.6,29.9,5.6z"/>
		<ellipse transform="matrix(0.9649 -0.2627 0.2627 0.9649 -13.0577 11.5504)" class="st3" cx="36.7" cy="54.6" rx="0.9" ry="0.9"/>
		<ellipse transform="matrix(0.9649 -0.2625 0.2625 0.9649 -0.3793 6.2068)" class="st3" cx="23" cy="4.5" rx="0.9" ry="0.9"/>
		<ellipse transform="matrix(0.7071 -0.7071 0.7071 0.7071 -30.5194 22.1654)" class="st3" cx="11.5" cy="47.9" rx="0.9" ry="0.9"/>
		<ellipse transform="matrix(0.7071 -0.7071 0.7071 0.7071 6.1976 37.3765)" class="st3" cx="48.2" cy="11.2" rx="0.9" ry="0.9"/>
		<ellipse transform="matrix(0.2568 -0.9665 0.9665 0.2568 5.8133 80.0317)" class="st3" cx="54.9" cy="36.2" rx="0.9" ry="0.9"/>
		<ellipse transform="matrix(0.2568 -0.9665 0.9665 0.2568 -18.5898 21.6269)" class="st3" cx="4.8" cy="22.9" rx="0.9" ry="0.9"/>
		<path class="st1" d="M36.8,28c-1-0.6-2.2-0.8-3.3-0.5c1.7-2,1.4-4.9-0.6-6.6s-4.9-1.4-6.6,0.6c-1.4,1.7-1.4,4.2,0,6
			c-2.5-0.6-5,1-5.6,3.5c-0.6,2.5,1,5,3.5,5.6c2.1,0.5,4.2-0.5,5.2-2.4c-0.6,1.8-1.6,3.5-2.8,4.9h6.6c-1.2-1.5-2.2-3.1-2.8-4.9
			c1.2,2.3,4,3.1,6.3,1.9c2.3-1.2,3.1-4,1.9-6.3C38.1,29.1,37.5,28.4,36.8,28z"/>
	</g>
</g>
</svg>
